<svg xmlns="http://www.w3.org/2000/svg" width="24" height="21" viewBox="0 0 24 21">
    <g id="Group_1473" data-name="Group 1473" transform="translate(-311 -456)">
        <path id="heart-solid" d="M21.658,33.4a6.41,6.41,0,0,0-8.747.637l-.923.952-.923-.952A6.41,6.41,0,0,0,2.318,33.4a6.731,6.731,0,0,0-.464,9.745l9.07,9.365a1.47,1.47,0,0,0,2.123,0l9.07-9.365a6.727,6.727,0,0,0-.459-9.745Z" transform="translate(311.012 424.033)" fill="#db0962"/>
        <path id="Path_450" data-name="Path 450" d="M434.556,442.248l-9.038,9.365-9.074-9.365a5.221,5.221,0,0,1,.361-7.557c2.568-2.193,5.586-.6,6.693.539l2,2.068,2-2.068c1.087-1.125,4.134-2.718,6.693-.539a5.226,5.226,0,0,1,.361,7.557Zm.614-8.7a6.41,6.41,0,0,0-8.747.632l-.923.957-.923-.952c-1.912-1.978-5.771-3.168-8.747-.637a6.725,6.725,0,0,0-.465,9.74l9.071,9.365a1.473,1.473,0,0,0,1.059.456,1.458,1.458,0,0,0,1.059-.456l9.071-9.365a6.718,6.718,0,0,0-.456-9.74Z" transform="translate(-102.499 23.891)" fill="#fff"/>
    </g>
</svg>