<svg xmlns="http://www.w3.org/2000/svg" width="30" height="30" viewBox="0 0 30 30">
    <g fill="#FFF" fill-rule="nonzero">
        <path d="M24.75 25.532L23.662 1.675c-.048-1.06-.88-1.803-1.856-1.657L6.683 2.273c-.976.145-1.73 1.123-1.68 2.184l1.086 23.857c.045 1.002.79 1.72 1.697 1.672 0 0 12.49.035 13.416-.007.91-.041 2.538-.182 2.488-2.482.655-.374 1.097-1.144 1.06-1.965zM14.544 5.918c3.842-.58 7.115 2.333 7.311 6.504.195 4.171-2.76 8.022-6.602 8.601-3.842.58-7.116-2.333-7.311-6.504-.196-4.172 2.76-8.022 6.602-8.601zm7.888 23.047c-.38.251-.955.278-1.264.292-.495.022-8.807.054-12.735.048l14.53-1.574c-.032.903-.4 1.148-.531 1.234zm-4.214-16.428l-2.876.429-.13-2.837a7.073 7.073 0 0 0 1.967-.762c.14.23.904 1.574 1.04 3.17zm-5.457-3.381a10.025 10.025 0 0 1 1.394-1.778l.086 1.882a5.348 5.348 0 0 1-1.48-.104zm3.752-2.125a5.157 5.157 0 0 1 1.499.569 6.814 6.814 0 0 1-.54.444c-.29-.371-.611-.71-.959-1.013zm-1.346 2.09l-.086-1.881c.305.189 1.124.78 1.536 1.341-.466.244-.951.425-1.45.54zm-1.849 9.4c.427-.212.869-.371 1.323-.477l.075 1.657c-.585-.348-1.232-.994-1.398-1.18zm4.687-9.698c.276-.207.539-.435.787-.679 1.11.932 1.87 2.335 2.05 4.002l-1.696.253a8.46 8.46 0 0 0-1.14-3.576zm-6.413 5.714l2.87-.428.132 2.928a7.045 7.045 0 0 0-1.868.707 7.385 7.385 0 0 1-1.134-3.207zm.277-5.658a5.23 5.23 0 0 1-.573-.278 6.639 6.639 0 0 1 1.427-1.005 9.892 9.892 0 0 0-.854 1.283zm-1.258 4.792l-1.696.253a7.465 7.465 0 0 1 1.66-4.555c.268.167.547.313.838.437a9.813 9.813 0 0 0-.802 3.865zm-1.64 1.257l1.693-.252c.144 1.351.576 2.573 1.226 3.601a8.082 8.082 0 0 0-.753.627c-1.15-.905-1.954-2.302-2.167-3.976zm4.312 4.982a5.163 5.163 0 0 1-1.334-.48c.159-.136.324-.265.494-.386.258.314.54.603.84.866zm1.003-9.643l.13 2.837-2.877.429c-.059-1.463.62-3.167.738-3.435a6.186 6.186 0 0 0 2.01.169zm1.235 6.632l-.134-2.928 2.87-.427c-.019.836-.227 2.359-.829 3.5a6.18 6.18 0 0 0-1.907-.145zm2.304 1.343c.179.069.353.147.522.235a6.624 6.624 0 0 1-1.273.868c.273-.349.525-.717.75-1.103zm-.911-.258c-.147.234-.733 1.074-1.272 1.58l-.075-1.657c.457-.031.907-.005 1.347.077zm2.27-4.579l1.694-.252a7.468 7.468 0 0 1-1.778 4.564 5.995 5.995 0 0 0-.799-.395 9.833 9.833 0 0 0 .884-3.917z"/>
    </g>
</svg>
