<svg xmlns="http://www.w3.org/2000/svg" xmlns:xlink="http://www.w3.org/1999/xlink" width="36" height="24" viewBox="0 0 36 24">
  <defs>
    <linearGradient id="linear-gradient" x1="0.937" y1="-0.16" x2="-0.138" y2="1.369" gradientUnits="objectBoundingBox">
      <stop offset="0" stop-color="#bf9e53"/>
      <stop offset="0.31" stop-color="#b48811"/>
      <stop offset="0.621" stop-color="#d5b76c"/>
      <stop offset="1" stop-color="#a77f15"/>
    </linearGradient>
  </defs>
  <g id="Group_2393" data-name="Group 2393" transform="translate(-19 -879)">
    <rect id="Rectangle_147" data-name="Rectangle 147" width="36" height="24" rx="2" transform="translate(19 879)" fill="url(#linear-gradient)"/>
    <path id="Path_585" data-name="Path 585" d="M-12.145-9.814h2.758l2.45,7.1,2.464-7.1h2.632L-5.677,0h-2.66Zm11.228,0H1.645V0H-.917Zm8.778,0a4.291,4.291,0,0,1,2.912.9A3.191,3.191,0,0,1,11.809-6.37a3.49,3.49,0,0,1-1.036,2.7,4.127,4.127,0,0,1-2.912.959H6.111V0H3.549V-9.814ZM7.735-4.76a1.726,1.726,0,0,0,1.211-.392,1.462,1.462,0,0,0,.427-1.134,1.4,1.4,0,0,0-.427-1.1A1.747,1.747,0,0,0,7.735-7.77H6.111v3.01Z" transform="translate(37.084 896)" fill="#fff"/>
  </g>
</svg>
