<svg xmlns="http://www.w3.org/2000/svg" width="118" height="100" viewBox="0 0 118 100">
    <g fill="none" fill-rule="evenodd">
        <path fill="#75706E" d="M113.564 72.726c-.174.181-.409.305-.626.438.027-.248.022-.505.121-.724.114-.247.366-.495.664-.219.059.057-.044.39-.16.505zm-1.184-2.238c-.519.714-.892 1.533-1.348 2.305-.374.628-.674 1.257-.51 1.885a2.29 2.29 0 0 1 .471-.171c2.56-.62 3.279-2.429 3.964-4.257-.472-1.067-1.731-.934-2.577.238z"/>
        <path fill="#75706E" d="M3.2 82.321c3.65-2.866 6.886-6.257 11.063-8.476 3.329-1.762 6.166-4.248 8.973-6.743 1.547-1.371 3.089-2.762 4.697-4.057 1.972-1.6 3.85-2.333 6.668-1.276 6.82 2.552 14.021 3.419 21.312 3.486 7.114.066 14.237.028 21.337.39 10.859.562 21.714.733 32.58.514.634-.01 1.258.029 1.937.572-1.96 3.666-4.633 6.59-7.734 9.085-5.539 4.477-10.67 9.39-15.82 14.277-2.229 2.114-4.537 3.123-7.639 2.838-5.4-.496-10.821-.696-16.205-1.467-2.545-.362-5.16-.257-7.745-.314-7.494-.162-14.948-.857-22.416-1.41-7.741-.562-15.412-1.638-23.133-2.285-2.614-.21-5.106-.896-7.48-1.924-1.813-.79-1.991-1.962-.396-3.21zm25.961-63.4c-.326-4.01.852-7.924.235-11.962-.165-1.085-.253-2.78.694-3.543.633-.495 1.464-.666 2.263-.79C42.52.95 52.843 1.988 63.06 2.474c12.155.58 24.413-.258 36.516.8 2.552.228 4.989.161 7.549-.01 2.172-.143 3.124.867 3.403 2.771.263 1.79.356 3.61-.05 5.4-.17.753-.547 1.496-.56 2.239-.143 8.266-1.34 16.485-.947 24.78.33 6.962-.078 13.972 1.416 20.848.054.257.018.524.028.781.162 3.952-.086 4.133-3.926 4.314-4.784.229-9.552-.123-14.328-.123-14.095-.334-28.174-1.19-42.28-1.229-5.21-.02-10.156-1.781-15.106-3.286-2.242-.685-2.83-2.476-3.115-4.466-.66-4.62-.805-9.267-1.039-13.924a737.56 737.56 0 0 0-1.46-22.448zm81.962 7.6c3.61 2.648 3.61 2.648 2.963 6.114-2.581-1.18-3.794-2.923-2.963-6.114zm3.275-.838c-2.371-1.038-2.371-1.038-2.692-3.695 2.217 1.867 2.217 1.867 2.692 3.695zm-2.477-9.476c2.55.676 2.907 2.305 2.357 4.648-1.815-1.124-3.427-2.115-2.357-4.648zm-.19-4.829c.087-.4.591-.647.887-.466 1.376.857 2.309 1.962 1.648 3.752-.233-.048-.372-.038-.482-.095-1.33-.648-2.441-1.467-2.053-3.19zm2.443-4.362c.077.21.154.42.215.629.134.457.234.933.312 1.4.07.419.115.838.153 1.257-1.113-.01-2.95-1.247-3-2.219-.114-2.162 1.472-.848 2.32-1.067zm-1.536 46.39c1.135.487 1.454 1.41 1.255 2.525-.081.457-.521.485-.899.314-.975-.438-1.148-1.324-1.134-2.248.007-.428.333-.647.778-.59zm-1.385-5.494c.148-.467.393-.857 1.088-.62 2.13.734 1.296 2.267 1.215 3.667-1.963-.257-2.917-1.124-2.303-3.047zm2.617-9.99c-.926.17-1.397-.506-1.903-1.048-.704-.753-1.381-1.572-.989-2.715.201-.58.718-.724 1.19-.324.854.734 2.74.496 2.351 2.42-.119.59.027 1.295-.65 1.666zm.374 21.761c-.148.19-.331.667-.582.705-.77.114-1.104-.438-1.128-1.114-.015-.42.307-.686.748-.658.571.029.913.324.962 1.067zm-.442-14.476c-2.724-1.752-2.82-1.943-2.331-5.314 3.302.504 3.39.742 2.331 5.314zm1.784 22.552c-.54.772-.87 1.686-1.208 2.59-.685 1.83-1.405 3.639-3.964 4.258a2.29 2.29 0 0 0-.471.171c-.251.115-.471.257-.47.372.042 2.98-3.534 3.057-4.292 5.428-.463 1.448-2.757.705-3.128 1.838-.99 3.048-4.485 3.4-5.945 6.134-.83 1.552-3.635 1.962-4.761 3.962-.227.41-.97.104-1.381-.257-.538-.467-.28-.82.15-1.23 2.412-2.323 4.756-4.713 7.205-7a146.951 146.951 0 0 1 6.677-5.847c2.994-2.466 5.986-4.895 8.03-8.295.642-1.067 1.695-1.886 2.559-2.819.333.229.666.467.999.695zM85.857 96.083c.516-1.819 1.124-2.419 2.168-2.733.296 1.514-.776 1.743-2.168 2.733zm-4.872 1.133c-1.668.096-3.323.534-5.009.21-1.723-.324-3.415-1.067-5.214-.248-.296.134-.95.067-1.099-.143-1.375-1.952-2.826-.79-4.353-.276-.795.267-2.004.438-2.343-.666-.696-2.277-1.694-1.153-2.688-.372-1.814 1.438-1.854 1.505-3.473-.238-.683-.733-1.309-.752-1.99-.267-1.855 1.343-3.507 1.22-5.119-.428-.891-.914-1.615.076-2.412.362-1.108.38-2.341 1.476-3.133-.534-.281-.714-1.021-.676-1.65-.276-.216.134-.373.372-.593.495-2.878 1.629-3.34 1.334-3.425-2.238 12.109.181 24.226.096 36.217 2.22 2.018.352 4.12.247 6.182.361.593.038.975.334.95.943-.02.534-.217 1.057-.848 1.095zM34.16 95.064c-.562.276-1.516.495-1.928-.514-.764-1.867-.773-1.886-2.145-1.067-1.606.952-3.189 2.2-3.84-.971-.141-.696-1.054-.467-1.629-.048-1.626 1.21-3.262 3.276-4.52-.448-.311-.914-1.363-.4-1.944.153-1.222 1.152-2.292 1.724-3.122-.381-.31-.781-.845-.667-1.54-.333-2.695 1.304-2.706 1.276-4.928-.63-.182-.151-.585-.37-.632-.323C5.823 92.75 4.928 88.588 3 89.56c-.319.162-.837-.61-.78-1.143.11-1.019.84-.723 1.448-.542 7.85 2.4 16.068 2.447 24.11 3.542 3.49.467 7.14.058 10.61 1.172-1.4.847-2.762 1.771-4.228 2.476zm-26.514-.762c2.76.6 5.6.79 8.437 1 7.473.553 14.875 1.848 22.37 2.276 2.971.172 5.921-.314 8.916.153 6.265.99 12.579 1.552 18.944 1.266 1.416-.066 2.87-.038 4.258.21 3.744.676 7.494.505 11.224.133 2.56-.257 5.095-1.133 7.244-2.428 2.861-1.715 5.48-3.905 7.992-6.124 5.788-5.133 11.484-10.362 17.148-15.629a13.69 13.69 0 0 0 1.036-1.076c.42-.486.783-.98 1.096-1.505 1.411-2.333 1.69-4.99.502-7.971-.438-1.095-.733-2.22-.678-3.4.289-6.067-.574-12.095-.119-18.2.488-6.552.54-13.276.256-19.838-.107-2.486-.426-4.772-.392-7.305a64.883 64.883 0 0 0-.555-9.4c-.268-2.019-.385-2.857-2.081-3.962-1.468-.962-3.351-1.6-5.118-1.324-3.748.59-7.49.438-11.236.286C86.153 1.035 75.42.407 64.68.131 55.747-.107 46.803.055 37.864.045c-2.21-.01-4.389.238-6.543.762-3.034.752-3.619 1.314-3.78 4.457-.093 1.8.234 3.62.102 5.41-.732 9.857.354 19.647 1.045 29.457.39 5.543.247 11.124 1.074 16.647.146.972.252 2.086-.711 2.877-5.115 4.161-9.732 9-15.398 12.409-3.807 2.295-7.201 5.048-10.549 7.886C1.462 81.34-.018 83.112 0 85.464c.047 6.286.946 7.371 7.646 8.838z"/>
        <path fill="#75706E" d="M53.183 80.158c-2.3-.076-4.601-.19-6.903-.257-1.621-.038-3.244 0-4.924 0 .151-.724.417-1 .95-.99.494.009.994-.048 1.48.018 3.334.4 6.683.258 10.027.334.16 0 .318.066.483.095.046.867-.564.819-1.113.8zm2.265-1.695c-4.228.18-8.45.019-12.66-.353-1.091-.095-1.786.257-2.331 1.124-.194.314-.612.553-.397.99.208.439.655.353 1.02.334 2.64-.076 5.26.238 7.89.343 1.533.066 3.063.19 4.595.276.484.02.99.086 1.32-.448.401-.638.842-1.266 1.274-1.904-.272-.372-.495-.372-.71-.362zM98.93 84.036c.295-.276.498-.666 1.085-.8-.303.505-.655.715-1.085.8zm.427-.961c-.635.504-1.266 1.019-1.914 1.523-.137.105-.308.162-.3.362.012.276.252.353.425.457.275.096.475-.019.64-.18.476-.458 1.064-.753 1.6-1.124.165-.115.316-.248.478-.362.334-.248.226-.505-.006-.715-.3-.276-.622-.21-.923.039zM94.93 87.358c-.145-.01-.207-.105-.165-.229.128-.352.394-.61.692-.829.11-.076.228.02.25.134.033.18-.6.914-.777.924zm1.414-1.239c-.337-.076-.57-.638-.954-.295-.398.353-.746.781-1.053 1.22-.205.294.252 1.075.57 1.056.122-.01.206-.085.28-.18.365-.43.74-.858 1.088-1.305.106-.143.304-.448.07-.496zM103.839 67.832c.813-.105 1.588.705 1.572 1.6-.084.714-.478 1.19-1.278 1.18-.934-.009-1.648-.418-1.732-1.418-.081-.953.651-1.267 1.438-1.362zm.208 4.048c1.479-.039 2.824-1.115 2.88-2.305.065-1.41-1.833-2.99-3.494-2.905-1.51.076-2.574 1.19-2.474 2.581.112 1.562 1.404 2.657 3.088 2.629zM49.227 87.08c-.266.276-.515.6-.927.58-3.4-.161-6.733-.714-10.14-1.495.993-2.866 2.658-4.19 5.485-3.914 2.627.267 5.27.4 7.947 1-.402 1.771-1.388 2.79-2.365 3.829zm2.66-5.362c-2.737-.267-5.484-.438-8.226-.658-1.53-.161-3.108-.295-4.35.8-1.293 1.134-2.178 2.639-2.949 4.143-.508 1 .18 1.686 1.163 1.81 3.763.495 7.534.914 11.302 1.371.594.076 1.227.057 1.547-.457.989-1.619 1.984-3.238 2.808-4.943.614-1.266.169-1.924-1.294-2.066zM33.604 64.265c-.85 1.086-1.668 1-2.626.79.508-1.476 1.455-1.056 2.626-.79zm1.255.924c.436-.343.705-.895.227-1.448-.334-.39-2.937-1.085-3.297-.828-1.045.752-2.26 1.41-2.265 2.98.516.477 1.193.334 1.775.496 1.414.39 2.529-.39 3.56-1.2zM35.455 10.93c.504-3.229.866-3.62 4.238-3.696 4.53-.114 9.062-.076 13.592-.124 10.098-.104 20.161.096 30.207 1.467 4.965.686 10.035 1.172 15.094.486.635-.086 1.294-.029 1.94.019 4.374.257 4.393.257 4.837 4.705 1.215 12.133 1.45 24.257-.294 36.362-.276 1.923-.438 3.876-.391 5.81.052 2.123-.709 2.932-2.887 3.066-6.08.371-12.16.01-18.235.19-11.908.429-23.785-.533-35.677-.8-4.36-.105-8.567-1.228-10.197-6.162-.701-2.123-.548-4.371-.506-6.552.178-9.076-.168-18.095-1.898-27.038-.494-2.553-.225-5.162.177-7.733zm-.225 32.457c-.072 3.514.146 6.962.41 10.428.037.476.172 1.162.504 1.381 2.325 1.534 4.068 3.8 7.128 4.42 5.376 1.085 10.825.79 16.215 1.161 8.355.581 16.777.143 25.17.22 5.691.056 11.382-.277 17.076.275 3.399.324 4.725-1.19 4.788-4.752.024-1.429-.02-2.876.21-4.267 2.187-13.276 1.33-26.59.365-39.885-.316-4.353-1.26-5.2-5.528-5.067-6.344.2-12.707.514-19.007-.238C73.41 5.968 64.255 5.5 54.45 5.806c-4.579 0-9.76-.057-14.94.019-3.51.057-4.1.638-5.152 4.047-1.05 3.41-1.34 6.838-.653 10.353 1.503 7.647 1.685 15.428 1.524 23.162z"/>
        <path fill="#75706E" d="M50.528 10.476c-4.422 1.62-10.956 6.229-12.433 8.772 2.553-.629 10.149-5.99 12.433-8.772M99.802 52.627c.653-.38 1.225-.914 1.808-1.4.424-.361.618-.866.293-1.342-.354-.515-.985-.4-1.386-.143-2.68 1.79-5.533 3.371-7.184 6.543 2.16-1.21 4.332-2.4 6.469-3.658M45.714 19.657c2.898-1.419 5.813-2.79 7.905-5.371-3.344.695-6.092 2.333-7.905 5.371M93.298 50.967c-.25-.457-.838-.666-1.296-.314-1.55 1.21-3.495 1.962-4.383 3.962 2.172-.276 3.86-1.314 5.37-2.638.237-.21.431-.781.31-1.01M85.694 51.213c.47-.286.702-.771.37-1.276-.328-.495-.898-.524-1.332-.2-1.598 1.21-3.158 2.467-4.732 3.705 2.549.266 4.005-1.21 5.694-2.229M51.429 21.295c2.254-1.447 4.642-2.105 6.143-5.105-3.724 1.334-4.876 2.324-6.143 5.105M40.27 65.218c-.85 1.085-1.667 1-2.626.79.508-1.476 1.456-1.057 2.626-.79zm1.256.923c.436-.342.704-.895.225-1.447-.333-.39-2.937-1.086-3.297-.829-1.044.753-2.258 1.41-2.264 2.981.516.476 1.193.333 1.775.495 1.415.39 2.53-.39 3.56-1.2zM46.936 66.173c-.85 1.076-1.666 1-2.626.79.509-1.476 1.457-1.057 2.626-.79zm1.256.924c.436-.343.704-.895.226-1.448-.333-.39-2.937-1.095-3.297-.828-1.045.752-2.26 1.41-2.264 2.971.515.476 1.193.343 1.774.495 1.416.39 2.53-.38 3.561-1.19zM52.65 67.125c-.848 1.077-1.666 1-2.624.79.507-1.475 1.455-1.056 2.624-.79zm1.257.924c.436-.343.703-.895.225-1.447-.333-.39-2.937-1.096-3.296-.829-1.045.752-2.259 1.41-2.265 2.971.517.477 1.194.343 1.775.496 1.415.39 2.53-.381 3.56-1.19zM59.317 67.122c-.85 1.086-1.667 1.01-2.626.8.509-1.476 1.457-1.057 2.626-.8zm1.256.933c.436-.343.704-.895.226-1.457-.333-.381-2.937-1.086-3.297-.829-1.045.762-2.26 1.42-2.264 2.981.515.477 1.192.334 1.774.496 1.416.39 2.53-.381 3.561-1.19zM65.984 67.122c-.85 1.086-1.667 1-2.626.79.509-1.476 1.456-1.047 2.626-.79zm1.256.924c.436-.343.704-.896.226-1.448-.334-.381-2.937-1.086-3.297-.829-1.045.753-2.259 1.41-2.264 2.981.516.477 1.193.334 1.774.496 1.415.39 2.53-.39 3.561-1.2zM71.698 68.078c-.85 1.076-1.667 1-2.626.79.509-1.476 1.457-1.057 2.626-.79zm1.256.924c.436-.343.704-.896.226-1.448-.333-.39-2.937-1.095-3.297-.829-1.045.753-2.258 1.41-2.264 2.972.515.476 1.193.343 1.774.495 1.416.39 2.53-.38 3.561-1.19zM78.365 68.078c-.849 1.076-1.667 1-2.625.79.508-1.476 1.455-1.057 2.625-.79zm1.256.924c.436-.343.705-.896.226-1.448-.334-.39-2.937-1.095-3.297-.829-1.044.753-2.259 1.41-2.264 2.972.516.476 1.193.333 1.774.495 1.415.39 2.53-.38 3.561-1.19zM85.031 68.078c-.85 1.076-1.666 1-2.624.79.507-1.476 1.455-1.057 2.624-.79zm1.257.924c.436-.343.703-.896.225-1.448-.333-.39-2.937-1.095-3.297-.829-1.045.753-2.258 1.41-2.264 2.972.517.476 1.194.333 1.775.495 1.415.39 2.53-.38 3.56-1.19zM91.698 69.027c-.85 1.085-1.667 1-2.626.8.509-1.486 1.457-1.058 2.626-.8zm1.256.923c.436-.342.704-.885.226-1.447-.333-.381-2.937-1.086-3.297-.829-1.045.753-2.258 1.41-2.264 2.981.515.476 1.192.333 1.774.495 1.416.39 2.53-.39 3.561-1.2zM28.841 68.075c-.849 1.085-1.667 1-2.625.79.508-1.476 1.455-1.057 2.625-.79zm1.256.924c.436-.343.705-.896.226-1.448-.333-.39-2.936-1.086-3.296-.829-1.045.753-2.26 1.41-2.265 2.981.516.476 1.193.334 1.774.496 1.415.39 2.53-.39 3.561-1.2zM31.93 69.818c.508-1.477 1.456-1.058 2.625-.79-.85 1.075-1.667 1-2.625.79zm.81-2.143c-1.045.752-2.259 1.41-2.264 2.98.515.467 1.193.334 1.774.496 1.415.38 2.53-.39 3.561-1.2.436-.343.704-.895.226-1.448-.333-.39-2.937-1.085-3.297-.828zM38.597 70.773c.508-1.476 1.455-1.057 2.626-.79-.85 1.076-1.668 1-2.626.79zm.81-2.143c-1.044.753-2.258 1.41-2.264 2.972.516.476 1.193.342 1.775.495 1.414.39 2.529-.381 3.56-1.19.436-.343.705-.896.226-1.448-.333-.39-2.936-1.095-3.296-.829zM45.264 71.725c.507-1.476 1.455-1.057 2.625-.79-.85 1.076-1.667 1-2.625.79zm.81-2.142c-1.045.752-2.259 1.41-2.264 2.971.516.476 1.193.333 1.774.495 1.415.39 2.53-.38 3.56-1.19.437-.343.705-.895.226-1.448-.333-.39-2.937-1.095-3.297-.828zM51.93 71.731c.508-1.485 1.457-1.057 2.626-.8-.85 1.086-1.667 1-2.626.8zm.811-2.152c-1.045.752-2.26 1.419-2.265 2.98.516.477 1.194.334 1.775.496 1.415.39 2.529-.38 3.56-1.2.437-.333.705-.886.226-1.447-.332-.381-2.936-1.086-3.296-.83zM57.644 72.674c.508-1.476 1.456-1.057 2.626-.79-.85 1.085-1.668 1-2.626.79zm.81-2.143c-1.044.753-2.259 1.41-2.264 2.981.516.476 1.193.334 1.775.496 1.415.39 2.53-.391 3.56-1.2.436-.343.705-.896.226-1.448-.333-.381-2.937-1.086-3.297-.829zM64.31 72.678c.509-1.476 1.457-1.057 2.626-.79-.85 1.076-1.667 1-2.626.79zm.811-2.143c-1.045.752-2.26 1.41-2.264 2.971.515.477 1.193.343 1.774.496 1.416.39 2.53-.381 3.561-1.19.436-.344.704-.896.226-1.448-.333-.39-2.937-1.096-3.297-.829zM70.978 72.684c.508-1.476 1.455-1.057 2.625-.8-.85 1.085-1.667 1.01-2.625.8zm.81-2.153c-1.045.762-2.258 1.42-2.264 2.981.516.476 1.193.334 1.774.496 1.415.39 2.53-.381 3.561-1.191.436-.343.704-.895.226-1.457-.334-.381-2.937-1.086-3.297-.829zM80.27 72.84c-.85 1.076-1.667 1-2.626.79.508-1.476 1.456-1.057 2.626-.79zm1.256.924c.435-.343.704-.896.225-1.448-.333-.39-2.937-1.095-3.297-.829-1.044.753-2.258 1.41-2.264 2.972.516.476 1.193.333 1.775.495 1.415.39 2.53-.38 3.56-1.19zM86.937 72.836c-.85 1.086-1.667 1-2.626.79.508-1.476 1.457-1.047 2.626-.79zm1.255.924c.437-.343.705-.886.226-1.448-.332-.38-2.936-1.085-3.296-.828-1.045.752-2.26 1.41-2.265 2.98.516.477 1.193.334 1.775.496 1.415.39 2.529-.39 3.56-1.2zM24.079 72.837c-.85 1.076-1.667 1-2.625.79.508-1.476 1.456-1.057 2.625-.79zm1.256.923c.436-.342.704-.895.226-1.447-.333-.39-2.937-1.086-3.297-.829-1.045.753-2.258 1.41-2.264 2.981.516.467 1.193.334 1.774.486 1.416.39 2.53-.381 3.561-1.19zM30.747 72.84c-.85 1.076-1.668 1-2.626.79.508-1.476 1.455-1.057 2.626-.79zm-1.816-1.353c-1.044.753-2.259 1.41-2.264 2.972.516.476 1.193.343 1.775.495 1.414.39 2.528-.38 3.56-1.19.436-.343.705-.896.226-1.448-.333-.39-2.937-1.095-3.297-.829zM36.46 74.744c-.849 1.077-1.667 1-2.625.791.508-1.476 1.455-1.057 2.625-.79zm-1.814-1.352c-1.045.752-2.26 1.41-2.265 2.972.516.476 1.193.333 1.774.495 1.415.39 2.53-.381 3.561-1.19.436-.344.705-.896.226-1.448-.333-.39-2.936-1.096-3.296-.829zM43.127 74.74c-.85 1.087-1.667 1.01-2.626.8.509-1.475 1.456-1.056 2.626-.8zm-1.816-1.352c-1.044.762-2.258 1.42-2.263 2.981.515.477 1.192.334 1.774.496 1.415.39 2.53-.381 3.56-1.19.436-.344.705-.896.227-1.448-.334-.39-2.938-1.096-3.298-.839zM49.793 75.693c-.848 1.086-1.666 1-2.624.79.507-1.475 1.455-1.047 2.624-.79zm-1.814-1.352c-1.045.752-2.259 1.41-2.265 2.98.516.477 1.194.334 1.775.496 1.415.39 2.53-.39 3.56-1.2.437-.343.705-.886.226-1.448-.333-.38-2.936-1.085-3.296-.828zM55.509 75.694c-.85 1.085-1.668 1-2.626.79.507-1.476 1.455-1.057 2.626-.79zm-1.816-1.353c-1.044.753-2.259 1.41-2.264 2.981.516.477 1.193.334 1.775.496 1.414.39 2.528-.39 3.56-1.2.436-.343.705-.896.226-1.448-.333-.39-2.937-1.086-3.297-.829zM62.175 75.697c-.85 1.076-1.667 1-2.625.79.507-1.476 1.455-1.057 2.625-.79zm-1.815-1.353c-1.045.753-2.259 1.41-2.265 2.972.516.476 1.194.333 1.775.495 1.415.39 2.529-.38 3.56-1.19.437-.343.705-.896.226-1.448-.332-.39-2.936-1.095-3.296-.829zM68.841 75.693c-.85 1.086-1.667 1-2.626.8.509-1.485 1.456-1.057 2.626-.8zm-1.815-1.352c-1.045.752-2.258 1.419-2.264 2.98.515.477 1.193.334 1.774.496 1.415.39 2.53-.38 3.561-1.2.436-.333.704-.886.226-1.448-.333-.38-2.937-1.085-3.297-.828zM75.508 76.646c-.85 1.085-1.668 1.01-2.626.8.508-1.477 1.456-1.058 2.626-.8zm-1.816-1.353c-1.044.762-2.259 1.42-2.263 2.981.515.476 1.192.333 1.774.495 1.414.39 2.528-.38 3.56-1.19.436-.343.705-.895.227-1.448-.334-.39-2.938-1.095-3.298-.838zM79.55 77.436c.507-1.476 1.455-1.048 2.624-.79-.848 1.085-1.666 1-2.624.79zm4.106-1.314c-.332-.381-2.936-1.086-3.296-.829-1.045.753-2.259 1.41-2.265 2.981.516.476 1.194.334 1.775.495 1.415.39 2.529-.39 3.56-1.2.437-.342.705-.895.226-1.447zM98.366 69.983c-.85 1.076-1.668 1-2.626.79.508-1.476 1.456-1.057 2.626-.79zm1.256.923c.435-.342.704-.895.226-1.447-.334-.39-2.938-1.095-3.298-.829-1.044.753-2.259 1.41-2.264 2.972.516.476 1.193.333 1.775.495 1.414.39 2.529-.381 3.56-1.19zM90.978 74.588c.508-1.476 1.455-1.057 2.625-.8-.849 1.086-1.667 1.01-2.625.8zm.81-2.152c-1.044.762-2.258 1.42-2.264 2.981.516.476 1.193.333 1.774.495 1.415.39 2.53-.38 3.561-1.19.436-.343.705-.895.226-1.448-.334-.39-2.936-1.095-3.296-.838zM86.216 78.398c.508-1.476 1.455-1.057 2.625-.8-.849 1.086-1.667 1-2.625.8zm.81-2.152c-1.045.752-2.258 1.419-2.264 2.98.516.477 1.193.334 1.774.496 1.415.39 2.53-.381 3.561-1.19.436-.344.704-.896.226-1.458-.333-.38-2.937-1.086-3.297-.828zM57.644 81.246c.508-1.477 1.456-1.048 2.626-.79-.85 1.085-1.667 1-2.626.79zm.81-2.143c-1.044.752-2.258 1.41-2.264 2.98.516.477 1.193.334 1.775.496 1.415.39 2.53-.39 3.56-1.2.436-.343.705-.895.226-1.448-.333-.38-2.937-1.085-3.297-.828zM64.311 81.246c.508-1.476 1.456-1.057 2.625-.79-.848 1.085-1.666 1-2.625.79zm.81-2.143c-1.045.753-2.258 1.41-2.264 2.981.516.476 1.193.334 1.774.495 1.416.391 2.53-.39 3.561-1.2.437-.342.705-.895.226-1.447-.333-.39-2.937-1.086-3.297-.829zM70.025 81.246c.508-1.477 1.456-1.058 2.625-.79-.849 1.085-1.666 1-2.625.79zm.81-2.143c-1.045.752-2.258 1.41-2.264 2.98.516.477 1.194.334 1.775.496 1.415.39 2.53-.39 3.56-1.2.437-.343.704-.895.226-1.448-.333-.38-2.937-1.085-3.297-.828zM77.644 82.202c.508-1.477 1.456-1.058 2.626-.79-.85 1.075-1.668 1-2.626.79zm.81-2.143c-1.044.752-2.259 1.41-2.264 2.971.516.476 1.193.343 1.775.495 1.415.39 2.53-.38 3.56-1.19.436-.343.705-.895.226-1.448-.333-.39-2.937-1.095-3.297-.828zM84.311 82.199c.508-1.477 1.456-1.058 2.626-.79-.85 1.085-1.667 1-2.626.79zm.81-2.143c-1.044.752-2.258 1.41-2.264 2.98.516.477 1.193.334 1.775.496 1.415.39 2.529-.39 3.56-1.2.437-.343.705-.895.226-1.448-.332-.39-2.936-1.085-3.296-.828zM19.317 76.65c-.85 1.075-1.667 1-2.625.79.508-1.476 1.456-1.057 2.625-.79zm1.256.923c.437-.343.704-.895.226-1.448-.333-.39-2.937-1.095-3.297-.828-1.045.752-2.258 1.41-2.264 2.971.516.476 1.193.334 1.774.496 1.416.39 2.53-.381 3.561-1.19zM23.359 77.44c.508-1.476 1.455-1.057 2.625-.79-.849 1.075-1.667 1-2.625.79zm.81-2.143c-1.044.752-2.259 1.41-2.264 2.971.516.476 1.193.334 1.774.496 1.415.39 2.53-.381 3.561-1.19.436-.344.705-.896.226-1.449-.334-.39-2.936-1.095-3.296-.828zM29.073 79.35c.508-1.476 1.456-1.057 2.625-.8-.848 1.086-1.667 1-2.625.8zm.81-2.152c-1.045.752-2.258 1.419-2.264 2.98.516.477 1.193.334 1.774.496 1.416.39 2.53-.38 3.561-1.19.436-.343.704-.896.226-1.457-.333-.381-2.937-1.086-3.297-.829zM35.74 79.341c.508-1.476 1.455-1.057 2.625-.79-.849 1.076-1.667 1-2.625.79zm4.107-1.314c-.333-.39-2.937-1.086-3.297-.828-1.044.752-2.259 1.41-2.264 2.98.516.477 1.193.334 1.774.496 1.415.39 2.53-.39 3.561-1.2.436-.343.705-.896.226-1.448zM78.675 41.26c.05-.209-.045-.285-.242-.304-.318-.038-.305.238-.333.39-.036.19.15.21.318.239.347.076.206-.191.257-.324"/>
        <path fill="#FA8D86" d="M60.499 23.96c1.537-1.009 4.163-.837 5.846.63.994.866 2.212 1.514 2.935 2.685.193.314.42.61.648.933.41-.228.716-.476.832-1.009.148-.686.717-1.162 1.24-1.6 1.643-1.352 3.466-2.362 5.637-2.533 1.803-.143 3.71 1.447 4.007 3.447.306 2.067-1.127 5.45-2.516 7.002-2.269 2.543-4.122 7.884-6.835 9.932-.884.666-1.522.657-2.386.21-2.244-1.172-4.641-5.152-6.854-6.37-2.002-1.105-3.732-4.355-4.433-6.66-.872-2.866-.91-4.838 1.879-6.666z"/>
    </g>
</svg>
