<svg xmlns="http://www.w3.org/2000/svg" width="30" height="26" viewBox="0 0 30 26" class="article-icon">
    <path fill-rule="nonzero" d="M24 .002c.83 0 1.5.672 1.5 1.498V15a1.5 1.5 0 0 1-1.5 1.5h-5.379l-2.56 2.56c-.293.293-.677.44-1.061.44-.384 0-.768-.145-1.06-.438l-2.561-2.56H6a1.5 1.5 0 0 1-1.5-1.5v-13.5c0-.829.67-1.5 1.5-1.5h6a1.5 1.5 0 0 1 1.06.438L15 2.378 16.94.441c.281-.282.661-.44 1.06-.44h6zM15 25.5c-.316 0-.633-.099-.9-.3L8.499 21H1.5A1.5 1.5 0 0 1 0 19.5V3h3v15h6c.325 0 .64.105.9.3l5.1 3.825 5.1-3.825c.26-.195.574-.3.9-.3h6V3h3v16.5a1.5 1.5 0 0 1-1.5 1.5h-6.999L15.9 25.2c-.267.201-.584.3-.9.3z"/>
</svg>
