<svg xmlns="http://www.w3.org/2000/svg" xmlns:xlink="http://www.w3.org/1999/xlink" width="50" height="50" viewBox="0 0 50 50">
    <defs>
        <circle id="a" cx="25" cy="25" r="25"/>
    </defs>
    <g fill="none" fill-rule="evenodd">
        <use fill="#B8B358" xlink:href="#a"/>
        <g fill="#FFF" fill-rule="nonzero">
            <path d="M27.602 34.43c-.167.386-.306.732-.465 1.068-.124.26-.166.636-.578.603-.336-.027-.407-.324-.51-.59-.27-.699-.567-1.388-.914-2.23-.11.348-.198.59-.262.839-.17.657-.324 1.319-.496 1.976-.05.194-.118.389-.214.564-.238.435-.628.457-.893.041-.119-.188-.176-.416-.245-.631-.141-.45-.272-.902-.428-1.425-.195.141-.327.247-.47.339-.32.206-.642.413-.972.606-.233.135-.523.217-.695-.025-.108-.152-.087-.415-.064-.623.018-.168.125-.326.193-.49 1.094-2.657 2.189-5.314 3.28-7.973.026-.063.018-.14.041-.357-.173.235-.268.357-.356.484-.921 1.33-1.687 2.768-2.856 3.927-1.029 1.019-2.18 1.855-3.63 2.173-1.66.364-3.167.014-4.404-1.164-.683-.651-.888-1.501-.822-2.423.112-1.584.82-2.941 1.667-4.247.123-.19.259-.373.425-.611-.365-.216-.71-.418-1.053-.623-1.424-.85-2.428-2.02-2.737-3.655a7.75 7.75 0 0 1 .146-3.591c.547-1.914 2.32-3.28 4.364-3.381 2.52-.124 4.597.813 6.303 2.603 1.284 1.348 2.213 2.89 2.702 4.68.072.264.191.516.3.8.977-.278 1.944-.357 2.971-.007.08-.225.162-.451.24-.679.73-2.115 1.857-3.978 3.655-5.394 1.889-1.488 4.025-2.098 6.413-1.539 2.212.52 3.337 2.79 2.468 4.86-.501 1.192-1.319 2.149-2.325 2.959-.614.494-1.24.973-1.903 1.491.446.417.89.817 1.318 1.233.736.716 1.304 1.554 1.77 2.456.748 1.45.626 2.794-.466 4.063-.916 1.065-1.983 1.815-3.448 1.885a3.715 3.715 0 0 1-.761-.034c-2.126-.342-3.949-1.225-5.304-2.912-.502-.625-.981-1.266-1.47-1.9l-.16.066c.126.524.202 1.065.386 1.569.628 1.727 1.297 3.44 1.944 5.162.108.288.399.614.022.883-.375.27-.595-.092-.846-.288a6.95 6.95 0 0 0-.492-.357c-.1-.065-.217-.108-.37-.181zM12.764 18.227l.093.054c-.073.147-.134.302-.22.441-.293.473-.6.938-.893 1.411-.428.691-.42.721.223 1.337l.747-1.134c.232-.353.462-.708.751-1.012l.123.094-1.44 2.449.692.618 1.29-2.176.155.08-1.13 2.327c.552.3 1.06.58 1.57.854.65.349.712.58.229 1.083-.77.8-1.292 1.748-1.737 2.742-.109.242-.173.505-.257.758l.129.062c.49-.681.978-1.363 1.467-2.044l.133.078c-.103.184-.196.376-.312.553-.459.698-.917 1.397-1.39 2.085-.308.446-.373.882-.03 1.385.353-.57.668-1.115 1.021-1.635.357-.526.753-1.028 1.131-1.54l.12.084-2.137 3.653.587.522c.41-1.006.824-1.916 1.476-2.71l-1.241 2.883.89.366c.232-.459.43-.865.642-1.263.21-.393.433-.778.65-1.166l.152.083-1.142 2.463 1.331.068c.204-1.005.641-1.826 1.122-2.632-.057.864-.736 1.56-.723 2.498.207-.052.331-.076.452-.114 1.146-.358 2.067-1.1 2.798-1.957 1.112-1.305 2.042-2.759 3.05-4.15-.745-.898-.657-1.8-.336-2.717.1-.284.208-.57.354-.833.159-.285.169-.54.077-.858-.6-2.072-1.593-3.905-3.184-5.427-1.067-1.02-2.337-1.622-3.748-1.972-1.173-.29-2.293-.071-3.341.494-1.368.737-2.184 2.498-1.83 3.997l1.728-2.045.119.094c-.108.158-.207.323-.325.473-.392.498-.767 1.011-1.193 1.48-.503.555-.556 1.128-.194 1.832l1.5-2.016zm16.576 7.292l.123.094-1.172 1.955.696.87c.21-.373.364-.658.53-.937.155-.26.314-.52.487-.769.17-.246.308-.527.666-.622l-1.486 2.616.616.75c.235-.446.416-.827.633-1.186.212-.353.462-.685.696-1.025l.137.083-1.236 2.328c.178.159.307.327.478.418.787.416 1.555.895 2.388 1.196 1.792.648 3.131.2 4.369-1.233.914-1.058 1.042-2.18.344-3.335-.52-.858-1.151-1.659-1.8-2.43-.404-.48-.906-.888-1.63-.892-.14-.001-.346-.216-.397-.372-.037-.111.124-.295.217-.433.037-.057.133-.073.194-.118.96-.712 1.943-1.398 2.873-2.147a5.608 5.608 0 0 0 1.86-2.72c.449-1.428-.455-3.024-1.926-3.354-1.332-.299-2.642-.204-3.898.38-1.452.674-2.652 1.657-3.49 2.985-.792 1.253-1.447 2.59-2.128 3.828 1.255 1.7 1.196 3.263-.084 4.778l.71 1.064 1.23-1.772zm-4.327.424c.895.221 1.549-.136 2.029-.636.78-.812.804-1.756.362-2.74-.266-.595-.753-1.073-1.527-1.091-.17-.004-.344-.089-.503-.164-.367-.174-.688-.085-1.013.115-.877.541-1.3 1.865-.966 3.089l.358-.265c-.276.674-.276.674.103.888l1.123-1.433.11.08-1.053 1.663.684.34.631-.869.1.05-.438.973zm-.48.625l-3.07 7.966c.22-.143.341-.22.46-.302.127-.086.244-.186.375-.264.57-.34.825-.24 1.005.387l.364 1.27c.913-2.983 1.743-5.818 1.942-8.806l-1.076-.25zm1.812 1.093c-.072.119-.093.138-.097.16-.256 1.457-.514 2.913-.761 4.37-.02.111-.007.274.063.346.431.448.458 1.052.67 1.583.107.267.232.527.373.846.1-.15.15-.208.183-.274.044-.09.078-.185.111-.28.33-.951.328-.95 1.237-.438.018.01.069-.034.12-.062-.734-2.024-1.525-4.035-1.899-6.25z"/>
            <path d="M14 25c.135-1.242.588-2.095 1-3-.237 1.112-.564 2.126-1 3zM19 30.084L18.019 32c-.125-.824.39-1.392.806-2l.175.084zM16 22.084l-.806.916-.194-.064.763-.936.237.084zM31 30.907c.172-1.106.577-2.007 1-2.907-.02.122-.027.254-.06.364-.265.881-.535 1.758-.803 2.636L31 30.907zM32 30c.071-.77.533-1.335 1-2-.089.62-.413 1.294-1 2zM33.029 31c-.166-.521.415-.756.971-1l-.971 1zM34.5 31.245l-.38.755-.12-.18.387-.82.113.245z"/>
        </g>
    </g>
</svg>
