<svg xmlns="http://www.w3.org/2000/svg" width="14" height="16" viewBox="0 0 14 16"><path d="M5.5-12H4v-1.625A.376.376,0,0,0,3.625-14h-.25A.376.376,0,0,0,3-13.625V-12H-3v-1.625A.376.376,0,0,0-3.375-14h-.25A.376.376,0,0,0-4-13.625V-12H-5.5A1.5,1.5,0,0,0-7-10.5V.5A1.5,1.5,0,0,0-5.5,2h11A1.5,1.5,0,0,0,7,.5v-11A1.5,1.5,0,0,0,5.5-12Zm-11,1h11a.5.5,0,0,1,.5.5V-9H-6v-1.5A.5.5,0,0,1-5.5-11ZM5.5,1h-11A.5.5,0,0,1-6,.5V-8H6V.5A.5.5,0,0,1,5.5,1ZM-.353-7a.38.38,0,0,0-.378.4l.209,3.75A.376.376,0,0,0-.147-2.5H.144a.374.374,0,0,0,.375-.353L.728-6.6A.375.375,0,0,0,.353-7ZM.875-1A.874.874,0,0,0,0-1.875.874.874,0,0,0-.875-1,.874.874,0,0,0,0-.125.874.874,0,0,0,.875-1Z" transform="translate(7 14)" fill="#1a1a1a"/></svg>