<svg xmlns="http://www.w3.org/2000/svg" width="20" height="18" viewBox="0 0 20 18">
    <path fill="#757575" fill-rule="nonzero" d="M6.678 2.035c-.025-.388-.033-.741-.075-1.089-.067-.549-.04-.743.587-.804 1.44-.14 2.88-.124 4.322-.141.07-.001.14-.002.209 0 .514.012.583.106.564.684-.014.426-.002.852-.002 1.315h1.596c-.042-.333-.099-.642-.118-.954-.02-.325.111-.457.387-.459.746-.003 1.49-.019 2.236-.012.31.003.621.052.932.077.256.02.373.172.367.443-.005.188-.02.376-.015.564.004.143.032.284.039.34.523.129.978.227 1.425.356.24.07.362.275.378.55.038.619.09 1.237.115 1.856.043 1.072.064 2.145.107 3.217.045 1.128.11 2.255.157 3.383.022.508.022 1.017.034 1.526.026 1.054.057 2.108.077 3.162.004.224-.023.45-.055.673-.104.727-.24.892-.917 1.001-.445.072-.899.109-1.35.115-1.825.024-3.651.023-5.477.045-2.643.031-5.285.076-7.927.11-.78.01-1.56.01-2.339-.005-.222-.004-.446-.062-.664-.12-.479-.126-.742-.464-.78-.998-.056-.807-.132-1.613-.158-2.42-.037-1.168-.028-2.338-.055-3.506C.226 8.628.164 6.312.1 3.996c-.008-.262-.058-.522-.088-.783-.057-.505.08-.79.519-.978.272-.117.565-.179.92-.287.01-.214.02-.47.035-.726.029-.463.075-.511.493-.52.869-.02 1.737-.038 2.606-.053.59-.01.63.049.56.67-.024.201-.004.409-.004.683.497.064.99.032 1.537.033zm12.37 5.799h-3.414c.159 1.382-.277 2.568-.79 3.732-.158.356-.34.7-.502 1.054-.587 1.278-1.472 2.274-2.511 3.124-.953.78-1.05.808-2.087.17-1.548-.953-2.994-2.063-4.203-3.496-.888-1.052-1.426-2.27-1.354-3.731.02-.406.11-.808.172-1.255-.223-.026-.426-.073-.628-.069-.398.008-.796.065-1.193.062-.258-.003-.41.086-.538.333-.313.608-.63 1.218-.993 1.792-.208.33-.202.631-.13 1.078l1.314-2.003.085.062c-.094.173-.181.35-.282.519-.266.442-.517.897-.813 1.314-.398.562-.399 1.156-.207 1.854.44-.78.812-1.55 1.369-2.183-.361.769-.74 1.526-1.18 2.238-.243.395-.3.768-.167 1.272l1.19-1.793c.03.023.06.047.092.07-.13.24-.257.482-.393.718-.257.448-.538.88-.773 1.342-.103.201-.17.46-.161.687.025.657.083 1.313.155 1.966.058.527.168.65.651.69.43.035.863.008 1.294.008.301-.803.749-1.501 1.203-2.195l.102.064-1.136 2.138h.94c.325-.695.695-1.31 1.155-1.86-.16.67-.655 1.16-.857 1.846h2.753c.283-.547.64-.982 1.133-1.3l-.897 1.31c.296 0 .466.002.635-.001 1.495-.027 2.989-.065 4.483-.077.393-.003.677-.11.92-.479.26-.398.55-.792.966-1.044l-1.046 1.46h1.316c.368-.455.768-.844 1.306-1.051l-.826.944c.096.036.14.068.185.068 1.059-.012 2.119-.01 3.177-.049.69-.026.767-.12.751-.83-.063-2.73-.14-5.46-.214-8.188-.003-.108-.035-.215-.051-.311zM4.538 7.006c1.176-2.324 4.506-2.37 5.954-.338.677-1.09 1.613-1.683 2.824-1.55 1.28.142 1.867 1.166 2.264 2.365l3.47-.141c.084-1.534-.095-2.984-.222-4.478-.209-.064-.403-.156-.603-.178-.518-.057-1.038-.119-1.557-.114-2.556.023-5.112.086-7.668.095-1.616.006-3.233-.054-4.85-.092-.52-.013-1.042-.089-1.561-.071-.553.018-1.107.088-1.653.183-.352.062-.382.164-.36.544.024.395.032.79.054 1.186.007.118.037.235.072.45l.762-1.314C1.318 4.41.549 5.019.74 6.088l1.104-1.621a.304.304 0 0 1-.036.28c-.293.49-.591.977-.882 1.468-.083.142-.186.29-.207.447-.016.115.061.277.145.362.035.035.213-.053.293-.127.09-.082.14-.213.211-.32l.622-.94.107.074-.725 1.295h3.165zm5.762.215c-.031-.017-.067-.027-.091-.052-.051-.05-.1-.105-.141-.165-.836-1.227-2.018-1.42-3.27-1.161-1.375.282-2.247 1.737-2.085 3.331a5.158 5.158 0 0 0 1.28 2.961c1.166 1.325 2.53 2.354 3.988 3.25.195.12.41.204.616.303.172.082.333.078.486-.062.557-.51 1.184-.95 1.663-1.534 1.078-1.313 1.77-2.882 2.23-4.558.29-1.06.165-2.092-.433-3.02-.374-.581-.888-.897-1.55-.866-.69.032-1.29.288-1.724.9-.25.352-.526.65-.97.673zM7.092 2.097c1.587.06 3.118-.019 4.636-.11V.526C10.18.571 8.642.39 7.092.65v1.447zM2.01 7.431c-.106-.038-.151-.066-.197-.068a3.126 3.126 0 0 0-.365.004c-.334.026-.7.401-.698.761.002.387.051.773.09 1.293l1.17-1.99zM16.232.94l-1.007.066.089 1.07h.969L16.232.94zm-1.273.076h-.852l.122.982h.73v-.982zm2.214 1.097l.093-1.097-.75-.105.141 1.202h.516zM4.775 1.066h-.616l.098.942.465-.025.053-.917zm-2.077-.048c.039.344.07.615.1.895h.476v-.786l-.576-.11zm-.253.06l-.538.054v.761h.538v-.815zm1.06.049l.41-.055c-.008.328.106.637-.098.955-.294-.265-.1-.625-.311-.9zM2.192 17.114c.267-.806.748-1.469 1.175-2.167-.053.4-.708 1.635-1.175 2.167zm.532-2.55L1.418 16.87l-.09-.057c.325-.836.836-1.555 1.282-2.314l.113.065zm-1.276.27l1.14-1.813.084.048c-.04.1-.069.209-.124.297-.329.523-.663 1.041-.997 1.56-.006.01-.031.018-.04.013-.012-.009-.019-.03-.063-.104zm3.84 2.24a5.494 5.494 0 0 1 1.051-1.591l-.943 1.681-.108-.09zm11.455-.85c-.208.342-.42.684-.875.902.2-.51.528-.716.875-.902zm-10.3.868c.081-.529.409-.862.697-1.228l.084.067-.782 1.16zm8.7-1.17l-.917 1.155c.025-.443.29-.785.917-1.155zm-2.556.959l.686-.83.093.083-.654.871-.125-.124zm4.41-10.937c-.83-.059-1.213-.417-1.158-1.083.043-.518.526-1.024.967-1.01.564.017 1.064.682 1.01 1.344-.038.472-.375.78-.818.749zm.024-.307c.296-.001.48-.202.485-.53.007-.465-.295-.846-.67-.845-.299 0-.55.313-.554.69-.004.398.308.688.74.685zm-6.676 2.715c.109-.136.233-.291.36-.446.621-.76 1.414-.906 2.274-.682.611.16.889.585.901 1.272.006.28.008.575-.063.84-.457 1.717-1.114 3.32-2.315 4.603-.404.431-.416.458-.943.212a54.38 54.38 0 0 1-1.612-.79 4.868 4.868 0 0 1-1.573-1.279c-.801-.984-1.153-2.129-.912-3.443.128-.695.537-1.113 1.159-1.308.704-.222 1.383-.16 2.001.265.252.173.441.455.723.756zm.637 5.486l.617-.743c.957-1.154 1.42-2.57 1.803-4.026.05-.193.043-.412.026-.616-.04-.51-.284-.807-.75-.857-.607-.066-1.178.05-1.626.558-.18.204-.36.407-.542.61-.25.278-.408.269-.52-.085-.24-.753-1.251-1.251-2.221-.933-.721.237-1.108 1.008-.968 1.944.147.98.546 1.8 1.26 2.458.843.775 1.877 1.12 2.92 1.69z"/>
</svg>