<svg xmlns="http://www.w3.org/2000/svg" width="18" height="17" viewBox="0 0 18 17">
    <g fill="#757575" fill-rule="nonzero">
        <path d="M11.836 12.537c-.909.197-1.761.447-2.63.555-1.983.247-3.944.11-5.85-.566A5.681 5.681 0 0 1 .864 10.77C0 9.73-.184 8.519.17 7.207a8.793 8.793 0 0 1 2.083-3.741c.749-.807 1.548-1.543 2.47-2.137C5.787.643 6.94.228 8.19.135a63.33 63.33 0 0 1 2.87-.134c.3-.008.608.03.902.098 1.055.242 2.084.573 3.072 1.025A5.94 5.94 0 0 1 17.28 2.92c.398.514.618 1.118.677 1.764.167 1.844-.113 3.581-1.269 5.078a5.139 5.139 0 0 1-1.551 1.359c-.2.112-.272.246-.305.467-.112.74-.199 1.488-.389 2.208-.364 1.377-1.194 2.4-2.424 3.074-.067.036-.135.074-.206.1-.252.091-.398-.03-.333-.295.083-.332.202-.655.29-.986.089-.33.161-.666.236-1 .167-.738.061-1.452-.17-2.152zm3.974-2.544c.536-.552.953-1.107 1.176-1.779.31-.933.526-1.893.47-2.89-.043-.756-.185-1.487-.646-2.111-.468-.635-1.053-1.16-1.747-1.477C13.525 1.032 11.975.347 10.22.438 9.002.5 7.771.498 6.621.94c-2.485.958-4.29 2.721-5.509 5.131a1.625 1.625 0 0 0-.147.392c-.01.05.067.12.112.194-.311.29-.464.654-.477 1.152l1.254-1.452.086.076c-.395.486-.775.985-1.189 1.453-.25.285-.308.439-.149.877l.81-1.041.073.06c-.23.443-.53.833-.928 1.194l.179.628c.239-.322.417-.569.602-.809.176-.227.36-.448.54-.672l.082.072L.81 9.77l.283.506.87-1.14.095.073-.81 1.19.347.46.737-.977.09.067c-.22.342-.442.683-.674 1.042l.375.287.58-.746.08.063-.528.837 1.222.654.854-1.152c-.052.488-.418.787-.65 1.224l1.24.318.863-1.098.097.072-.73 1.047.668.1.982-1.186.086.071-.826 1.154.737.063c.349-.594.773-1.072 1.202-1.546l.082.066-1.06 1.463h.817c.18-.426.794-1.155 1.213-1.39l-1.086 1.416.8-.075c.36-.527.723-1.009 1.153-1.43l.083.066-1.001 1.337.698-.114.929-1.207.096.071-.793 1.08c.627-.175 1.274-.098 1.586-.777l-.17.4c.146-.051.23-.078.312-.11.41-.155.508-.098.592.336.03.156.07.31.117.513l.451-.506c-.362.863-.362.863-.276 1.082l.432-.572c.052.224-.054.373-.151.52a2.054 2.054 0 0 0-.346.998 5.99 5.99 0 0 1-.46 1.9c-.024.056-.004.131-.004.28 1.045-.813 1.816-1.725 2.072-3.004.144-.717.253-1.441.36-2.165.036-.238.114-.403.34-.503.345-.151.623-.383.76-.763.04-.115.118-.217.184-.322.012-.018.049-.018.08-.03v.28z"/>
        <path d="M6.052 5.655c-.043-1.23 1.212-1.803 1.944-1.622.509.125.99.81 1.003 1.444a4.15 4.15 0 0 1-.1 1.004c-.181.79-.393 1.573-.604 2.354-.05.19-.14.368-.217.549-.097.23-.234.379-.488.306-.048-.014-.109.007-.159.026-.704.28-1.425.335-2.166.243-.568-.071-1.072-.305-1.532-.658-.915-.703-.987-2.004-.14-2.808.643-.61 1.383-.96 2.256-.819.04.007.083.005.124.002.027-.002.053-.014.08-.021zM12.223 6.268c.307-.092.572-.2.85-.249.542-.096.908.176.925.658.031.854-.362 1.554-1.016 2.147-.221.2-.527.199-.817.145a1.15 1.15 0 0 1-.44-.163c-.451-.32-.897-.647-1.319-.996-.146-.12-.243-.303-.32-.473-.228-.504.008-.988.573-1.193a1.867 1.867 0 0 1 1.564.124zM11.018 2.57c.045-.254.147-.453.385-.537.23-.081.441-.015.516.225.064.205.096.44.074.652-.026.258-.123.507-.191.76a.41.41 0 0 1-.38.32 1.516 1.516 0 0 1-1.149-.328.723.723 0 0 1-.24-.775c.079-.221.408-.413.679-.385.096.01.19.042.306.069z"/>
    </g>
</svg>