<svg xmlns="http://www.w3.org/2000/svg" width="52" height="32" viewBox="0 0 25 16">
    <path fill="#b7b257" fill-rule="nonzero" d="M25 .561c0-.07-.07-.21-.139-.28 0-.07-.07-.07-.139-.14 0 0-.07-.07-.139-.07C24.513 0 24.444 0 24.375 0H4.652c-.138 0-.208.07-.346.14-.07 0-.07.07-.07.07-.07.14-.139.281-.139.351v5.404H.694A.7.7 0 0 0 0 6.667a.7.7 0 0 0 .694.701h3.403v1.404H.694A.7.7 0 0 0 0 9.474a.7.7 0 0 0 .694.701h3.403v1.404H.694a.7.7 0 0 0-.694.702.7.7 0 0 0 .694.701h3.403v2.316a.7.7 0 0 0 .695.702h19.514a.7.7 0 0 0 .694-.702V.702v-.14zm-2.778.843l-7.639 5.684-7.639-5.684h15.278zm1.39 13.192H5.485v-1.614h4.93a.7.7 0 0 0 .695-.701.7.7 0 0 0-.694-.702h-4.93v-1.404h4.93a.7.7 0 0 0 .694-.701.7.7 0 0 0-.694-.702h-4.93V7.368h1.527c.417 0 .694-.28.694-.701 0-.421-.277-.702-.694-.702H5.486v-3.86l8.68 6.456c.14.07.278.14.417.14.14 0 .278-.07.417-.14l8.611-6.456v12.491z"/>
</svg>