<svg xmlns="http://www.w3.org/2000/svg" width="16.016" height="20" viewBox="0 0 16.016 20"><defs></defs><g transform="translate(-51 0)"><path fill-rule="nonzero" class="a" d="M65.707,11.769A11.713,11.713,0,0,0,62.42,7.475l1.055-3.518a.585.585,0,0,0,.025-.168c0-.831-.809-1.492-1.974-1.694L61.915.748A.586.586,0,0,0,60.789.423l-.47,1.63a3.617,3.617,0,0,0-1.311.371A3.618,3.618,0,0,0,57.7,2.053l-.47-1.63A.586.586,0,1,0,56.1.748l.388,1.347c-1.165.2-1.974.863-1.974,1.694a.585.585,0,0,0,.025.168L55.6,7.475a11.713,11.713,0,0,0-3.287,4.294A14.767,14.767,0,0,0,51,17.9v.053a.586.586,0,0,0,.366.543A20.284,20.284,0,0,0,59.008,20a20.284,20.284,0,0,0,7.642-1.508.586.586,0,0,0,.366-.543V17.9a14.766,14.766,0,0,0-1.309-6.127Z" transform="translate(0 0)"/></g></svg>