<svg xmlns="http://www.w3.org/2000/svg" width="24" height="24" viewBox="0 0 28 28">
    <g fill="none" fill-rule="evenodd">
        <circle cx="14" cy="14" r="14" fill="#3C65AC" fill-rule="nonzero"/>
        <path fill="#FFF" d="M19.416 13.276c-2.188 2.887-4.377 5.774-6.567 8.66l-.025.034c-.149.212-.324.416-.695.313-.387-.107-.296-.367-.245-.588.17-.727.354-1.45.533-2.176.316-1.274.634-2.549.948-3.824.027-.108.035-.22.058-.375-.206-.008-.38-.02-.554-.02-1.238.004-2.475.011-3.712.013-.728.002-.9-.23-.53-.716 2.187-2.888 4.377-5.775 6.566-8.662.008-.01.018-.021.026-.033.149-.212.324-.416.695-.313.387.107.296.367.245.589-.17.726-.354 1.45-.533 2.175-.317 1.275-.634 2.549-.949 3.824-.027.108-.034.22-.058.376.207.007.382.02.555.019 1.237-.003 2.475-.011 3.712-.013.728-.001.899.23.53.717z"/>
    </g>
</svg>
