<svg xmlns="http://www.w3.org/2000/svg" width="18" height="18" viewBox="0 0 28 28">
    <g fill="none" fill-rule="evenodd">
        <path fill="#E46063" d="M9.337 24.13l-4.031.163a1.342 1.342 0 0 1-1.397-1.372l.093-4.04a1.342 1.342 0 0 0-.432-1.018l-2.968-2.74a1.342 1.342 0 0 1-.017-1.957l2.92-2.791c.279-.267.43-.64.414-1.025l-.163-4.038a1.342 1.342 0 0 1 1.372-1.397l4.034.093c.386.01.757-.148 1.018-.432L12.915.607A1.342 1.342 0 0 1 14.874.59l2.786 2.92c.267.28.64.43 1.026.415l4.032-.163a1.342 1.342 0 0 1 1.396 1.372l-.093 4.04c-.009.386.149.756.432 1.018l2.968 2.74a1.342 1.342 0 0 1 .017 1.957l-2.92 2.791c-.279.267-.43.64-.414 1.025l.164 4.038a1.342 1.342 0 0 1-1.373 1.397l-4.467-.103a.384.384 0 0 0-.291.123l-3.029 3.288a1.342 1.342 0 0 1-1.959.017l-2.786-2.92c-.267-.28-.64-.43-1.026-.415z"/>
        <g fill-rule="nonzero">
            <path fill="#A84A41" d="M14.096 22.671a8.575 8.575 0 1 1 0-17.15 8.575 8.575 0 0 1 0 17.15zm0-2a6.575 6.575 0 1 0 0-13.15 6.575 6.575 0 0 0 0 13.15z"/>
            <path fill="#FF959A" d="M14.096 6.52a7.575 7.575 0 1 0 0 15.151 7.575 7.575 0 0 0 0-15.15z"/>
        </g>
        <path fill="#FFF" d="M18.782 12.863a.263.263 0 0 0-.21-.185l-2.998-.458-1.342-2.852A.258.258 0 0 0 14 9.216a.258.258 0 0 0-.232.152l-1.342 2.852-2.999.458a.263.263 0 0 0-.209.185.282.282 0 0 0 .066.279l2.17 2.22-.513 3.136a.279.279 0 0 0 .103.266.25.25 0 0 0 .273.02L14 17.305l2.682 1.48a.25.25 0 0 0 .273-.02c.08-.061.12-.164.103-.266l-.512-3.136 2.17-2.22a.281.281 0 0 0 .066-.279z"/>
    </g>
</svg>