<svg xmlns="http://www.w3.org/2000/svg" width="10.313" height="15" viewBox="0 0 10.313 15">
  <g id="Group_8209" data-name="Group 8209" transform="translate(-12 -9)">
    <path id="Path_4897" data-name="Path 4897" d="M18.012,11.139a.8.8,0,0,0-.452-.277,1.985,1.985,0,0,0-.482-.051h-.005c-1.006,0-2.011.008-3.016.011q.366-1.48.735-2.96h0c.15-.607.3-1.217.448-1.832h0v0a1.411,1.411,0,0,0,.052-.334.707.707,0,0,0-.154-.449.835.835,0,0,0-.434-.267,1.086,1.086,0,0,0-.282-.04.873.873,0,0,0-.542.188,1.265,1.265,0,0,0-.251.275h0l-.023.027,0,0,0,0Q10.845,9.07,8.088,12.708a1.052,1.052,0,0,0-.254.626.657.657,0,0,0,.133.4.8.8,0,0,0,.451.277,1.971,1.971,0,0,0,.481.051h.008c1.006,0,2.011-.008,3.015-.01q-.365,1.479-.733,2.959h0c-.15.607-.3,1.217-.449,1.832h0a1.412,1.412,0,0,0-.052.334.705.705,0,0,0,.154.449.825.825,0,0,0,.434.267,1.052,1.052,0,0,0,.282.041.869.869,0,0,0,.542-.188,1.34,1.34,0,0,0,.263-.292h0l.018-.025q2.756-3.632,5.51-7.266h0a1.061,1.061,0,0,0,.253-.627A.653.653,0,0,0,18.012,11.139Zm-3.76-5.012c-.121.5-.245,1-.37,1.508h0q-.4,1.606-.8,3.212v0a3.584,3.584,0,0,0-.057.359l-.081.522.528.017c.157.005.3.016.467.016h.016c1.026,0,2.051-.008,3.073-.011q-2.65,3.5-5.3,6.992c.12-.5.244-1,.368-1.506h0q.4-1.6.8-3.211v0c.036-.148.041-.25.058-.36l.077-.517-.522-.021c-.166-.007-.316-.017-.484-.017h0c-1.025,0-2.049.009-3.072.011Q11.6,9.625,14.252,6.128Z" transform="translate(4.166 4.064)" fill="#1a1a1a"/>
  </g>
</svg>
