<svg xmlns="http://www.w3.org/2000/svg" width="24" height="24" viewBox="0 0 24 24">
    <defs><style>.a{fill:#00abaa;}</style></defs>
    <path class="a" d="M21.5,12l2.156-2.11A1.117,1.117,0,0,0,23.154,8l-2.937-.75.828-2.907a1.136,1.136,0,0,0-1.39-1.391l-2.906.828L16,.838a1.125,1.125,0,0,0-1.89-.5L12,2.511,9.891.338A1.125,1.125,0,0,0,8,.839L7.252,3.776,4.346,2.948a1.136,1.136,0,0,0-1.39,1.391l.828,2.907L.846,8a1.117,1.117,0,0,0-.5,1.891L2.5,12,.347,14.105A1.117,1.117,0,0,0,.846,16l2.937.75-.828,2.907a1.136,1.136,0,0,0,1.39,1.391l2.906-.828L8,23.153a1.115,1.115,0,0,0,1.89.5L12,21.5l2.109,2.156a1.119,1.119,0,0,0,1.89-.5l.749-2.938,2.906.828a1.136,1.136,0,0,0,1.39-1.391l-.828-2.907L23.154,16a1.117,1.117,0,0,0,.5-1.891Z" transform="translate(0 0)"/>
</svg>