<svg xmlns="http://www.w3.org/2000/svg" width="41" height="63" viewBox="0 0 41 63">
    <g fill="#B59E95" fill-rule="evenodd">
        <path fill-rule="nonzero" d="M40.98 35.805c0 6.046.059 10.882-.025 15.715-.041 2.352-.347 4.7-.538 7.049-.046.575-.124 1.147-.17 1.722-.124 1.575-.552 1.998-2.128 2.16-3.885.399-7.769.492-11.679.347-3.15-.117-6.313.18-9.471.197-4.06.023-8.12-.044-12.179-.088-.418-.004-.842-.085-1.25-.184-1.673-.402-2.447-1.352-2.547-3.141-.121-2.149-.251-4.297-.321-6.447C.539 49.04.315 44.942.369 40.85c.071-5.301.421-10.598.568-15.9.1-3.618.069-7.228-.348-10.85C.2 10.725-.21 7.32.122 3.896.342 1.621.402.658 3.442.566 8.921.4 14.404.26 19.887.163c3.213-.057 6.428.009 9.641-.018C31.532.128 33.534.005 35.537 0c.836-.002 1.685.113 2.504.287.979.209 1.296.643 1.362 1.654.326 5.025.72 10.047.943 15.076.296 6.662.455 13.33.634 18.788zm-3.61-33.92c-.74-.059-1.36-.153-1.978-.147-2.638.025-5.275.102-7.913.116-1.634.008-3.27-.111-4.903-.09a876.13 876.13 0 0 0-11.869.238c-2.528.067-5.058.15-7.582.319-1.252.083-1.393.244-1.405 1.424-.032 2.888-.048 5.78.054 8.665.117 3.304.517 6.603.528 9.906.019 5.517-.287 11.036-.243 16.552.04 5.246.35 10.49.55 15.735.02.572.085 1.141.129 1.712l.243.001 1.276-2.644c.168.43.125.781 0 1.1-.366.928-.787 1.835-1.145 2.766-.474 1.233-.349 2.35.35 3.174.928-1.773 1.605-3.655 2.74-5.278l.29.14-2.46 5.554 1.88.243c.224-.701.381-1.253.578-1.79.2-.542.421-1.077.665-1.6.217-.467.477-.914.718-1.37.003 1.687-1.152 3.036-1.115 4.8h6.184l1.16-2.978.323.114-.794 2.986 12.554-.499 2.317-4.478.315.144c-.195 1.59-1.48 2.814-1.718 4.449 3.718.133 7.332.063 11.13-.56.258-2.59.637-5.132.733-7.685.127-3.357.054-6.723.02-10.084-.02-1.995-.176-3.988-.186-5.982-.007-1.468.213-2.94.173-4.405-.125-4.62-.285-9.239-.508-13.854-.202-4.192-.499-8.38-.766-12.568-.083-1.304-.204-2.606-.324-4.127z"/>
        <path fill-rule="nonzero" d="M4.514 39.536c.132-4.6.278-9.198.387-13.798.033-1.395-.024-2.793-.068-4.188-.086-2.783-.151-5.567-.303-8.346-.117-2.161-.394-4.314-.52-6.475-.07-1.188.211-1.488 1.427-1.509 5.726-.098 11.453-.166 17.18-.213 3.38-.027 6.762.034 10.143 0 1.462-.016 1.697.05 1.843 1.429.151 1.434.188 2.88.257 4.323.205 4.283.44 8.566.593 12.852.24 6.714.806 13.424.41 20.152-.11 1.857-.162 3.718-.287 5.574-.134 1.992-.573 2.416-2.604 2.433-3.802.03-7.604-.008-11.406.026-1.612.015-3.222.187-4.834.202-1.712.016-3.425-.068-5.137-.113-1.354-.035-2.708-.07-4.061-.113-2.204-.07-2.894-.758-2.908-2.924-.01-1.552.014-3.103.018-4.654.004-1.552 0-3.103 0-4.655l-.13-.003zm.844-32.954c-.04.307-.117.606-.111.905.08 4.447.165 8.894.264 13.34.055 2.428.178 4.855.202 7.283.023 2.376-.04 4.754-.064 7.132-.008.827-.016 1.654-.015 2.48.001 3.825-.016 7.649.02 11.472.013 1.27.402 1.607 1.742 1.653.724.025 1.453-.105 2.178-.087 2.13.055 4.257.158 6.386.222.413.013.829-.069 1.244-.097 1.037-.071 2.073-.182 3.111-.195 2.293-.03 4.587-.01 6.88-.01 1.876 0 3.75.017 5.625-.01 1.106-.015 1.261-.176 1.432-1.21.042-.255.063-.514.083-.771.586-7.65.286-15.295-.097-22.94-.29-5.78-.543-11.56-.82-17.34-.033-.7-.113-1.398-.173-2.113-9.414.062-18.626-.572-27.887.286z"/>
        <path d="M20.563 33.185h-2.085a1 1 0 0 1-.996-.909L15.848 14.41a1 1 0 0 1 .996-1.091h5.315a1 1 0 0 1 .996 1.089l-1.596 17.866a1 1 0 0 1-.996.911zm-1.02 9.245c-1.634 0-3.01-1.376-3.01-3.01 0-1.591 1.376-2.967 3.01-2.967s2.967 1.376 2.967 2.967c0 1.634-1.333 3.01-2.967 3.01z"/>
        <path fill-rule="nonzero" d="M19.445 60c-.859-.1-1.684-.101-2.084-.977-.493-1.082-.473-2.256.01-3.342.544-1.228 1.88-1.85 3.266-1.641 1.096.165 2.104 1.265 2.316 2.558.166 1.016-.098 1.929-.954 2.41-.795.446-1.698.67-2.554.992zm.74-1.252c1.029 0 1.894-.84 1.85-1.796-.052-1.137-1.008-2.17-1.986-2.145-1.182.029-2.057.99-2.037 2.237.018 1.187.677 1.703 2.173 1.704zM11 57c-.295 2.213-1.276 3.825-1.954 6-.256-1.6.573-3.956 1.954-6zM11 61c.072-1.532 1.162-2.724 2-4-.136 1.51-1.027 2.769-2 4zM30 57.145c-.507.976-.789 2.055-1.679 2.855L28 59.851 29.688 57l.312.145zM24 59.793L25.695 57l.305.118L24.47 60c-.156-.07-.313-.138-.47-.207z"/>
    </g>
</svg>
