<svg id="Layer_1" data-name="Layer 1" xmlns="http://www.w3.org/2000/svg" viewBox="0 0 21.65 21.65"><defs><style>.cls-1{fill:#15bdc3;}</style></defs><title>pin</title><path class="cls-1" d="M21.65,21.65l-5.41-8.12,2.94-2.94a.81.81,0,0,0,0-1.15L17.75,8l-1.1.24A1.62,1.62,0,0,1,15.39,8L9.32,3.83a1.62,1.62,0,0,1-.7-1.4l0-1.35L7.58,0,0,7.58,1.08,8.66l1.35,0h.06a1.62,1.62,0,0,1,1.34.71L8,15.39a1.62,1.62,0,0,1,.25,1.26L8,17.75l1.43,1.43a.81.81,0,0,0,1.15,0l2.94-2.94,8.12,5.41Zm-3.9-3.9-3.43-2.29,1.14-1.14,2.29,3.43Z"/></svg>