<svg xmlns="http://www.w3.org/2000/svg" width="15" height="15" viewBox="0 0 15 15">
    <g id="Group_2563" data-name="Group 2563" transform="translate(-72 -0.001)">
        <path id="star-solid" d="M27.195.487,25.364,4.2l-4.1.6a.9.9,0,0,0-.5,1.531l2.964,2.888-.7,4.079a.9.9,0,0,0,1.3.945L28,12.313l3.664,1.926a.9.9,0,0,0,1.3-.945l-.7-4.079,2.964-2.888a.9.9,0,0,0-.5-1.531l-4.1-.6L28.8.487A.9.9,0,0,0,27.195.487Z" transform="translate(51.5 0.013)" fill="#e1e1e1"/>
        <path id="star-half-solid" d="M28,0a.887.887,0,0,0-.8.5L25.365,4.212l-4.1.594a.9.9,0,0,0-.5,1.531l2.964,2.888-.7,4.08a.9.9,0,0,0,1.3.945L28,12.327Z" transform="translate(51.5 0.001)" fill="#00abaa"/>
    </g>
</svg>