<svg xmlns="http://www.w3.org/2000/svg" width="29.043" height="25.896" viewBox="0 0 29.043 25.896"><path d="M21047.346,21838.73c-.98-.312-1.281-.641-1.184-.953.006-.012.012-.027.018-.039a12.184,12.184,0,0,1-3.207.434,12.6,12.6,0,0,1-3.139-.4s0,0,0,.006c.1.313-.2.641-1.184.953a1.489,1.489,0,0,1-1.432-.082s.137-.586,1.113-.9a5.277,5.277,0,0,1,.756-.2,11.961,11.961,0,0,1-1.277-.5c.039.322-.316.586-1.326.729a1.5,1.5,0,0,1-1.4-.334s.234-.549,1.254-.691a5.462,5.462,0,0,1,.752-.061c-.395-.213-.773-.455-1.146-.707-.027.318-.428.51-1.43.473-1.031-.039-1.316-.564-1.316-.564s.324-.506,1.354-.467a6.024,6.024,0,0,1,.74.066,11.868,11.868,0,0,1-1-.883c-.088.3-.516.422-1.492.207-1.008-.213-1.2-.783-1.2-.783a1.484,1.484,0,0,1,1.414-.225,5.848,5.848,0,0,1,.707.191,12.179,12.179,0,0,1-.816-1.035c-.143.279-.582.318-1.508-.061-.949-.389-1.041-.98-1.041-.98a1.5,1.5,0,0,1,1.436.027,5.537,5.537,0,0,1,.652.307,12.219,12.219,0,0,1-.619-1.162c-.187.252-.631.215-1.469-.312-.871-.553-.861-1.15-.861-1.15a1.491,1.491,0,0,1,1.408.273,5.565,5.565,0,0,1,.592.416,12.087,12.087,0,0,1-.4-1.248c-.23.219-.658.1-1.4-.57-.762-.686-.641-1.277-.641-1.277s.57-.176,1.332.516a4.61,4.61,0,0,1,.52.52c-.082-.428-.143-.871-.186-1.314-.258.18-.664,0-1.277-.795a1.5,1.5,0,0,1-.416-1.371s.6-.076,1.227.734a5.97,5.97,0,0,1,.428.615c0-.078-.006-.16-.006-.242,0-.367.023-.734.051-1.1-.291.137-.658-.109-1.129-1a1.5,1.5,0,0,1-.17-1.424s.6.033,1.084.938a6.118,6.118,0,0,1,.318.7,12.014,12.014,0,0,1,.279-1.326c-.312.094-.635-.209-.947-1.184a1.5,1.5,0,0,1,.082-1.432s.586.133.9,1.113a5.088,5.088,0,0,1,.191.756,11.588,11.588,0,0,1,.521-1.277h-.006c-.33.045-.6-.307-.734-1.326a1.493,1.493,0,0,1,.328-1.4s.555.234.691,1.254a4.8,4.8,0,0,1,.061.795,12.3,12.3,0,0,1,.744-1.184h-.016c-.334-.016-.531-.41-.494-1.441s.57-1.314.57-1.314a1.487,1.487,0,0,1,.461,1.354,5.02,5.02,0,0,1-.082.816,13.32,13.32,0,0,1,.953-1.059h-.027c-.324-.07-.449-.5-.236-1.5s.789-1.2.789-1.2a1.49,1.49,0,0,1,.221,1.414,5.451,5.451,0,0,1-.225.8,12.5,12.5,0,0,1,1.818-1.328c-.131-.295.127-.656,1.047-1.1a1.5,1.5,0,0,1,1.426-.115s-.055.6-.977,1.047c-.8.391-1.227.461-1.418.275a12.182,12.182,0,0,0-1.875,1.381,4.517,4.517,0,0,1,.92-.121,1.5,1.5,0,0,1,1.359.449s-.285.531-1.309.582-1.42-.137-1.441-.467a13.023,13.023,0,0,0-.988,1.113,4.176,4.176,0,0,1,.9-.279,1.5,1.5,0,0,1,1.424.207s-.176.57-1.178.8-1.475.1-1.475-.219a10.717,10.717,0,0,0-.822,1.281,4.385,4.385,0,0,1,.828-.443,1.5,1.5,0,0,1,1.43-.043s-.082.6-1.029,1-1.393.352-1.52.045a.023.023,0,0,0,0-.012,12,12,0,0,0-.57,1.432,4.2,4.2,0,0,1,.777-.6,1.494,1.494,0,0,1,1.4-.291s.021.6-.846,1.156-1.309.586-1.484.313a.125.125,0,0,1-.016-.027,12.756,12.756,0,0,0-.318,1.541,4.252,4.252,0,0,1,.674-.746,1.494,1.494,0,0,1,1.332-.525s.125.586-.631,1.287-1.189.8-1.414.559c-.006-.01-.016-.016-.021-.027-.033.367-.055.734-.055,1.107,0,.164.006.324.01.482a4.092,4.092,0,0,1,.537-.859c.625-.822,1.223-.752,1.223-.752a1.489,1.489,0,0,1-.4,1.375c-.619.822-1.023,1-1.287.8a.219.219,0,0,1-.039-.033,11.722,11.722,0,0,0,.242,1.59,3.933,3.933,0,0,1,.377-.947c.473-.916,1.07-.955,1.07-.955a1.486,1.486,0,0,1-.148,1.426c-.471.916-.84,1.162-1.135,1.014a.263.263,0,0,0-.043-.027,11.932,11.932,0,0,0,.514,1.523,3.938,3.938,0,0,1,.209-1c.307-.982.889-1.125.889-1.125a1.488,1.488,0,0,1,.1,1.432c-.3.98-.625,1.287-.937,1.189a.083.083,0,0,1-.049-.018,12.208,12.208,0,0,0,.768,1.4,4.149,4.149,0,0,1,.037-1.008c.127-1.02.68-1.262.68-1.262a1.506,1.506,0,0,1,.346,1.393c-.131,1.02-.389,1.381-.723,1.338-.012,0-.021-.006-.033-.006a13.156,13.156,0,0,0,.98,1.227,4.158,4.158,0,0,1-.137-.986c-.049-1.029.455-1.359.455-1.359s.531.281.576,1.311-.143,1.426-.473,1.441h-.033a11.989,11.989,0,0,0,1.174,1.025,4.058,4.058,0,0,1-.3-.937,1.475,1.475,0,0,1,.207-1.414s.57.182.8,1.184.1,1.436-.219,1.508h-.027a12.468,12.468,0,0,0,1.32.8,4.6,4.6,0,0,1-.455-.865,1.508,1.508,0,0,1-.043-1.43s.6.082,1,1.029.352,1.393.045,1.523h-.012a11.325,11.325,0,0,0,1.42.555,3.992,3.992,0,0,1-.586-.762,1.483,1.483,0,0,1-.291-1.4s.6-.021,1.156.838.592,1.311.313,1.492h-.006a12.111,12.111,0,0,0,6.221-.012c-.262-.186-.225-.625.324-1.48s1.156-.838,1.156-.838a1.476,1.476,0,0,1-.291,1.4,4.55,4.55,0,0,1-.553.734,12.839,12.839,0,0,0,1.354-.537c-.285-.139-.328-.582.066-1.514.395-.947.992-1.029.992-1.029a1.5,1.5,0,0,1-.039,1.43,5.016,5.016,0,0,1-.416.811,12.915,12.915,0,0,0,1.232-.756c-.307-.094-.416-.521-.2-1.5.23-1,.8-1.184.8-1.184a1.475,1.475,0,0,1,.207,1.414,4.528,4.528,0,0,1-.262.861,12.142,12.142,0,0,0,1.074-.955c-.312-.037-.5-.443-.449-1.436.049-1.029.58-1.311.58-1.311s.5.33.449,1.359a4.517,4.517,0,0,1-.1.883,13.607,13.607,0,0,0,.883-1.117c-.312.016-.564-.352-.686-1.338a1.506,1.506,0,0,1,.346-1.393s.553.242.68,1.262a4.605,4.605,0,0,1,.049.887,13.242,13.242,0,0,0,.674-1.25c-.307.066-.613-.252-.9-1.2a1.5,1.5,0,0,1,.094-1.432s.586.143.893,1.125a4.636,4.636,0,0,1,.2.859,11.367,11.367,0,0,0,.445-1.342c-.285.115-.648-.148-1.1-1.025a1.5,1.5,0,0,1-.152-1.426s.6.039,1.074.955a4.964,4.964,0,0,1,.34.8,10.92,10.92,0,0,0,.2-1.393c-.264.16-.658-.043-1.25-.822a1.489,1.489,0,0,1-.4-1.375s.6-.07,1.223.752a4.919,4.919,0,0,1,.471.723c.006-.115.006-.23.006-.346,0-.35-.018-.7-.045-1.041-.234.191-.662.061-1.375-.6-.756-.7-.631-1.287-.631-1.287s.576-.17,1.332.525a4.945,4.945,0,0,1,.586.625,13.627,13.627,0,0,0-.279-1.348c-.2.225-.641.164-1.451-.357-.867-.559-.844-1.156-.844-1.156a1.49,1.49,0,0,1,1.4.291,5.494,5.494,0,0,1,.674.5,11.841,11.841,0,0,0-.5-1.26c-.158.252-.6.268-1.486-.105-.947-.4-1.029-1-1.029-1a1.5,1.5,0,0,1,1.43.043,5.34,5.34,0,0,1,.74.373,11.482,11.482,0,0,0-.707-1.145c-.115.273-.553.361-1.48.152-1-.23-1.189-.8-1.189-.8a1.494,1.494,0,0,1,1.42-.207,5.456,5.456,0,0,1,.785.23,11.85,11.85,0,0,0-.889-1c-.066.285-.482.449-1.43.4-1.025-.051-1.311-.582-1.311-.582a1.5,1.5,0,0,1,1.359-.449,5.819,5.819,0,0,1,.816.094,11.879,11.879,0,0,0-1.908-1.387c-.174.225-.6.17-1.451-.242-.928-.443-.977-1.047-.977-1.047a1.5,1.5,0,0,1,1.426.115c.871.422,1.15.768,1.063,1.059a12.365,12.365,0,0,1,2.023,1.484,4.466,4.466,0,0,1-.279-.914,1.5,1.5,0,0,1,.225-1.414s.57.191.789,1.2.088,1.432-.236,1.5a.614.614,0,0,1-.1.006,10.875,10.875,0,0,1,1.057,1.189,4.358,4.358,0,0,1-.109-.953,1.487,1.487,0,0,1,.461-1.354s.531.289.57,1.314-.164,1.426-.494,1.441a.658.658,0,0,1-.1-.01,11.547,11.547,0,0,1,.832,1.342,4.093,4.093,0,0,1,.055-.943c.139-1.02.691-1.254.691-1.254a1.493,1.493,0,0,1,.328,1.4c-.137,1.02-.4,1.371-.734,1.326a.305.305,0,0,1-.088-.021,11.97,11.97,0,0,1,.582,1.447,4.8,4.8,0,0,1,.213-.9c.318-.98.9-1.113.9-1.113a1.5,1.5,0,0,1,.082,1.432c-.316.98-.641,1.281-.953,1.184a.311.311,0,0,1-.076-.039,12.986,12.986,0,0,1,.318,1.5,4.439,4.439,0,0,1,.361-.832c.482-.9,1.08-.937,1.08-.937a1.5,1.5,0,0,1-.166,1.424c-.482.91-.854,1.152-1.145,1a.226.226,0,0,1-.061-.043c.033.383.055.762.055,1.145,0,.127,0,.252-.006.373a4.82,4.82,0,0,1,.5-.746c.629-.811,1.227-.734,1.227-.734a1.5,1.5,0,0,1-.416,1.371c-.631.811-1.035.986-1.3.783-.016-.016-.033-.027-.049-.043a11.132,11.132,0,0,1-.215,1.49,5.03,5.03,0,0,1,.615-.641c.762-.691,1.336-.516,1.336-.516s.121.592-.641,1.277-1.2.795-1.42.547a.2.2,0,0,1-.039-.049,12.1,12.1,0,0,1-.471,1.436,4.622,4.622,0,0,1,.719-.531,1.491,1.491,0,0,1,1.408-.273s.012.6-.861,1.15-1.314.57-1.49.291a.276.276,0,0,1-.027-.061,13.175,13.175,0,0,1-.729,1.338,4.789,4.789,0,0,1,.811-.4,1.5,1.5,0,0,1,1.436-.027s-.092.592-1.041.98-1.4.34-1.523.027c-.006-.021-.016-.043-.021-.066a13.009,13.009,0,0,1-.949,1.2,4.549,4.549,0,0,1,.877-.258,1.484,1.484,0,0,1,1.414.225s-.191.57-1.2.783-1.432.088-1.5-.234a.318.318,0,0,1-.006-.072,11.906,11.906,0,0,1-1.135,1.014,5.157,5.157,0,0,1,.895-.1c1.029-.039,1.354.467,1.354.467s-.285.525-1.316.564-1.424-.16-1.436-.494a.2.2,0,0,1,.006-.061,12,12,0,0,1-1.277.789,5.323,5.323,0,0,1,.883.061c1.02.143,1.254.691,1.254.691a1.5,1.5,0,0,1-1.4.334c-1.02-.143-1.377-.412-1.326-.74a.216.216,0,0,1,.01-.049,11.935,11.935,0,0,1-1.369.553,4.5,4.5,0,0,1,.838.209c.977.313,1.113.9,1.113.9a1.139,1.139,0,0,1-.723.205A2.308,2.308,0,0,1,21047.346,21838.73Zm-4.971-7.871-4.215-4.357a3.135,3.135,0,0,1,.215-4.531,2.981,2.981,0,0,1,4.066.3l.428.439.432-.439a2.983,2.983,0,0,1,4.068-.3,3.126,3.126,0,0,1,.213,4.531l-4.215,4.357a.7.7,0,0,1-.992,0Z" transform="translate(-21028.479 -21813.475)" fill="#5f5f5f" stroke="rgba(0,0,0,0)" stroke-miterlimit="10" stroke-width="1"/></svg>