<svg xmlns="http://www.w3.org/2000/svg" width="78" height="78" viewBox="0 0 78 78">
    <g fill="#B8B358" fill-rule="nonzero">
        <path d="M0 63.534c.056-.03.15-.049.162-.09.881-3.128 3.25-5.19 5.32-7.468 4.045-4.455 7.992-9.003 12.151-13.348 3.325-3.472 6.823-6.791 10.405-9.998 1.678-1.502 3.685-2.662 5.634-3.823 1.673-.997 3.462-1.127 5.208.004 1.224.792 2.432.599 3.522-.274 1.086-.869 2.106-1.818 3.175-2.708 1.164-.968 2.31-1.967 3.54-2.846 1.418-1.013 1.705-1.435.979-3.076-.99-2.238 1.862-4.294 3.934-3.845 2.467.535 4.181 2.047 5.446 4.108.558.908.945 1.938 1.296 2.952.53 1.532.164 2.747-1.366 2.972-2.843.419-4.168 2.583-5.88 4.342-1.235 1.27-2.367 2.64-3.586 3.927-.704.742-1.064 1.538-.866 2.574.236 1.239.279 2.535.666 3.72.738 2.257.198 4.037-1.45 5.683-1.61 1.609-3.063 3.377-4.621 5.04-4.504 4.806-8.975 9.644-13.562 14.369-2.158 2.223-4.58 4.186-6.823 6.33-.946.904-1.664 2.047-2.616 2.94-.906.85-1.957 1.556-2.995 2.247-.505.336-1.128.495-1.697.734H10.65c-.149-.104-.284-.26-.45-.303-5.068-1.31-8.18-4.525-9.432-9.599C.606 67.442.26 66.831 0 66.2v-2.665zm43.22-14.586c-.418-2.69.822-5.007 1.323-7.47l.476.085-1.266 6.53c.306-.155.494-.207.623-.323 1.188-1.076 1.904-2.565 3.212-3.561.609-.465.7-1.233.512-2.084-.383-1.725-.582-3.49-.89-5.233-.23-1.302.177-2.383 1.075-3.29 2.363-2.388 4.741-4.76 7.113-7.137.597-.598 1.178-.906 2.158-.811 1.516.147 2.13-.885 1.614-2.358-.271-.776-.568-1.554-.96-2.274-.836-1.537-1.976-2.781-3.692-3.368-.73-.25-1.493-.492-2.124.184-.561.602-.377 1.292-.09 1.956.545 1.254.096 2.184-.892 3-.728.601-1.394 1.278-2.085 1.924-1.945 1.816-3.842 3.686-5.846 5.433-1.595 1.392-3.563 1.6-5.31.534-1.53-.934-2.739-.575-4.08.112-3.13 1.605-5.784 3.859-8.373 6.195-.098.088-.06.326-.089.51 6.719-.814 11.368 1.055 15.362 10.003l.94-4.657c.45 2.694-.172 5.28-.692 8.143l1.98-2.043zM25.1 67.314c.37-.15.568-.18.696-.29.525-.456 1.009-.963 1.547-1.403.6-.49.768-1.093.748-1.844-.108-3.96-1.317-7.485-4.194-10.28-2.75-2.673-5.891-4.426-9.915-3.424a3.822 3.822 0 0 0-1.74 1c-2.814 2.918-5.58 5.884-8.343 8.851-.443.476-.791 1.04-1.114 1.472 1.364.097 2.708-.113 3.79.326 3.42 1.386 6.663 3.111 8.732 6.402.758 1.205 1.592 2.36 2.563 3.792l.556-6.796.142.003v8.702c1.55-1.64 1.51-1.644 1.649-3.519.225-3.043.51-6.082.77-9.123l.366.024c-.14 3.24-.278 6.481-.422 9.837 1.338-.476 1.367-1.424 1.47-2.377.264-2.474.574-4.943.866-7.414l.322.032-.586 7.942c1.214-.844 1.204-.846 1.361-1.803.401-2.447.813-4.892 1.22-7.338l.306.042-.79 7.186zm9.143-8.907c1.542-.992 2.346-1.968 2.337-3.67-.008-1.47.453-2.942.707-4.414l.435.052-.384 4.595c1.527-.97 1.957-1.55 2.165-2.754.837-4.835-2.998-11.505-7.308-13.053-2.705-.971-5.352-.668-8.036-.224-.45.074-.907.456-1.248.805a802.127 802.127 0 0 0-7.373 7.675c-.267.281-.42.671-.733 1.188 3.6-.346 6.453.897 8.974 2.946 2.49 2.024 4.166 4.673 5.385 8.05l.478-3.68.39.06-.338 7.16c1.072-.64 1.399-1.35 1.543-2.302.311-2.055.775-4.088 1.176-6.13l.37.063-.769 6.029c.847-.789 1.47-1.106 1.593-2.126.336-2.792.891-5.558 1.36-8.335l.436.068c.1 2.624-.839 5.133-1.16 7.997zM11.89 76l.736-5.712.4.04-.51 5.649c1.588.26 2.936-.033 4.28-.76-.036-.641-.03-1.21-.111-1.765a4.722 4.722 0 0 0-.368-1.273c-2.116-4.6-5.579-7.744-10.321-9.484-.293-.108-.605-.205-.914-.224-1.326-.084-3.062.942-3.107 1.894-.106 2.28.553 4.365 1.724 6.672l.944-5.454.37.059c-.232 1.609-.431 3.223-.706 4.824-.269 1.567-.265 1.637 1.286 2.47.574-2.129.518-4.39 1.349-6.446-.098 2.089-.33 4.15-.538 6.215-.08.786-.072 1.559 1.048 1.722.156-1.18.3-2.354.467-3.524.169-1.174.361-2.345.543-3.518l.41.056-.708 7.621 1.57.433c.148-1.303.22-2.442.418-3.558.196-1.103-.088-2.312.85-3.288l-.593 6.945c.286.132.502.269.738.331.235.063.49.053.743.075zM64.653 7.302c-1.183-3.673.376-5.042 2.69-5.928 2.387-.913 3.916-.15 5.111 2.235 3.397.486 4.116 1.708 3.154 4.831-.663 2.15-1.822 3.448-4.324 3.558-.562.025-1.143.7-1.616 1.167-.351.347-.522.852-.81 1.264-.434.62-.994.749-1.668.319-1.07-.682-2.146-1.357-3.221-2.033-.38-.24-.795-.44-1.14-.718-1.058-.85-1.094-1.41-.16-2.497.655-.764 1.35-1.497 1.984-2.198zm3.132 5.57c.63-.57 1.164-1.101 1.754-1.566.388-.305.857-.727 1.295-.731 2.36-.024 3.005-1.687 3.558-3.337.186-.557.06-1.427-.302-1.876-.53-.657-1.368-.46-2.107-.01-.285.172-.703.15-1.06.215-.037-.386-.145-.78-.097-1.156.144-1.128-.192-1.798-1.109-2.047-1.15-.313-2.762.307-3.595 1.383-.774 1-.697 1.538.389 2.951.102.134.103.337.163.55l-3.283 3.565 4.394 2.059zM65.388 36c.07-.716.126-1.433.214-2.148.19-1.542.546-3.082.557-4.625.013-1.893-.654-3.671-1.86-5.27-.453-.601-.831-1.247-1.299-1.957 1.872.193 3.632 1.924 4.475 4.232 1.176 3.224.332 8.27-2.087 9.768zM43 1.68c.666-.352 1.3-.839 2.002-1.034 4.074-1.136 8.064-.787 11.883 1.147.778.394 1.425 1.145 2.049 1.823.156.17-.01.694-.043 1.384-2.32-2.443-4.99-3.286-7.754-3.396-2.665-.106-5.347.313-8.02.502L43 1.68zM41.042 16c-.23-1.48.535-1.88 1.105-2.301 1.886-1.395 3.978-2.323 6.255-2.574 1.488-.165 3.006-.151 4.5-.049 1.22.084 2.386.491 3.098 1.78-4.524-2.133-8.553-.659-12.474 1.76-.738.456-1.51.844-2.484 1.384zM72.07 32c-.126-.65-.357-1.301-.359-1.952-.008-3.163-.806-6.017-2.569-8.532-.084-.12-.088-.31-.142-.516 3.294 1.282 5.27 7.69 3.07 11zM56.895 9c-1.697-1.61-3.056-3.515-5.485-3.597-2.13-.072-4.268.088-6.41.145.939-.945 2.337-1.094 3.625-1.36 2.83-.588 5.298.222 7.325 2.19.635.616 1.316 1.32.945 2.622zM69 18.524c1.717-.79 3.117-.663 4.427.226.99.671 1.868 1.483 1.478 3.25-.967-.901-1.679-1.805-2.596-2.351-.894-.533-1.998-.7-3.309-1.125zM39 16.748c-1.793 2.089-2.629 2.539-4 2.098.119-1.435 1.113-2.045 2.14-2.583.81-.425.833-.384 1.86.485zM74 35.967c-.086.415-.081.864-.262 1.153-.233.374-.598.84-.935.875-.608.064-.798-.553-.79-1.204.008-.584-.068-1.204.076-1.74.114-.427.474-.992.783-1.048.262-.047.673.492.897.87.175.295.164.741.231 1.094zM36 3.858c.305-1.293 1.448-1.383 2.358-1.737.644-.25 1.17-.136 1.642.568-1.15.975-2.308 1.609-4 1.169zM66.755 43c-.255-.37-.756-.769-.755-1.166.003-.754 1.455-1.892 2.203-1.832.298.025.832.406.795.472-.443.785-.965 1.546-1.493 2.302-.054.078-.276.088-.75.224zM41 6.505c-.852.796-1.549 1.81-3 1.402.414-1.807 1.757-2.452 3-1.402zM64.731 45c.49.974.238 1.773-.183 2.494-.156.268-.708.583-.876.49-.314-.177-.68-.639-.672-.974.024-1.103.716-1.686 1.731-2.01zM72.25 43c-.555-1.007-.081-1.88.404-2.72.099-.17.538-.336.695-.262.265.126.552.418.617.686.205.855-.527 1.814-1.716 2.296zM78 28.155c-.16.19-.4.698-.734.824-.511.194-1.297-1.012-1.265-1.992.01-.34.335-.857.599-.955.61-.229 1.355.81 1.4 2.123zM34 21.083c-.685.773-1.094 1.365-1.664 1.813-.219.172-.857.11-1.197-.031-.155-.064-.2-.657-.034-.867.514-.653 1.164-1.215 2.895-.915zM32 12c.367-1.774.467-1.867 2-2-.113 1.094-.747 1.638-2 2zM32 5c.797-1.005 1.734-1.13 3-.904-1.067.8-1.067.8-3 .904z"/>
        <path d="M29.997 45.504c1.81-.652 3.333-.485 4.785.292 1.418.76 1.653 1.92.412 2.9-1.97 1.557-4.254 2.631-6.726 3.219-1.236.294-2.158-.18-2.998-1.318-1.226-1.66-1.68-3.32-1.38-5.285.244-1.604 1.118-2.829 2.346-3.824 1.303-1.055 3.037-.319 3.38 1.424.149.762.115 1.557.18 2.592z"/>
    </g>
</svg>