<svg xmlns="http://www.w3.org/2000/svg" width="33.75" height="45" viewBox="0 0 33.75 45"><path fill-rule="nonzero" d="M7.031-46.875H-.756a4.653,4.653,0,0,0,.053-.7A4.925,4.925,0,0,0-5.625-52.5a4.925,4.925,0,0,0-4.922,4.922,4.653,4.653,0,0,0,.053.7h-7.787A4.22,4.22,0,0,0-22.5-42.656v30.938A4.22,4.22,0,0,0-18.281-7.5H7.031a4.22,4.22,0,0,0,4.219-4.219V-42.656A4.22,4.22,0,0,0,7.031-46.875ZM-5.625-49.687a2.1,2.1,0,0,1,2.109,2.109,2.1,2.1,0,0,1-2.109,2.109,2.1,2.1,0,0,1-2.109-2.109A2.1,2.1,0,0,1-5.625-49.687ZM8.438-11.719a1.41,1.41,0,0,1-1.406,1.406H-18.281a1.41,1.41,0,0,1-1.406-1.406V-42.656a1.41,1.41,0,0,1,1.406-1.406h4.219V-42.3a1.058,1.058,0,0,0,1.055,1.055H1.758A1.058,1.058,0,0,0,2.813-42.3v-1.758H7.031a1.41,1.41,0,0,1,1.406,1.406ZM-12.656-23.672a2.1,2.1,0,0,0-2.109,2.109,2.1,2.1,0,0,0,2.109,2.109,2.1,2.1,0,0,0,2.109-2.109A2.1,2.1,0,0,0-12.656-23.672Zm14.766.7H-7.734a.705.705,0,0,0-.7.7v1.406a.705.705,0,0,0,.7.7H2.109a.705.705,0,0,0,.7-.7v-1.406A.705.705,0,0,0,2.109-22.969Zm-13.518-5.766,5.643-5.59a.472.472,0,0,0,0-.668l-1.107-1.116a.472.472,0,0,0-.668,0l-4.184,4.148L-13.535-33.8a.472.472,0,0,0-.668,0l-1.116,1.107a.472.472,0,0,0,0,.668l3.261,3.287A.451.451,0,0,0-11.408-28.734ZM2.109-31.406h-6.82L-7.55-28.594H2.109a.705.705,0,0,0,.7-.7V-30.7A.705.705,0,0,0,2.109-31.406Z" transform="translate(22.5 52.5)"/></svg>