<svg xmlns="http://www.w3.org/2000/svg" width="43.965" height="45" viewBox="0 0 43.965 45"><g transform="translate(-189.305 -187.876)"><g transform="translate(200.761 199.85)"><path fill-rule="nonzero" d="M241.989,231.464a10.526,10.526,0,1,1-10.526-10.526A10.526,10.526,0,0,1,241.989,231.464Zm-1.358,0a9.168,9.168,0,1,0-9.167,9.168A9.167,9.167,0,0,0,240.63,231.464Z" transform="translate(-220.937 -220.938)"/></g><path class="a" d="M243.622,192.015a2.07,2.07,0,1,0-2.07-2.07A2.069,2.069,0,0,0,243.622,192.015Zm1.449.517h-.27a2.812,2.812,0,0,1-2.357,0h-.27A2.174,2.174,0,0,0,240,194.706v.673a.776.776,0,0,0,.776.776h5.692a.776.776,0,0,0,.776-.776v-.673A2.174,2.174,0,0,0,245.071,192.533Z" transform="translate(-32.334)"/><path class="a" d="M210.029,205.93a2.069,2.069,0,1,0-2.069-2.07A2.069,2.069,0,0,0,210.029,205.93Zm1.449.518h-.27a2.816,2.816,0,0,1-2.357,0h-.27a2.174,2.174,0,0,0-2.173,2.173v.673a.776.776,0,0,0,.776.776h5.692a.776.776,0,0,0,.776-.776v-.673A2.173,2.173,0,0,0,211.478,206.448Z" transform="translate(-10.908 -8.875)"/><path class="a" d="M192.927,242.711a2.069,2.069,0,1,0-2.07-2.069A2.069,2.069,0,0,0,192.927,242.711Zm1.449.518h-.27a2.816,2.816,0,0,1-2.357,0h-.27A2.173,2.173,0,0,0,189.3,245.4v.673a.776.776,0,0,0,.776.776h5.691a.776.776,0,0,0,.776-.776V245.4A2.174,2.174,0,0,0,194.375,243.229Z" transform="translate(0 -32.335)"/><path class="a" d="M210.03,273.114a2.07,2.07,0,1,0-2.069-2.069A2.069,2.069,0,0,0,210.03,273.114Zm1.449.518h-.27a2.816,2.816,0,0,1-2.357,0h-.27a2.173,2.173,0,0,0-2.173,2.173v.673a.776.776,0,0,0,.776.776h5.691a.776.776,0,0,0,.776-.776V275.8A2.174,2.174,0,0,0,211.479,273.632Z" transform="translate(-10.909 -51.727)"/><path class="a" d="M243.622,293.406a2.069,2.069,0,1,0-2.07-2.069A2.069,2.069,0,0,0,243.622,293.406Zm1.449.518h-.27a2.815,2.815,0,0,1-2.357,0h-.27A2.174,2.174,0,0,0,240,296.1v.673a.776.776,0,0,0,.776.776h5.692a.776.776,0,0,0,.776-.776V296.1A2.173,2.173,0,0,0,245.071,293.924Z" transform="translate(-32.334 -64.669)"/><path class="a" d="M277.215,273.114a2.069,2.069,0,1,0-2.07-2.07A2.069,2.069,0,0,0,277.215,273.114Zm1.449.518h-.27a2.815,2.815,0,0,1-2.357,0h-.27a2.174,2.174,0,0,0-2.173,2.173v.673a.776.776,0,0,0,.776.776h5.692a.776.776,0,0,0,.776-.776V275.8A2.174,2.174,0,0,0,278.664,273.632Z" transform="translate(-53.761 -51.727)"/><path class="a" d="M294.317,242.71a2.07,2.07,0,1,0-2.069-2.07A2.07,2.07,0,0,0,294.317,242.71Zm1.449.517h-.27a2.816,2.816,0,0,1-2.357,0h-.27A2.174,2.174,0,0,0,290.7,245.4v.673a.776.776,0,0,0,.776.776h5.691a.776.776,0,0,0,.776-.776V245.4A2.174,2.174,0,0,0,295.766,243.228Z" transform="translate(-64.669 -32.334)"/><path class="a" d="M277.214,205.929a2.07,2.07,0,1,0-2.07-2.069A2.069,2.069,0,0,0,277.214,205.929Zm1.449.517h-.27a2.812,2.812,0,0,1-2.357,0h-.27a2.174,2.174,0,0,0-2.173,2.173v.673a.776.776,0,0,0,.776.776h5.691a.776.776,0,0,0,.776-.776v-.673A2.174,2.174,0,0,0,278.663,206.447Z" transform="translate(-53.76 -8.875)"/></g></svg>