<svg xmlns="http://www.w3.org/2000/svg" id="Group_3" data-name="Group 3" width="120" height="35.718" viewBox="0 0 120 35.718">
    <path id="Path_1" data-name="Path 1" d="M10.284,7.021A5.381,5.381,0,0,0,6.276,5.13,6.086,6.086,0,0,0,1.784,7.069,6.779,6.779,0,0,0,0,11.715a6.727,6.727,0,0,0,1.787,4.634,6.1,6.1,0,0,0,4.489,1.927,5.337,5.337,0,0,0,4.079-1.986v1.677H12.6V0H10.284ZM6.276,16.127a3.761,3.761,0,0,1-2.809-1.283,4.648,4.648,0,0,1-1.152-3.105A4.724,4.724,0,0,1,3.468,8.592,3.746,3.746,0,0,1,6.276,7.3,3.818,3.818,0,0,1,9.091,8.595a4.65,4.65,0,0,1,1.193,3.144,4.577,4.577,0,0,1-1.193,3.1A3.829,3.829,0,0,1,6.276,16.127ZM23.561,5.439h2.316V17.967H23.632v-1.1a4.7,4.7,0,0,1-3.414,1.386,4.613,4.613,0,0,1-3.586-1.5,5.65,5.65,0,0,1-1.265-3.806V5.439h2.292v7.606a3.259,3.259,0,0,0,.739,2.244,2.762,2.762,0,0,0,2.129.837,2.958,2.958,0,0,0,3.034-3.034Zm-6.1-1.579h-.148V1.211h2.458V3.859Zm3.99,0H21.3V1.211h2.482V3.859ZM30.591.846,30.579.689h1.383L32,.79a2.277,2.277,0,0,0,.834,1.182,2.565,2.565,0,0,0,1.517.428,2.9,2.9,0,0,0,1.716-.428A1.915,1.915,0,0,0,36.79.8l.027-.113h1.3L38.1.846a3.331,3.331,0,0,1-1.116,2.3,3.916,3.916,0,0,1-2.642.92A3.94,3.94,0,0,1,31.7,3.15,3.343,3.343,0,0,1,30.591.846ZM38.5,7.1A5.389,5.389,0,0,0,34.421,5.13a6.086,6.086,0,0,0-4.492,1.939,6.751,6.751,0,0,0-1.784,4.646,6.727,6.727,0,0,0,1.787,4.634,6.1,6.1,0,0,0,4.489,1.927,5.381,5.381,0,0,0,4.008-1.891v.864A5.042,5.042,0,0,1,37.5,20.3,3.794,3.794,0,0,1,34.3,21.732a4.855,4.855,0,0,1-1.808-.347,3.143,3.143,0,0,1-1.716-1.654l-.039-.089h-2.4l.045.184a5.164,5.164,0,0,0,2.09,3.04,6.642,6.642,0,0,0,3.827,1.11,6.3,6.3,0,0,0,4.661-1.864,6.893,6.893,0,0,0,1.781-4.863V5.439H38.5V7.1Zm-4.079,9.028a3.761,3.761,0,0,1-2.809-1.283,4.633,4.633,0,0,1-1.152-3.105,4.724,4.724,0,0,1,1.152-3.147A3.746,3.746,0,0,1,34.421,7.3a3.818,3.818,0,0,1,2.814,1.291,4.65,4.65,0,0,1,1.193,3.144,4.577,4.577,0,0,1-1.193,3.1A3.834,3.834,0,0,1,34.421,16.127ZM45.536,3.859h-.148V1.211h2.458V3.859Zm3.99,0h-.148V1.211h2.482V3.859Zm2.108,1.579H53.95V17.967H51.705v-1.1a4.7,4.7,0,0,1-3.414,1.386,4.613,4.613,0,0,1-3.586-1.5A5.65,5.65,0,0,1,43.44,12.95V5.439h2.292v7.606a3.259,3.259,0,0,0,.739,2.244,2.762,2.762,0,0,0,2.129.837,2.958,2.958,0,0,0,3.034-3.034ZM66.362,6.629a5.706,5.706,0,0,1,1.265,3.827v7.511H65.335V10.385a3.328,3.328,0,0,0-.73-2.233,2.693,2.693,0,0,0-2.114-.873,2.969,2.969,0,0,0-3.058,3.058v7.63H57.117V5.439h2.244v1.1a4.687,4.687,0,0,1,3.414-1.4A4.6,4.6,0,0,1,66.362,6.629Zm3.845,8.595h2.672v2.743H70.207Zm7.4-6.647a4.7,4.7,0,0,0-1.17,3.138,4.6,4.6,0,0,0,1.17,3.111,3.737,3.737,0,0,0,6.2-.873l.042-.083h2.458l-.062.2A5.974,5.974,0,0,1,80.4,18.252a6.142,6.142,0,0,1-4.435-1.912,6.651,6.651,0,0,1-1.841-4.625,6.737,6.737,0,0,1,1.841-4.649A6.121,6.121,0,0,1,80.4,5.127a5.994,5.994,0,0,1,5.84,4.186l.065.2H83.849l-.042-.08a3.717,3.717,0,0,0-6.2-.852ZM93.773,5.13A6.112,6.112,0,0,0,89.29,7.072a6.772,6.772,0,0,0-1.817,4.667,6.629,6.629,0,0,0,1.817,4.6,6.229,6.229,0,0,0,8.975,0,6.629,6.629,0,0,0,1.808-4.6,6.773,6.773,0,0,0-1.808-4.667A6.107,6.107,0,0,0,93.773,5.13Zm0,10.973a3.773,3.773,0,0,1-2.791-1.274,4.574,4.574,0,0,1-1.17-3.091,4.749,4.749,0,0,1,1.17-3.159,3.736,3.736,0,0,1,2.791-1.3,3.776,3.776,0,0,1,2.811,1.3,4.722,4.722,0,0,1,1.173,3.159,4.55,4.55,0,0,1-1.173,3.091A3.8,3.8,0,0,1,93.773,16.1ZM120,10.242v7.725h-2.316V10.195a3.181,3.181,0,0,0-.65-2.146,2.493,2.493,0,0,0-1.98-.769,2.567,2.567,0,0,0-1.951.867,3.263,3.263,0,0,0-.775,2.191v7.63h-2.292V10.195a3.179,3.179,0,0,0-.665-2.146,2.461,2.461,0,0,0-1.942-.769,2.589,2.589,0,0,0-1.962.87,3.24,3.24,0,0,0-.787,2.191v7.63h-2.316V5.442h2.244V6.511a4.11,4.11,0,0,1,3.105-1.378,4.3,4.3,0,0,1,3.779,1.959,4.435,4.435,0,0,1,3.821-1.959,4.487,4.487,0,0,1,3.438,1.389A5.417,5.417,0,0,1,120,10.242Z" fill="#db0962"/>
    <path id="Path_544" data-name="Path 544" d="M6.569-5.45H5.59v.979A2.645,2.645,0,0,0,3.465-5.606,3.123,3.123,0,0,0,.385-2.371,3.113,3.113,0,0,0,3.465.853,2.654,2.654,0,0,0,5.554-.234V.411A2.1,2.1,0,0,1,3.405,2.739a1.94,1.94,0,0,1-1.838-1.05H.5a2.792,2.792,0,0,0,2.9,2.029A3.072,3.072,0,0,0,6.569.411ZM5.554-2.359A2.208,2.208,0,0,1,3.465-.079,2.173,2.173,0,0,1,1.4-2.359a2.18,2.18,0,0,1,2.065-2.3A2.214,2.214,0,0,1,5.554-2.359Zm6.6-4.035V-7.575h-1.1v1.182Zm-2.017,0V-7.575H9.052v1.182Zm3.068.943H12.191v3.772a1.563,1.563,0,0,1-1.6,1.6A1.448,1.448,0,0,1,9.075-1.7V-5.45h-1v3.7A2.321,2.321,0,0,0,10.436.841,2.275,2.275,0,0,0,12.227.029V.7h.979Zm6.542,0H18.673l-1.7,4.894L15.271-5.45H14.2L16.429.7h1.086ZM25.2-1.213A1.894,1.894,0,0,1,23.376-.079a2.158,2.158,0,0,1-2.125-2.029H26.42a3.234,3.234,0,0,0-3.1-3.5,3.171,3.171,0,0,0-3.092,3.235A3.147,3.147,0,0,0,23.376.841a2.869,2.869,0,0,0,2.9-2.053Zm-3.892-1.8a2.138,2.138,0,0,1,2.005-1.671A2.114,2.114,0,0,1,25.3-3.015ZM32.795-3a2.325,2.325,0,0,0-2.364-2.6,2.265,2.265,0,0,0-1.791.824V-5.45h-.979V.7h1.015v-3.76a1.569,1.569,0,0,1,1.612-1.612,1.466,1.466,0,0,1,1.5,1.635V.7h1Zm2.758-5.181H34.538V.7h1.015Zm2.674.6H37.212v1.206h1.015Zm0,2.137H37.212V.7h1.015ZM47.7-6.393V-7.575h-1.1v1.182Zm-2.017,0V-7.575h-1.1v1.182Zm.454.788a3.151,3.151,0,0,0-3.092,3.247,3.124,3.124,0,0,0,3.092,3.2,3.117,3.117,0,0,0,3.092-3.2A3.144,3.144,0,0,0,46.141-5.606Zm0,5.515a2.178,2.178,0,0,1-2.065-2.268,2.207,2.207,0,0,1,2.065-2.316,2.208,2.208,0,0,1,2.077,2.316A2.179,2.179,0,0,1,46.141-.09ZM56.264-8.184H55.249v3.665A2.654,2.654,0,0,0,53.16-5.606a3.123,3.123,0,0,0-3.08,3.235A3.113,3.113,0,0,0,53.16.853,2.623,2.623,0,0,0,55.285-.293V.7h.979ZM55.249-2.359A2.208,2.208,0,0,1,53.16-.079a2.173,2.173,0,0,1-2.065-2.28,2.18,2.18,0,0,1,2.065-2.3A2.214,2.214,0,0,1,55.249-2.359Zm7.282,1.146A1.894,1.894,0,0,1,60.7-.079,2.158,2.158,0,0,1,58.58-2.108h5.169a3.234,3.234,0,0,0-3.1-3.5,3.171,3.171,0,0,0-3.092,3.235A3.147,3.147,0,0,0,60.7.841a2.869,2.869,0,0,0,2.9-2.053Zm-3.892-1.8a2.138,2.138,0,0,1,2.005-1.671,2.114,2.114,0,0,1,1.982,1.671Zm15.065-.1a2.219,2.219,0,0,0-2.28-2.495A2.155,2.155,0,0,0,69.5-4.555a2.083,2.083,0,0,0-1.9-1.05,2,2,0,0,0-1.635.824V-5.45H64.99V.7H66v-3.76a1.5,1.5,0,0,1,1.456-1.612c.907,0,1.385.585,1.385,1.54V.7h1v-3.76a1.493,1.493,0,0,1,1.444-1.612c.943,0,1.4.585,1.4,1.54V.7H73.7Zm6.231,1.9A1.894,1.894,0,0,1,78.109-.079a2.158,2.158,0,0,1-2.125-2.029h5.169a3.234,3.234,0,0,0-3.1-3.5,3.171,3.171,0,0,0-3.092,3.235A3.147,3.147,0,0,0,78.109.841a2.869,2.869,0,0,0,2.9-2.053Zm-3.892-1.8a2.138,2.138,0,0,1,2.005-1.671,2.114,2.114,0,0,1,1.982,1.671Z" transform="translate(38.654 32)" fill="#00abaa"/>
</svg>