<svg xmlns="http://www.w3.org/2000/svg" width="126.709" height="33.816" viewBox="0 0 126.709 33.816">
  <g id="Group_3719" data-name="Group 3719" transform="translate(-44.286 -890.266)">
    <path id="Path_1582" data-name="Path 1582" d="M-113.778-11.508a.919.919,0,0,1-1.029-1.05.91.91,0,0,1,1.029-1.029.9.9,0,0,1,1.008,1.029Q-112.77-11.508-113.778-11.508ZM-123,0a3.516,3.516,0,0,1-2.814-1.2,4.089,4.089,0,0,1-.9-2.73v-2.52l1.806-.966v3.318q0,2.394,2.205,2.394h5.733a4.282,4.282,0,0,1-.987-2.982,5.026,5.026,0,0,1,1.2-3.57,3.691,3.691,0,0,1,2.814-1.134A3.446,3.446,0,0,1-111.2-8.274a3.787,3.787,0,0,1,.861,2.583v1.974a3.691,3.691,0,0,1-1.071,2.793,3.656,3.656,0,0,1-2.6.924Zm10.857-5.607q0-2.1-1.806-2.1a1.9,1.9,0,0,0-1.627.788,3.651,3.651,0,0,0-.577,2.194,3.812,3.812,0,0,0,.567,2.2,1.755,1.755,0,0,0,1.512.819q1.932,0,1.932-2.1ZM-103.11,0a3.469,3.469,0,0,1-2.814-1.176,3.867,3.867,0,0,1-.84-2.562v-8.841l1.806-.966V-3.8A1.838,1.838,0,0,0-102.9-1.7h1.386V0Zm7.182-11.529a.919.919,0,0,1-1.029-1.05.91.91,0,0,1,1.029-1.029.9.9,0,0,1,1.008,1.029Q-94.92-11.529-95.928-11.529ZM-102.774,0V-1.7h3.78a4.293,4.293,0,0,1-.966-2.982,5.026,5.026,0,0,1,1.2-3.57A3.624,3.624,0,0,1-95.97-9.387,3.511,3.511,0,0,1-93.2-8.274a3.848,3.848,0,0,1,.84,2.583V-3.7A3.786,3.786,0,0,1-93.387-.945,3.637,3.637,0,0,1-96.012,0Zm8.61-5.607q0-2.1-1.806-2.1a1.907,1.907,0,0,0-1.617.788,3.6,3.6,0,0,0-.588,2.194,3.812,3.812,0,0,0,.567,2.2A1.755,1.755,0,0,0-96.1-1.7q1.932,0,1.932-2.016Zm7.266-6.048a.919.919,0,0,1-1.029-1.05A.91.91,0,0,1-86.9-13.734.9.9,0,0,1-85.89-12.7Q-85.89-11.655-86.9-11.655ZM-83.643-1.7h1.386V0h-1.6A3.833,3.833,0,0,1-85.7-.42,5.129,5.129,0,0,1-87.15,2.9a3.969,3.969,0,0,1-2.9,1.134,5.216,5.216,0,0,1-2.457-.63V1.827a4.416,4.416,0,0,0,2.142.588,2.59,2.59,0,0,0,2.1-.9,3.778,3.778,0,0,0,.756-2.5V-8.148l1.806-.966v.021l.021-.021v5.733A1.775,1.775,0,0,0-83.643-1.7Zm.126,1.7V-1.7H-82.4q2.184,0,2.184-2.289v-8.589l1.827-.966v9.576a3.959,3.959,0,0,1-1.113,2.961A3.806,3.806,0,0,1-82.257,0Zm8.9,0V-12.579l1.806-.966V0ZM-47.4-1.7h1.386V0h-1.6a3.462,3.462,0,0,1-2.625-.987A3.06,3.06,0,0,1-52.668,0H-65.982l.9-1.7h2.814l.063-.231V-12.579l1.806-.966v7.686Q-58-9.387-54.453-9.387a4.765,4.765,0,0,1,3.8,1.659,5.108,5.108,0,0,1,1.218,3.465v.5A1.81,1.81,0,0,0-47.4-1.7Zm-3.864-1.974v-.588a3.438,3.438,0,0,0-1.008-2.6,2.972,2.972,0,0,0-2.163-.84,5.156,5.156,0,0,0-3.906,1.953A10.7,10.7,0,0,0-60.4-2.079V-1.7h7.581a1.483,1.483,0,0,0,1.229-.42A2.666,2.666,0,0,0-51.261-3.675Zm11.3,1.974h1.386V0h-1.6a3.525,3.525,0,0,1-2.751-1.113A3.525,3.525,0,0,1-45.675,0h-1.6V-1.7h1.386a1.838,1.838,0,0,0,2.058-2.1V-8.148l1.806-.966V-3.8A1.838,1.838,0,0,0-39.963-1.7Zm-5.019,3.8q1.008,0,1.008,1.05a.9.9,0,0,1-1.008,1.029A.91.91,0,0,1-46.011,3.15.919.919,0,0,1-44.982,2.1Zm2.667,0q1.008,0,1.008,1.05a.9.9,0,0,1-1.008,1.029A.91.91,0,0,1-43.344,3.15.919.919,0,0,1-42.315,2.1Zm21.252-3.8h1.386V0h-1.6A3.462,3.462,0,0,1-23.9-.987,3.06,3.06,0,0,1-26.334,0h-13.5V-1.7h3.906l.063-.231V-12.579l1.806-.966v7.686q2.394-3.528,5.943-3.528a4.765,4.765,0,0,1,3.8,1.659A5.108,5.108,0,0,1-23.1-4.263v.5A1.81,1.81,0,0,0-21.063-1.7Zm-3.864-1.974v-.588a3.438,3.438,0,0,0-1.008-2.6,2.972,2.972,0,0,0-2.163-.84A5.156,5.156,0,0,0-32-5.754a10.7,10.7,0,0,0-2.058,3.675V-1.7h7.581a1.483,1.483,0,0,0,1.229-.42A2.666,2.666,0,0,0-24.927-3.675Zm10.353-7.98A.919.919,0,0,1-15.6-12.7a.91.91,0,0,1,1.029-1.029A.9.9,0,0,1-13.566-12.7Q-13.566-11.655-14.574-11.655ZM-7.245-1.7H-5.88V0H-7.266A7.9,7.9,0,0,1-10-.389a4.909,4.909,0,0,1-1.911-1.375A10.869,10.869,0,0,1-18.081,0h-2.856V-1.7h2.877a8.523,8.523,0,0,0,6.741-2.814q-1.743-3.213-4.242-3.213a5.127,5.127,0,0,0-3.507,1.806V-7.6A5.233,5.233,0,0,1-15.33-9.387,5.069,5.069,0,0,1-12.2-8.222,10.151,10.151,0,0,1-9.534-4.893v.924a9.667,9.667,0,0,1-1.239,1.323A5.449,5.449,0,0,0-7.245-1.7Zm1.722-9.954A.919.919,0,0,1-6.552-12.7a.91.91,0,0,1,1.029-1.029A.9.9,0,0,1-4.515-12.7Q-4.515-11.655-5.523-11.655Zm2.667,0A.919.919,0,0,1-3.885-12.7a.91.91,0,0,1,1.029-1.029A.9.9,0,0,1-1.848-12.7Q-1.848-11.655-2.856-11.655ZM-7.14,0V-1.7h1.386A1.838,1.838,0,0,0-3.7-3.8V-8.148l1.806-.966v5.376A3.719,3.719,0,0,1-2.961-.924,3.627,3.627,0,0,1-5.544,0Z" transform="translate(171 904)" fill="#1a1a1a"/>
    <g id="Group_2565" data-name="Group 2565" transform="translate(119.047 910.082)">
      <path id="Path_1199" data-name="Path 1199" d="M108.826,483.116a3.488,3.488,0,0,0,1.365-.243.369.369,0,0,0,.243-.358q0-.426-.392-.426a.487.487,0,0,0-.176.034,4.885,4.885,0,0,1-1.149.378q-.622.088-.622.3Q108.1,483.116,108.826,483.116Z" transform="translate(-101.272 -475.697)" fill="#db0962"/>
      <path id="Path_1200" data-name="Path 1200" d="M147.774,499.929a.374.374,0,0,0,.33-.191l.23-.372a.428.428,0,0,0,.07-.223.375.375,0,0,0-.128-.286.426.426,0,0,0-.3-.118.373.373,0,0,0-.331.2l-.23.369a.434.434,0,0,0-.068.222.373.373,0,0,0,.128.285A.425.425,0,0,0,147.774,499.929Z" transform="translate(-137.005 -490.854)" fill="#db0962"/>
      <path id="Path_1201" data-name="Path 1201" d="M43.723,507.126a.488.488,0,0,0-.3.149,2.176,2.176,0,0,1-1.487.568h-.007a.455.455,0,0,1-.459-.365q-.014-.047-.095-.669-.047-.365-.23-.365a.7.7,0,0,0-.345.142,9.143,9.143,0,0,1-2.277,1,10.522,10.522,0,0,1-3.081.507,5.5,5.5,0,0,1-1.581-.216q-1.047-.311-1.047-.959,0-1.236,4.514-2.122.709-.142.709-.338,0-.142-.419-.142a2.381,2.381,0,0,0-.291.02Q32,504.9,32,506.916a1.713,1.713,0,0,0,1.257,1.622,5.8,5.8,0,0,0,2.182.365,11.032,11.032,0,0,0,2.872-.419,12.042,12.042,0,0,0,2.4-.9,1.078,1.078,0,0,0,1.216,1.068h.007a2.01,2.01,0,0,0,1.872-.919.72.72,0,0,0,.115-.358Q43.919,507.126,43.723,507.126Z" transform="translate(-32 -495.929)" fill="#db0962"/>
      <path id="Path_1202" data-name="Path 1202" d="M171.337,541.534a.367.367,0,0,0-.3.162l-.162.21a.415.415,0,0,0-.081.243.422.422,0,0,0,.139.311.438.438,0,0,0,.314.135.373.373,0,0,0,.311-.162l.155-.216a.394.394,0,0,0,.088-.243.407.407,0,0,0-.142-.307A.455.455,0,0,0,171.337,541.534Z" transform="translate(-158.343 -529.811)" fill="#db0962"/>
      <path id="Path_1203" data-name="Path 1203" d="M349.986,413.022a.69.69,0,0,0,.613-.362l.425-.687a.815.815,0,0,0,.125-.413.7.7,0,0,0-.237-.531.785.785,0,0,0-.548-.219.687.687,0,0,0-.611.365l-.425.688a.789.789,0,0,0-.129.412.693.693,0,0,0,.237.53A.787.787,0,0,0,349.986,413.022Z" transform="translate(-320.753 -410.81)" fill="#db0962"/>
      <path id="Path_1204" data-name="Path 1204" d="M198.892,471.885a1.788,1.788,0,0,0-1.406.656,2.084,2.084,0,0,0-.569,1.381q0,1.137,1.337,1.137a3.3,3.3,0,0,0,.725-.088.244.244,0,0,1,.325.212.692.692,0,0,1-.075.475q-.675,1.275-4.5,2.175a21.812,21.812,0,0,1-4.638.687,11.969,11.969,0,0,1-4.9-.8q-1.475-.675-1.475-1.65,0-.775,1.35-1.625a15.059,15.059,0,0,1,5.5-1.775q2.112-.35,2.113-.825,0-.45-2.225-.375a14.078,14.078,0,0,0-4.975,1.15q-3.262,1.375-3.262,3.45,0,1.975,2.35,3.012a13.7,13.7,0,0,0,5.525.938,21.463,21.463,0,0,0,4.875-.663,10.673,10.673,0,0,0,5.088-2.35,3.1,3.1,0,0,0,.75-2.262,3.84,3.84,0,0,0-.25-1.413Q199.979,471.885,198.892,471.885Z" transform="translate(-168.745 -466.022)" fill="#db0962"/>
      <path id="Path_1205" data-name="Path 1205" d="M463.942,424.442a.743.743,0,0,0,.66-.395l.46-.743a.854.854,0,0,0,.14-.445.75.75,0,0,0-.257-.573.853.853,0,0,0-.595-.236.746.746,0,0,0-.662.392l-.459.743a.879.879,0,0,0-.135.446.753.753,0,0,0,.256.574A.846.846,0,0,0,463.942,424.442Z" transform="translate(-424.432 -421.042)" fill="#db0962"/>
      <path id="Path_1206" data-name="Path 1206" d="M402.764,422.388q-.622-1.581-1.8-1.581a1.983,1.983,0,0,0-1.541.743,2.22,2.22,0,0,0-.595,1.473q0,1.216,1.432,1.216a4.2,4.2,0,0,0,.8-.081q.351-.081.392.216a.947.947,0,0,1-.108.514,2.909,2.909,0,0,1-1.851,1.2,9.316,9.316,0,0,1-2.716.405h-.013q-.865,0-.905-.392-.622-6.365-1.027-10.419-.068-.568-.581-.568a1,1,0,0,0-.716.324,1.015,1.015,0,0,0-.284.838q.811,6.311,1.014,10.068.094,1.77,2.5,1.77h.013a10.869,10.869,0,0,0,2.811-.378,5.819,5.819,0,0,0,2.649-1.365,3.275,3.275,0,0,0,.811-2.432A4.048,4.048,0,0,0,402.764,422.388Z" transform="translate(-360.846 -414.732)" fill="#db0962"/>
      <path id="Path_1207" data-name="Path 1207" d="M508.989,495.383a.981.981,0,0,0-.568-.324q-.324,0-.946,1.243-.811,1.608-5.757,3.176a18.586,18.586,0,0,0-2.2.784q-.216.122-.216.284,0,.487,1.027.486a14.705,14.705,0,0,0,4.392-.919,8.991,8.991,0,0,0,2.27-1.041,6.516,6.516,0,0,0,1.892-1.851,2.364,2.364,0,0,0,.459-1.176A.919.919,0,0,0,508.989,495.383Z" transform="translate(-457.392 -487.504)" fill="#db0962"/>
      <path id="Path_1208" data-name="Path 1208" d="M584.083,428.137a.747.747,0,0,0,.662-.392l.459-.743a.882.882,0,0,0,.135-.446.753.753,0,0,0-.256-.574.847.847,0,0,0-.592-.237.743.743,0,0,0-.66.395l-.46.743a.853.853,0,0,0-.14.445.75.75,0,0,0,.257.573A.851.851,0,0,0,584.083,428.137Z" transform="translate(-533.797 -424.406)" fill="#db0962"/>
    </g>
  </g>
</svg>
