<svg width="20" height="20" viewBox="0 0 20 20">
    <path fill-rule="nonzero" d="M1 11.988h8V20H3c-1.103 0-2-.898-2-2.003v-6.009zm10 0h8v6.009A2.003 2.003 0 0 1 17 20h-6v-8.012zm7-6.009c1.104 0 2 .899 2 2.003v3.005h-9V6.98H9v4.006H0V7.982C0 6.878.897 5.98 2 5.98h3.114A5.028 5.028 0 0 1 3.879 5.1a3.01 3.01 0 0 1 0-4.248C5.012-.283 6.986-.283 8.121.85 9.758 2.49 9.979 5.575 9.998 5.92c.002.021-.008.038-.008.058h.02c0-.02-.01-.037-.008-.057.02-.346.24-3.432 1.877-5.071C13.014-.284 14.986-.283 16.121.85a3.014 3.014 0 0 1 0 4.25 5.028 5.028 0 0 1-1.235.88H18zM5.293 3.684c.586.587 1.652.933 2.532 1.117-.184-.884-.528-1.943-1.118-2.534A.988.988 0 0 0 6 1.974a.988.988 0 0 0-.707.293c-.39.39-.39 1.025 0 1.417zm6.881 1.119c.883-.183 1.942-.527 2.533-1.12a1.006 1.006 0 0 0-.001-1.417.987.987 0 0 0-.706-.292.985.985 0 0 0-.707.294c-.591.59-.934 1.65-1.119 2.535z"/>
</svg>