<svg xmlns="http://www.w3.org/2000/svg" width="20" height="19" viewBox="0 0 20 19">
    <path fill-rule="nonzero" d="M19.956 13.706L16.331 1.924A2.715 2.715 0 0 0 13.726 0 2.73 2.73 0 0 0 11 2.726V4H9V2.726A2.73 2.73 0 0 0 6.274 0C5.07 0 4.024.774 3.669 1.924L.044 13.706A1.007 1.007 0 0 0 0 14v.5C0 16.982 2.019 19 4.5 19S9 16.982 9 14.5V10h2v4.5c0 2.482 2.019 4.5 4.5 4.5s4.5-2.018 4.5-4.5V14c0-.1-.015-.199-.044-.294zM4.5 17A2.503 2.503 0 0 1 2 14.5C2 13.122 3.122 12 4.5 12S7 13.122 7 14.5 5.878 17 4.5 17zm11 0a2.503 2.503 0 0 1-2.5-2.5c0-1.378 1.122-2.5 2.5-2.5s2.5 1.122 2.5 2.5-1.122 2.5-2.5 2.5z"/>
</svg>