<svg xmlns="http://www.w3.org/2000/svg" width="19.219" height="24" viewBox="0 0 19.219 24"><g transform="translate(-51 0)"><path d="M68.648,14.123A14.055,14.055,0,0,0,64.7,8.97L65.97,4.748a.7.7,0,0,0,.03-.2c0-1-.971-1.791-2.369-2.033L64.1.9a.7.7,0,1,0-1.351-.39l-.564,1.956a4.341,4.341,0,0,0-1.573.445,4.342,4.342,0,0,0-1.573-.445L58.472.508A.7.7,0,1,0,57.121.9l.466,1.616c-1.4.242-2.369,1.035-2.369,2.033a.7.7,0,0,0,.03.2L56.515,8.97a14.055,14.055,0,0,0-3.944,5.153A17.72,17.72,0,0,0,51,21.476v.063a.7.7,0,0,0,.439.652A24.341,24.341,0,0,0,60.609,24a24.341,24.341,0,0,0,9.17-1.809.7.7,0,0,0,.439-.652v-.063a17.72,17.72,0,0,0-1.571-7.352ZM55.219,21.539v.4a23.587,23.587,0,0,1-2.807-.878c.112-4.554,2.058-8.766,5.15-11.125h.25a16.6,16.6,0,0,0-1.845,4.791A30.473,30.473,0,0,0,55.219,21.539Zm4.687,1.043a22.554,22.554,0,0,1-3.281-.344v-.7a29.052,29.052,0,0,1,.71-6.488,14.374,14.374,0,0,1,1.9-4.724l.266-.389h.406ZM57.851,8.531,56.639,4.489A2.282,2.282,0,0,1,58.5,3.843a2.855,2.855,0,0,1,1.678.452.7.7,0,0,0,.862,0,2.855,2.855,0,0,1,1.678-.452,2.283,2.283,0,0,1,1.861.646L63.367,8.531Zm6.742,13.707a22.547,22.547,0,0,1-3.281.344V9.937h.406l.266.389c1.609,2.352,2.609,6.648,2.609,11.212ZM66,21.94v-.4c0-4.661-.963-8.945-2.592-11.6h.25c3.092,2.359,5.038,6.57,5.15,11.125A23.6,23.6,0,0,1,66,21.94Z"/></g></svg>