<svg xmlns="http://www.w3.org/2000/svg" width="24" height="24" viewBox="0 0 24 24"><path d="M21.5,2,20.25-.5,19,2,16.5,3.25,19,4.5,20.25,7,21.5,4.5,24,3.25ZM20.25,4A.75.75,0,1,1,21,3.25.75.75,0,0,1,20.25,4ZM10.5-9.5l.75-1.5,1.5-.75-1.5-.75L10.5-14l-.75,1.5-1.5.75,1.5.75ZM18.75-5a.75.75,0,0,0,.75-.75V-7.061l4.306-4.773a.75.75,0,0,0-.026-1.034l-.913-.913a.86.86,0,0,0-.53-.22h0a.747.747,0,0,0-.5.194L8.747-2h-2A.75.75,0,0,0,6-1.25V.478L.494,5.445A1.5,1.5,0,0,0,.439,7.618L2.381,9.56a1.5,1.5,0,0,0,2.173-.054L17.641-5ZM3.442,8.5,1.5,6.559l19.846-17.9Zm.308-15L5-9l2.5-1.25L5-11.5,3.75-14,2.5-11.5,0-10.25,2.5-9Zm0-4.5a.75.75,0,0,1,.75.75.75.75,0,0,1-.75.75A.75.75,0,0,1,3-10.25.75.75,0,0,1,3.75-11Z" transform="translate(0 14)" fill="#1a1a1a"/></svg>