<svg xmlns="http://www.w3.org/2000/svg" width="36" height="36" viewBox="0 0 36 36"><defs><style>.a{fill:#1877f2;}.b{fill:#fff;}</style></defs><path class="a" d="M36,18A18,18,0,1,0,15.188,35.781V23.2h-4.57V18h4.57V14.034c0-4.511,2.687-7,6.8-7a27.68,27.68,0,0,1,4.029.352v4.43h-2.27a2.6,2.6,0,0,0-2.933,2.811V18H25.8l-.8,5.2H20.813V35.781A18,18,0,0,0,36,18Z"/><path class="b" d="M316.389,216.172l.8-5.2H312.2v-3.377a2.6,2.6,0,0,1,2.933-2.811h2.27v-4.43a27.68,27.68,0,0,0-4.029-.352c-4.112,0-6.8,2.492-6.8,7v3.966H302v5.2h4.57V228.75a18.19,18.19,0,0,0,5.625,0V216.172Z" transform="translate(-291.383 -192.969)"/></svg>