<svg xmlns="http://www.w3.org/2000/svg" width="24" height="24" viewBox="0 0 24 24"><defs><style>.a{fill:#a5a5a5;}.a,.b{fill-rule:evenodd;}.b{fill:none;}</style></defs><path class="a" d="M20.52,9.818A13.788,13.788,0,0,0,20.3,7.364H9v4.642h6.458a5.52,5.52,0,0,1-2.395,3.622v3.011h3.878a11.7,11.7,0,0,0,3.578-8.82Z" transform="translate(3 2.455)"/><path class="a" d="M11.681,20.43a11.456,11.456,0,0,0,7.942-2.907l-3.878-3.011a7.24,7.24,0,0,1-10.778-3.8H.957v3.109A12,12,0,0,0,11.681,20.43Z" transform="translate(0.319 3.57)"/><path class="a" d="M5.285,12.627a7.094,7.094,0,0,1,0-4.56V4.958H1.276a12.015,12.015,0,0,0,0,10.778l4.009-3.109Z" transform="translate(0 1.653)"/><path class="a" d="M11.681,4.773a6.483,6.483,0,0,1,4.587,1.795L19.71,3.125A11.533,11.533,0,0,0,11.681,0,12,12,0,0,0,.957,6.611L4.966,9.72a7.152,7.152,0,0,1,6.715-4.947Z" transform="translate(0.319)"/><path class="b" d="M0,0H24V24H0Z"/></svg>