<svg xmlns="http://www.w3.org/2000/svg" width="36" height="36" viewBox="0 0 36 36"><defs><style>.a{fill:#4285f4;}.a,.b,.c,.d,.e{fill-rule:evenodd;}.b{fill:#34a853;}.c{fill:#fbbc05;}.d{fill:#ea4335;}.e{fill:none;}</style></defs><path class="a" d="M26.28,11.045a20.682,20.682,0,0,0-.327-3.682H9v6.963h9.687A8.281,8.281,0,0,1,15.1,19.759v4.516h5.817a17.555,17.555,0,0,0,5.367-13.23Z" transform="translate(9 7.364)"/><path class="b" d="M17.043,25.29a17.185,17.185,0,0,0,11.913-4.361l-5.817-4.516a10.819,10.819,0,0,1-6.1,1.718A10.727,10.727,0,0,1,6.971,10.71H.957v4.664A17.993,17.993,0,0,0,17.043,25.29Z" transform="translate(0.957 10.71)"/><path class="c" d="M7.928,16.462a10.641,10.641,0,0,1,0-6.84V4.958H1.915a18.023,18.023,0,0,0,0,16.167l6.014-4.664Z" transform="translate(0 4.958)"/><path class="d" d="M17.043,7.159a9.724,9.724,0,0,1,6.881,2.692l5.163-5.163A17.3,17.3,0,0,0,17.043,0,17.993,17.993,0,0,0,.957,9.916L6.971,14.58A10.727,10.727,0,0,1,17.043,7.159Z" transform="translate(0.957)"/><path class="e" d="M0,0H36V36H0Z"/></svg>