<svg xmlns:dc="http://purl.org/dc/elements/1.1/" xmlns:cc="http://creativecommons.org/ns#" xmlns:rdf="http://www.w3.org/1999/02/22-rdf-syntax-ns#" xmlns:svg="http://www.w3.org/2000/svg" xmlns="http://www.w3.org/2000/svg" xmlns:sodipodi="http://sodipodi.sourceforge.net/DTD/sodipodi-0.dtd" xmlns:inkscape="http://www.inkscape.org/namespaces/inkscape" version="1.1" width="400" height="400" sodipodi:docname="The_Knot_Logo.cdr" style="">

<circle  id="backgroundrect" width="100%" height="100%" x="0" y="0" fill="none" stroke="none"/>

  <metadata id="metadata12">
    <rdf:RDF>
      <cc:Work rdf:about="">
        <dc:format>image/svg+xml</dc:format>
        <dc:type rdf:resource="http://purl.org/dc/dcmitype/StillImage"/>
      </cc:Work>
    </rdf:RDF>
  </metadata>
  <defs id="defs10"/>
  <sodipodi:namedview pagecolor="#ffffff" bordercolor="#666666" borderopacity="1" objecttolerance="10" gridtolerance="10" guidetolerance="10" inkscape:pageopacity="0" inkscape:pageshadow="2" inkscape:window-width="640" inkscape:window-height="480" id="namedview8"/>
  
  
<g class="currentLayer" style=""><title>Layer 1</title>

<circle cx="200" cy="200" r="200" fill="#e64c38"/>

<path d="m150.39999705810547,66.16000629882814 c6.84,0.26 13.61,1.37 20.4401,1.7501000000000002 c-4.03,49.9198 -6.5599,99.9598 -8.4901,149.9998 c15.05,-7.5498 29.2502,-16.7099 42.7601,-26.7397 c12.1901,-9.3802 23.5599,-19.7901 34.53,-30.5601 c7.1299,-7.16 14.25,-14.4201 20.19,-22.6202 c5.6001,4.0403 11.27,7.9801 16.9299,11.9401 c-10.5899,14.15 -23.4,26.4501 -36.3098,38.45 c-23.3699,21.5601 -49.9901,39.7199 -79.02,52.7701 c-0.31010000000000004,6.05 -0.6001000000000001,12.1099 -0.8201,18.1598 c17.18,14.33 38.8199,23.8802 61.38,24.3301 c15.9702,0.29000000000000004 32.1999,-3.3999 45.9601,-11.66 c11.13,-6.5600000000000005 20.3899,-15.8199 28.2898,-25.96 c5.51,4.1601 10.69,8.7199 16.05,13.07 c-10.7699,13.68 -23.9,25.7601 -39.49,33.7101 c-31.0198,16.0399 -69.6699,14.9897 -100.4298,-1.1701 c-4.17,-2.1299 -8.2202,-4.5 -12.1402,-7.0798 c-1.0298,16.2697 -0.9,32.58 -0.8898000000000001,48.8699 c-6.87,0 -13.7302,0.25 -20.6002,0.1403 c-0.18000000000000002,-21.2205 0.6701000000000001,-42.4304 0.97,-63.6404 c0.2702,-1.3099 -0.9,-2.0698 -1.6699000000000002,-2.8701 c-6.5401,-6.0199 -12.5901,-12.5399 -18.5301,-19.1298 c1.9701,-5.7501 3.7401,-11.56 5.8502,-17.25 c5.44,-0.8600000000000001 10.76,-2.3902 15.9599,-4.2001 c-0.0198,-9.83 1.15,-19.6101 1.15,-29.4401 c2.1901,-43.6498 4.03,-87.3399 7.9299,-130.8699 z" style="fill:#ffffff;fill-rule:evenodd" id="path4" class=""/></g></svg>