<svg xmlns="http://www.w3.org/2000/svg" width="24" height="24" viewBox="0 0 24 24"><defs><style>.a{fill:#a5a5a5;}.b{fill:#fff;fill-rule:evenodd;}</style></defs><g transform="translate(-147 -271.89)"><rect class="a" width="24" height="24" rx="12" transform="translate(147 271.89)"/><path class="b" d="M238.486,321.511c.41.016.817.082,1.226.105-.242,2.995-.393,6-.509,9a17.49,17.49,0,0,0,2.566-1.6,22.968,22.968,0,0,0,2.072-1.834,11.645,11.645,0,0,0,1.211-1.357c.336.242.676.479,1.016.717a19.761,19.761,0,0,1-6.92,5.473c-.019.363-.036.727-.049,1.09a6.027,6.027,0,0,0,3.683,1.46,5.189,5.189,0,0,0,2.758-.7,6.167,6.167,0,0,0,1.7-1.557c.331.25.642.523.963.784a7.288,7.288,0,0,1-2.369,2.023,6.629,6.629,0,0,1-6.026-.07,7.692,7.692,0,0,1-.728-.425c-.062.976-.054,1.955-.053,2.932-.412,0-.824.015-1.236.008-.011-1.273.04-2.546.058-3.818.016-.079-.054-.124-.1-.172-.392-.361-.756-.752-1.112-1.148.118-.345.224-.694.351-1.035a5.55,5.55,0,0,0,.957-.252c0-.59.069-1.177.069-1.766.132-2.619.242-5.241.476-7.852Zm0,0" transform="translate(-82.462 -45.651)"/></g></svg>