<svg xmlns="http://www.w3.org/2000/svg" width="24" height="23.925" viewBox="0 0 24 23.925"><defs><style>.a{fill:#a5a5a5;}</style></defs><path class="a" d="M0,11.963A12,12,0,1,1,12.038,23.925,12.009,12.009,0,0,1,0,11.963Zm.827,0A11.21,11.21,0,1,0,12.038.752,11.238,11.238,0,0,0,.827,11.963Zm10.909,8.05A16.125,16.125,0,0,0,7.9,9.329H7.674A1.7,1.7,0,0,1,5.944,7.6a1.767,1.767,0,0,1,1.805-1.73,1.731,1.731,0,0,1,.978,3.159,15.207,15.207,0,0,1,3.009,5.793V11.436h.752v3.386A15.779,15.779,0,0,1,15.5,9.028a1.731,1.731,0,0,1,.978-3.159A1.8,1.8,0,0,1,18.207,7.6a1.7,1.7,0,0,1-1.731,1.731h-.15a15.886,15.886,0,0,0-3.837,10.684ZM10.609,9.329a1.429,1.429,0,1,1,1.429,1.429A1.429,1.429,0,0,1,10.609,9.329Zm-.3-3.687a1.73,1.73,0,1,1,1.731,1.731A1.73,1.73,0,0,1,10.307,5.642Z"/></svg>