<?xml version="1.0" encoding="utf-8"?>
<!-- Generator: Adobe Illustrator 19.1.0, SVG Export Plug-In . SVG Version: 6.00 Build 0)  -->
<svg version="1.1" id="Layer_1" xmlns="http://www.w3.org/2000/svg" xmlns:xlink="http://www.w3.org/1999/xlink" x="0px" y="0px"
	 viewBox="0 0 50 50" enable-background="new 0 0 50 50" xml:space="preserve">
<path fill="#00A79D" d="M49.5,25C49.5,11.469,38.531,0.5,25,0.5S0.5,11.469,0.5,25c0,13.079,10.248,23.762,23.152,24.462
	l-0.02-3.231c-0.259-3.503-0.949-8.64-2.756-13.028c-1.776-4.313-3.769-6.906-4.906-8.159C13.337,25.444,11,23.378,11,20.792
	c0-2.372,1.937-4.301,4.317-4.301s4.317,1.93,4.317,4.301c0,1.221-0.523,2.377-1.421,3.188c1.36,1.607,3.207,4.274,4.872,8.317
	c0.189,0.461,0.372,0.939,0.547,1.436v-4.938h2.667v5.136c0.194-0.565,0.4-1.11,0.616-1.633c1.664-4.044,3.511-6.71,4.871-8.317
	c-0.898-0.811-1.421-1.966-1.421-3.188c0-2.372,1.937-4.301,4.317-4.301S39,18.421,39,20.792c0,2.585-2.334,4.666-4.966,4.251
	c-1.143,1.261-3.143,3.863-4.911,8.159c-2.059,5-2.653,10.998-2.825,14.128l0.001,2.135C39.226,48.79,49.5,38.095,49.5,25z
	 M25.017,27.939c-1.979,0-3.589-1.604-3.589-3.575s1.61-3.576,3.589-3.576c1.979,0,3.588,1.604,3.588,3.576
	S26.996,27.939,25.017,27.939z M25.017,19.864c-2.38,0-4.317-1.93-4.317-4.301s1.937-4.301,4.317-4.301
	c2.381,0,4.317,1.93,4.317,4.301S27.398,19.864,25.017,19.864z"/>
</svg>
