<svg xmlns="http://www.w3.org/2000/svg" xmlns:xlink="http://www.w3.org/1999/xlink" class="brand-logo" width="245" height="45" viewBox="0 0 245 45">
  <defs>
    <linearGradient id="linear-gradient" y1="0.5" x2="1" y2="0.5" gradientUnits="objectBoundingBox">
      <stop offset="0" stop-color="#ff00c4"/>
      <stop offset="0.16" stop-color="red"/>
      <stop offset="0.331" stop-color="#d4e507"/>
      <stop offset="0.5" stop-color="#56da26"/>
      <stop offset="0.681" stop-color="#1bd2e2"/>
      <stop offset="0.858" stop-color="#17439f"/>
      <stop offset="1" stop-color="#9918dd"/>
    </linearGradient>
    <clipPath id="clip-DESKTOP-weddinghero-com-au-PRIDE">
      <rect width="245" height="45"/>
    </clipPath>
  </defs>
  <g id="DESKTOP-weddinghero-com-au-PRIDE" clip-path="url(#clip-DESKTOP-weddinghero-com-au-PRIDE)">
    <path id="Union_15" data-name="Union 15" d="M20270.008,5458.608l-17.658-17.946a4.729,4.729,0,0,1-1.018-5.051l7.016-17.663a4.665,4.665,0,0,1,4.33-2.947h21.66a4.667,4.667,0,0,1,4.326,2.947l7,17.637a4.713,4.713,0,0,1-1.049,5.076l-18.018,17.977a4.64,4.64,0,0,1-6.594-.031Zm116.592-10.683a4.957,4.957,0,0,1-2.006-2.911l-.041-.175h2.3l.041.082a3,3,0,0,0,1.641,1.584,4.622,4.622,0,0,0,1.734.334,3.652,3.652,0,0,0,3.064-1.368,4.846,4.846,0,0,0,.891-2.926v-.828a5.176,5.176,0,0,1-3.844,1.811,5.848,5.848,0,0,1-4.3-1.847,6.634,6.634,0,0,1,0-8.9,5.857,5.857,0,0,1,4.3-1.857,5.165,5.165,0,0,1,3.91,1.888v-1.589h2.154v11.321a6.612,6.612,0,0,1-1.707,4.66,6.037,6.037,0,0,1-4.469,1.785A6.354,6.354,0,0,1,20386.6,5447.925Zm1.09-13.682a4.532,4.532,0,0,0-1.105,3.02,4.448,4.448,0,0,0,1.105,2.973,3.6,3.6,0,0,0,2.689,1.229,3.688,3.688,0,0,0,2.7-1.229,4.4,4.4,0,0,0,1.143-2.973,4.467,4.467,0,0,0-1.143-3.014,3.661,3.661,0,0,0-2.7-1.24A3.583,3.583,0,0,0,20387.689,5434.243Zm-34.008,7.438a6.634,6.634,0,0,1,0-8.9,5.854,5.854,0,0,1,4.3-1.857,5.151,5.151,0,0,1,3.842,1.815v-6.732h2.223v17.225h-2.156v-1.61a5.108,5.108,0,0,1-3.908,1.9A5.845,5.845,0,0,1,20353.682,5441.681Zm1.615-7.437a4.522,4.522,0,0,0-1.105,3.02,4.438,4.438,0,0,0,1.105,2.973,3.6,3.6,0,0,0,2.689,1.229,3.688,3.688,0,0,0,2.7-1.229,4.4,4.4,0,0,0,1.141-2.973,4.465,4.465,0,0,0-1.141-3.014,3.661,3.661,0,0,0-2.7-1.24A3.583,3.583,0,0,0,20355.3,5434.243Zm-15.863,7.438a6.634,6.634,0,0,1,0-8.9,5.839,5.839,0,0,1,4.3-1.857,5.141,5.141,0,0,1,3.842,1.815v-6.732h2.223v17.225h-2.15v-1.61a5.117,5.117,0,0,1-3.914,1.9A5.836,5.836,0,0,1,20339.434,5441.681Zm1.609-7.437a4.527,4.527,0,0,0-1.1,3.02,4.443,4.443,0,0,0,1.1,2.973,3.6,3.6,0,0,0,2.691,1.229,3.674,3.674,0,0,0,2.7-1.229,4.372,4.372,0,0,0,1.143-2.973,4.438,4.438,0,0,0-1.143-3.014,3.647,3.647,0,0,0-2.7-1.24A3.587,3.587,0,0,0,20341.043,5434.243Zm93.025,7.433a6.374,6.374,0,0,1-1.738-4.413,6.508,6.508,0,0,1,1.738-4.475,5.9,5.9,0,0,1,8.605,0,6.5,6.5,0,0,1,1.732,4.475,6.369,6.369,0,0,1-1.732,4.413,5.971,5.971,0,0,1-8.605,0Zm1.625-7.443a4.56,4.56,0,0,0-1.121,3.03,4.394,4.394,0,0,0,1.121,2.962,3.566,3.566,0,0,0,5.369,0,4.365,4.365,0,0,0,1.121-2.962,4.56,4.56,0,0,0-1.121-3.03,3.517,3.517,0,0,0-5.369,0Zm-22.523,7.458a6.326,6.326,0,0,1-1.785-4.454,6.456,6.456,0,0,1,1.77-4.454,5.81,5.81,0,0,1,8.467-.052,6.99,6.99,0,0,1,1.867,4.958v.19h-9.834a3.954,3.954,0,0,0,3.883,3.585,3.754,3.754,0,0,0,2.053-.545,3.56,3.56,0,0,0,1.307-1.533l.035-.083h2.336l-.062.186a5.737,5.737,0,0,1-2.109,2.973,6.336,6.336,0,0,1-7.926-.771Zm.623-5.822h7.221a3.868,3.868,0,0,0-3.59-2.906A3.921,3.921,0,0,0,20413.793,5435.869Zm-87.6,5.822a6.3,6.3,0,0,1-1.785-4.454,6.43,6.43,0,0,1,1.77-4.454,5.8,5.8,0,0,1,8.461-.052,6.964,6.964,0,0,1,1.867,4.958v.19h-9.834a3.959,3.959,0,0,0,3.889,3.585,3.733,3.733,0,0,0,2.047-.545,3.521,3.521,0,0,0,1.307-1.533l.041-.083h2.336l-.062.186a5.737,5.737,0,0,1-2.109,2.973,6.336,6.336,0,0,1-7.926-.771Zm.617-5.822h7.227a3.868,3.868,0,0,0-3.59-2.906A3.927,3.927,0,0,0,20326.807,5435.869Zm162.045,6.62a3.442,3.442,0,0,1-.771-2.314v-4.557h1.48v4.614a1.884,1.884,0,0,0,.428,1.306,1.58,1.58,0,0,0,1.238.483,1.714,1.714,0,0,0,1.76-1.764v-4.639h1.5v7.612h-1.449v-.582a2.912,2.912,0,0,1-2,.756A2.824,2.824,0,0,1,20488.852,5442.488Zm-8.271.35a2.132,2.132,0,0,1-.92-1.841,2.08,2.08,0,0,1,.838-1.79,4.28,4.28,0,0,1,2.283-.643,7.1,7.1,0,0,0,1.508-.2,1.152,1.152,0,0,0,.643-.35.5.5,0,0,0,.088-.309.674.674,0,0,0-.365-.607,2.433,2.433,0,0,0-1.281-.272,2.459,2.459,0,0,0-1.131.236,1.172,1.172,0,0,0-.639.946l-.016.124h-1.527l.01-.149a2.463,2.463,0,0,1,.967-1.862,3.8,3.8,0,0,1,2.346-.689,3.657,3.657,0,0,1,2.311.653,2.161,2.161,0,0,1,.791,1.764v4.038a3.843,3.843,0,0,0,.207,1.147l.076.2h-1.5l-.037-.082a2.043,2.043,0,0,1-.164-.576,3.432,3.432,0,0,1-2.412.828A3.65,3.65,0,0,1,20480.58,5442.838Zm3.646-3.122a9.064,9.064,0,0,1-1.275.16,2.727,2.727,0,0,0-1.492.406.866.866,0,0,0-.324.715.841.841,0,0,0,.119.442.929.929,0,0,0,.314.3,2.238,2.238,0,0,0,1.137.252,2.985,2.985,0,0,0,1.609-.412,1.525,1.525,0,0,0,.705-1.312v-.849A2.513,2.513,0,0,1,20484.227,5439.716Zm-27.127,2.525a4.021,4.021,0,0,1-1.105-2.793,4.105,4.105,0,0,1,1.105-2.834,3.745,3.745,0,0,1,5.453,0,4.092,4.092,0,0,1,1.1,2.834,4.034,4.034,0,0,1-1.1,2.793,3.779,3.779,0,0,1-5.453,0Zm1.092-4.649a2.784,2.784,0,0,0-.689,1.856,2.7,2.7,0,0,0,.689,1.816,2.171,2.171,0,0,0,3.275,0,2.669,2.669,0,0,0,.689-1.816,2.755,2.755,0,0,0-.689-1.856,2.142,2.142,0,0,0-3.275,0Zm-9.074,4.649a4.05,4.05,0,0,1-1.115-2.808,4.1,4.1,0,0,1,1.115-2.824,3.733,3.733,0,0,1,2.7-1.173,3.638,3.638,0,0,1,3.549,2.541l.063.19h-1.574l-.041-.077a2.18,2.18,0,0,0-3.627-.5,2.785,2.785,0,0,0-.687,1.847,2.71,2.71,0,0,0,.688,1.826,2.184,2.184,0,0,0,3.627-.509l.035-.077h1.58l-.062.186a3.634,3.634,0,0,1-3.549,2.546A3.745,3.745,0,0,1,20449.117,5442.241Zm27.893.993v-1.754h1.709v1.754Zm-2.916,0v-4.711a1.844,1.844,0,0,0-.375-1.25,1.423,1.423,0,0,0-1.146-.442,1.472,1.472,0,0,0-1.127.5,1.887,1.887,0,0,0-.453,1.276v4.629h-1.48v-4.711a1.864,1.864,0,0,0-.381-1.25,1.424,1.424,0,0,0-1.127-.442,1.515,1.515,0,0,0-1.137.5,1.9,1.9,0,0,0-.457,1.276v4.629h-1.492v-7.617h1.451v.565a2.493,2.493,0,0,1,1.8-.746,2.624,2.624,0,0,1,2.264,1.137,2.944,2.944,0,0,1,4.393-.288,3.3,3.3,0,0,1,.762,2.263v4.686Zm-28.443,0v-1.754h1.709v1.754Zm-20.084,0v-12.01h2.154v1.064a4.31,4.31,0,0,1,3.189-1.368,4.06,4.06,0,0,1,.51.031l.123.015v2.186l-.15,0c-.092-.005-.184-.011-.277-.011a3.555,3.555,0,0,0-2.355.782,3.043,3.043,0,0,0-.973,2.386v6.928Zm-18.506,0v-7.268a3.208,3.208,0,0,0-.689-2.15,2.567,2.567,0,0,0-2.037-.828,2.849,2.849,0,0,0-2.926,2.932v7.314h-2.223v-17.225h2.223v6.188a4.514,4.514,0,0,1,3.2-1.271,4.406,4.406,0,0,1,3.436,1.44,5.477,5.477,0,0,1,1.215,3.667v7.2Zm-27.02,0v-7.268a3.236,3.236,0,0,0-.7-2.145,2.587,2.587,0,0,0-2.031-.833,2.849,2.849,0,0,0-2.928,2.932v7.314h-2.221v-12.01h2.154v1.049a4.481,4.481,0,0,1,3.271-1.348,4.406,4.406,0,0,1,3.436,1.44,5.477,5.477,0,0,1,1.215,3.667v7.2Zm-13.156,0v-12.01h2.217v12.01Zm-48.842,0-2.4-8.584-2.4,8.584h-2.217l-3.59-12.01h2.326l2.4,8.43,2.4-8.43h2.217l2.4,8.43,2.377-8.43h2.324l-3.6,12.01Zm48.842-13.5v-2.587h2.217v2.587Z" transform="translate(-20251 -5415)" stroke="rgba(0,0,0,0)" stroke-miterlimit="10" stroke-width="1" fill="url(#linear-gradient)"/>
    <path id="Path_1957" data-name="Path 1957" d="M84.246,80.278a10.095,10.095,0,0,0-.02-7.528,2.275,2.275,0,1,0-4.216,1.71h0a5.555,5.555,0,0,1,0,4.16h0c-.012.028-.024.056-.034.085l-2.889,8.038-3.759-8.218a2.275,2.275,0,0,0-4.136,0L65.4,86.783,62.5,78.7h0l-.818-2.278A2.275,2.275,0,0,0,57.4,77.965l.818,2.277h0L63,93.565a2.275,2.275,0,0,0,4.208.18l4.046-8.811,3.913,8.554a2.252,2.252,0,0,0,2.163,1.583h.023a2.275,2.275,0,0,0,2.226-1.805Z" transform="translate(-48.789 -62.519)" fill="#fff"/>
  </g>
</svg>
