<svg xmlns="http://www.w3.org/2000/svg" width="65.174" height="65" viewBox="0 0 65.174 65">
  <g id="Group_8312" data-name="Group 8312" transform="translate(0.586 0.5)">
    <path id="Subtraction_5" data-name="Subtraction 5" d="M22815.744,21890a6.573,6.573,0,0,1-4.715-1.979l-25.109-25.523a6.716,6.716,0,0,1-1.445-7.18l9.979-25.121a6.623,6.623,0,0,1,6.152-4.2h30.8a6.629,6.629,0,0,1,6.152,4.2l9.961,25.076a6.711,6.711,0,0,1-1.486,7.225l-25.631,25.568A6.556,6.556,0,0,1,22815.744,21890Zm.211-32.119v0l5.563,12.162a3.058,3.058,0,0,0,.43.877,3.236,3.236,0,0,0,2.645,1.375h.033a3.239,3.239,0,0,0,2.725-1.49,3.2,3.2,0,0,0,.441-1.078l6.635-18.471a14.294,14.294,0,0,0-.029-10.705,3.233,3.233,0,1,0-5.992,2.432,7.911,7.911,0,0,1,0,5.918c-.01.02-.018.039-.025.059s-.018.041-.025.061l-4.105,11.436-5.346-11.687a3.234,3.234,0,0,0-5.883-.006l-5.4,11.744-4.127-11.486-1.164-3.244a3.244,3.244,0,0,0-3.049-2.141,3.2,3.2,0,0,0-1.092.189,3.245,3.245,0,0,0-1.949,4.141l1.164,3.24,6.807,18.945a3.227,3.227,0,0,0,2.906,2.139c.049,0,.1,0,.146,0a3.238,3.238,0,0,0,2.934-1.883l5.756-12.527Z" transform="translate(-22784 -21826)" fill="#fff" stroke="rgba(0,0,0,0)" stroke-miterlimit="10" stroke-width="1"/>
  </g>
</svg>
