<svg xmlns="http://www.w3.org/2000/svg" xmlns:xlink="http://www.w3.org/1999/xlink" class="brand-logo" width="245" height="45" viewBox="0 0 245 45">
  <defs>
    <clipPath id="clip-DESKTOP-weddinghero-com-au-white">
      <rect width="245" height="45"/>
    </clipPath>
  </defs>
  <g id="DESKTOP-weddinghero-com-au-white" clip-path="url(#clip-DESKTOP-weddinghero-com-au-white)">
    <g id="Group_4205" data-name="Group 4205" transform="translate(-27.143 -40.001)">
      <g id="Group_4203" data-name="Group 4203" transform="translate(27.143 40.001)">
        <path id="Subtraction_21" data-name="Subtraction 21" d="M22.316,45a4.613,4.613,0,0,1-3.311-1.391L1.348,25.66A4.721,4.721,0,0,1,.334,20.61L7.348,2.951A4.643,4.643,0,0,1,11.68,0H33.332a4.637,4.637,0,0,1,4.33,2.951l7.006,17.63a4.706,4.706,0,0,1-1.051,5.079L25.6,43.638A4.624,4.624,0,0,1,22.316,45Zm.152-22.586v0l3.906,8.549a2.18,2.18,0,0,0,.309.62,2.275,2.275,0,0,0,1.861.968h.016a2.269,2.269,0,0,0,2.229-1.809l4.666-12.987a10.118,10.118,0,0,0-.018-7.525,2.274,2.274,0,1,0-4.215,1.71,5.509,5.509,0,0,1,.4,2.076,5.427,5.427,0,0,1-.4,2.081l-.02.044-.016.043-2.893,8.035-3.756-8.215A2.276,2.276,0,0,0,20.4,16l-3.8,8.262-2.9-8.082-.818-2.273A2.275,2.275,0,0,0,10.744,12.4a2.271,2.271,0,0,0-2.137,3.044l.814,2.278,4.789,13.323a2.268,2.268,0,0,0,2.041,1.5l.1,0a2.286,2.286,0,0,0,2.068-1.324l4.047-8.81Z" fill="#fff" stroke="rgba(0,0,0,0)" stroke-miterlimit="10" stroke-width="1"/>
      </g>
      <g id="Group_4204" data-name="Group 4204" transform="translate(83.585 51.009)">
        <path id="Path_1896" data-name="Path 1896" d="M239.555,106.11l-2.4-8.43H234.94l-2.4,8.432-2.4-8.432h-2.325l3.591,12.009h2.217l2.4-8.583,2.4,8.583h2.24l3.591-12.009h-2.325Z" transform="translate(-227.822 -92.467)" fill="#fff"/>
        <path id="Path_1897" data-name="Path 1897" d="M294.174,96.628a5.891,5.891,0,0,0-4.272,1.857,6.441,6.441,0,0,0-1.767,4.455,6.306,6.306,0,0,0,1.782,4.451,6.338,6.338,0,0,0,7.927.771,5.723,5.723,0,0,0,2.111-2.969l.061-.186H297.68l-.038.082a3.543,3.543,0,0,1-1.3,1.533,3.758,3.758,0,0,1-2.05.547,3.958,3.958,0,0,1-3.888-3.586h9.834v-.191a6.982,6.982,0,0,0-1.869-4.961A5.848,5.848,0,0,0,294.174,96.628Zm0,2.037a3.866,3.866,0,0,1,3.589,2.9h-7.224A3.92,3.92,0,0,1,294.174,98.665Z" transform="translate(-271.172 -91.711)" fill="#fff"/>
        <path id="Path_1898" data-name="Path 1898" d="M345.342,85.875a5.166,5.166,0,0,0-3.842-1.813,5.833,5.833,0,0,0-4.3,1.858,6.636,6.636,0,0,0,0,8.9,5.843,5.843,0,0,0,4.3,1.846,5.123,5.123,0,0,0,3.91-1.9v1.607h2.151V79.145h-2.22ZM341.5,94.6a3.6,3.6,0,0,1-2.691-1.23,4.443,4.443,0,0,1-1.1-2.975,4.516,4.516,0,0,1,1.105-3.016,3.585,3.585,0,0,1,2.691-1.236,3.662,3.662,0,0,1,2.7,1.237,4.458,4.458,0,0,1,1.144,3.014,4.39,4.39,0,0,1-1.143,2.974A3.677,3.677,0,0,1,341.5,94.6Z" transform="translate(-305.204 -79.145)" fill="#fff"/>
        <path id="Path_1899" data-name="Path 1899" d="M396.01,85.875a5.165,5.165,0,0,0-3.842-1.813,5.832,5.832,0,0,0-4.3,1.858,6.636,6.636,0,0,0,0,8.9,5.842,5.842,0,0,0,4.3,1.846,5.122,5.122,0,0,0,3.91-1.9v1.607h2.152V79.145h-2.22ZM392.169,94.6a3.6,3.6,0,0,1-2.692-1.23,4.444,4.444,0,0,1-1.1-2.975,4.516,4.516,0,0,1,1.1-3.016,3.585,3.585,0,0,1,2.691-1.236,3.662,3.662,0,0,1,2.7,1.237A4.46,4.46,0,0,1,396.01,90.4a4.392,4.392,0,0,1-1.143,2.974A3.678,3.678,0,0,1,392.169,94.6Z" transform="translate(-341.621 -79.145)" fill="#fff"/>
        <path id="Path_1900" data-name="Path 1900" d="M439.169,109.689h2.22V97.68h-2.22Z" transform="translate(-379.726 -92.467)" fill="#fff"/>
        <path id="Path_1901" data-name="Path 1901" d="M439.169,85.775h2.22V83.192h-2.22Z" transform="translate(-379.726 -82.053)" fill="#fff"/>
        <path id="Path_1902" data-name="Path 1902" d="M463.37,96.628a4.486,4.486,0,0,0-3.272,1.346v-1.05h-2.151v12.009h2.219v-7.313a2.85,2.85,0,0,1,2.931-2.931,2.573,2.573,0,0,1,2.027.836,3.206,3.206,0,0,1,.7,2.14v7.268h2.2v-7.2a5.471,5.471,0,0,0-1.213-3.668A4.4,4.4,0,0,0,463.37,96.628Z" transform="translate(-393.222 -91.711)" fill="#fff"/>
        <path id="Path_1903" data-name="Path 1903" d="M511.255,98.514a5.164,5.164,0,0,0-3.91-1.886,5.833,5.833,0,0,0-4.3,1.858,6.636,6.636,0,0,0,0,8.9,5.843,5.843,0,0,0,4.3,1.846,5.165,5.165,0,0,0,3.842-1.813v.829a4.835,4.835,0,0,1-.892,2.927,3.644,3.644,0,0,1-3.063,1.37,4.608,4.608,0,0,1-1.732-.333,3,3,0,0,1-1.644-1.585l-.037-.085h-2.3l.044.177a4.949,4.949,0,0,0,2,2.914,6.375,6.375,0,0,0,3.667,1.064A6.032,6.032,0,0,0,511.7,112.9a6.6,6.6,0,0,0,1.707-4.66V96.924h-2.151Zm-3.91,8.654a3.6,3.6,0,0,1-2.692-1.23,4.444,4.444,0,0,1-1.1-2.975,4.514,4.514,0,0,1,1.1-3.016,3.585,3.585,0,0,1,2.691-1.236,3.662,3.662,0,0,1,2.7,1.237,4.458,4.458,0,0,1,1.144,3.014,4.39,4.39,0,0,1-1.143,2.974A3.678,3.678,0,0,1,507.345,107.168Z" transform="translate(-424.404 -91.711)" fill="#fff"/>
        <path id="Path_1904" data-name="Path 1904" d="M559.446,84.062a4.514,4.514,0,0,0-3.2,1.272V79.145h-2.22V96.367h2.22V89.054a2.85,2.85,0,0,1,2.931-2.931,2.577,2.577,0,0,1,2.036.828A3.217,3.217,0,0,1,561.9,89.1v7.268h2.2v-7.2a5.474,5.474,0,0,0-1.213-3.668A4.4,4.4,0,0,0,559.446,84.062Z" transform="translate(-462.276 -79.145)" fill="#fff"/>
        <path id="Path_1905" data-name="Path 1905" d="M603.444,96.628a5.891,5.891,0,0,0-4.272,1.857,6.442,6.442,0,0,0-1.767,4.455,6.307,6.307,0,0,0,1.782,4.451,6.338,6.338,0,0,0,7.927.771,5.725,5.725,0,0,0,2.111-2.969l.061-.186H606.95l-.038.082a3.544,3.544,0,0,1-1.3,1.533,3.758,3.758,0,0,1-2.05.547,3.958,3.958,0,0,1-3.888-3.586H609.5v-.191a6.982,6.982,0,0,0-1.869-4.961A5.848,5.848,0,0,0,603.444,96.628Zm0,2.037a3.867,3.867,0,0,1,3.59,2.9h-7.224A3.92,3.92,0,0,1,603.444,98.665Z" transform="translate(-493.458 -91.711)" fill="#fff"/>
        <path id="Path_1906" data-name="Path 1906" d="M653.173,96.607a4.3,4.3,0,0,0-3.191,1.368V96.909h-2.151v12.009h2.22v-6.926a3.019,3.019,0,0,1,.973-2.384,3.536,3.536,0,0,1,2.352-.782c.093,0,.187,0,.282.008l.15.008V96.652l-.125-.015A4.28,4.28,0,0,0,653.173,96.607Z" transform="translate(-529.701 -91.696)" fill="#fff"/>
        <path id="Path_1907" data-name="Path 1907" d="M677.908,96.628a5.868,5.868,0,0,0-4.3,1.86,6.492,6.492,0,0,0-1.74,4.474,6.348,6.348,0,0,0,1.741,4.413,5.969,5.969,0,0,0,8.6,0,6.354,6.354,0,0,0,1.733-4.412,6.5,6.5,0,0,0-1.732-4.474A5.864,5.864,0,0,0,677.908,96.628Zm0,10.518a3.618,3.618,0,0,1-2.675-1.22,4.387,4.387,0,0,1-1.121-2.963,4.539,4.539,0,0,1,1.122-3.027,3.512,3.512,0,0,1,5.369,0,4.527,4.527,0,0,1,1.124,3.027,4.373,4.373,0,0,1-1.124,2.963A3.647,3.647,0,0,1,677.908,107.146Z" transform="translate(-546.979 -91.711)" fill="#fff"/>
        <path id="Path_1908" data-name="Path 1908" d="M719.238,135.9h1.708v-1.75h-1.708Z" transform="translate(-581.024 -118.683)" fill="#fff"/>
        <path id="Path_1909" data-name="Path 1909" d="M731.4,114.048a2.213,2.213,0,0,1,1.994,1.261l.04.077h1.579l-.063-.188a3.646,3.646,0,0,0-3.55-2.544,3.716,3.716,0,0,0-2.7,1.177,4.085,4.085,0,0,0-1.117,2.821,4.039,4.039,0,0,0,1.118,2.807,3.731,3.731,0,0,0,2.7,1.162,3.633,3.633,0,0,0,3.55-2.546l.061-.187h-1.579l-.039.079a2.186,2.186,0,0,1-3.625.512,2.713,2.713,0,0,1-.687-1.829,2.762,2.762,0,0,1,.688-1.844A2.192,2.192,0,0,1,731.4,114.048Z" transform="translate(-587.024 -103.229)" fill="#fff"/>
        <path id="Path_1910" data-name="Path 1910" d="M759.844,112.654a3.72,3.72,0,0,0-2.725,1.179,4.111,4.111,0,0,0-1.1,2.833,4.021,4.021,0,0,0,1.1,2.795,3.783,3.783,0,0,0,5.454,0,4.026,4.026,0,0,0,1.1-2.795,4.117,4.117,0,0,0-1.1-2.833A3.718,3.718,0,0,0,759.844,112.654Zm0,6.574a2.208,2.208,0,0,1-1.633-.745,2.69,2.69,0,0,1-.687-1.816,2.784,2.784,0,0,1,.688-1.856,2.142,2.142,0,0,1,3.276,0,2.774,2.774,0,0,1,.689,1.856,2.682,2.682,0,0,1-.688,1.816A2.227,2.227,0,0,1,759.844,119.228Z" transform="translate(-607.458 -103.229)" fill="#fff"/>
        <path id="Path_1911" data-name="Path 1911" d="M795.548,112.654a2.714,2.714,0,0,0-2.289,1.141,2.628,2.628,0,0,0-2.264-1.141,2.509,2.509,0,0,0-1.807.746v-.561h-1.451v7.612h1.494v-4.624a1.887,1.887,0,0,1,.458-1.276,1.5,1.5,0,0,1,1.136-.5,1.418,1.418,0,0,1,1.124.442,1.855,1.855,0,0,1,.385,1.251v4.71h1.48v-4.624a1.9,1.9,0,0,1,.452-1.277,1.482,1.482,0,0,1,1.128-.5,1.438,1.438,0,0,1,1.147.442,1.864,1.864,0,0,1,.376,1.251v4.71h1.494V115.77a3.3,3.3,0,0,0-.761-2.266A2.736,2.736,0,0,0,795.548,112.654Z" transform="translate(-630.257 -103.229)" fill="#fff"/>
        <path id="Path_1912" data-name="Path 1912" d="M830.733,135.9h1.708v-1.75h-1.708Z" transform="translate(-661.161 -118.683)" fill="#fff"/>
        <path id="Path_1913" data-name="Path 1913" d="M846.973,119.114v-4.041a2.174,2.174,0,0,0-.8-1.761,3.615,3.615,0,0,0-2.305-.658,3.8,3.8,0,0,0-2.345.689,2.467,2.467,0,0,0-.97,1.864l-.009.15h1.529l.015-.125a1.163,1.163,0,0,1,.639-.946,2.983,2.983,0,0,1,2.412.034.694.694,0,0,1,.365.611.5.5,0,0,1-.092.306,1.129,1.129,0,0,1-.64.354,7.218,7.218,0,0,1-1.509.194,4.252,4.252,0,0,0-2.281.644,2.081,2.081,0,0,0-.843,1.789,2.142,2.142,0,0,0,.925,1.84,3.643,3.643,0,0,0,2.077.565,3.408,3.408,0,0,0,2.41-.828,2.143,2.143,0,0,0,.166.575l.038.082h1.5l-.078-.2A3.751,3.751,0,0,1,846.973,119.114Zm-1.465-1.625a1.528,1.528,0,0,1-.708,1.313,2.963,2.963,0,0,1-1.611.412,2.254,2.254,0,0,1-1.133-.25.9.9,0,0,1-.318-.305.934.934,0,0,1,.208-1.154,2.7,2.7,0,0,1,1.493-.411,8.65,8.65,0,0,0,1.276-.156,2.684,2.684,0,0,0,.793-.294Z" transform="translate(-667.925 -103.229)" fill="#fff"/>
        <path id="Path_1914" data-name="Path 1914" d="M875,113.312v4.638a1.721,1.721,0,0,1-1.764,1.764,1.593,1.593,0,0,1-1.236-.483,1.907,1.907,0,0,1-.429-1.31v-4.61h-1.479v4.553a3.45,3.45,0,0,0,.772,2.315,2.811,2.811,0,0,0,2.188.915,2.878,2.878,0,0,0,1.992-.757v.586h1.452v-7.612Z" transform="translate(-689.449 -103.702)" fill="#fff"/>
      </g>
    </g>
  </g>
</svg>
