<svg id="Group_4184" data-name="Group 4184" xmlns="http://www.w3.org/2000/svg" width="60" height="60" viewBox="0 0 60 60">
  <path id="Path_1770" data-name="Path 1770" d="M1427.732,430.146l-23.542-23.933a6.29,6.29,0,0,1-1.356-6.729l9.354-23.549a6.216,6.216,0,0,1,5.771-3.935h28.876a6.216,6.216,0,0,1,5.771,3.935l9.338,23.51a6.291,6.291,0,0,1-1.4,6.771l-24.026,23.971A6.185,6.185,0,0,1,1427.732,430.146Z" transform="translate(-1402.389 -372)" fill="#e1e1e1"/>
  <path id="Path_1771" data-name="Path 1771" d="M1460.959,407.429a13.454,13.454,0,0,0-.027-10.037,3.033,3.033,0,1,0-5.622,2.28h0a7.4,7.4,0,0,1,0,5.547h0c-.015.038-.032.076-.046.115l-3.851,10.717-5.012-10.958a3.033,3.033,0,0,0-5.515,0L1435.83,416.1l-3.871-10.773h0l-1.092-3.037a3.033,3.033,0,0,0-5.709,2.052l1.091,3.037h0l6.383,17.763a3.033,3.033,0,0,0,5.611.24l5.395-11.748,5.216,11.4a3,3,0,0,0,2.884,2.111h.03a3.032,3.032,0,0,0,2.968-2.406Z" transform="translate(-1413.684 -383.749)" fill="#fff"/>
</svg>
