<svg xmlns="http://www.w3.org/2000/svg" xmlns:xlink="http://www.w3.org/1999/xlink" width="150" height="28" viewBox="0 0 150 28">
  <defs>
    <clipPath id="clip-weddinghero-com-au-footer-logo">
      <rect width="150" height="28"/>
    </clipPath>
  </defs>
  <g id="weddinghero-com-au-footer-logo" clip-path="url(#clip-weddinghero-com-au-footer-logo)">
    <g id="Group_4204" data-name="Group 4204" transform="translate(0 5)">
      <path id="Path_1896" data-name="Path 1896" d="M237.231,104.466,235.31,97.68h-1.779l-1.922,6.788-1.922-6.788h-1.864l2.88,9.667h1.778l1.922-6.909,1.922,6.909h1.8L241,97.68h-1.864Z" transform="translate(-227.822 -93.484)" fill="#db0962"/>
      <path id="Path_1897" data-name="Path 1897" d="M292.978,96.628a4.716,4.716,0,0,0-3.426,1.495,5.2,5.2,0,0,0-1.417,3.586,5.086,5.086,0,0,0,1.429,3.583,5.068,5.068,0,0,0,6.357.62,4.607,4.607,0,0,0,1.693-2.39l.049-.15H295.79l-.031.066a2.849,2.849,0,0,1-1.046,1.234,3.005,3.005,0,0,1-1.644.44,3.178,3.178,0,0,1-3.118-2.886h7.887v-.154a5.632,5.632,0,0,0-1.5-3.994A4.682,4.682,0,0,0,292.978,96.628Zm0,1.64a3.1,3.1,0,0,1,2.879,2.337h-5.793A3.146,3.146,0,0,1,292.978,98.268Z" transform="translate(-274.531 -92.67)" fill="#db0962"/>
      <path id="Path_1898" data-name="Path 1898" d="M343.39,84.563a4.137,4.137,0,0,0-3.081-1.459,4.669,4.669,0,0,0-3.452,1.5,5.357,5.357,0,0,0,0,7.162,4.677,4.677,0,0,0,3.451,1.486,4.1,4.1,0,0,0,3.136-1.532v1.294h1.725V79.145h-1.78Zm-3.081,7.025a2.881,2.881,0,0,1-2.158-.991,3.584,3.584,0,0,1-.886-2.4,3.643,3.643,0,0,1,.886-2.427,2.87,2.87,0,0,1,2.158-.995,2.932,2.932,0,0,1,2.164,1,3.6,3.6,0,0,1,.917,2.426,3.542,3.542,0,0,1-.917,2.394A2.944,2.944,0,0,1,340.309,91.588Z" transform="translate(-311.201 -79.145)" fill="#db0962"/>
      <path id="Path_1899" data-name="Path 1899" d="M394.058,84.563a4.136,4.136,0,0,0-3.081-1.459,4.669,4.669,0,0,0-3.452,1.5,5.357,5.357,0,0,0,0,7.162,4.677,4.677,0,0,0,3.451,1.486,4.1,4.1,0,0,0,3.135-1.532v1.294h1.725V79.145h-1.78Zm-3.081,7.025a2.882,2.882,0,0,1-2.159-.991,3.585,3.585,0,0,1-.886-2.4,3.643,3.643,0,0,1,.886-2.427,2.871,2.871,0,0,1,2.158-.995,2.932,2.932,0,0,1,2.163,1,3.6,3.6,0,0,1,.917,2.426,3.543,3.543,0,0,1-.917,2.394A2.945,2.945,0,0,1,390.977,91.588Z" transform="translate(-350.441 -79.145)" fill="#db0962"/>
      <path id="Path_1900" data-name="Path 1900" d="M439.169,107.347h1.78V97.68h-1.78Z" transform="translate(-391.499 -93.484)" fill="#db0962"/>
      <path id="Path_1901" data-name="Path 1901" d="M439.169,85.272h1.78v-2.08h-1.78Z" transform="translate(-391.499 -82.275)" fill="#db0962"/>
      <path id="Path_1902" data-name="Path 1902" d="M462.3,96.628a3.591,3.591,0,0,0-2.624,1.083v-.845h-1.725v9.667h1.78v-5.887a2.361,2.361,0,0,1,.665-1.685,2.336,2.336,0,0,1,1.686-.674,2.06,2.06,0,0,1,1.626.673,2.587,2.587,0,0,1,.561,1.723v5.85h1.762v-5.8a4.415,4.415,0,0,0-.973-2.953A3.525,3.525,0,0,0,462.3,96.628Z" transform="translate(-406.041 -92.67)" fill="#db0962"/>
      <path id="Path_1903" data-name="Path 1903" d="M509.289,98.146a4.136,4.136,0,0,0-3.136-1.518,4.669,4.669,0,0,0-3.452,1.5,5.357,5.357,0,0,0,0,7.162,4.678,4.678,0,0,0,3.451,1.486,4.136,4.136,0,0,0,3.081-1.459v.667a3.9,3.9,0,0,1-.716,2.356,2.918,2.918,0,0,1-2.456,1.1,3.684,3.684,0,0,1-1.389-.268,2.412,2.412,0,0,1-1.318-1.276l-.03-.068H501.48l.035.142a3.984,3.984,0,0,0,1.607,2.346,5.1,5.1,0,0,0,2.941.856,4.828,4.828,0,0,0,3.583-1.439,5.328,5.328,0,0,0,1.369-3.751V96.866h-1.725Zm-3.136,6.966a2.882,2.882,0,0,1-2.159-.991,3.586,3.586,0,0,1-.886-2.4A3.642,3.642,0,0,1,504,99.3a2.87,2.87,0,0,1,2.158-.995,2.932,2.932,0,0,1,2.164,1,3.6,3.6,0,0,1,.917,2.426,3.541,3.541,0,0,1-.917,2.394A2.945,2.945,0,0,1,506.153,105.113Z" transform="translate(-439.639 -92.67)" fill="#db0962"/>
      <path id="Path_1904" data-name="Path 1904" d="M558.372,83.1a3.613,3.613,0,0,0-2.57,1.024V79.145h-1.78V93.008h1.78V87.121a2.361,2.361,0,0,1,.665-1.685,2.335,2.335,0,0,1,1.685-.674,2.063,2.063,0,0,1,1.633.666,2.6,2.6,0,0,1,.554,1.73v5.85H562.1v-5.8a4.417,4.417,0,0,0-.973-2.953A3.525,3.525,0,0,0,558.372,83.1Z" transform="translate(-480.447 -79.145)" fill="#db0962"/>
      <path id="Path_1905" data-name="Path 1905" d="M602.248,96.628a4.716,4.716,0,0,0-3.426,1.495,5.2,5.2,0,0,0-1.417,3.586,5.087,5.087,0,0,0,1.429,3.583,5.068,5.068,0,0,0,6.357.62,4.607,4.607,0,0,0,1.693-2.39l.049-.15H605.06l-.031.066a2.849,2.849,0,0,1-1.046,1.234,3.005,3.005,0,0,1-1.644.44,3.179,3.179,0,0,1-3.118-2.886h7.887v-.154a5.632,5.632,0,0,0-1.5-3.994A4.681,4.681,0,0,0,602.248,96.628Zm0,1.64a3.1,3.1,0,0,1,2.879,2.337h-5.793A3.146,3.146,0,0,1,602.248,98.268Z" transform="translate(-514.045 -92.67)" fill="#db0962"/>
      <path id="Path_1906" data-name="Path 1906" d="M652.115,96.607a3.444,3.444,0,0,0-2.559,1.1V96.85h-1.725v9.667h1.78v-5.575a2.435,2.435,0,0,1,.78-1.919,2.829,2.829,0,0,1,1.886-.63c.075,0,.15,0,.226.006l.12.007V96.643l-.1-.012A3.419,3.419,0,0,0,652.115,96.607Z" transform="translate(-553.097 -92.654)" fill="#db0962"/>
      <path id="Path_1907" data-name="Path 1907" d="M676.713,96.628a4.7,4.7,0,0,0-3.447,1.5,5.237,5.237,0,0,0-1.4,3.6,5.12,5.12,0,0,0,1.4,3.552,4.774,4.774,0,0,0,6.9,0,5.126,5.126,0,0,0,1.39-3.552,5.244,5.244,0,0,0-1.389-3.6A4.7,4.7,0,0,0,676.713,96.628Zm0,8.467a2.9,2.9,0,0,1-2.145-.982,3.539,3.539,0,0,1-.9-2.385,3.662,3.662,0,0,1,.9-2.437,2.809,2.809,0,0,1,4.305,0,3.652,3.652,0,0,1,.9,2.436,3.528,3.528,0,0,1-.9,2.385A2.92,2.92,0,0,1,676.713,105.095Z" transform="translate(-571.714 -92.67)" fill="#db0962"/>
      <path id="Path_1908" data-name="Path 1908" d="M719.238,135.563h1.37v-1.409h-1.37Z" transform="translate(-608.398 -121.7)" fill="#db0962"/>
      <path id="Path_1909" data-name="Path 1909" d="M730.644,113.777a1.774,1.774,0,0,1,1.6,1.015l.032.062h1.266l-.05-.151a2.925,2.925,0,0,0-2.847-2.048,2.975,2.975,0,0,0-2.162.947,3.3,3.3,0,0,0-.9,2.271,3.258,3.258,0,0,0,.9,2.26,2.987,2.987,0,0,0,2.162.936,2.915,2.915,0,0,0,2.847-2.049l.049-.15h-1.266l-.031.063a1.75,1.75,0,0,1-2.907.412,2.188,2.188,0,0,1-.551-1.472,2.228,2.228,0,0,1,.551-1.484A1.755,1.755,0,0,1,730.644,113.777Z" transform="translate(-614.863 -105.067)" fill="#db0962"/>
      <path id="Path_1910" data-name="Path 1910" d="M759.085,112.654a2.978,2.978,0,0,0-2.185.949,3.317,3.317,0,0,0-.884,2.281,3.243,3.243,0,0,0,.885,2.25,3.026,3.026,0,0,0,4.374,0,3.247,3.247,0,0,0,.88-2.25,3.321,3.321,0,0,0-.88-2.281A2.977,2.977,0,0,0,759.085,112.654Zm0,5.292a1.768,1.768,0,0,1-1.309-.6,2.17,2.17,0,0,1-.551-1.462,2.246,2.246,0,0,1,.552-1.494,1.713,1.713,0,0,1,2.627,0,2.238,2.238,0,0,1,.553,1.494,2.163,2.163,0,0,1-.552,1.462A1.783,1.783,0,0,1,759.085,117.946Z" transform="translate(-636.881 -105.067)" fill="#db0962"/>
      <path id="Path_1911" data-name="Path 1911" d="M794,112.654a2.174,2.174,0,0,0-1.836.918,2.105,2.105,0,0,0-1.816-.918,2.008,2.008,0,0,0-1.449.6V112.8h-1.164v6.128h1.2v-3.723a1.523,1.523,0,0,1,.367-1.027,1.2,1.2,0,0,1,.911-.4,1.135,1.135,0,0,1,.9.356,1.5,1.5,0,0,1,.308,1.007v3.791h1.187v-3.723a1.532,1.532,0,0,1,.362-1.028,1.186,1.186,0,0,1,.9-.4,1.151,1.151,0,0,1,.92.356,1.5,1.5,0,0,1,.3,1.007v3.791h1.2v-3.768a2.661,2.661,0,0,0-.61-1.824A2.19,2.19,0,0,0,794,112.654Z" transform="translate(-661.446 -105.067)" fill="#db0962"/>
      <path id="Path_1912" data-name="Path 1912" d="M830.733,135.563h1.37v-1.409h-1.37Z" transform="translate(-694.745 -121.7)" fill="#db0962"/>
      <path id="Path_1913" data-name="Path 1913" d="M845.621,117.854V114.6a1.752,1.752,0,0,0-.639-1.418,2.891,2.891,0,0,0-1.849-.529,3.041,3.041,0,0,0-1.881.555,1.989,1.989,0,0,0-.778,1.5l-.007.121h1.227l.012-.1a.936.936,0,0,1,.512-.762,2.384,2.384,0,0,1,1.934.027.558.558,0,0,1,.293.492.4.4,0,0,1-.074.246.905.905,0,0,1-.513.285,5.77,5.77,0,0,1-1.21.156,3.4,3.4,0,0,0-1.829.518,1.677,1.677,0,0,0-.676,1.44,1.726,1.726,0,0,0,.742,1.481,2.913,2.913,0,0,0,1.666.455,2.726,2.726,0,0,0,1.932-.667,1.732,1.732,0,0,0,.133.463l.031.066h1.2l-.063-.157A3.03,3.03,0,0,1,845.621,117.854Zm-1.175-1.308a1.231,1.231,0,0,1-.568,1.057,2.369,2.369,0,0,1-1.292.332,1.8,1.8,0,0,1-.908-.2.724.724,0,0,1-.255-.246.754.754,0,0,1,.167-.929,2.155,2.155,0,0,1,1.2-.331,6.912,6.912,0,0,0,1.023-.126,2.147,2.147,0,0,0,.636-.236Z" transform="translate(-702.034 -105.067)" fill="#db0962"/>
      <path id="Path_1914" data-name="Path 1914" d="M874.028,113.312v3.734a1.383,1.383,0,0,1-1.415,1.42,1.275,1.275,0,0,1-.991-.389,1.539,1.539,0,0,1-.344-1.054v-3.711h-1.186v3.665a2.784,2.784,0,0,0,.619,1.864,2.25,2.25,0,0,0,1.755.736,2.3,2.3,0,0,0,1.6-.609v.472h1.164v-6.128Z" transform="translate(-725.226 -105.577)" fill="#db0962"/>
    </g>
  </g>
</svg>
