<svg xmlns="http://www.w3.org/2000/svg" xmlns:xlink="http://www.w3.org/1999/xlink" class="brand-logo" width="245" height="45" viewBox="0 0 245 45">
  <defs>
    <clipPath id="clip-DESKTOP-weddinghero-com-au">
      <rect width="245" height="45"/>
    </clipPath>
  </defs>
  <g id="DESKTOP-weddinghero-com-au" clip-path="url(#clip-DESKTOP-weddinghero-com-au)">
    <g id="Group_4205" data-name="Group 4205" transform="translate(-27.142 -40)">
      <g id="Group_4203" data-name="Group 4203" transform="translate(27.143 40)">
        <path id="Path_1894" data-name="Path 1894" d="M46.15,83.609,28.493,65.66a4.719,4.719,0,0,1-1.016-5.047l7.015-17.662A4.662,4.662,0,0,1,38.82,40H60.478a4.662,4.662,0,0,1,4.328,2.951l7,17.633a4.719,4.719,0,0,1-1.047,5.079L52.742,83.64A4.639,4.639,0,0,1,46.15,83.609Z" transform="translate(-27.143 -40)" fill="#db0962"/>
        <path id="Path_1895" data-name="Path 1895" d="M84.246,80.278a10.095,10.095,0,0,0-.02-7.528,2.275,2.275,0,1,0-4.216,1.71h0a5.555,5.555,0,0,1,0,4.16h0c-.012.028-.024.056-.034.085l-2.889,8.038-3.759-8.218a2.275,2.275,0,0,0-4.136,0L65.4,86.783,62.5,78.7h0l-.818-2.278A2.275,2.275,0,0,0,57.4,77.965l.818,2.277h0L63,93.565a2.275,2.275,0,0,0,4.208.18l4.046-8.811,3.913,8.554a2.252,2.252,0,0,0,2.163,1.583h.023a2.275,2.275,0,0,0,2.226-1.805Z" transform="translate(-48.79 -62.518)" fill="#fff"/>
      </g>
      <g id="Group_4204" data-name="Group 4204" transform="translate(83.584 51.01)">
        <path id="Path_1896" data-name="Path 1896" d="M239.555,106.11l-2.4-8.43H234.94l-2.4,8.432-2.4-8.432h-2.325l3.591,12.008h2.217l2.4-8.583,2.4,8.583h2.24l3.591-12.008h-2.325Z" transform="translate(-227.822 -92.467)" fill="#db0962"/>
        <path id="Path_1897" data-name="Path 1897" d="M294.173,96.628a5.891,5.891,0,0,0-4.272,1.857,6.442,6.442,0,0,0-1.767,4.455,6.306,6.306,0,0,0,1.782,4.451,6.338,6.338,0,0,0,7.927.771,5.723,5.723,0,0,0,2.111-2.969l.061-.186H297.68l-.038.082a3.543,3.543,0,0,1-1.3,1.533,3.758,3.758,0,0,1-2.05.547,3.958,3.958,0,0,1-3.887-3.586h9.834v-.191a6.982,6.982,0,0,0-1.869-4.961A5.848,5.848,0,0,0,294.173,96.628Zm0,2.037a3.866,3.866,0,0,1,3.589,2.9h-7.224A3.92,3.92,0,0,1,294.173,98.665Z" transform="translate(-271.172 -91.711)" fill="#db0962"/>
        <path id="Path_1898" data-name="Path 1898" d="M345.342,85.875a5.165,5.165,0,0,0-3.842-1.813,5.833,5.833,0,0,0-4.3,1.858,6.636,6.636,0,0,0,0,8.9,5.842,5.842,0,0,0,4.3,1.846,5.122,5.122,0,0,0,3.91-1.9v1.607h2.151V79.145h-2.22ZM341.5,94.6a3.6,3.6,0,0,1-2.691-1.23,4.443,4.443,0,0,1-1.1-2.975,4.516,4.516,0,0,1,1.105-3.016,3.585,3.585,0,0,1,2.691-1.236,3.662,3.662,0,0,1,2.7,1.237,4.458,4.458,0,0,1,1.144,3.014,4.39,4.39,0,0,1-1.143,2.974A3.677,3.677,0,0,1,341.5,94.6Z" transform="translate(-305.205 -79.145)" fill="#db0962"/>
        <path id="Path_1899" data-name="Path 1899" d="M396.01,85.875a5.165,5.165,0,0,0-3.842-1.813,5.832,5.832,0,0,0-4.3,1.858,6.636,6.636,0,0,0,0,8.9,5.842,5.842,0,0,0,4.3,1.846,5.122,5.122,0,0,0,3.91-1.9v1.607h2.152V79.145h-2.22ZM392.169,94.6a3.6,3.6,0,0,1-2.692-1.23,4.444,4.444,0,0,1-1.1-2.975,4.516,4.516,0,0,1,1.1-3.016,3.585,3.585,0,0,1,2.691-1.236,3.662,3.662,0,0,1,2.7,1.237A4.46,4.46,0,0,1,396.01,90.4a4.392,4.392,0,0,1-1.143,2.974A3.678,3.678,0,0,1,392.169,94.6Z" transform="translate(-341.622 -79.145)" fill="#db0962"/>
        <path id="Path_1900" data-name="Path 1900" d="M439.169,109.689h2.22V97.68h-2.22Z" transform="translate(-379.727 -92.467)" fill="#db0962"/>
        <path id="Path_1901" data-name="Path 1901" d="M439.169,85.775h2.22V83.192h-2.22Z" transform="translate(-379.727 -82.054)" fill="#db0962"/>
        <path id="Path_1902" data-name="Path 1902" d="M463.37,96.628a4.486,4.486,0,0,0-3.272,1.346v-1.05h-2.151v12.009h2.219v-7.313a2.85,2.85,0,0,1,2.931-2.931,2.573,2.573,0,0,1,2.027.836,3.206,3.206,0,0,1,.7,2.14v7.267h2.2v-7.2a5.471,5.471,0,0,0-1.213-3.668A4.4,4.4,0,0,0,463.37,96.628Z" transform="translate(-393.224 -91.711)" fill="#db0962"/>
        <path id="Path_1903" data-name="Path 1903" d="M511.255,98.514a5.164,5.164,0,0,0-3.91-1.886,5.832,5.832,0,0,0-4.3,1.858,6.636,6.636,0,0,0,0,8.9,5.843,5.843,0,0,0,4.3,1.846,5.165,5.165,0,0,0,3.842-1.813v.829a4.834,4.834,0,0,1-.892,2.927,3.644,3.644,0,0,1-3.063,1.37,4.609,4.609,0,0,1-1.732-.333,3,3,0,0,1-1.644-1.585l-.037-.085h-2.3l.044.177a4.948,4.948,0,0,0,2,2.914,6.374,6.374,0,0,0,3.667,1.064A6.032,6.032,0,0,0,511.7,112.9a6.6,6.6,0,0,0,1.707-4.66V96.924h-2.151Zm-3.91,8.654a3.6,3.6,0,0,1-2.692-1.23,4.444,4.444,0,0,1-1.1-2.975,4.514,4.514,0,0,1,1.1-3.016,3.585,3.585,0,0,1,2.691-1.236,3.662,3.662,0,0,1,2.7,1.237,4.458,4.458,0,0,1,1.143,3.014,4.39,4.39,0,0,1-1.143,2.974A3.678,3.678,0,0,1,507.345,107.168Z" transform="translate(-424.405 -91.711)" fill="#db0962"/>
        <path id="Path_1904" data-name="Path 1904" d="M559.446,84.062a4.514,4.514,0,0,0-3.2,1.272V79.145h-2.22V96.367h2.22V89.053a2.85,2.85,0,0,1,2.931-2.931,2.577,2.577,0,0,1,2.036.828A3.217,3.217,0,0,1,561.9,89.1v7.267h2.2v-7.2a5.474,5.474,0,0,0-1.213-3.668A4.4,4.4,0,0,0,559.446,84.062Z" transform="translate(-462.278 -79.145)" fill="#db0962"/>
        <path id="Path_1905" data-name="Path 1905" d="M603.444,96.628a5.891,5.891,0,0,0-4.272,1.857,6.442,6.442,0,0,0-1.767,4.455,6.307,6.307,0,0,0,1.782,4.451,6.338,6.338,0,0,0,7.927.771,5.724,5.724,0,0,0,2.11-2.969l.061-.186H606.95l-.038.082a3.543,3.543,0,0,1-1.3,1.533,3.759,3.759,0,0,1-2.05.547,3.958,3.958,0,0,1-3.887-3.586H609.5v-.191a6.982,6.982,0,0,0-1.869-4.961A5.848,5.848,0,0,0,603.444,96.628Zm0,2.037a3.866,3.866,0,0,1,3.589,2.9h-7.224A3.92,3.92,0,0,1,603.444,98.665Z" transform="translate(-493.46 -91.711)" fill="#db0962"/>
        <path id="Path_1906" data-name="Path 1906" d="M653.173,96.607a4.3,4.3,0,0,0-3.191,1.368V96.909h-2.151v12.009h2.22v-6.926a3.019,3.019,0,0,1,.973-2.384,3.536,3.536,0,0,1,2.352-.782c.093,0,.187,0,.282.008l.15.008V96.652l-.125-.015A4.279,4.279,0,0,0,653.173,96.607Z" transform="translate(-529.703 -91.696)" fill="#db0962"/>
        <path id="Path_1907" data-name="Path 1907" d="M677.908,96.628a5.868,5.868,0,0,0-4.3,1.86,6.492,6.492,0,0,0-1.74,4.474,6.347,6.347,0,0,0,1.741,4.413,5.969,5.969,0,0,0,8.6,0,6.354,6.354,0,0,0,1.733-4.412,6.5,6.5,0,0,0-1.732-4.474A5.864,5.864,0,0,0,677.908,96.628Zm0,10.518a3.618,3.618,0,0,1-2.675-1.22,4.387,4.387,0,0,1-1.121-2.963,4.539,4.539,0,0,1,1.122-3.027,3.512,3.512,0,0,1,5.369,0,4.527,4.527,0,0,1,1.124,3.027,4.373,4.373,0,0,1-1.124,2.963A3.646,3.646,0,0,1,677.908,107.146Z" transform="translate(-546.982 -91.711)" fill="#db0962"/>
        <path id="Path_1908" data-name="Path 1908" d="M719.238,135.9h1.708v-1.75h-1.708Z" transform="translate(-581.028 -118.683)" fill="#db0962"/>
        <path id="Path_1909" data-name="Path 1909" d="M731.4,114.048a2.213,2.213,0,0,1,1.994,1.261l.04.077h1.579l-.063-.188a3.646,3.646,0,0,0-3.55-2.544,3.716,3.716,0,0,0-2.7,1.177,4.086,4.086,0,0,0-1.117,2.821,4.039,4.039,0,0,0,1.118,2.807,3.731,3.731,0,0,0,2.7,1.162,3.633,3.633,0,0,0,3.55-2.546l.061-.186h-1.579l-.039.079a2.186,2.186,0,0,1-3.625.512,2.713,2.713,0,0,1-.687-1.829,2.762,2.762,0,0,1,.687-1.844A2.192,2.192,0,0,1,731.4,114.048Z" transform="translate(-587.027 -103.23)" fill="#db0962"/>
        <path id="Path_1910" data-name="Path 1910" d="M759.843,112.654a3.72,3.72,0,0,0-2.725,1.179,4.112,4.112,0,0,0-1.1,2.833,4.021,4.021,0,0,0,1.1,2.795,3.783,3.783,0,0,0,5.454,0,4.026,4.026,0,0,0,1.1-2.795,4.116,4.116,0,0,0-1.1-2.833A3.718,3.718,0,0,0,759.843,112.654Zm0,6.574a2.208,2.208,0,0,1-1.633-.745,2.69,2.69,0,0,1-.687-1.816,2.784,2.784,0,0,1,.688-1.856,2.142,2.142,0,0,1,3.276,0,2.774,2.774,0,0,1,.689,1.856,2.682,2.682,0,0,1-.688,1.816A2.227,2.227,0,0,1,759.843,119.228Z" transform="translate(-607.461 -103.23)" fill="#db0962"/>
        <path id="Path_1911" data-name="Path 1911" d="M795.548,112.654a2.714,2.714,0,0,0-2.289,1.14,2.628,2.628,0,0,0-2.264-1.14,2.509,2.509,0,0,0-1.807.746v-.561h-1.451v7.612h1.494v-4.624a1.887,1.887,0,0,1,.458-1.276,1.5,1.5,0,0,1,1.136-.5,1.418,1.418,0,0,1,1.124.442,1.856,1.856,0,0,1,.384,1.251v4.71h1.48v-4.624a1.9,1.9,0,0,1,.451-1.277,1.482,1.482,0,0,1,1.128-.5,1.438,1.438,0,0,1,1.147.442,1.863,1.863,0,0,1,.376,1.251v4.71h1.494V115.77a3.3,3.3,0,0,0-.761-2.265A2.736,2.736,0,0,0,795.548,112.654Z" transform="translate(-630.26 -103.23)" fill="#db0962"/>
        <path id="Path_1912" data-name="Path 1912" d="M830.733,135.9h1.708v-1.75h-1.708Z" transform="translate(-661.165 -118.683)" fill="#db0962"/>
        <path id="Path_1913" data-name="Path 1913" d="M846.973,119.114v-4.041a2.173,2.173,0,0,0-.8-1.761,3.614,3.614,0,0,0-2.305-.658,3.8,3.8,0,0,0-2.345.689,2.468,2.468,0,0,0-.97,1.864l-.009.15h1.529l.015-.125a1.163,1.163,0,0,1,.639-.946,2.983,2.983,0,0,1,2.412.034.693.693,0,0,1,.365.611.5.5,0,0,1-.092.306,1.13,1.13,0,0,1-.64.354,7.218,7.218,0,0,1-1.509.194,4.251,4.251,0,0,0-2.281.644,2.08,2.08,0,0,0-.843,1.789,2.142,2.142,0,0,0,.925,1.84,3.643,3.643,0,0,0,2.077.565,3.407,3.407,0,0,0,2.409-.828,2.152,2.152,0,0,0,.166.575l.038.082h1.5l-.078-.2A3.755,3.755,0,0,1,846.973,119.114Zm-1.465-1.625a1.527,1.527,0,0,1-.708,1.313,2.963,2.963,0,0,1-1.611.412,2.254,2.254,0,0,1-1.133-.25.9.9,0,0,1-.318-.305.934.934,0,0,1,.208-1.154,2.7,2.7,0,0,1,1.493-.411,8.65,8.65,0,0,0,1.276-.156,2.682,2.682,0,0,0,.793-.294Z" transform="translate(-667.929 -103.23)" fill="#db0962"/>
        <path id="Path_1914" data-name="Path 1914" d="M875,113.312v4.638a1.721,1.721,0,0,1-1.764,1.764,1.593,1.593,0,0,1-1.236-.483,1.907,1.907,0,0,1-.429-1.31v-4.61h-1.479v4.553a3.45,3.45,0,0,0,.772,2.315,2.811,2.811,0,0,0,2.188.915,2.878,2.878,0,0,0,1.992-.757v.586h1.452v-7.612Z" transform="translate(-689.453 -103.703)" fill="#db0962"/>
      </g>
    </g>
  </g>
</svg>
