<svg xmlns="http://www.w3.org/2000/svg" xmlns:xlink="http://www.w3.org/1999/xlink" width="150" height="28" viewBox="0 0 150 28">
  <defs>
    <clipPath id="clip-weddinghero-ca-partner-footer-logo">
      <rect width="150" height="28"/>
    </clipPath>
  </defs>
  <g id="weddinghero-ca-partner-footer-logo" clip-path="url(#clip-weddinghero-ca-partner-footer-logo)">
    <g id="Group_4230" data-name="Group 4230" transform="translate(-39.17 -9.792)">
      <g id="Group_4229" data-name="Group 4229" transform="translate(50.17 9.792)">
        <g id="Group_4175" data-name="Group 4175" transform="translate(105.677 19.4)">
          <path id="Path_1855" data-name="Path 1855" d="M769.672,1241.583h-1.939v2.95h-1.57v-8.255h3.473a2.491,2.491,0,0,1,2.724,2.665A2.535,2.535,0,0,1,769.672,1241.583Zm-1.939-3.842v2.4h1.892a1.2,1.2,0,0,0,0-2.4Z" transform="translate(-766.163 -1236.076)" fill="#00abaa"/>
          <path id="Path_1856" data-name="Path 1856" d="M796.2,1244.533H794.6a2.308,2.308,0,0,1-.167-.9v-1.26c0-.7-.333-1.023-1.071-1.023h-2.141v3.188h-1.57v-8.255h3.771c1.725,0,2.831.916,2.831,2.462a1.922,1.922,0,0,1-1.154,1.88,1.833,1.833,0,0,1,.9,1.76v1.154A3.321,3.321,0,0,0,796.2,1244.533Zm-2.736-4.6a1.14,1.14,0,0,0,1.225-1.106c0-.274,0-1.083-1.261-1.083h-2.2v2.188Z" transform="translate(-782.396 -1236.076)" fill="#00abaa"/>
          <path id="Path_1857" data-name="Path 1857" d="M822.23,1239.917a4.046,4.046,0,1,1-4.032-4.294A4.1,4.1,0,0,1,822.23,1239.917Zm-1.582,0a2.48,2.48,0,1,0-2.45,2.819A2.656,2.656,0,0,0,820.648,1239.917Z" transform="translate(-799.323 -1235.623)" fill="#00abaa"/>
        </g>
        <g id="Group_4208" data-name="Group 4208">
          <path id="Path_1917" data-name="Path 1917" d="M292.99,104.653l-1.975-6.947h-1.828l-1.975,6.948-1.975-6.948h-1.916l2.959,9.9h1.827l1.974-7.072,1.974,7.072H293.9l2.959-9.9h-1.916Z" transform="translate(-283.322 -93.41)" fill="#db0962"/>
          <path id="Path_1918" data-name="Path 1918" d="M348.611,96.654a4.854,4.854,0,0,0-3.52,1.53,5.308,5.308,0,0,0-1.456,3.671,5.2,5.2,0,0,0,1.469,3.668,5.222,5.222,0,0,0,6.532.635,4.718,4.718,0,0,0,1.739-2.447l.05-.154H351.5l-.032.068a2.919,2.919,0,0,1-1.075,1.264,3.1,3.1,0,0,1-1.689.451,3.261,3.261,0,0,1-3.2-2.955h8.1v-.157a5.755,5.755,0,0,0-1.54-4.088A4.82,4.82,0,0,0,348.611,96.654Zm0,1.679a3.185,3.185,0,0,1,2.958,2.392h-5.953A3.23,3.23,0,0,1,348.611,98.333Z" transform="translate(-329.657 -92.602)" fill="#db0962"/>
          <path id="Path_1919" data-name="Path 1919" d="M399.107,84.717a4.257,4.257,0,0,0-3.166-1.494,4.806,4.806,0,0,0-3.546,1.531,5.468,5.468,0,0,0,0,7.331,4.817,4.817,0,0,0,3.546,1.521,4.223,4.223,0,0,0,3.222-1.568v1.324h1.773V79.171h-1.829Zm-3.166,7.192a2.965,2.965,0,0,1-2.218-1.014,3.661,3.661,0,0,1-.91-2.452,3.721,3.721,0,0,1,.911-2.485,2.954,2.954,0,0,1,2.217-1.018,3.018,3.018,0,0,1,2.223,1.02,3.675,3.675,0,0,1,.943,2.484,3.619,3.619,0,0,1-.942,2.451A3.03,3.03,0,0,1,395.941,91.908Z" transform="translate(-366.032 -79.171)" fill="#db0962"/>
          <path id="Path_1920" data-name="Path 1920" d="M449.775,84.717a4.256,4.256,0,0,0-3.165-1.494,4.807,4.807,0,0,0-3.547,1.531,5.469,5.469,0,0,0,0,7.331,4.817,4.817,0,0,0,3.547,1.521,4.222,4.222,0,0,0,3.222-1.568v1.324H451.6V79.171h-1.829Zm-3.165,7.192a2.966,2.966,0,0,1-2.218-1.014,3.661,3.661,0,0,1-.91-2.452,3.721,3.721,0,0,1,.911-2.485,2.954,2.954,0,0,1,2.218-1.018,3.017,3.017,0,0,1,2.223,1.02,3.675,3.675,0,0,1,.942,2.484,3.617,3.617,0,0,1-.942,2.451A3.03,3.03,0,0,1,446.609,91.908Z" transform="translate(-404.957 -79.171)" fill="#db0962"/>
          <path id="Path_1921" data-name="Path 1921" d="M494.667,85.347H496.5V83.218h-1.829Z" transform="translate(-445.685 -82.28)" fill="#db0962"/>
          <path id="Path_1922" data-name="Path 1922" d="M494.667,107.6H496.5v-9.9h-1.829Z" transform="translate(-445.685 -93.41)" fill="#db0962"/>
          <path id="Path_1923" data-name="Path 1923" d="M517.913,96.654a3.7,3.7,0,0,0-2.7,1.109V96.9h-1.773v9.9h1.829v-6.026a2.348,2.348,0,0,1,2.415-2.415,2.121,2.121,0,0,1,1.67.689,2.641,2.641,0,0,1,.576,1.764v5.989h1.81v-5.933a4.511,4.511,0,0,0-1-3.022A3.629,3.629,0,0,0,517.913,96.654Z" transform="translate(-460.11 -92.602)" fill="#db0962"/>
          <path id="Path_1924" data-name="Path 1924" d="M565.006,98.208a4.255,4.255,0,0,0-3.222-1.554,4.806,4.806,0,0,0-3.547,1.531,5.468,5.468,0,0,0,0,7.331,4.817,4.817,0,0,0,3.547,1.521,4.258,4.258,0,0,0,3.166-1.494v.683a3.987,3.987,0,0,1-.735,2.412,3,3,0,0,1-2.524,1.129,3.8,3.8,0,0,1-1.427-.275,2.476,2.476,0,0,1-1.354-1.306l-.031-.07h-1.9l.036.146a4.078,4.078,0,0,0,1.651,2.4,5.252,5.252,0,0,0,3.021.877,4.971,4.971,0,0,0,3.682-1.474,5.443,5.443,0,0,0,1.407-3.84V96.9h-1.773Zm-3.222,7.131a2.966,2.966,0,0,1-2.218-1.014,3.662,3.662,0,0,1-.91-2.452,3.72,3.72,0,0,1,.911-2.485,2.954,2.954,0,0,1,2.218-1.018,3.018,3.018,0,0,1,2.223,1.02,3.676,3.676,0,0,1,.943,2.484,3.619,3.619,0,0,1-.942,2.451A3.031,3.031,0,0,1,561.784,105.34Z" transform="translate(-493.439 -92.602)" fill="#db0962"/>
          <path id="Path_1925" data-name="Path 1925" d="M613.989,83.223a3.721,3.721,0,0,0-2.64,1.048v-5.1H609.52V93.362h1.829V87.336a2.348,2.348,0,0,1,2.415-2.415,2.124,2.124,0,0,1,1.678.682,2.65,2.65,0,0,1,.569,1.771v5.989h1.81V87.43a4.51,4.51,0,0,0-1-3.022A3.629,3.629,0,0,0,613.989,83.223Z" transform="translate(-533.919 -79.171)" fill="#db0962"/>
          <path id="Path_1926" data-name="Path 1926" d="M657.879,96.654a4.854,4.854,0,0,0-3.52,1.53,5.308,5.308,0,0,0-1.456,3.671,5.2,5.2,0,0,0,1.469,3.668,5.221,5.221,0,0,0,6.532.635,4.714,4.714,0,0,0,1.739-2.447l.05-.154h-1.925l-.032.068a2.916,2.916,0,0,1-1.075,1.264,3.1,3.1,0,0,1-1.689.451,3.261,3.261,0,0,1-3.2-2.955h8.1v-.157a5.753,5.753,0,0,0-1.54-4.088A4.82,4.82,0,0,0,657.879,96.654Zm0,1.679a3.185,3.185,0,0,1,2.958,2.392h-5.953A3.23,3.23,0,0,1,657.879,98.333Z" transform="translate(-567.248 -92.602)" fill="#db0962"/>
          <path id="Path_1927" data-name="Path 1927" d="M707.731,96.633a3.545,3.545,0,0,0-2.629,1.128v-.879h-1.773v9.9h1.829V101.07a2.487,2.487,0,0,1,.8-1.965,2.914,2.914,0,0,1,1.938-.645q.115,0,.232.007l.124.007v-1.8l-.1-.012A3.57,3.57,0,0,0,707.731,96.633Z" transform="translate(-605.987 -92.586)" fill="#db0962"/>
          <path id="Path_1928" data-name="Path 1928" d="M732.343,96.654a4.835,4.835,0,0,0-3.542,1.533,5.35,5.35,0,0,0-1.434,3.687,5.232,5.232,0,0,0,1.435,3.636,4.918,4.918,0,0,0,7.089,0,5.238,5.238,0,0,0,1.427-3.636,5.356,5.356,0,0,0-1.427-3.687A4.832,4.832,0,0,0,732.343,96.654Zm0,8.667a2.982,2.982,0,0,1-2.2-1.005,3.616,3.616,0,0,1-.924-2.442,3.74,3.74,0,0,1,.925-2.494,2.894,2.894,0,0,1,4.424,0,3.731,3.731,0,0,1,.927,2.494,3.606,3.606,0,0,1-.926,2.442A3.006,3.006,0,0,1,732.343,105.321Z" transform="translate(-624.454 -92.602)" fill="#db0962"/>
          <path id="Path_1929" data-name="Path 1929" d="M774.736,135.623h1.407v-1.442h-1.407Z" transform="translate(-660.844 -121.431)" fill="#db0962"/>
          <path id="Path_1930" data-name="Path 1930" d="M786.225,113.828a1.824,1.824,0,0,1,1.643,1.039l.033.063h1.3l-.052-.155a3.005,3.005,0,0,0-2.925-2.1,3.062,3.062,0,0,0-2.222.97,3.367,3.367,0,0,0-.921,2.325,3.328,3.328,0,0,0,.921,2.313,3.074,3.074,0,0,0,2.221.958,2.994,2.994,0,0,0,2.926-2.1l.05-.154h-1.3l-.032.065a1.8,1.8,0,0,1-1.643,1.037,1.816,1.816,0,0,1-1.345-.615,2.235,2.235,0,0,1-.566-1.507,2.277,2.277,0,0,1,.567-1.519A1.807,1.807,0,0,1,786.225,113.828Z" transform="translate(-667.257 -104.913)" fill="#db0962"/>
          <path id="Path_1931" data-name="Path 1931" d="M817.865,118.944A3.093,3.093,0,0,1,817.7,118v-3.33a1.791,1.791,0,0,0-.656-1.452,2.982,2.982,0,0,0-1.9-.542,3.135,3.135,0,0,0-1.933.568,2.033,2.033,0,0,0-.8,1.536l-.007.124h1.26l.012-.1a.958.958,0,0,1,.526-.779,2.456,2.456,0,0,1,1.988.028.571.571,0,0,1,.3.5.41.41,0,0,1-.076.252.93.93,0,0,1-.527.292,5.929,5.929,0,0,1-1.243.16,3.5,3.5,0,0,0-1.879.531,1.714,1.714,0,0,0-.695,1.474,1.765,1.765,0,0,0,.762,1.516,3,3,0,0,0,1.712.465,2.808,2.808,0,0,0,1.985-.682,1.773,1.773,0,0,0,.136.474l.032.068h1.233Zm-1.375-2.28a1.258,1.258,0,0,1-.583,1.081,2.442,2.442,0,0,1-1.328.34,1.859,1.859,0,0,1-.933-.206.745.745,0,0,1-.262-.251.77.77,0,0,1,.172-.951,2.223,2.223,0,0,1,1.23-.338,7.158,7.158,0,0,0,1.051-.129,2.217,2.217,0,0,0,.653-.242Z" transform="translate(-689.526 -104.913)" fill="#db0962"/>
        </g>
      </g>
    </g>
  </g>
</svg>
