<svg xmlns="http://www.w3.org/2000/svg" xmlns:xlink="http://www.w3.org/1999/xlink" class="brand-logo" width="245" height="45" viewBox="0 0 245 45">
  <defs>
    <clipPath id="clip-DESKTOP-weddinghero-ca">
      <rect width="245" height="45"/>
    </clipPath>
  </defs>
  <g id="DESKTOP-weddinghero-ca" clip-path="url(#clip-DESKTOP-weddinghero-ca)">
    <g id="Group_4209" data-name="Group 4209" transform="translate(-82.646 -40)">
      <g id="Group_4207" data-name="Group 4207" transform="translate(82.646 40)">
        <path id="Path_1915" data-name="Path 1915" d="M101.653,83.609,84,65.66a4.719,4.719,0,0,1-1.016-5.047l7.015-17.662A4.662,4.662,0,0,1,94.323,40h21.657a4.662,4.662,0,0,1,4.328,2.951l7,17.633a4.719,4.719,0,0,1-1.047,5.079L108.245,83.64A4.639,4.639,0,0,1,101.653,83.609Z" transform="translate(-82.646 -40)" fill="#db0962"/>
        <path id="Path_1916" data-name="Path 1916" d="M139.749,80.278a10.1,10.1,0,0,0-.02-7.528,2.275,2.275,0,1,0-4.216,1.71h0a5.553,5.553,0,0,1,0,4.16h0c-.011.028-.024.056-.035.085l-2.888,8.038-3.759-8.218a2.275,2.275,0,0,0-4.136,0l-3.792,8.26L118,78.7h0l-.818-2.278a2.275,2.275,0,0,0-4.282,1.539l.818,2.277h0L118.5,93.565a2.275,2.275,0,0,0,4.209.18l4.045-8.811,3.913,8.554a2.26,2.26,0,0,0,.3.617,2.282,2.282,0,0,0,1.861.966h.023a2.273,2.273,0,0,0,2.226-1.805Z" transform="translate(-104.293 -62.518)" fill="#fff"/>
      </g>
      <g id="Group_4208" data-name="Group 4208" transform="translate(139.086 51.017)">
        <path id="Path_1917" data-name="Path 1917" d="M295.054,106.136l-2.4-8.43H290.44l-2.4,8.432-2.4-8.432h-2.325l3.591,12.009h2.217l2.4-8.583,2.4,8.583h2.24l3.591-12.009h-2.325Z" transform="translate(-283.322 -92.493)" fill="#db0962"/>
        <path id="Path_1918" data-name="Path 1918" d="M349.673,96.654a5.891,5.891,0,0,0-4.272,1.857,6.441,6.441,0,0,0-1.766,4.455,6.306,6.306,0,0,0,1.782,4.451,6.337,6.337,0,0,0,7.927.771,5.726,5.726,0,0,0,2.11-2.969l.061-.187h-2.336l-.038.082a3.542,3.542,0,0,1-1.3,1.534,3.757,3.757,0,0,1-2.049.547,3.958,3.958,0,0,1-3.887-3.585h9.834v-.191a6.984,6.984,0,0,0-1.869-4.961A5.849,5.849,0,0,0,349.673,96.654Zm0,2.037a3.865,3.865,0,0,1,3.589,2.9h-7.224A3.92,3.92,0,0,1,349.673,98.691Z" transform="translate(-326.672 -91.737)" fill="#db0962"/>
        <path id="Path_1919" data-name="Path 1919" d="M400.841,85.9A5.166,5.166,0,0,0,397,84.088a5.832,5.832,0,0,0-4.3,1.858,6.636,6.636,0,0,0,0,8.9,5.846,5.846,0,0,0,4.3,1.846,5.124,5.124,0,0,0,3.91-1.9v1.607h2.151V79.171h-2.219ZM397,94.628a3.6,3.6,0,0,1-2.691-1.23,4.443,4.443,0,0,1-1.1-2.975,4.516,4.516,0,0,1,1.105-3.016A3.585,3.585,0,0,1,397,86.171a3.662,3.662,0,0,1,2.7,1.237,4.46,4.46,0,0,1,1.144,3.014A4.391,4.391,0,0,1,399.7,93.4,3.677,3.677,0,0,1,397,94.628Z" transform="translate(-360.704 -79.171)" fill="#db0962"/>
        <path id="Path_1920" data-name="Path 1920" d="M451.509,85.9a5.165,5.165,0,0,0-3.841-1.813,5.833,5.833,0,0,0-4.3,1.858,6.636,6.636,0,0,0,0,8.9,5.846,5.846,0,0,0,4.3,1.846,5.124,5.124,0,0,0,3.91-1.9v1.607h2.152V79.171h-2.22Zm-3.841,8.727a3.6,3.6,0,0,1-2.692-1.23,4.443,4.443,0,0,1-1.1-2.975,4.516,4.516,0,0,1,1.105-3.016,3.585,3.585,0,0,1,2.691-1.236,3.662,3.662,0,0,1,2.7,1.237,4.46,4.46,0,0,1,1.144,3.014,4.39,4.39,0,0,1-1.143,2.974A3.677,3.677,0,0,1,447.668,94.628Z" transform="translate(-397.122 -79.171)" fill="#db0962"/>
        <path id="Path_1921" data-name="Path 1921" d="M494.667,85.8h2.22V83.218h-2.22Z" transform="translate(-435.226 -82.079)" fill="#db0962"/>
        <path id="Path_1922" data-name="Path 1922" d="M494.667,109.715h2.22V97.706h-2.22Z" transform="translate(-435.226 -92.493)" fill="#db0962"/>
        <path id="Path_1923" data-name="Path 1923" d="M518.867,96.654A4.484,4.484,0,0,0,515.6,98V96.95h-2.151v12.009h2.22v-7.313a2.85,2.85,0,0,1,2.931-2.931,2.574,2.574,0,0,1,2.027.836,3.206,3.206,0,0,1,.7,2.141v7.267h2.2v-7.2a5.473,5.473,0,0,0-1.213-3.668A4.4,4.4,0,0,0,518.867,96.654Z" transform="translate(-448.722 -91.737)" fill="#db0962"/>
        <path id="Path_1924" data-name="Path 1924" d="M566.753,98.54a5.163,5.163,0,0,0-3.91-1.886,5.833,5.833,0,0,0-4.3,1.858,6.636,6.636,0,0,0,0,8.9,5.846,5.846,0,0,0,4.3,1.846,5.166,5.166,0,0,0,3.842-1.813v.828a4.838,4.838,0,0,1-.892,2.927,3.644,3.644,0,0,1-3.063,1.37,4.607,4.607,0,0,1-1.732-.333,3.005,3.005,0,0,1-1.644-1.585l-.037-.085h-2.3l.044.177a4.95,4.95,0,0,0,2,2.914,6.375,6.375,0,0,0,3.667,1.064,6.032,6.032,0,0,0,4.468-1.788,6.6,6.6,0,0,0,1.707-4.66V96.95h-2.151Zm-3.91,8.654a3.6,3.6,0,0,1-2.692-1.23,4.444,4.444,0,0,1-1.1-2.975,4.514,4.514,0,0,1,1.105-3.016,3.585,3.585,0,0,1,2.691-1.236,3.663,3.663,0,0,1,2.7,1.237,4.461,4.461,0,0,1,1.144,3.014,4.391,4.391,0,0,1-1.143,2.974A3.678,3.678,0,0,1,562.843,107.194Z" transform="translate(-479.904 -91.737)" fill="#db0962"/>
        <path id="Path_1925" data-name="Path 1925" d="M614.943,84.088a4.515,4.515,0,0,0-3.2,1.271V79.171h-2.22V96.392h2.22V89.079a2.849,2.849,0,0,1,2.931-2.931,2.577,2.577,0,0,1,2.036.828,3.215,3.215,0,0,1,.69,2.149v7.267h2.2v-7.2a5.473,5.473,0,0,0-1.213-3.668A4.4,4.4,0,0,0,614.943,84.088Z" transform="translate(-517.777 -79.171)" fill="#db0962"/>
        <path id="Path_1926" data-name="Path 1926" d="M658.941,96.654a5.89,5.89,0,0,0-4.272,1.857,6.441,6.441,0,0,0-1.767,4.455,6.306,6.306,0,0,0,1.782,4.451,6.336,6.336,0,0,0,7.926.771,5.72,5.72,0,0,0,2.11-2.969l.061-.187h-2.336l-.038.082a3.538,3.538,0,0,1-1.3,1.534,3.757,3.757,0,0,1-2.049.547,3.958,3.958,0,0,1-3.887-3.585H665v-.191a6.982,6.982,0,0,0-1.869-4.961A5.849,5.849,0,0,0,658.941,96.654Zm0,2.037a3.866,3.866,0,0,1,3.589,2.9h-7.224A3.919,3.919,0,0,1,658.941,98.691Z" transform="translate(-548.958 -91.737)" fill="#db0962"/>
        <path id="Path_1927" data-name="Path 1927" d="M708.671,96.633A4.3,4.3,0,0,0,705.48,98V96.935h-2.151v12.009h2.219v-6.926a3.019,3.019,0,0,1,.973-2.384,3.536,3.536,0,0,1,2.352-.782q.139,0,.281.008l.15.008V96.677l-.126-.015A4.332,4.332,0,0,0,708.671,96.633Z" transform="translate(-585.202 -91.722)" fill="#db0962"/>
        <path id="Path_1928" data-name="Path 1928" d="M733.405,96.654a5.867,5.867,0,0,0-4.3,1.86,6.493,6.493,0,0,0-1.74,4.474,6.349,6.349,0,0,0,1.741,4.413,5.968,5.968,0,0,0,8.6,0,6.356,6.356,0,0,0,1.732-4.412,6.5,6.5,0,0,0-1.732-4.474A5.863,5.863,0,0,0,733.405,96.654Zm0,10.517a3.619,3.619,0,0,1-2.675-1.22,4.389,4.389,0,0,1-1.121-2.963,4.539,4.539,0,0,1,1.122-3.027,3.511,3.511,0,0,1,5.368,0,4.527,4.527,0,0,1,1.125,3.027,4.376,4.376,0,0,1-1.124,2.963A3.647,3.647,0,0,1,733.405,107.171Z" transform="translate(-602.479 -91.737)" fill="#db0962"/>
        <path id="Path_1929" data-name="Path 1929" d="M774.735,135.931h1.708v-1.75h-1.708Z" transform="translate(-636.525 -118.709)" fill="#db0962"/>
        <path id="Path_1930" data-name="Path 1930" d="M786.9,114.073a2.214,2.214,0,0,1,1.994,1.261l.04.077h1.579l-.063-.188a3.647,3.647,0,0,0-3.55-2.544,3.716,3.716,0,0,0-2.7,1.177,4.086,4.086,0,0,0-1.117,2.821,4.038,4.038,0,0,0,1.118,2.807,3.731,3.731,0,0,0,2.7,1.162,3.633,3.633,0,0,0,3.55-2.545l.061-.186h-1.579l-.039.078a2.182,2.182,0,0,1-1.993,1.259,2.2,2.2,0,0,1-1.632-.747,2.711,2.711,0,0,1-.687-1.828,2.763,2.763,0,0,1,.688-1.844A2.193,2.193,0,0,1,786.9,114.073Z" transform="translate(-642.525 -103.255)" fill="#db0962"/>
        <path id="Path_1931" data-name="Path 1931" d="M819.1,120.281a3.751,3.751,0,0,1-.2-1.142V115.1a2.174,2.174,0,0,0-.8-1.761,3.618,3.618,0,0,0-2.305-.658,3.8,3.8,0,0,0-2.346.689,2.468,2.468,0,0,0-.969,1.864l-.009.151H814l.015-.125a1.163,1.163,0,0,1,.639-.946,2.98,2.98,0,0,1,2.412.034.693.693,0,0,1,.365.61.5.5,0,0,1-.092.306,1.129,1.129,0,0,1-.64.354,7.2,7.2,0,0,1-1.508.194,4.251,4.251,0,0,0-2.281.644,2.079,2.079,0,0,0-.843,1.788,2.142,2.142,0,0,0,.925,1.84,3.644,3.644,0,0,0,2.077.564,3.407,3.407,0,0,0,2.409-.828,2.142,2.142,0,0,0,.165.575l.038.082h1.5Zm-1.669-2.767a1.527,1.527,0,0,1-.708,1.312,2.963,2.963,0,0,1-1.612.412,2.257,2.257,0,0,1-1.133-.25.9.9,0,0,1-.318-.305.934.934,0,0,1,.209-1.154,2.7,2.7,0,0,1,1.493-.411,8.687,8.687,0,0,0,1.276-.156,2.693,2.693,0,0,0,.793-.293Z" transform="translate(-663.36 -103.255)" fill="#db0962"/>
      </g>
    </g>
  </g>
</svg>
