<svg xmlns="http://www.w3.org/2000/svg" xmlns:xlink="http://www.w3.org/1999/xlink" class="brand-logo" width="245" height="45" viewBox="0 0 245 45">
  <defs>
    <clipPath id="clip-DESKTOP-weddinghero-ca-partner-white">
      <rect width="245" height="45"/>
    </clipPath>
  </defs>
  <g id="DESKTOP-weddinghero-ca-partner-white" clip-path="url(#clip-DESKTOP-weddinghero-ca-partner-white)">
    <g id="Group_4173" data-name="Group 4173" transform="translate(-273.674 -1143.468)">
      <g id="Group_4173-2" data-name="Group 4173" transform="translate(273.675 1143.468)">
        <path id="Subtraction_20" data-name="Subtraction 20" d="M22.322,45A4.639,4.639,0,0,1,19,43.607L1.35,25.663A4.735,4.735,0,0,1,.332,20.614L7.348,2.948A4.641,4.641,0,0,1,11.68,0H33.336a4.639,4.639,0,0,1,4.326,2.948l7,17.634a4.707,4.707,0,0,1-1.047,5.08L25.6,43.643A4.63,4.63,0,0,1,22.322,45Zm.146-22.584v0l3.908,8.552a2.359,2.359,0,0,0,.3.614,2.269,2.269,0,0,0,1.859.97h.023a2.267,2.267,0,0,0,2.225-1.807l4.668-12.989a10.1,10.1,0,0,0-.021-7.527,2.273,2.273,0,0,0-2.961-1.254,2.286,2.286,0,0,0-1.256,2.963,5.481,5.481,0,0,1,0,4.161l-.012.033-.018.055L28.3,24.227l-3.758-8.218A2.272,2.272,0,0,0,20.4,16l-3.795,8.26-2.9-8.079-.822-2.277a2.274,2.274,0,1,0-4.279,1.539l.816,2.276,4.791,13.324a2.264,2.264,0,0,0,2.039,1.5c.035,0,.068,0,.1,0a2.282,2.282,0,0,0,2.064-1.324l4.047-8.81Z" fill="#fff" stroke="rgba(0,0,0,0)" stroke-miterlimit="10" stroke-width="1"/>
      </g>
      <g id="Group_4175" data-name="Group 4175" transform="translate(458.359 1178.026)">
        <path id="Path_1855" data-name="Path 1855" d="M770.421,1242.716h-2.353v3.58h-1.9v-10.018h4.215a3.023,3.023,0,0,1,3.306,3.234A3.076,3.076,0,0,1,770.421,1242.716Zm-2.353-4.662v2.916h2.3a1.459,1.459,0,0,0,0-2.916Z" transform="translate(-766.163 -1236.032)" fill="#fff"/>
        <path id="Path_1856" data-name="Path 1856" d="M797.6,1246.3h-1.934a2.8,2.8,0,0,1-.2-1.1v-1.53c0-.852-.4-1.242-1.3-1.242h-2.6v3.869h-1.905v-10.018h4.576c2.094,0,3.436,1.111,3.436,2.988a2.333,2.333,0,0,1-1.4,2.281,2.224,2.224,0,0,1,1.1,2.136v1.4A4.032,4.032,0,0,0,797.6,1246.3Zm-3.32-5.587a1.384,1.384,0,0,0,1.487-1.342c0-.332,0-1.314-1.53-1.314h-2.67v2.656Z" transform="translate(-780.846 -1236.032)" fill="#fff"/>
        <path id="Path_1857" data-name="Path 1857" d="M823.954,1240.834a4.91,4.91,0,1,1-4.893-5.211A4.969,4.969,0,0,1,823.954,1240.834Zm-1.92,0a3.009,3.009,0,1,0-2.973,3.421A3.223,3.223,0,0,0,822.034,1240.834Z" transform="translate(-796.157 -1235.623)" fill="#fff"/>
      </g>
      <g id="Group_4208" data-name="Group 4208" transform="translate(330.115 1154.484)">
        <path id="Path_1917" data-name="Path 1917" d="M295.054,106.136l-2.4-8.43H290.44l-2.4,8.432-2.4-8.432h-2.325l3.591,12.009h2.217l2.4-8.583,2.4,8.583h2.24l3.591-12.009h-2.325Z" transform="translate(-283.322 -92.493)" fill="#fff"/>
        <path id="Path_1918" data-name="Path 1918" d="M349.673,96.654a5.891,5.891,0,0,0-4.272,1.857,6.441,6.441,0,0,0-1.767,4.455,6.306,6.306,0,0,0,1.782,4.451,6.337,6.337,0,0,0,7.927.771,5.725,5.725,0,0,0,2.11-2.969l.061-.187H353.18l-.038.082a3.541,3.541,0,0,1-1.3,1.534,3.758,3.758,0,0,1-2.049.547,3.958,3.958,0,0,1-3.887-3.585h9.834v-.191a6.983,6.983,0,0,0-1.869-4.961A5.849,5.849,0,0,0,349.673,96.654Zm0,2.037a3.865,3.865,0,0,1,3.589,2.9h-7.224A3.92,3.92,0,0,1,349.673,98.691Z" transform="translate(-326.672 -91.737)" fill="#fff"/>
        <path id="Path_1919" data-name="Path 1919" d="M400.841,85.9A5.166,5.166,0,0,0,397,84.088a5.832,5.832,0,0,0-4.3,1.858,6.636,6.636,0,0,0,0,8.9,5.845,5.845,0,0,0,4.3,1.846,5.124,5.124,0,0,0,3.91-1.9v1.607h2.151V79.171h-2.219ZM397,94.628a3.6,3.6,0,0,1-2.691-1.23,4.443,4.443,0,0,1-1.1-2.975,4.516,4.516,0,0,1,1.105-3.016A3.585,3.585,0,0,1,397,86.171a3.662,3.662,0,0,1,2.7,1.237,4.46,4.46,0,0,1,1.144,3.014A4.392,4.392,0,0,1,399.7,93.4,3.677,3.677,0,0,1,397,94.628Z" transform="translate(-360.704 -79.171)" fill="#fff"/>
        <path id="Path_1920" data-name="Path 1920" d="M451.509,85.9a5.165,5.165,0,0,0-3.841-1.813,5.834,5.834,0,0,0-4.3,1.858,6.637,6.637,0,0,0,0,8.9,5.846,5.846,0,0,0,4.3,1.846,5.123,5.123,0,0,0,3.91-1.9v1.607h2.152V79.171h-2.22Zm-3.841,8.727a3.6,3.6,0,0,1-2.692-1.23,4.443,4.443,0,0,1-1.1-2.975,4.515,4.515,0,0,1,1.1-3.016,3.585,3.585,0,0,1,2.691-1.236,3.662,3.662,0,0,1,2.7,1.237,4.46,4.46,0,0,1,1.144,3.014,4.39,4.39,0,0,1-1.143,2.974A3.677,3.677,0,0,1,447.668,94.628Z" transform="translate(-397.121 -79.171)" fill="#fff"/>
        <path id="Path_1921" data-name="Path 1921" d="M494.667,85.8h2.22V83.218h-2.22Z" transform="translate(-435.225 -82.079)" fill="#fff"/>
        <path id="Path_1922" data-name="Path 1922" d="M494.667,109.715h2.22V97.706h-2.22Z" transform="translate(-435.225 -92.493)" fill="#fff"/>
        <path id="Path_1923" data-name="Path 1923" d="M518.868,96.654A4.485,4.485,0,0,0,515.6,98V96.95h-2.151v12.009h2.22v-7.313a2.85,2.85,0,0,1,2.931-2.931,2.574,2.574,0,0,1,2.027.836,3.205,3.205,0,0,1,.7,2.141v7.268h2.2v-7.2a5.474,5.474,0,0,0-1.213-3.668A4.4,4.4,0,0,0,518.868,96.654Z" transform="translate(-448.722 -91.737)" fill="#fff"/>
        <path id="Path_1924" data-name="Path 1924" d="M566.753,98.54a5.164,5.164,0,0,0-3.91-1.886,5.833,5.833,0,0,0-4.3,1.858,6.636,6.636,0,0,0,0,8.9,5.846,5.846,0,0,0,4.3,1.846,5.167,5.167,0,0,0,3.842-1.813v.828a4.839,4.839,0,0,1-.892,2.927,3.644,3.644,0,0,1-3.063,1.37,4.607,4.607,0,0,1-1.732-.333,3,3,0,0,1-1.644-1.585l-.038-.085h-2.3l.043.177a4.949,4.949,0,0,0,2,2.914,6.374,6.374,0,0,0,3.667,1.064,6.032,6.032,0,0,0,4.468-1.788,6.6,6.6,0,0,0,1.707-4.66V96.95h-2.151Zm-3.91,8.654a3.6,3.6,0,0,1-2.692-1.23,4.444,4.444,0,0,1-1.1-2.975,4.513,4.513,0,0,1,1.105-3.016,3.584,3.584,0,0,1,2.691-1.236,3.662,3.662,0,0,1,2.7,1.237,4.46,4.46,0,0,1,1.144,3.014,4.391,4.391,0,0,1-1.143,2.974A3.678,3.678,0,0,1,562.843,107.194Z" transform="translate(-479.903 -91.737)" fill="#fff"/>
        <path id="Path_1925" data-name="Path 1925" d="M614.944,84.088a4.515,4.515,0,0,0-3.2,1.271V79.171h-2.22V96.393h2.22V89.08a2.849,2.849,0,0,1,2.931-2.931,2.578,2.578,0,0,1,2.036.828,3.216,3.216,0,0,1,.69,2.149v7.268h2.2v-7.2a5.474,5.474,0,0,0-1.213-3.668A4.4,4.4,0,0,0,614.944,84.088Z" transform="translate(-517.776 -79.171)" fill="#fff"/>
        <path id="Path_1926" data-name="Path 1926" d="M658.941,96.654a5.89,5.89,0,0,0-4.272,1.857,6.441,6.441,0,0,0-1.767,4.455,6.306,6.306,0,0,0,1.782,4.451,6.337,6.337,0,0,0,7.926.771,5.72,5.72,0,0,0,2.111-2.969l.061-.187h-2.336l-.038.082a3.539,3.539,0,0,1-1.3,1.534,3.758,3.758,0,0,1-2.049.547,3.958,3.958,0,0,1-3.887-3.585H665v-.191a6.982,6.982,0,0,0-1.869-4.961A5.849,5.849,0,0,0,658.941,96.654Zm0,2.037a3.865,3.865,0,0,1,3.589,2.9h-7.224A3.919,3.919,0,0,1,658.941,98.691Z" transform="translate(-548.957 -91.737)" fill="#fff"/>
        <path id="Path_1927" data-name="Path 1927" d="M708.671,96.633A4.3,4.3,0,0,0,705.48,98V96.935h-2.151v12.009h2.219v-6.926a3.018,3.018,0,0,1,.973-2.384,3.536,3.536,0,0,1,2.352-.782q.139,0,.281.008l.15.008V96.677l-.126-.015A4.334,4.334,0,0,0,708.671,96.633Z" transform="translate(-585.201 -91.722)" fill="#fff"/>
        <path id="Path_1928" data-name="Path 1928" d="M733.405,96.654a5.867,5.867,0,0,0-4.3,1.86,6.493,6.493,0,0,0-1.74,4.474,6.349,6.349,0,0,0,1.741,4.413,5.968,5.968,0,0,0,8.6,0,6.356,6.356,0,0,0,1.732-4.412,6.5,6.5,0,0,0-1.732-4.474A5.864,5.864,0,0,0,733.405,96.654Zm0,10.517a3.619,3.619,0,0,1-2.675-1.22,4.389,4.389,0,0,1-1.121-2.963,4.539,4.539,0,0,1,1.122-3.027,3.511,3.511,0,0,1,5.368,0,4.527,4.527,0,0,1,1.125,3.027,4.376,4.376,0,0,1-1.124,2.963A3.647,3.647,0,0,1,733.405,107.171Z" transform="translate(-602.478 -91.737)" fill="#fff"/>
        <path id="Path_1929" data-name="Path 1929" d="M774.735,135.931h1.708v-1.75h-1.708Z" transform="translate(-636.524 -118.709)" fill="#fff"/>
        <path id="Path_1930" data-name="Path 1930" d="M786.9,114.073a2.214,2.214,0,0,1,1.994,1.261l.04.077h1.579l-.063-.188a3.647,3.647,0,0,0-3.55-2.544,3.716,3.716,0,0,0-2.7,1.177,4.086,4.086,0,0,0-1.117,2.821,4.038,4.038,0,0,0,1.118,2.807,3.731,3.731,0,0,0,2.7,1.162,3.633,3.633,0,0,0,3.55-2.545l.061-.186h-1.579l-.039.078a2.182,2.182,0,0,1-1.993,1.259,2.2,2.2,0,0,1-1.632-.747,2.712,2.712,0,0,1-.687-1.828,2.763,2.763,0,0,1,.688-1.844A2.193,2.193,0,0,1,786.9,114.073Z" transform="translate(-642.524 -103.255)" fill="#fff"/>
        <path id="Path_1931" data-name="Path 1931" d="M819.1,120.281a3.753,3.753,0,0,1-.2-1.142V115.1a2.174,2.174,0,0,0-.8-1.761,3.618,3.618,0,0,0-2.305-.658,3.8,3.8,0,0,0-2.346.689,2.468,2.468,0,0,0-.969,1.864l-.009.151H814l.015-.125a1.163,1.163,0,0,1,.639-.946,2.98,2.98,0,0,1,2.412.034.693.693,0,0,1,.365.61.5.5,0,0,1-.092.306,1.129,1.129,0,0,1-.64.354,7.2,7.2,0,0,1-1.508.194,4.252,4.252,0,0,0-2.281.644,2.079,2.079,0,0,0-.843,1.788,2.141,2.141,0,0,0,.925,1.84,3.644,3.644,0,0,0,2.077.564,3.407,3.407,0,0,0,2.409-.828,2.151,2.151,0,0,0,.165.575l.038.082h1.5Zm-1.669-2.767a1.526,1.526,0,0,1-.708,1.312,2.963,2.963,0,0,1-1.612.412,2.256,2.256,0,0,1-1.133-.25.9.9,0,0,1-.318-.305.935.935,0,0,1,.209-1.154,2.7,2.7,0,0,1,1.493-.411,8.688,8.688,0,0,0,1.276-.156,2.69,2.69,0,0,0,.793-.293Z" transform="translate(-663.358 -103.255)" fill="#fff"/>
      </g>
    </g>
  </g>
</svg>
