<svg xmlns="http://www.w3.org/2000/svg" xmlns:xlink="http://www.w3.org/1999/xlink" class="brand-logo" width="245" height="45" viewBox="0 0 245 45">
  <defs>
    <linearGradient id="linear-gradient" y1="0.5" x2="1" y2="0.5" gradientUnits="objectBoundingBox">
      <stop offset="0" stop-color="#ff00c4"/>
      <stop offset="0.16" stop-color="red"/>
      <stop offset="0.331" stop-color="#d4e507"/>
      <stop offset="0.5" stop-color="#56da26"/>
      <stop offset="0.681" stop-color="#1bd2e2"/>
      <stop offset="0.858" stop-color="#17439f"/>
      <stop offset="1" stop-color="#9918dd"/>
    </linearGradient>
    <clipPath id="clip-DESKTOP-weddinghero-ca-PRIDE">
      <rect width="245" height="45"/>
    </clipPath>
  </defs>
  <g id="DESKTOP-weddinghero-ca-PRIDE" clip-path="url(#clip-DESKTOP-weddinghero-ca-PRIDE)">
    <path id="Union_14" data-name="Union 14" d="M20270,5596.611l-17.656-17.949a4.716,4.716,0,0,1-1.012-5.048l7.01-17.661a4.668,4.668,0,0,1,4.33-2.953h21.656a4.668,4.668,0,0,1,4.33,2.953l7,17.63a4.723,4.723,0,0,1-1.047,5.079l-18.021,17.98a4.645,4.645,0,0,1-6.594-.031Zm116.594-10.677a4.952,4.952,0,0,1-2-2.912l-.047-.18h2.3l.041.087a3,3,0,0,0,1.639,1.582,4.618,4.618,0,0,0,1.734.334,3.664,3.664,0,0,0,3.066-1.366,4.871,4.871,0,0,0,.889-2.927v-.832a5.154,5.154,0,0,1-3.842,1.813,5.839,5.839,0,0,1-4.3-1.844,6.636,6.636,0,0,1,0-8.9,5.814,5.814,0,0,1,4.3-1.859,5.153,5.153,0,0,1,3.908,1.885v-1.592h2.152v11.324a6.617,6.617,0,0,1-1.705,4.658,6.035,6.035,0,0,1-4.469,1.788A6.355,6.355,0,0,1,20386.6,5585.934Zm1.09-13.681a4.52,4.52,0,0,0-1.105,3.015,4.464,4.464,0,0,0,1.105,2.979,3.588,3.588,0,0,0,2.689,1.228,3.662,3.662,0,0,0,2.7-1.232,4.377,4.377,0,0,0,1.145-2.974,4.462,4.462,0,0,0-1.145-3.015,3.667,3.667,0,0,0-2.7-1.238A3.58,3.58,0,0,0,20387.688,5572.252Zm-34,7.437a6.625,6.625,0,0,1,0-8.9,5.808,5.808,0,0,1,4.3-1.859,5.159,5.159,0,0,1,3.84,1.813v-6.732h2.219v17.225h-2.15v-1.607a5.116,5.116,0,0,1-3.908,1.9A5.834,5.834,0,0,1,20353.684,5579.689Zm1.613-7.437a4.522,4.522,0,0,0-1.109,3.015,4.438,4.438,0,0,0,1.109,2.979,3.589,3.589,0,0,0,2.691,1.228,3.664,3.664,0,0,0,2.7-1.232,4.377,4.377,0,0,0,1.145-2.974,4.462,4.462,0,0,0-1.145-3.015,3.669,3.669,0,0,0-2.7-1.238A3.581,3.581,0,0,0,20355.3,5572.252Zm-15.865,7.437a6.642,6.642,0,0,1,0-8.9,5.818,5.818,0,0,1,4.3-1.859,5.163,5.163,0,0,1,3.842,1.813v-6.732h2.219v17.225h-2.152v-1.607a5.107,5.107,0,0,1-3.908,1.9A5.844,5.844,0,0,1,20339.432,5579.689Zm1.613-7.437a4.518,4.518,0,0,0-1.1,3.015,4.443,4.443,0,0,0,1.1,2.979,3.6,3.6,0,0,0,2.691,1.228,3.654,3.654,0,0,0,2.7-1.232,4.369,4.369,0,0,0,1.146-2.974,4.455,4.455,0,0,0-1.146-3.015,3.66,3.66,0,0,0-2.7-1.238A3.587,3.587,0,0,0,20341.045,5572.252Zm93.021,7.426a6.343,6.343,0,0,1-1.736-4.412,6.486,6.486,0,0,1,1.736-4.473,5.911,5.911,0,0,1,8.607,0,6.518,6.518,0,0,1,1.73,4.473,6.365,6.365,0,0,1-1.73,4.412,5.968,5.968,0,0,1-8.607,0Zm1.623-7.437a4.537,4.537,0,0,0-1.119,3.025,4.386,4.386,0,0,0,1.119,2.963,3.562,3.562,0,0,0,5.371,0,4.372,4.372,0,0,0,1.125-2.963,4.522,4.522,0,0,0-1.125-3.025,3.513,3.513,0,0,0-5.371,0Zm-22.525,7.452a6.307,6.307,0,0,1-1.781-4.447,6.462,6.462,0,0,1,1.766-4.458,5.818,5.818,0,0,1,8.469-.052,6.99,6.99,0,0,1,1.865,4.961v.19h-9.836a3.954,3.954,0,0,0,3.889,3.584,3.735,3.735,0,0,0,2.049-.544,3.528,3.528,0,0,0,1.3-1.536l.041-.082h2.336l-.061.185a5.756,5.756,0,0,1-2.111,2.968,6.331,6.331,0,0,1-7.93-.771Zm.621-5.818h7.227a3.857,3.857,0,0,0-3.59-2.9h-.012A3.916,3.916,0,0,0,20413.785,5573.875Zm-87.6,5.818a6.286,6.286,0,0,1-1.787-4.447,6.44,6.44,0,0,1,1.771-4.458,5.807,5.807,0,0,1,8.459-.052,6.967,6.967,0,0,1,1.869,4.961v.19h-9.83a3.949,3.949,0,0,0,3.883,3.584,3.73,3.73,0,0,0,2.049-.544,3.528,3.528,0,0,0,1.3-1.536l.041-.082h2.338l-.062.185a5.691,5.691,0,0,1-2.111,2.968,6.322,6.322,0,0,1-7.924-.771Zm.621-5.818h7.221a3.857,3.857,0,0,0-3.59-2.9h-.01A3.906,3.906,0,0,0,20326.809,5573.875Zm130.266,6.969a2.143,2.143,0,0,1-.926-1.838,2.088,2.088,0,0,1,.844-1.792,4.264,4.264,0,0,1,2.279-.642,7.1,7.1,0,0,0,1.51-.2,1.152,1.152,0,0,0,.643-.354.5.5,0,0,0,.092-.3.693.693,0,0,0-.369-.611,2.432,2.432,0,0,0-1.283-.272,2.488,2.488,0,0,0-1.125.236,1.173,1.173,0,0,0-.643.945l-.01.128h-1.531l.006-.154a2.477,2.477,0,0,1,.971-1.859,3.792,3.792,0,0,1,2.346-.693,3.651,3.651,0,0,1,2.307.657,2.186,2.186,0,0,1,.8,1.762v4.042a3.736,3.736,0,0,0,.205,1.145l.076.2h-1.494l-.041-.082a2.27,2.27,0,0,1-.164-.575,3.435,3.435,0,0,1-2.408.827A3.647,3.647,0,0,1,20457.074,5580.844Zm3.646-3.122a8.4,8.4,0,0,1-1.273.159,2.694,2.694,0,0,0-1.5.411.85.85,0,0,0-.322.714.786.786,0,0,0,.117.437.878.878,0,0,0,.318.308,2.261,2.261,0,0,0,1.131.251,2.951,2.951,0,0,0,1.611-.416,1.519,1.519,0,0,0,.709-1.31v-.847A2.573,2.573,0,0,1,20460.721,5577.722Zm-11.607,2.526a4.1,4.1,0,0,1,0-5.628,3.7,3.7,0,0,1,2.7-1.181,3.646,3.646,0,0,1,3.549,2.547l.066.185h-1.582l-.041-.077a2.178,2.178,0,0,0-3.627-.5,2.779,2.779,0,0,0-.687,1.844,2.717,2.717,0,0,0,.688,1.828,2.221,2.221,0,0,0,1.635.745,2.177,2.177,0,0,0,1.992-1.258l.041-.077h1.576l-.057.185a3.645,3.645,0,0,1-3.553,2.547A3.758,3.758,0,0,1,20449.113,5580.249Zm-3.461.991v-1.751h1.705v1.751Zm-20.086,0v-12.012h2.152v1.068a4.293,4.293,0,0,1,3.189-1.366c.174,0,.344.01.508.026l.129.015v2.193l-.154-.01c-.092,0-.186-.01-.277-.01a3.517,3.517,0,0,0-2.352.786,2.993,2.993,0,0,0-.977,2.383v6.928Zm-18.508,0v-7.267a3.213,3.213,0,0,0-.689-2.152,2.577,2.577,0,0,0-2.037-.827,2.844,2.844,0,0,0-2.928,2.933v7.313h-2.225v-17.225h2.225v6.188a4.511,4.511,0,0,1,3.2-1.269,4.418,4.418,0,0,1,3.441,1.438,5.464,5.464,0,0,1,1.211,3.667v7.2Zm-27.02,0v-7.267a3.2,3.2,0,0,0-.7-2.142,2.56,2.56,0,0,0-2.023-.837,2.845,2.845,0,0,0-2.932,2.933v7.313h-2.219v-12.012h2.15v1.053a4.5,4.5,0,0,1,3.271-1.345,4.41,4.41,0,0,1,3.438,1.438,5.464,5.464,0,0,1,1.211,3.667v7.2Zm-13.162,0v-12.012h2.225v12.012Zm-48.84,0-2.393-8.582-2.4,8.582h-2.219l-3.59-12.012h2.326l2.4,8.433,2.393-8.433h2.219l2.4,8.433,2.373-8.433h2.326l-3.59,12.012Zm48.84-13.5v-2.583h2.225v2.583Z" transform="translate(-20251 -5553)" stroke="rgba(0,0,0,0)" stroke-miterlimit="10" stroke-width="1" fill="url(#linear-gradient)"/>
    <path id="Path_1958" data-name="Path 1958" d="M139.749,80.278a10.1,10.1,0,0,0-.02-7.528,2.275,2.275,0,1,0-4.216,1.71h0a5.553,5.553,0,0,1,0,4.16h0c-.011.028-.024.056-.035.085l-2.888,8.038-3.759-8.218a2.275,2.275,0,0,0-4.136,0l-3.792,8.26L118,78.7h0l-.818-2.278a2.275,2.275,0,0,0-4.282,1.539l.818,2.277h0L118.5,93.565a2.275,2.275,0,0,0,4.209.18l4.045-8.811,3.913,8.554a2.26,2.26,0,0,0,.3.617,2.282,2.282,0,0,0,1.861.966h.023a2.273,2.273,0,0,0,2.226-1.805Z" transform="translate(-104.293 -62.519)" fill="#fff"/>
  </g>
</svg>
