<svg xmlns="http://www.w3.org/2000/svg" xmlns:xlink="http://www.w3.org/1999/xlink" width="150" height="28" viewBox="0 0 150 28">
  <defs>
    <clipPath id="clip-path">
      <rect width="120" height="23.976" fill="none"/>
    </clipPath>
    <clipPath id="clip-dugun-com-footer-logo">
      <rect width="150" height="28"/>
    </clipPath>
  </defs>
  <g id="dugun-com-footer-logo" clip-path="url(#clip-dugun-com-footer-logo)">
    <g id="LOGO" transform="translate(15 2)" clip-path="url(#clip-path)">
      <path id="Path_2" data-name="Path 2" d="M10.284,7.021A5.381,5.381,0,0,0,6.276,5.13,6.086,6.086,0,0,0,1.784,7.069,6.779,6.779,0,0,0,0,11.715a6.727,6.727,0,0,0,1.787,4.634,6.1,6.1,0,0,0,4.489,1.927,5.337,5.337,0,0,0,4.079-1.986v1.677H12.6V0H10.284ZM6.276,16.127a3.761,3.761,0,0,1-2.809-1.283,4.648,4.648,0,0,1-1.152-3.105A4.724,4.724,0,0,1,3.468,8.592,3.746,3.746,0,0,1,6.276,7.3,3.818,3.818,0,0,1,9.091,8.595a4.65,4.65,0,0,1,1.193,3.144,4.577,4.577,0,0,1-1.193,3.1A3.829,3.829,0,0,1,6.276,16.127ZM23.561,5.439h2.316V17.967H23.632v-1.1a4.7,4.7,0,0,1-3.414,1.386,4.613,4.613,0,0,1-3.586-1.5,5.65,5.65,0,0,1-1.265-3.806V5.439h2.292v7.606a3.259,3.259,0,0,0,.739,2.244,2.762,2.762,0,0,0,2.129.837,2.958,2.958,0,0,0,3.034-3.034Zm-6.1-1.579h-.148V1.211h2.458V3.859Zm3.99,0H21.3V1.211h2.482V3.859ZM30.591.846,30.579.689h1.383L32,.79a2.277,2.277,0,0,0,.834,1.182,2.565,2.565,0,0,0,1.517.428,2.9,2.9,0,0,0,1.716-.428A1.915,1.915,0,0,0,36.79.8l.027-.113h1.3L38.1.846a3.331,3.331,0,0,1-1.116,2.3,3.916,3.916,0,0,1-2.642.92A3.94,3.94,0,0,1,31.7,3.15,3.343,3.343,0,0,1,30.591.846ZM38.5,7.1A5.389,5.389,0,0,0,34.421,5.13a6.086,6.086,0,0,0-4.492,1.939,6.751,6.751,0,0,0-1.784,4.646,6.727,6.727,0,0,0,1.787,4.634,6.1,6.1,0,0,0,4.489,1.927,5.381,5.381,0,0,0,4.008-1.891v.864A5.042,5.042,0,0,1,37.5,20.3,3.794,3.794,0,0,1,34.3,21.732a4.855,4.855,0,0,1-1.808-.347,3.143,3.143,0,0,1-1.716-1.654l-.039-.089h-2.4l.045.184a5.164,5.164,0,0,0,2.09,3.04,6.642,6.642,0,0,0,3.827,1.11,6.3,6.3,0,0,0,4.661-1.864,6.893,6.893,0,0,0,1.781-4.863V5.439H38.5V7.1Zm-4.079,9.028a3.761,3.761,0,0,1-2.809-1.283,4.633,4.633,0,0,1-1.152-3.105,4.724,4.724,0,0,1,1.152-3.147A3.746,3.746,0,0,1,34.421,7.3a3.818,3.818,0,0,1,2.814,1.291,4.65,4.65,0,0,1,1.193,3.144,4.577,4.577,0,0,1-1.193,3.1A3.834,3.834,0,0,1,34.421,16.127ZM45.536,3.859h-.148V1.211h2.458V3.859Zm3.99,0h-.148V1.211h2.482V3.859Zm2.108,1.579H53.95V17.967H51.705v-1.1a4.7,4.7,0,0,1-3.414,1.386,4.613,4.613,0,0,1-3.586-1.5A5.65,5.65,0,0,1,43.44,12.95V5.439h2.292v7.606a3.259,3.259,0,0,0,.739,2.244,2.762,2.762,0,0,0,2.129.837,2.958,2.958,0,0,0,3.034-3.034ZM66.362,6.629a5.706,5.706,0,0,1,1.265,3.827v7.511H65.335V10.385a3.328,3.328,0,0,0-.73-2.233,2.693,2.693,0,0,0-2.114-.873,2.969,2.969,0,0,0-3.058,3.058v7.63H57.117V5.439h2.244v1.1a4.687,4.687,0,0,1,3.414-1.4A4.6,4.6,0,0,1,66.362,6.629Zm3.845,8.595h2.672v2.743H70.207Zm7.4-6.647a4.7,4.7,0,0,0-1.17,3.138,4.6,4.6,0,0,0,1.17,3.111,3.737,3.737,0,0,0,6.2-.873l.042-.083h2.458l-.062.2A5.974,5.974,0,0,1,80.4,18.252a6.142,6.142,0,0,1-4.435-1.912,6.651,6.651,0,0,1-1.841-4.625,6.737,6.737,0,0,1,1.841-4.649A6.121,6.121,0,0,1,80.4,5.127a5.994,5.994,0,0,1,5.84,4.186l.065.2H83.849l-.042-.08a3.717,3.717,0,0,0-6.2-.852ZM93.773,5.13A6.112,6.112,0,0,0,89.29,7.072a6.772,6.772,0,0,0-1.817,4.667,6.629,6.629,0,0,0,1.817,4.6,6.229,6.229,0,0,0,8.975,0,6.629,6.629,0,0,0,1.808-4.6,6.773,6.773,0,0,0-1.808-4.667A6.107,6.107,0,0,0,93.773,5.13Zm0,10.973a3.773,3.773,0,0,1-2.791-1.274,4.574,4.574,0,0,1-1.17-3.091,4.749,4.749,0,0,1,1.17-3.159,3.736,3.736,0,0,1,2.791-1.3,3.776,3.776,0,0,1,2.811,1.3,4.722,4.722,0,0,1,1.173,3.159,4.55,4.55,0,0,1-1.173,3.091A3.8,3.8,0,0,1,93.773,16.1ZM120,10.242v7.725h-2.316V10.195a3.181,3.181,0,0,0-.65-2.146,2.493,2.493,0,0,0-1.98-.769,2.567,2.567,0,0,0-1.951.867,3.263,3.263,0,0,0-.775,2.191v7.63h-2.292V10.195a3.179,3.179,0,0,0-.665-2.146,2.461,2.461,0,0,0-1.942-.769,2.589,2.589,0,0,0-1.962.87,3.24,3.24,0,0,0-.787,2.191v7.63h-2.316V5.442h2.244V6.511a4.11,4.11,0,0,1,3.105-1.378,4.3,4.3,0,0,1,3.779,1.959,4.435,4.435,0,0,1,3.821-1.959,4.487,4.487,0,0,1,3.438,1.389A5.417,5.417,0,0,1,120,10.242Z" fill="#db0962"/>
    </g>
  </g>
</svg>
