<svg xmlns="http://www.w3.org/2000/svg" width="80.036" height="80.038" viewBox="0 0 80.036 80.038">
    <defs>
        <clipPath id="clip-path">
            <rect width="80.036" height="80.038" fill="none"/>
        </clipPath>
    </defs>
    <g id="Group_128" data-name="Group 128" clip-path="url(#clip-path)">
        <g id="Group_128-2" data-name="Group 128">
            <ellipse id="Ellipse_11" data-name="Ellipse 11" cx="40" cy="40" rx="40" ry="40" transform="translate(0.03 0.019)" fill="#fff"/>
            <g id="Group_128-3" data-name="Group 128">
                <path id="Path_13" data-name="Path 13" d="M266.032,377.709v44.6a3.3,3.3,0,0,0,.26,1.3,3.338,3.338,0,0,0,.716,1.061h0a4.667,4.667,0,0,1-6.6,6.6,12.691,12.691,0,0,1-2.255-3.067,20.677,20.677,0,1,1-1.454-33.513V373.594a40.011,40.011,0,1,0,9.333,4.115Z" transform="translate(-205.336 -371.944)" fill="#e1e1e1"/>
                <path id="Path_14" data-name="Path 14" d="M264.132,415.87a11.344,11.344,0,1,0,4.991,4.111A11.341,11.341,0,0,0,264.132,415.87Z" transform="translate(-219.691 -386.296)" fill="#e1e1e1"/>
            </g>
        </g>
    </g>
</svg>