<svg xmlns="http://www.w3.org/2000/svg" width="265" height="265.005" viewBox="0 0 265 265.005">
  <g id="Group_1707" data-name="Group 1707" transform="translate(0.09 0.056)">
    <g id="Group_130" data-name="Group 130" transform="translate(-0.09 -0.056)">
      <g id="Group_86" data-name="Group 86" transform="translate(0)">
        <g id="Group_128" data-name="Group 128">
          <ellipse id="Ellipse_11" data-name="Ellipse 11" cx="132.439" cy="132.44" rx="132.439" ry="132.44" transform="translate(0.1 0.062)" fill="#fff"/>
          <g id="Group_128-2" data-name="Group 128">
            <path id="Path_13" data-name="Path 13" d="M406.3,391.033V538.695a10.93,10.93,0,0,0,.861,4.289,11.056,11.056,0,0,0,2.371,3.511h0a15.452,15.452,0,0,1-21.853,21.853,42.02,42.02,0,0,1-7.467-10.154A68.462,68.462,0,1,1,375.4,447.232V377.407a132.476,132.476,0,1,0,30.9,13.626Z" transform="translate(-205.336 -371.944)" fill="#db0962"/>
            <path id="Path_14" data-name="Path 14" d="M300.558,417.945a37.56,37.56,0,1,0,16.524,13.613A37.552,37.552,0,0,0,300.558,417.945Z" transform="translate(-153.417 -320.026)" fill="#db0962"/>
          </g>
        </g>
      </g>
    </g>
  </g>
</svg>
