<svg xmlns="http://www.w3.org/2000/svg" xmlns:xlink="http://www.w3.org/1999/xlink" width="150" height="28" viewBox="0 0 150 28">
  <defs>
    <clipPath id="clip-is-ortagim-footer-logo">
      <rect width="150" height="28"/>
    </clipPath>
  </defs>
  <g id="is-ortagim-footer-logo" clip-path="url(#clip-is-ortagim-footer-logo)">
    <g id="Group_4194" data-name="Group 4194" transform="translate(28)">
      <g id="Group_4170" data-name="Group 4170" transform="translate(0 0)">
        <g id="Group_4169" data-name="Group 4169">
          <path id="Path_1824" data-name="Path 1824" d="M363.512,407.884a4.253,4.253,0,0,0-3.162-1.492,4.8,4.8,0,0,0-3.543,1.529,5.463,5.463,0,0,0,0,7.323,4.811,4.811,0,0,0,3.543,1.52,4.219,4.219,0,0,0,3.218-1.567v1.323h1.771V402.344h-1.827Zm-3.162,7.184a2.962,2.962,0,0,1-2.215-1.013,3.657,3.657,0,0,1-.909-2.449,3.716,3.716,0,0,1,.91-2.482,2.95,2.95,0,0,1,2.215-1.017,3.016,3.016,0,0,1,2.221,1.018,3.673,3.673,0,0,1,.941,2.481,3.614,3.614,0,0,1-.941,2.448A3.027,3.027,0,0,1,360.35,415.068Z" transform="translate(-355.398 -402.344)" fill="#e81f76"/>
          <path id="Path_1825" data-name="Path 1825" d="M400.682,422.122a2.337,2.337,0,0,1-2.394,2.394,2.17,2.17,0,0,1-1.679-.66,2.582,2.582,0,0,1-.583-1.772v-6h-1.808v5.926a4.474,4.474,0,0,0,1,3,3.631,3.631,0,0,0,2.829,1.181,3.705,3.705,0,0,0,2.694-1.093v.869h1.77v-9.885h-1.827Z" transform="translate(-382.094 -411.793)" fill="#e81f76"/>
          <path id="Path_1826" data-name="Path 1826" d="M401.077,407.493V405.4h-1.939v2.089h1.939Z" transform="translate(-385.477 -404.448)" fill="#e81f76"/>
          <path id="Path_1827" data-name="Path 1827" d="M411.175,407.493V405.4h-1.958v2.089h1.958Z" transform="translate(-392.409 -404.448)" fill="#e81f76"/>
          <path id="Path_1828" data-name="Path 1828" d="M433.539,406.027a3.351,3.351,0,0,0,4.17,0,2.625,2.625,0,0,0,.88-1.818l.008-.125h-1.023l-.022.089a1.513,1.513,0,0,1-.575.923,2.29,2.29,0,0,1-1.354.337,2.028,2.028,0,0,1-1.2-.337,1.8,1.8,0,0,1-.659-.932l-.027-.08H432.65l.008.125A2.626,2.626,0,0,0,433.539,406.027Z" transform="translate(-408.524 -403.541)" fill="#e81f76"/>
          <path id="Path_1829" data-name="Path 1829" d="M434.667,416.857a4.25,4.25,0,0,0-3.218-1.552,4.8,4.8,0,0,0-3.543,1.529,5.463,5.463,0,0,0,0,7.323,4.811,4.811,0,0,0,3.543,1.52,4.252,4.252,0,0,0,3.162-1.493v.682a3.981,3.981,0,0,1-.735,2.409,3,3,0,0,1-2.521,1.128,3.8,3.8,0,0,1-1.426-.274,2.471,2.471,0,0,1-1.353-1.305l-.031-.07h-1.894l.036.145a4.075,4.075,0,0,0,1.649,2.4,5.248,5.248,0,0,0,3.018.876,4.964,4.964,0,0,0,3.678-1.472,5.436,5.436,0,0,0,1.405-3.836v-9.318h-1.771Zm-3.218,7.124a2.962,2.962,0,0,1-2.215-1.013,3.657,3.657,0,0,1-.909-2.449,3.716,3.716,0,0,1,.91-2.482,2.95,2.95,0,0,1,2.215-1.017,3.016,3.016,0,0,1,2.221,1.018,3.673,3.673,0,0,1,.941,2.481,3.615,3.615,0,0,1-.941,2.448A3.028,3.028,0,0,1,431.449,423.98Z" transform="translate(-404.292 -411.257)" fill="#e81f76"/>
          <path id="Path_1830" data-name="Path 1830" d="M472,407.493V405.4h-1.939v2.089H472Z" transform="translate(-434.248 -404.448)" fill="#e81f76"/>
          <path id="Path_1831" data-name="Path 1831" d="M482.095,407.493V405.4h-1.958v2.089h1.958Z" transform="translate(-441.18 -404.448)" fill="#e81f76"/>
          <path id="Path_1832" data-name="Path 1832" d="M471.6,422.122a2.337,2.337,0,0,1-2.394,2.394,2.17,2.17,0,0,1-1.679-.66,2.582,2.582,0,0,1-.583-1.772v-6h-1.808v5.926a4.473,4.473,0,0,0,1,3,3.63,3.63,0,0,0,2.828,1.181,3.705,3.705,0,0,0,2.694-1.093v.869h1.771v-9.885H471.6Z" transform="translate(-430.864 -411.793)" fill="#e81f76"/>
          <path id="Path_1833" data-name="Path 1833" d="M504.16,415.3a3.691,3.691,0,0,0-2.694,1.108v-.864H499.7v9.885h1.827v-6.02A2.345,2.345,0,0,1,503.936,417a2.117,2.117,0,0,1,1.668.688,2.638,2.638,0,0,1,.576,1.762v5.983h1.808v-5.926a4.5,4.5,0,0,0-1-3.019A3.624,3.624,0,0,0,504.16,415.3Z" transform="translate(-454.631 -411.257)" fill="#e81f76"/>
          <path id="Path_1834" data-name="Path 1834" d="M532.755,442.969h2.108V440.8h-2.108Z" transform="translate(-477.365 -428.793)" fill="#e81f76"/>
          <path id="Path_1835" data-name="Path 1835" d="M547.608,417a2.986,2.986,0,0,1,2.688,1.7l.033.063h1.939l-.052-.155a4.732,4.732,0,0,0-4.608-3.3,4.823,4.823,0,0,0-3.5,1.528,5.311,5.311,0,0,0-1.452,3.667,5.247,5.247,0,0,0,1.452,3.649,4.844,4.844,0,0,0,3.5,1.509,4.715,4.715,0,0,0,4.608-3.3l.05-.153h-1.939l-.032.065a2.95,2.95,0,0,1-4.889.69,3.64,3.64,0,0,1-.923-2.456,3.708,3.708,0,0,1,.923-2.475A2.958,2.958,0,0,1,547.608,417Z" transform="translate(-484.174 -411.257)" fill="#e81f76"/>
          <path id="Path_1836" data-name="Path 1836" d="M581.346,415.3a4.829,4.829,0,0,0-3.538,1.531,5.343,5.343,0,0,0-1.433,3.683,5.225,5.225,0,0,0,1.433,3.632,4.912,4.912,0,0,0,7.081,0,5.231,5.231,0,0,0,1.426-3.632,5.35,5.35,0,0,0-1.426-3.683A4.825,4.825,0,0,0,581.346,415.3Zm0,8.657a2.98,2.98,0,0,1-2.2-1,3.612,3.612,0,0,1-.923-2.439,3.738,3.738,0,0,1,.924-2.492,2.891,2.891,0,0,1,4.419,0,3.727,3.727,0,0,1,.926,2.491,3.6,3.6,0,0,1-.925,2.439A3,3,0,0,1,581.346,423.961Z" transform="translate(-507.363 -411.257)" fill="#e81f76"/>
          <path id="Path_1837" data-name="Path 1837" d="M626.925,416.4a3.8,3.8,0,0,0-5.728.45,3.39,3.39,0,0,0-2.981-1.547,3.237,3.237,0,0,0-2.45,1.086v-.843h-1.771v9.885h1.827v-6.02a2.553,2.553,0,0,1,.621-1.727,2.052,2.052,0,0,1,1.548-.685,1.94,1.94,0,0,1,1.533.607,2.513,2.513,0,0,1,.524,1.694v6.132h1.808v-6.02a2.571,2.571,0,0,1,.612-1.728,2.024,2.024,0,0,1,1.538-.685,1.964,1.964,0,0,1,1.563.606,2.523,2.523,0,0,1,.512,1.694v6.132h1.827v-6.095A4.276,4.276,0,0,0,626.925,416.4Z" transform="translate(-533.234 -411.257)" fill="#e81f76"/>
        </g>
      </g>
      <path id="Path_3" data-name="Path 3" d="M506,458.746h-.918v1.09H506Zm0,1.932h-.918v5.559H506Zm3.6,6.2.313-.507c1.166-.108,1.975-.777,1.975-1.8,0-1.263-1.015-1.5-2.245-1.695-1.09-.173-1.4-.313-1.4-.712,0-.432.529-.777,1.263-.777a1.228,1.228,0,0,1,1.339.9h.928a2.017,2.017,0,0,0-2.267-1.738c-1.49,0-2.181.853-2.181,1.652,0,1.047.821,1.371,2.17,1.565s1.511.475,1.511.863c0,.486-.529.907-1.393.907a1.442,1.442,0,0,1-1.554-1.047h-.928a2.212,2.212,0,0,0,2.322,1.889l-.347.712.347.227a.558.558,0,0,1,.389-.141.39.39,0,0,1,.43.345l0,.022c0,.215-.205.335-.453.335a1.163,1.163,0,0,1-.777-.289l-.129.238a1.267,1.267,0,0,0,.95.453c.52,0,.863-.27.863-.756a.758.758,0,0,0-1.123-.639Zm8.981-6.336a2.849,2.849,0,0,0-2.8,2.9c0,.012,0,.023,0,.035a2.826,2.826,0,0,0,2.759,2.891h.037a2.818,2.818,0,0,0,2.8-2.84v-.051a2.843,2.843,0,0,0-2.748-2.934h-.048Zm0,4.987a1.969,1.969,0,0,1-1.867-2.051,1.884,1.884,0,1,1,3.745,0A1.971,1.971,0,0,1,518.589,465.524Zm6.671-4.976a1.966,1.966,0,0,0-1.814.756v-.626h-.885v5.559h.918V463.02a1.525,1.525,0,0,1,1.781-1.565Zm3.528,4.847a1.064,1.064,0,0,1-1.282-1.186v-2.657h1.263v-.874h-1.263v-1.187H526.6v1.187h-.756v.874h.756v2.657a1.845,1.845,0,0,0,2.191,2.029Zm4.858.842h.909a2.942,2.942,0,0,1-.162-.907v-3.065c0-1.036-.756-1.727-2.245-1.727-1.425,0-2.343.724-2.408,1.835h.95c.1-.81.863-.993,1.446-.993.939,0,1.36.335,1.36.777s-.443.691-1.8.756c-1.436.076-2.267.594-2.267,1.738,0,1.2,1.025,1.716,2.17,1.716a2.366,2.366,0,0,0,1.911-.77,1.69,1.69,0,0,0,.141.64Zm-.151-2.14c-.02,1.006-.915,1.417-1.865,1.417-.712,0-1.3-.259-1.3-.863,0-.463.27-.885,1.479-.961a2.966,2.966,0,0,0,1.684-.442Zm7.633-3.422h-.885v.885a2.391,2.391,0,0,0-1.922-1.025,2.824,2.824,0,0,0-2.784,2.864c0,.021,0,.042,0,.063a2.815,2.815,0,0,0,2.714,2.913l.071,0a2.4,2.4,0,0,0,1.888-.983v.583a1.9,1.9,0,0,1-1.943,2.1,1.754,1.754,0,0,1-1.663-.95h-.96a2.524,2.524,0,0,0,2.623,1.835,2.776,2.776,0,0,0,2.86-2.99Zm-.917,2.8a2,2,0,0,1-1.889,2.062,1.966,1.966,0,0,1-1.867-2.06h0a1.971,1.971,0,0,1,1.855-2.081h.012A2,2,0,0,1,540.21,463.474Zm-.28-4.955h-.462c-.119.486-.443.777-1.177.777a1.1,1.1,0,0,1-1.133-.777h-.507a1.659,1.659,0,0,0,3.279,0Zm3.616,2.159h-.918v5.559h.918Zm9.467,2.116a2.006,2.006,0,0,0-2.062-2.255,1.948,1.948,0,0,0-1.738.949,1.883,1.883,0,0,0-1.716-.95,1.806,1.806,0,0,0-1.479.745v-.6h-.885v5.559h.918v-3.4a1.358,1.358,0,0,1,1.256-1.453l.061,0c.821,0,1.252.529,1.252,1.393v3.464h.907v-3.4a1.35,1.35,0,0,1,1.239-1.453l.068,0c.853,0,1.263.529,1.263,1.393v3.465h.918Z" transform="translate(-458.338 -440.975)" fill="#00abaa"/>
    </g>
  </g>
</svg>
