<svg xmlns="http://www.w3.org/2000/svg" xmlns:xlink="http://www.w3.org/1999/xlink" class="brand-logo" width="245" height="45" viewBox="0 0 245 45">
  <defs>
    <clipPath id="clip-DESKTOP-is-ortagim">
      <rect width="245" height="45"/>
    </clipPath>
  </defs>
  <g id="DESKTOP-is-ortagim" clip-path="url(#clip-DESKTOP-is-ortagim)">
    <g id="Group_4172" data-name="Group 4172" transform="translate(-205.426 -372)">
      <g id="Group_4168" data-name="Group 4168" transform="translate(205.426 372)">
        <path id="Path_1822" data-name="Path 1822" d="M239.551,375.233v25.086h0a1.857,1.857,0,0,0,.146.729,1.877,1.877,0,0,0,.4.6h0a2.625,2.625,0,0,1-3.713,3.713,7.138,7.138,0,0,1-1.269-1.725,11.631,11.631,0,1,1-.818-18.851V372.918a22.506,22.506,0,1,0,5.25,2.315Z" transform="translate(-205.426 -372)" fill="#00abaa"/>
        <path id="Path_1823" data-name="Path 1823" d="M257.282,415.5a6.379,6.379,0,1,0,1.082,11.163,6.413,6.413,0,0,0,2.313-2.807,6.367,6.367,0,0,0-.587-6.043A6.413,6.413,0,0,0,257.282,415.5Z" transform="translate(-232.301 -398.875)" fill="#00abaa"/>
      </g>
      <g id="Group_4171" data-name="Group 4171" transform="translate(261.665 383.379)">
        <g id="Group_4170" data-name="Group 4170" transform="translate(0 0)">
          <g id="Group_4169" data-name="Group 4169">
            <path id="Path_1824" data-name="Path 1824" d="M365.141,409a5.107,5.107,0,0,0-3.8-1.792,5.764,5.764,0,0,0-4.254,1.836,6.56,6.56,0,0,0,0,8.793,5.777,5.777,0,0,0,4.254,1.825,5.066,5.066,0,0,0,3.864-1.881v1.589h2.126V402.344h-2.194Zm-3.8,8.626a3.557,3.557,0,0,1-2.66-1.216,4.391,4.391,0,0,1-1.092-2.941,4.463,4.463,0,0,1,1.092-2.98,3.542,3.542,0,0,1,2.66-1.221,3.621,3.621,0,0,1,2.667,1.222,4.41,4.41,0,0,1,1.13,2.979,4.34,4.34,0,0,1-1.13,2.94A3.635,3.635,0,0,1,361.344,417.622Z" transform="translate(-355.398 -402.344)" fill="#e81f76"/>
            <path id="Path_1825" data-name="Path 1825" d="M401.979,423.335a2.806,2.806,0,0,1-2.874,2.875,2.606,2.606,0,0,1-2.016-.792,3.1,3.1,0,0,1-.7-2.128v-7.206h-2.171V423.2a5.372,5.372,0,0,0,1.2,3.606,4.359,4.359,0,0,0,3.4,1.417,4.449,4.449,0,0,0,3.235-1.313v1.043h2.126V416.084h-2.194Z" transform="translate(-379.66 -410.932)" fill="#e81f76"/>
            <path id="Path_1826" data-name="Path 1826" d="M401.466,407.913V405.4h-2.329v2.509h2.329Z" transform="translate(-382.735 -404.256)" fill="#e81f76"/>
            <path id="Path_1827" data-name="Path 1827" d="M411.568,407.913V405.4h-2.351v2.509h2.351Z" transform="translate(-389.035 -404.256)" fill="#e81f76"/>
            <path id="Path_1828" data-name="Path 1828" d="M433.717,406.417a4.024,4.024,0,0,0,5.007,0,3.152,3.152,0,0,0,1.057-2.183l.01-.15h-1.229l-.026.107a1.817,1.817,0,0,1-.69,1.109,2.749,2.749,0,0,1-1.626.4,2.435,2.435,0,0,1-1.438-.4,2.167,2.167,0,0,1-.792-1.119l-.032-.1h-1.31l.01.15A3.153,3.153,0,0,0,433.717,406.417Z" transform="translate(-403.681 -403.431)" fill="#e81f76"/>
            <path id="Path_1829" data-name="Path 1829" d="M436.307,417.168a5.1,5.1,0,0,0-3.864-1.864,5.764,5.764,0,0,0-4.254,1.836,6.559,6.559,0,0,0,0,8.793,5.777,5.777,0,0,0,4.254,1.825,5.105,5.105,0,0,0,3.8-1.792v.819a4.78,4.78,0,0,1-.882,2.893,3.6,3.6,0,0,1-3.027,1.354,4.56,4.56,0,0,1-1.712-.329,2.967,2.967,0,0,1-1.625-1.567l-.037-.084h-2.274l.043.174a4.893,4.893,0,0,0,1.98,2.88,6.3,6.3,0,0,0,3.624,1.052,5.96,5.96,0,0,0,4.416-1.768,6.527,6.527,0,0,0,1.687-4.606V415.6h-2.126Zm-3.864,8.554a3.557,3.557,0,0,1-2.66-1.217,4.391,4.391,0,0,1-1.092-2.941,4.463,4.463,0,0,1,1.092-2.98,3.542,3.542,0,0,1,2.66-1.221,3.621,3.621,0,0,1,2.667,1.222,4.41,4.41,0,0,1,1.13,2.979,4.341,4.341,0,0,1-1.13,2.94A3.636,3.636,0,0,1,432.443,425.722Z" transform="translate(-399.835 -410.444)" fill="#e81f76"/>
            <path id="Path_1830" data-name="Path 1830" d="M472.385,407.913V405.4h-2.329v2.509h2.329Z" transform="translate(-427.059 -404.256)" fill="#e81f76"/>
            <path id="Path_1831" data-name="Path 1831" d="M482.488,407.913V405.4h-2.351v2.509h2.351Z" transform="translate(-433.36 -404.256)" fill="#e81f76"/>
            <path id="Path_1832" data-name="Path 1832" d="M472.9,423.335a2.806,2.806,0,0,1-2.875,2.875,2.606,2.606,0,0,1-2.016-.792,3.1,3.1,0,0,1-.7-2.128v-7.206h-2.171V423.2a5.371,5.371,0,0,0,1.2,3.606,4.358,4.358,0,0,0,3.4,1.417,4.449,4.449,0,0,0,3.235-1.313v1.043h2.126V416.084H472.9Z" transform="translate(-423.984 -410.932)" fill="#e81f76"/>
            <path id="Path_1833" data-name="Path 1833" d="M505.057,415.3a4.432,4.432,0,0,0-3.234,1.33V415.6H499.7v11.869h2.194v-7.228a2.816,2.816,0,0,1,2.9-2.9,2.542,2.542,0,0,1,2,.827,3.168,3.168,0,0,1,.691,2.115v7.183h2.171V420.35a5.409,5.409,0,0,0-1.2-3.625A4.352,4.352,0,0,0,505.057,415.3Z" transform="translate(-445.584 -410.444)" fill="#e81f76"/>
            <path id="Path_1834" data-name="Path 1834" d="M532.755,443.4h2.531v-2.6h-2.531Z" transform="translate(-466.246 -426.382)" fill="#e81f76"/>
            <path id="Path_1835" data-name="Path 1835" d="M548.6,417.34a3.586,3.586,0,0,1,3.228,2.039l.039.076H554.2l-.062-.186A5.682,5.682,0,0,0,548.6,415.3a5.792,5.792,0,0,0-4.2,1.835,6.377,6.377,0,0,0-1.743,4.4,6.3,6.3,0,0,0,1.743,4.381,5.816,5.816,0,0,0,4.2,1.812,5.661,5.661,0,0,0,5.534-3.967l.06-.184h-2.328l-.039.078a3.542,3.542,0,0,1-5.871.829,4.371,4.371,0,0,1-1.108-2.949,4.452,4.452,0,0,1,1.109-2.972A3.552,3.552,0,0,1,548.6,417.34Z" transform="translate(-472.434 -410.444)" fill="#e81f76"/>
            <path id="Path_1836" data-name="Path 1836" d="M582.344,415.3a5.8,5.8,0,0,0-4.248,1.839,6.417,6.417,0,0,0-1.72,4.422,6.274,6.274,0,0,0,1.721,4.361,5.9,5.9,0,0,0,8.5,0,6.281,6.281,0,0,0,1.713-4.361,6.424,6.424,0,0,0-1.712-4.422A5.794,5.794,0,0,0,582.344,415.3Zm0,10.4a3.578,3.578,0,0,1-2.644-1.206,4.337,4.337,0,0,1-1.108-2.929,4.489,4.489,0,0,1,1.109-2.992,3.471,3.471,0,0,1,5.306,0,4.475,4.475,0,0,1,1.112,2.991,4.325,4.325,0,0,1-1.111,2.928A3.606,3.606,0,0,1,582.344,425.7Z" transform="translate(-493.509 -410.444)" fill="#e81f76"/>
            <path id="Path_1837" data-name="Path 1837" d="M629.52,416.621a4.558,4.558,0,0,0-6.877.54,4.071,4.071,0,0,0-3.58-1.857,3.887,3.887,0,0,0-2.942,1.3V415.6h-2.126v11.869h2.194v-7.228a3.066,3.066,0,0,1,.746-2.074,2.464,2.464,0,0,1,1.859-.823,2.33,2.33,0,0,1,1.841.728,3.017,3.017,0,0,1,.629,2.034v7.363h2.171v-7.228a3.088,3.088,0,0,1,.735-2.075,2.431,2.431,0,0,1,1.847-.822,2.358,2.358,0,0,1,1.877.728,3.029,3.029,0,0,1,.615,2.034v7.363H630.7v-7.319A5.134,5.134,0,0,0,629.52,416.621Z" transform="translate(-517.021 -410.444)" fill="#e81f76"/>
          </g>
        </g>
        <path id="Path_3" data-name="Path 3" d="M506.188,458.791h-1.1V460.1h1.1Zm0,2.32h-1.1v6.675h1.1Zm4.329,7.44.376-.609c1.4-.13,2.372-.933,2.372-2.164,0-1.517-1.218-1.8-2.7-2.035-1.309-.208-1.685-.376-1.685-.855,0-.519.635-.933,1.517-.933a1.475,1.475,0,0,1,1.607,1.076h1.115c-.143-1.309-1.18-2.087-2.722-2.087-1.789,0-2.619,1.024-2.619,1.983,0,1.257.986,1.646,2.605,1.879s1.815.57,1.815,1.037c0,.584-.636,1.089-1.672,1.089a1.732,1.732,0,0,1-1.866-1.258h-1.115a2.656,2.656,0,0,0,2.788,2.269l-.417.855.417.272a.67.67,0,0,1,.467-.169.468.468,0,0,1,.516.414l0,.027c0,.259-.247.4-.544.4a1.4,1.4,0,0,1-.933-.347l-.155.285a1.521,1.521,0,0,0,1.141.545c.625,0,1.036-.324,1.036-.907a.91.91,0,0,0-1.349-.767Zm10.784-7.608a3.421,3.421,0,0,0-3.358,3.483c0,.014,0,.028,0,.042a3.393,3.393,0,0,0,3.312,3.471h.045a3.384,3.384,0,0,0,3.358-3.41c0-.02,0-.041,0-.061a3.413,3.413,0,0,0-3.3-3.523H521.3Zm0,5.988a2.365,2.365,0,0,1-2.242-2.463,2.263,2.263,0,1,1,4.5,0A2.366,2.366,0,0,1,521.3,466.931Zm8.01-5.975a2.361,2.361,0,0,0-2.178.908v-.752H526.07v6.675h1.1v-3.862a1.83,1.83,0,0,1,1.753-1.9,1.811,1.811,0,0,1,.385.025Zm4.236,5.82a1.278,1.278,0,0,1-1.539-1.424v-3.19h1.516v-1.05h-1.516v-1.425h-1.089v1.425h-.908v1.05h.908v3.19a2.216,2.216,0,0,0,2.631,2.437Zm5.833,1.011h1.092a3.537,3.537,0,0,1-.194-1.089v-3.68c0-1.244-.907-2.074-2.7-2.074-1.711,0-2.813.869-2.891,2.2h1.141c.117-.972,1.037-1.192,1.736-1.192,1.128,0,1.633.4,1.633.933s-.531.829-2.165.907c-1.724.091-2.722.713-2.722,2.087,0,1.439,1.231,2.061,2.605,2.061a2.841,2.841,0,0,0,2.294-.924,2.031,2.031,0,0,0,.169.768Zm-.182-2.569c-.024,1.208-1.1,1.7-2.24,1.7-.855,0-1.556-.311-1.556-1.036,0-.555.324-1.063,1.776-1.154a3.561,3.561,0,0,0,2.022-.531Zm9.166-4.108H547.3v1.063a2.871,2.871,0,0,0-2.307-1.231,3.391,3.391,0,0,0-3.343,3.439c0,.025,0,.051,0,.076a3.38,3.38,0,0,0,3.258,3.5l.085,0a2.883,2.883,0,0,0,2.266-1.18v.7A2.287,2.287,0,0,1,544.929,470a2.106,2.106,0,0,1-2-1.141h-1.153a3.031,3.031,0,0,0,3.15,2.2,3.332,3.332,0,0,0,3.442-3.219,3.279,3.279,0,0,0-.008-.371Zm-1.1,3.36a2.4,2.4,0,0,1-2.268,2.475,2.361,2.361,0,0,1-2.242-2.474h0a2.367,2.367,0,0,1,2.227-2.5h.015A2.4,2.4,0,0,1,547.261,464.468Zm-.337-5.949h-.555c-.142.583-.531.933-1.413.933a1.32,1.32,0,0,1-1.361-.933h-.609a1.993,1.993,0,0,0,3.937,0Zm4.342,2.592h-1.1v6.675h1.1Zm11.367,2.541a2.409,2.409,0,0,0-2.475-2.708,2.339,2.339,0,0,0-2.087,1.14,2.261,2.261,0,0,0-2.061-1.14,2.169,2.169,0,0,0-1.776.894v-.726h-1.063v6.675h1.1V463.7a1.631,1.631,0,0,1,1.508-1.745l.073,0c.985,0,1.5.635,1.5,1.672v4.16h1.089V463.7a1.621,1.621,0,0,1,1.487-1.745l.081,0c1.024,0,1.516.636,1.516,1.672v4.161h1.1Z" transform="translate(-448.953 -437.453)" fill="#00abaa"/>
      </g>
    </g>
  </g>
</svg>
