<svg id="Group_32" data-name="Group 32" xmlns="http://www.w3.org/2000/svg" width="64" height="64.001" viewBox="0 0 64 64.001">
  <path id="Path_13" data-name="Path 13" d="M253.849,376.541V412.2a2.646,2.646,0,0,0,.78,1.884h0a3.732,3.732,0,1,1-5.278,5.278,10.147,10.147,0,0,1-1.8-2.452,16.534,16.534,0,1,1-1.163-26.8V373.251a31.994,31.994,0,1,0,7.463,3.291Z" transform="translate(-205.313 -371.931)" fill="#fff"/>
  <path id="Path_14" data-name="Path 14" d="M260.96,415.683a9.071,9.071,0,1,0,3.991,3.288A9.069,9.069,0,0,0,260.96,415.683Z" transform="translate(-225.424 -392.035)" fill="#fff"/>
</svg>
