<svg xmlns="http://www.w3.org/2000/svg" xmlns:xlink="http://www.w3.org/1999/xlink" class="brand-logo" width="245" height="45" viewBox="0 0 245 45">
  <defs>
    <clipPath id="clip-DESKTOP-dugun-com">
      <rect width="245" height="45"/>
    </clipPath>
  </defs>
  <g id="DESKTOP-dugun-com" clip-path="url(#clip-DESKTOP-dugun-com)">
    <g id="dugun-com-logo-v1-1133x300">
      <g id="Group_85" data-name="Group 85" transform="translate(-0.017 -0.01)">
        <circle id="Ellipse_10" data-name="Ellipse 10" cx="22.5" cy="22.5" r="22.5" transform="translate(0.017 0.01)" fill="#fff"/>
        <g id="Group_32" data-name="Group 32">
          <path id="Path_13" data-name="Path 13" d="M239.455,375.174V400.26a1.857,1.857,0,0,0,.146.729,1.877,1.877,0,0,0,.4.6h0a2.625,2.625,0,1,1-3.713,3.713,7.137,7.137,0,0,1-1.269-1.725,11.631,11.631,0,1,1-.818-18.851V372.86a22.506,22.506,0,1,0,5.25,2.315Z" transform="translate(-205.313 -371.931)" fill="#db0962"/>
          <path id="Path_14" data-name="Path 14" d="M257.222,415.47a6.381,6.381,0,1,0,2.807,2.313A6.38,6.38,0,0,0,257.222,415.47Z" transform="translate(-232.224 -398.835)" fill="#db0962"/>
        </g>
        <g id="Group_33" data-name="Group 33" transform="translate(56.267 11.389)">
          <path id="Path_15" data-name="Path 15" d="M365.167,409a5.106,5.106,0,0,0-3.8-1.792,5.765,5.765,0,0,0-4.254,1.836,6.559,6.559,0,0,0,0,8.793,5.777,5.777,0,0,0,4.254,1.825,5.066,5.066,0,0,0,3.864-1.881v1.589h2.126V402.344h-2.194Zm-3.8,8.627a3.557,3.557,0,0,1-2.66-1.216,4.391,4.391,0,0,1-1.092-2.941,4.463,4.463,0,0,1,1.092-2.981,3.543,3.543,0,0,1,2.66-1.221,3.62,3.62,0,0,1,2.667,1.223,4.409,4.409,0,0,1,1.13,2.979,4.341,4.341,0,0,1-1.13,2.94A3.636,3.636,0,0,1,361.371,417.622Z" transform="translate(-355.425 -402.344)" fill="#db0962"/>
          <path id="Path_16" data-name="Path 16" d="M402.008,423.335a2.806,2.806,0,0,1-2.875,2.874,2.605,2.605,0,0,1-2.017-.792,3.094,3.094,0,0,1-.7-2.128v-7.206h-2.171V423.2a5.368,5.368,0,0,0,1.2,3.606,4.361,4.361,0,0,0,3.4,1.417,4.449,4.449,0,0,0,3.235-1.313v1.043H404.2V416.084h-2.194Z" transform="translate(-379.688 -410.932)" fill="#db0962"/>
          <path id="Path_17" data-name="Path 17" d="M401.494,407.909V405.4h-2.329v2.509h2.329Z" transform="translate(-382.762 -404.253)" fill="#db0962"/>
          <path id="Path_18" data-name="Path 18" d="M411.6,407.909V405.4h-2.351v2.509H411.6Z" transform="translate(-389.063 -404.253)" fill="#db0962"/>
          <path id="Path_19" data-name="Path 19" d="M433.749,406.413a4.025,4.025,0,0,0,5.007,0,3.153,3.153,0,0,0,1.057-2.183l.01-.15h-1.228l-.026.107a1.817,1.817,0,0,1-.69,1.109,2.752,2.752,0,0,1-1.626.4,2.435,2.435,0,0,1-1.438-.405,2.167,2.167,0,0,1-.792-1.119l-.032-.1h-1.31l.01.15A3.156,3.156,0,0,0,433.749,406.413Z" transform="translate(-403.711 -403.428)" fill="#db0962"/>
          <path id="Path_20" data-name="Path 20" d="M436.333,417.164a5.1,5.1,0,0,0-3.864-1.865,5.764,5.764,0,0,0-4.254,1.836,6.559,6.559,0,0,0,0,8.793,5.776,5.776,0,0,0,4.254,1.825,5.106,5.106,0,0,0,3.8-1.792v.819a4.783,4.783,0,0,1-.882,2.893,3.6,3.6,0,0,1-3.027,1.354,4.552,4.552,0,0,1-1.712-.328,2.97,2.97,0,0,1-1.624-1.567l-.037-.084h-2.274l.043.174a4.889,4.889,0,0,0,1.98,2.88,6.3,6.3,0,0,0,3.624,1.052,5.96,5.96,0,0,0,4.416-1.768,6.533,6.533,0,0,0,1.687-4.605V415.593h-2.126Zm-3.864,8.554a3.558,3.558,0,0,1-2.66-1.216,4.39,4.39,0,0,1-1.092-2.94,4.462,4.462,0,0,1,1.092-2.981,3.543,3.543,0,0,1,2.66-1.221,3.619,3.619,0,0,1,2.667,1.223,4.408,4.408,0,0,1,1.13,2.979,4.34,4.34,0,0,1-1.13,2.94,3.635,3.635,0,0,1-2.667,1.216Z" transform="translate(-399.861 -410.44)" fill="#db0962"/>
          <path id="Path_21" data-name="Path 21" d="M472.414,407.909V405.4h-2.329v2.509h2.329Z" transform="translate(-427.087 -404.253)" fill="#db0962"/>
          <path id="Path_22" data-name="Path 22" d="M482.516,407.909V405.4h-2.351v2.509h2.351Z" transform="translate(-433.387 -404.253)" fill="#db0962"/>
          <path id="Path_23" data-name="Path 23" d="M472.928,423.335a2.806,2.806,0,0,1-2.874,2.874,2.6,2.6,0,0,1-2.016-.792,3.1,3.1,0,0,1-.7-2.128v-7.206h-2.171V423.2a5.368,5.368,0,0,0,1.2,3.606,4.362,4.362,0,0,0,3.4,1.417A4.449,4.449,0,0,0,473,426.91v1.043h2.126V416.084h-2.195Z" transform="translate(-424.012 -410.932)" fill="#db0962"/>
          <path id="Path_24" data-name="Path 24" d="M505.085,415.3a4.433,4.433,0,0,0-3.234,1.33V415.59h-2.126v11.869h2.194V420.23a2.817,2.817,0,0,1,2.9-2.9,2.544,2.544,0,0,1,2,.826,3.163,3.163,0,0,1,.691,2.115v7.184h2.171v-7.116a5.407,5.407,0,0,0-1.2-3.625A4.36,4.36,0,0,0,505.085,415.3Z" transform="translate(-445.612 -410.438)" fill="#db0962"/>
          <path id="Path_25" data-name="Path 25" d="M532.784,443.4h2.531v-2.6h-2.531Z" transform="translate(-466.274 -426.378)" fill="#db0962"/>
          <path id="Path_26" data-name="Path 26" d="M548.626,417.341a3.584,3.584,0,0,1,3.228,2.039l.039.076h2.329l-.063-.186a5.681,5.681,0,0,0-5.534-3.966,5.793,5.793,0,0,0-4.2,1.835,6.377,6.377,0,0,0-1.743,4.4,6.3,6.3,0,0,0,1.745,4.381,5.814,5.814,0,0,0,4.2,1.812,5.662,5.662,0,0,0,5.534-3.967l.06-.184h-2.328l-.039.078a3.541,3.541,0,0,1-5.871.829,4.371,4.371,0,0,1-1.108-2.949,4.452,4.452,0,0,1,1.109-2.972A3.55,3.55,0,0,1,548.626,417.341Z" transform="translate(-472.458 -410.445)" fill="#db0962"/>
          <path id="Path_27" data-name="Path 27" d="M582.368,415.3a5.8,5.8,0,0,0-4.248,1.839,6.417,6.417,0,0,0-1.721,4.422,6.275,6.275,0,0,0,1.721,4.361,5.9,5.9,0,0,0,8.5,0,6.281,6.281,0,0,0,1.713-4.361,6.424,6.424,0,0,0-1.712-4.422A5.8,5.8,0,0,0,582.368,415.3Zm0,10.395a3.578,3.578,0,0,1-2.644-1.206,4.337,4.337,0,0,1-1.108-2.929,4.487,4.487,0,0,1,1.109-2.992,3.471,3.471,0,0,1,5.306,0,4.474,4.474,0,0,1,1.112,2.991,4.325,4.325,0,0,1-1.11,2.929,3.608,3.608,0,0,1-2.665,1.207Z" transform="translate(-493.532 -410.44)" fill="#db0962"/>
          <path id="Path_28" data-name="Path 28" d="M629.549,416.62a4.558,4.558,0,0,0-6.878.54,4.071,4.071,0,0,0-3.58-1.857,3.886,3.886,0,0,0-2.941,1.3V415.6h-2.127v11.869h2.194v-7.229a3.067,3.067,0,0,1,.746-2.074,2.463,2.463,0,0,1,1.858-.823,2.329,2.329,0,0,1,1.841.728,3.019,3.019,0,0,1,.629,2.034v7.364h2.171v-7.229a3.088,3.088,0,0,1,.735-2.075,2.43,2.43,0,0,1,1.847-.822,2.358,2.358,0,0,1,1.877.728,3.027,3.027,0,0,1,.615,2.034v7.364h2.193v-7.319A5.135,5.135,0,0,0,629.549,416.62Z" transform="translate(-517.048 -410.443)" fill="#db0962"/>
        </g>
      </g>
    </g>
  </g>
</svg>
