<svg xmlns="http://www.w3.org/2000/svg" width="64" height="64" viewBox="0 0 64 64">
  <g id="Group_8311" data-name="Group 8311" transform="translate(-123.738 -372)">
    <path id="Path_1932" data-name="Path 1932" d="M155.738,372a32.07,32.07,0,0,0-8,1.008v16.843a14.631,14.631,0,0,1,14.838-.691,15.266,15.266,0,0,1,5.255,4.648,17.429,17.429,0,0,1,2.24,4.344,20.748,20.748,0,0,1,1.133,6.9V416.8h0a2.644,2.644,0,0,0,.208,1.037,2.68,2.68,0,0,0,.573.849h0a3.733,3.733,0,0,1-5.28,5.279,10.108,10.108,0,0,1-2.967-7.164h0V405.053a13.024,13.024,0,0,0-.885-4.887,9.1,9.1,0,0,0-2.2-3.279,7.354,7.354,0,0,0-1.92-1.3,7.2,7.2,0,0,0-6.332.169,7.792,7.792,0,0,0-2.679,2.391,9.96,9.96,0,0,0-1.275,2.486,13.316,13.316,0,0,0-.71,4.422V416.8a3.733,3.733,0,1,1-7.467,0V375.981A32.007,32.007,0,1,0,155.738,372Z" transform="translate(0 0)" fill="#fff"/>
  </g>
</svg>
