<svg xmlns="http://www.w3.org/2000/svg" xmlns:xlink="http://www.w3.org/1999/xlink" width="150" height="28" viewBox="0 0 150 28">
  <defs>
    <clipPath id="clip-hochzeitshero-de-footer-logo">
      <rect width="150" height="28"/>
    </clipPath>
  </defs>
  <g id="hochzeitshero-de-footer-logo" clip-path="url(#clip-hochzeitshero-de-footer-logo)">
    <g id="Group_4212" data-name="Group 4212" transform="translate(1 7)">
      <path id="Path_1933" data-name="Path 1933" d="M278.283,406.443a3.783,3.783,0,0,0-2.685,1.065v-5.185h-1.86v14.43h1.86v-6.128a2.388,2.388,0,0,1,2.456-2.456,2.159,2.159,0,0,1,1.706.694,2.7,2.7,0,0,1,.579,1.8v6.09h1.841v-6.032a4.584,4.584,0,0,0-1.017-3.074A3.689,3.689,0,0,0,278.283,406.443Z" transform="translate(-273.738 -402.323)" fill="#db0962"/>
      <path id="Path_1934" data-name="Path 1934" d="M310.958,415.283a4.918,4.918,0,0,0-3.6,1.559,5.441,5.441,0,0,0-1.458,3.749,5.32,5.32,0,0,0,1.459,3.7,5,5,0,0,0,7.209,0,5.325,5.325,0,0,0,1.452-3.7,5.447,5.447,0,0,0-1.451-3.749A4.912,4.912,0,0,0,310.958,415.283Zm0,8.813a3.031,3.031,0,0,1-2.241-1.022,3.676,3.676,0,0,1-.939-2.483,3.8,3.8,0,0,1,.94-2.536,2.942,2.942,0,0,1,4.5,0,3.792,3.792,0,0,1,.942,2.536,3.667,3.667,0,0,1-.941,2.483A3.057,3.057,0,0,1,310.958,424.1Z" transform="translate(-295.674 -411.163)" fill="#db0962"/>
      <path id="Path_1935" data-name="Path 1935" d="M346.278,417.009a3.04,3.04,0,0,1,2.737,1.729l.033.064h1.975l-.053-.157a4.816,4.816,0,0,0-4.691-3.362,4.91,4.91,0,0,0-3.562,1.556,5.407,5.407,0,0,0-1.478,3.733,5.341,5.341,0,0,0,1.478,3.714,4.93,4.93,0,0,0,3.562,1.537,4.8,4.8,0,0,0,4.691-3.363l.051-.156h-1.974l-.033.066a3,3,0,0,1-4.977.7,3.706,3.706,0,0,1-.939-2.5,3.775,3.775,0,0,1,.94-2.52A3.011,3.011,0,0,1,346.278,417.009Z" transform="translate(-319.778 -411.163)" fill="#db0962"/>
      <path id="Path_1936" data-name="Path 1936" d="M381.782,406.443a3.783,3.783,0,0,0-2.685,1.065v-5.185h-1.86v14.43h1.86v-6.128a2.388,2.388,0,0,1,2.456-2.456,2.159,2.159,0,0,1,1.706.694,2.693,2.693,0,0,1,.579,1.8v6.09h1.841v-6.032a4.586,4.586,0,0,0-1.017-3.074A3.69,3.69,0,0,0,381.782,406.443Z" transform="translate(-344.334 -402.323)" fill="#db0962"/>
      <path id="Path_1937" data-name="Path 1937" d="M416.918,417.694v-1.631h-7.849v1.783h5.362l-5.514,6.763v1.516h8.174v-1.8h-5.627Z" transform="translate(-365.942 -411.695)" fill="#db0962"/>
      <path id="Path_1938" data-name="Path 1938" d="M442.656,415.283a4.936,4.936,0,0,0-3.579,1.556,5.4,5.4,0,0,0-1.48,3.733,5.284,5.284,0,0,0,1.493,3.729,5.31,5.31,0,0,0,6.642.646,4.8,4.8,0,0,0,1.768-2.488l.051-.156h-1.957l-.032.069a2.969,2.969,0,0,1-1.093,1.285,3.15,3.15,0,0,1-1.717.458,3.316,3.316,0,0,1-3.257-3h8.241v-.16a5.85,5.85,0,0,0-1.566-4.157A4.9,4.9,0,0,0,442.656,415.283Zm0,1.707a3.239,3.239,0,0,1,3.007,2.432H439.61A3.284,3.284,0,0,1,442.656,416.99Z" transform="translate(-385.504 -411.163)" fill="#db0962"/>
      <path id="Path_1939" data-name="Path 1939" d="M475.035,407.488h1.86v-2.165h-1.86Z" transform="translate(-411.041 -404.369)" fill="#db0962"/>
      <path id="Path_1940" data-name="Path 1940" d="M475.035,426.125h1.86V416.063h-1.86Z" transform="translate(-411.041 -411.695)" fill="#db0962"/>
      <path id="Path_1941" data-name="Path 1941" d="M490.67,419.905a1.719,1.719,0,0,1-1.9-1.987v-4.573H491v-1.783H488.77v-2.1h-1.841v2.1h-1.335v1.783h1.335v4.573a3.914,3.914,0,0,0,.945,2.75,3.309,3.309,0,0,0,2.489.988,4.98,4.98,0,0,0,.571-.034l.106-.012V419.89l-.127.008C490.831,419.9,490.75,419.905,490.67,419.905Z" transform="translate(-418.243 -407.193)" fill="#db0962"/>
      <path id="Path_1942" data-name="Path 1942" d="M512,419.921a11.48,11.48,0,0,0-2.235-.516,7.466,7.466,0,0,1-1.928-.468.847.847,0,0,1-.354-.286.691.691,0,0,1-.1-.387,1.059,1.059,0,0,1,.574-.872,2.933,2.933,0,0,1,1.539-.382,2.736,2.736,0,0,1,1.483.38,1.71,1.71,0,0,1,.766,1.11l.021.094h1.869l-.014-.132a3.3,3.3,0,0,0-1.277-2.34,4.637,4.637,0,0,0-2.848-.838,4.445,4.445,0,0,0-2.992.959,2.759,2.759,0,0,0-.98,2.078,2.52,2.52,0,0,0,.278,1.221,2.584,2.584,0,0,0,1.369,1.117,9.9,9.9,0,0,0,2.289.546h0a5.332,5.332,0,0,1,2.184.607.829.829,0,0,1,.313.364,1.121,1.121,0,0,1,.07.437,1.259,1.259,0,0,1-.607,1.025,3.052,3.052,0,0,1-1.735.458,3.194,3.194,0,0,1-1.758-.476,1.932,1.932,0,0,1-.871-1.276l-.018-.1h-1.875l.017.134a3.7,3.7,0,0,0,1.446,2.538,5.018,5.018,0,0,0,3.06.923,4.794,4.794,0,0,0,2.965-.891,2.994,2.994,0,0,0,1.179-2.433,2.839,2.839,0,0,0-.33-1.42A2.75,2.75,0,0,0,512,419.921Z" transform="translate(-431.59 -411.163)" fill="#db0962"/>
      <path id="Path_1943" data-name="Path 1943" d="M542.458,406.443a3.783,3.783,0,0,0-2.685,1.065v-5.185h-1.86v14.43h1.86v-6.128a2.388,2.388,0,0,1,2.456-2.456,2.159,2.159,0,0,1,1.706.694,2.7,2.7,0,0,1,.579,1.8v6.09h1.84v-6.032a4.583,4.583,0,0,0-1.017-3.074A3.689,3.689,0,0,0,542.458,406.443Z" transform="translate(-453.929 -402.323)" fill="#db0962"/>
      <path id="Path_1944" data-name="Path 1944" d="M575.133,415.283a4.936,4.936,0,0,0-3.579,1.556,5.4,5.4,0,0,0-1.48,3.733,5.284,5.284,0,0,0,1.493,3.729,5.31,5.31,0,0,0,6.642.646,4.8,4.8,0,0,0,1.768-2.488l.051-.156H578.07l-.032.069a2.969,2.969,0,0,1-1.093,1.285,3.15,3.15,0,0,1-1.717.458,3.316,3.316,0,0,1-3.257-3h8.241v-.16a5.851,5.851,0,0,0-1.566-4.157A4.9,4.9,0,0,0,575.133,415.283Zm0,1.707a3.239,3.239,0,0,1,3.008,2.432h-6.053A3.284,3.284,0,0,1,575.133,416.99Z" transform="translate(-475.865 -411.163)" fill="#db0962"/>
      <path id="Path_1945" data-name="Path 1945" d="M611.928,415.267a3.605,3.605,0,0,0-2.674,1.147v-.894h-1.8v10.062h1.86v-5.8a2.53,2.53,0,0,1,.815-2,2.964,2.964,0,0,1,1.971-.655q.117,0,.236.007l.126.007V415.3l-.1-.012A3.556,3.556,0,0,0,611.928,415.267Z" transform="translate(-501.361 -411.152)" fill="#db0962"/>
      <path id="Path_1946" data-name="Path 1946" d="M630.332,415.283a4.917,4.917,0,0,0-3.6,1.559,5.441,5.441,0,0,0-1.458,3.749,5.32,5.32,0,0,0,1.459,3.7,5,5,0,0,0,7.209,0,5.326,5.326,0,0,0,1.452-3.7,5.447,5.447,0,0,0-1.451-3.749A4.913,4.913,0,0,0,630.332,415.283Zm0,8.813a3.032,3.032,0,0,1-2.242-1.022,3.677,3.677,0,0,1-.939-2.483,3.8,3.8,0,0,1,.94-2.536,2.942,2.942,0,0,1,4.5,0,3.8,3.8,0,0,1,.942,2.536,3.666,3.666,0,0,1-.942,2.483A3.056,3.056,0,0,1,630.332,424.1Z" transform="translate(-513.515 -411.163)" fill="#db0962"/>
      <path id="Path_1947" data-name="Path 1947" d="M660.311,442.987h2.146v-2.2h-2.146Z" transform="translate(-537.415 -428.557)" fill="#db0962"/>
      <path id="Path_1948" data-name="Path 1948" d="M679.071,407.962a4.328,4.328,0,0,0-3.219-1.519A4.886,4.886,0,0,0,672.246,408a5.56,5.56,0,0,0,0,7.455A4.9,4.9,0,0,0,675.853,417a4.292,4.292,0,0,0,3.276-1.595v1.347h1.8v-14.43h-1.86Zm-3.219,7.313a3.017,3.017,0,0,1-2.255-1.031,3.721,3.721,0,0,1-.925-2.493,3.78,3.78,0,0,1,.926-2.527,3,3,0,0,1,2.255-1.036,3.068,3.068,0,0,1,2.261,1.037,3.737,3.737,0,0,1,.958,2.526,3.68,3.68,0,0,1-.958,2.492A3.081,3.081,0,0,1,675.853,415.275Z" transform="translate(-544.578 -402.323)" fill="#db0962"/>
      <path id="Path_1949" data-name="Path 1949" d="M716.944,416.794a4.868,4.868,0,0,0-7.093.045,5.4,5.4,0,0,0-1.48,3.733,5.285,5.285,0,0,0,1.493,3.729,5.309,5.309,0,0,0,6.642.646,4.8,4.8,0,0,0,1.769-2.488l.051-.156h-1.957l-.032.069a2.967,2.967,0,0,1-1.093,1.285,3.149,3.149,0,0,1-1.717.458,3.316,3.316,0,0,1-3.257-3h8.241v-.16A5.853,5.853,0,0,0,716.944,416.794Zm-3.513.2a3.24,3.24,0,0,1,3.008,2.432h-6.053A3.284,3.284,0,0,1,713.431,416.99Z" transform="translate(-570.196 -411.163)" fill="#db0962"/>
    </g>
  </g>
</svg>
