<svg xmlns="http://www.w3.org/2000/svg" xmlns:xlink="http://www.w3.org/1999/xlink" class="brand-logo" width="245" height="45" viewBox="0 0 245 45">
  <defs>
    <clipPath id="clip-DESKTOP-hochzeitshero-de">
      <rect width="245" height="45"/>
    </clipPath>
  </defs>
  <g id="DESKTOP-hochzeitshero-de" clip-path="url(#clip-DESKTOP-hochzeitshero-de)">
    <g id="Group_4213" data-name="Group 4213" transform="translate(-123.738 -372)">
      <path id="Path_1950" data-name="Path 1950" d="M22.5,0C34.926,0,43.068,10.074,43.068,22.5S34.926,42.56,22.5,42.56,3.727,34.926,3.727,22.5c0-6.375-1.076-12.13,3.391-16.421A22.253,22.253,0,0,1,22.5,0Z" transform="translate(123.738 372)" fill="#fff"/>
      <path id="Path_1932" data-name="Path 1932" d="M146.238,372a22.545,22.545,0,0,0-5.625.709v11.843a10.287,10.287,0,0,1,10.433-.486,10.734,10.734,0,0,1,3.7,3.268,12.252,12.252,0,0,1,1.575,3.055,14.588,14.588,0,0,1,.8,4.852V403.5h0a1.859,1.859,0,0,0,.146.729,1.885,1.885,0,0,0,.4.6h0a2.625,2.625,0,0,1-3.713,3.712,7.108,7.108,0,0,1-2.087-5.037h0v-8.259a9.157,9.157,0,0,0-.622-3.436A6.4,6.4,0,0,0,149.7,389.5a5.168,5.168,0,0,0-1.35-.915,5.06,5.06,0,0,0-4.452.119,5.479,5.479,0,0,0-1.884,1.681,7,7,0,0,0-.9,1.748,9.362,9.362,0,0,0-.5,3.109V403.5a2.625,2.625,0,1,1-5.25,0V374.8a22.505,22.505,0,1,0,10.875-2.8Z" transform="translate(0 0)" fill="#db0962"/>
      <g id="Group_4212" data-name="Group 4212" transform="translate(179.988 383.371)">
        <path id="Path_1933" data-name="Path 1933" d="M279.1,407.183a4.462,4.462,0,0,0-3.167,1.257v-6.117h-2.194v17.022h2.194v-7.228a2.816,2.816,0,0,1,2.9-2.9,2.547,2.547,0,0,1,2.012.818,3.179,3.179,0,0,1,.683,2.124v7.183h2.171v-7.116a5.408,5.408,0,0,0-1.2-3.625A4.352,4.352,0,0,0,279.1,407.183Z" transform="translate(-273.738 -402.323)" fill="#db0962"/>
        <path id="Path_1934" data-name="Path 1934" d="M311.866,415.283a5.8,5.8,0,0,0-4.248,1.839,6.418,6.418,0,0,0-1.72,4.422,6.276,6.276,0,0,0,1.721,4.361,5.9,5.9,0,0,0,8.5,0,6.281,6.281,0,0,0,1.713-4.361,6.425,6.425,0,0,0-1.712-4.422A5.8,5.8,0,0,0,311.866,415.283Zm0,10.4a3.575,3.575,0,0,1-2.644-1.206,4.336,4.336,0,0,1-1.108-2.928,4.486,4.486,0,0,1,1.109-2.992,3.47,3.47,0,0,1,5.306,0,4.473,4.473,0,0,1,1.111,2.992,4.326,4.326,0,0,1-1.11,2.928A3.606,3.606,0,0,1,311.866,425.678Z" transform="translate(-293.838 -410.423)" fill="#db0962"/>
        <path id="Path_1935" data-name="Path 1935" d="M347.183,417.319a3.586,3.586,0,0,1,3.228,2.039l.039.076h2.329l-.063-.185a5.681,5.681,0,0,0-5.533-3.966,5.792,5.792,0,0,0-4.2,1.835,6.378,6.378,0,0,0-1.743,4.4,6.3,6.3,0,0,0,1.744,4.381,5.815,5.815,0,0,0,4.2,1.813,5.661,5.661,0,0,0,5.534-3.967l.06-.184h-2.328l-.039.078a3.541,3.541,0,0,1-5.871.829,4.371,4.371,0,0,1-1.108-2.948,4.453,4.453,0,0,1,1.109-2.972A3.552,3.552,0,0,1,347.183,417.319Z" transform="translate(-315.925 -410.423)" fill="#db0962"/>
        <path id="Path_1936" data-name="Path 1936" d="M382.6,407.183a4.463,4.463,0,0,0-3.167,1.257v-6.117h-2.194v17.022h2.194v-7.228a2.816,2.816,0,0,1,2.9-2.9,2.546,2.546,0,0,1,2.012.818,3.177,3.177,0,0,1,.683,2.124v7.183h2.171v-7.116a5.41,5.41,0,0,0-1.2-3.625A4.352,4.352,0,0,0,382.6,407.183Z" transform="translate(-338.425 -402.323)" fill="#db0962"/>
        <path id="Path_1937" data-name="Path 1937" d="M418.355,417.987v-1.923H409.1v2.1h6.325l-6.5,7.977v1.788h9.641v-2.126H411.92Z" transform="translate(-358.224 -410.911)" fill="#db0962"/>
        <path id="Path_1938" data-name="Path 1938" d="M443.564,415.283a5.823,5.823,0,0,0-4.222,1.835,6.366,6.366,0,0,0-1.746,4.4,6.233,6.233,0,0,0,1.761,4.4,6.263,6.263,0,0,0,7.835.762,5.658,5.658,0,0,0,2.086-2.934l.06-.184H447.03l-.038.081a3.5,3.5,0,0,1-1.289,1.516,3.715,3.715,0,0,1-2.026.541,3.912,3.912,0,0,1-3.842-3.544h9.72v-.189a6.9,6.9,0,0,0-1.847-4.9A5.779,5.779,0,0,0,443.564,415.283Zm0,2.014a3.82,3.82,0,0,1,3.547,2.869h-7.14A3.874,3.874,0,0,1,443.564,417.3Z" transform="translate(-376.149 -410.423)" fill="#db0962"/>
        <path id="Path_1939" data-name="Path 1939" d="M475.035,407.877h2.194v-2.554h-2.194Z" transform="translate(-399.549 -404.198)" fill="#db0962"/>
        <path id="Path_1940" data-name="Path 1940" d="M475.035,427.932h2.194V416.063h-2.194Z" transform="translate(-399.549 -410.911)" fill="#db0962"/>
        <path id="Path_1941" data-name="Path 1941" d="M491.581,421.78a2.027,2.027,0,0,1-2.241-2.344v-5.395h2.633v-2.1H489.34v-2.475h-2.171v2.475h-1.575v2.1h1.575v5.395a4.617,4.617,0,0,0,1.115,3.244,3.9,3.9,0,0,0,2.936,1.166,5.871,5.871,0,0,0,.674-.04l.125-.015v-2.03l-.149.009C491.771,421.777,491.675,421.78,491.581,421.78Z" transform="translate(-406.148 -406.786)" fill="#db0962"/>
        <path id="Path_1942" data-name="Path 1942" d="M513.223,420.754a13.538,13.538,0,0,0-2.636-.609,8.806,8.806,0,0,1-2.274-.552,1,1,0,0,1-.417-.337.815.815,0,0,1-.115-.456,1.249,1.249,0,0,1,.677-1.029,3.46,3.46,0,0,1,1.815-.451,3.227,3.227,0,0,1,1.749.448,2.017,2.017,0,0,1,.9,1.309l.024.111h2.205l-.017-.156a3.891,3.891,0,0,0-1.506-2.76,5.47,5.47,0,0,0-3.359-.988,5.244,5.244,0,0,0-3.53,1.132,3.254,3.254,0,0,0-1.157,2.452,2.972,2.972,0,0,0,.328,1.441,3.048,3.048,0,0,0,1.615,1.318,11.675,11.675,0,0,0,2.7.644h0a6.29,6.29,0,0,1,2.577.716.978.978,0,0,1,.369.43,1.322,1.322,0,0,1,.083.515,1.485,1.485,0,0,1-.715,1.209,3.6,3.6,0,0,1-2.046.54,3.768,3.768,0,0,1-2.074-.562,2.279,2.279,0,0,1-1.028-1.506l-.021-.115h-2.212l.02.158a4.363,4.363,0,0,0,1.706,2.994,5.919,5.919,0,0,0,3.609,1.089,5.655,5.655,0,0,0,3.5-1.051,3.532,3.532,0,0,0,1.39-2.87,3.348,3.348,0,0,0-.389-1.675A3.243,3.243,0,0,0,513.223,420.754Z" transform="translate(-418.378 -410.423)" fill="#db0962"/>
        <path id="Path_1943" data-name="Path 1943" d="M543.274,407.183a4.463,4.463,0,0,0-3.167,1.257v-6.117h-2.194v17.022h2.194v-7.228a2.816,2.816,0,0,1,2.9-2.9,2.547,2.547,0,0,1,2.012.818,3.179,3.179,0,0,1,.683,2.124v7.183h2.171v-7.116a5.405,5.405,0,0,0-1.2-3.625A4.352,4.352,0,0,0,543.274,407.183Z" transform="translate(-438.847 -402.323)" fill="#db0962"/>
        <path id="Path_1944" data-name="Path 1944" d="M576.041,415.283a5.823,5.823,0,0,0-4.222,1.835,6.367,6.367,0,0,0-1.746,4.4,6.233,6.233,0,0,0,1.761,4.4,6.263,6.263,0,0,0,7.834.762,5.656,5.656,0,0,0,2.086-2.934l.06-.184h-2.308l-.038.081a3.5,3.5,0,0,1-1.289,1.516,3.716,3.716,0,0,1-2.026.541,3.912,3.912,0,0,1-3.842-3.544h9.72v-.189a6.9,6.9,0,0,0-1.847-4.9A5.781,5.781,0,0,0,576.041,415.283Zm0,2.014a3.821,3.821,0,0,1,3.548,2.869h-7.14A3.874,3.874,0,0,1,576.041,417.3Z" transform="translate(-458.947 -410.423)" fill="#db0962"/>
        <path id="Path_1945" data-name="Path 1945" d="M612.732,415.267a4.252,4.252,0,0,0-3.154,1.353v-1.054h-2.126v11.869h2.194v-6.846a2.984,2.984,0,0,1,.961-2.357,3.5,3.5,0,0,1,2.324-.773q.138,0,.278.008l.148.008v-2.164l-.124-.015A4.194,4.194,0,0,0,612.732,415.267Z" transform="translate(-482.309 -410.413)" fill="#db0962"/>
        <path id="Path_1946" data-name="Path 1946" d="M631.24,415.283a5.8,5.8,0,0,0-4.248,1.839,6.418,6.418,0,0,0-1.72,4.422,6.275,6.275,0,0,0,1.721,4.361,5.9,5.9,0,0,0,8.5,0,6.282,6.282,0,0,0,1.712-4.361,6.424,6.424,0,0,0-1.712-4.422A5.8,5.8,0,0,0,631.24,415.283Zm0,10.4a3.576,3.576,0,0,1-2.644-1.206,4.337,4.337,0,0,1-1.108-2.928,4.487,4.487,0,0,1,1.109-2.992,3.47,3.47,0,0,1,5.306,0,4.476,4.476,0,0,1,1.112,2.992,4.325,4.325,0,0,1-1.111,2.928A3.605,3.605,0,0,1,631.24,425.678Z" transform="translate(-493.447 -410.423)" fill="#db0962"/>
        <path id="Path_1947" data-name="Path 1947" d="M660.311,443.383h2.531v-2.6h-2.531Z" transform="translate(-515.346 -426.361)" fill="#db0962"/>
        <path id="Path_1948" data-name="Path 1948" d="M680.555,408.975a5.105,5.105,0,0,0-3.8-1.792,5.763,5.763,0,0,0-4.254,1.836,6.559,6.559,0,0,0,0,8.793,5.775,5.775,0,0,0,4.254,1.824,5.063,5.063,0,0,0,3.864-1.881v1.589h2.126V402.323h-2.194Zm-3.8,8.626a3.559,3.559,0,0,1-2.66-1.216,4.39,4.39,0,0,1-1.092-2.941,4.459,4.459,0,0,1,1.092-2.98,3.543,3.543,0,0,1,2.66-1.222,3.619,3.619,0,0,1,2.667,1.223,4.409,4.409,0,0,1,1.13,2.979,4.341,4.341,0,0,1-1.13,2.939A3.635,3.635,0,0,1,676.758,417.6Z" transform="translate(-521.909 -402.323)" fill="#db0962"/>
        <path id="Path_1949" data-name="Path 1949" d="M718.483,417.065a5.742,5.742,0,0,0-8.366.053,6.366,6.366,0,0,0-1.746,4.4,6.234,6.234,0,0,0,1.761,4.4,6.263,6.263,0,0,0,7.834.762,5.656,5.656,0,0,0,2.086-2.934l.06-.184H717.8l-.038.081a3.5,3.5,0,0,1-1.29,1.516,3.715,3.715,0,0,1-2.026.541,3.912,3.912,0,0,1-3.842-3.544h9.72v-.189A6.9,6.9,0,0,0,718.483,417.065Zm-4.144.232a3.821,3.821,0,0,1,3.548,2.869h-7.14A3.874,3.874,0,0,1,714.339,417.3Z" transform="translate(-545.383 -410.423)" fill="#db0962"/>
      </g>
    </g>
  </g>
</svg>
