<svg xmlns="http://www.w3.org/2000/svg" xmlns:xlink="http://www.w3.org/1999/xlink" width="265" height="265" viewBox="0 0 265 265" version="1.1">
	<g id="surface1">
	<path style=" stroke:none;fill-rule:nonzero;fill:rgb(100%,100%,100%);fill-opacity:1;" d="M 132.484375 0 C 205.65625 0 253.605469 59.328125 253.605469 132.5 C 253.605469 205.671875 205.65625 250.625 132.484375 250.625 C 59.308594 250.625 21.929688 205.671875 21.929688 132.5 C 21.929688 94.953125 15.601562 61.066406 41.902344 35.808594 C 66.375 12.675781 98.8125 -0.144531 132.484375 0 Z M 132.484375 0 "/>
	<path style=" stroke:none;fill-rule:nonzero;fill:#e10963;fill-opacity:1;" d="M 132.5 0 C 121.328125 -0.0078125 110.195312 1.394531 99.375 4.171875 L 99.375 73.917969 C 117.808594 61.871094 141.328125 60.773438 160.804688 71.054688 C 169.457031 75.691406 176.90625 82.28125 182.570312 90.296875 C 186.488281 95.828125 189.613281 101.882812 191.84375 108.285156 C 195.011719 117.476562 196.597656 127.136719 196.53125 136.855469 L 196.53125 185.5 C 196.527344 186.972656 196.820312 188.433594 197.390625 189.789062 C 197.949219 191.101562 198.753906 192.292969 199.761719 193.300781 C 205.796875 199.339844 205.796875 209.125 199.761719 215.164062 C 193.722656 221.199219 183.933594 221.199219 177.898438 215.164062 C 170.019531 207.300781 165.597656 196.628906 165.609375 185.5 L 165.609375 136.855469 C 165.699219 129.9375 164.457031 123.066406 161.949219 116.617188 C 159.949219 111.480469 156.84375 106.84375 152.855469 103.035156 C 150.507812 100.832031 147.824219 99.015625 144.90625 97.652344 C 136.527344 93.820312 126.847656 94.078125 118.6875 98.347656 C 114.261719 100.75 110.464844 104.152344 107.589844 108.285156 C 105.355469 111.449219 103.574219 114.910156 102.304688 118.570312 C 100.296875 124.464844 99.300781 130.660156 99.359375 136.890625 L 99.359375 185.5 C 99.359375 194.039062 92.4375 200.960938 83.898438 200.960938 C 75.359375 200.960938 68.4375 194.039062 68.4375 185.5 L 68.4375 16.5625 C 10.046875 48.867188 -15.207031 119.558594 9.496094 181.550781 C 34.199219 243.539062 101.148438 277.488281 165.753906 260.78125 C 230.363281 244.074219 272.460938 181.925781 264.015625 115.730469 C 255.570312 49.535156 199.214844 -0.0507812 132.484375 0 Z M 132.5 0 "/>
	</g>
</svg>
