<svg xmlns="http://www.w3.org/2000/svg" xmlns:xlink="http://www.w3.org/1999/xlink" width="150" height="28" viewBox="0 0 150 28">
  <defs>
    <clipPath id="clip-weddinghero-com-partner-footer-logo">
      <rect width="150" height="28"/>
    </clipPath>
  </defs>
  <g id="weddinghero-com-partner-footer-logo" clip-path="url(#clip-weddinghero-com-partner-footer-logo)">
    <g id="Group_4231" data-name="Group 4231" transform="translate(-141.824 -1043.405)">
      <g id="Group_4178" data-name="Group 4178" transform="translate(262.081 1062.24)">
        <path id="Path_1879" data-name="Path 1879" d="M684.379,1132.521H682.5v2.864h-1.524v-8.012h3.371a2.418,2.418,0,0,1,2.644,2.586A2.461,2.461,0,0,1,684.379,1132.521Zm-1.882-3.729v2.332h1.836a1.166,1.166,0,0,0,0-2.332Z" transform="translate(-680.973 -1127.176)" fill="#00abaa"/>
        <path id="Path_1880" data-name="Path 1880" d="M710.816,1135.384h-1.547a2.241,2.241,0,0,1-.162-.878v-1.223c0-.682-.324-.994-1.039-.994H705.99v3.094h-1.524v-8.012h3.66c1.675,0,2.748.889,2.748,2.389a1.866,1.866,0,0,1-1.12,1.825,1.779,1.779,0,0,1,.877,1.708v1.12A3.225,3.225,0,0,0,710.816,1135.384Zm-2.655-4.468a1.107,1.107,0,0,0,1.189-1.074c0-.266,0-1.051-1.224-1.051H705.99v2.124Z" transform="translate(-697.42 -1127.176)" fill="#00abaa"/>
        <path id="Path_1881" data-name="Path 1881" d="M736.8,1130.885a3.927,3.927,0,1,1-3.914-4.168A3.975,3.975,0,0,1,736.8,1130.885Zm-1.536,0a2.407,2.407,0,1,0-2.378,2.736A2.577,2.577,0,0,0,735.267,1130.885Z" transform="translate(-714.569 -1126.717)" fill="#00abaa"/>
      </g>
      <g id="Group_4204" data-name="Group 4204" transform="translate(149.824 1043.405)">
        <path id="Path_1896" data-name="Path 1896" d="M237.206,104.423,235.29,97.68h-1.774l-1.917,6.744-1.917-6.744h-1.859l2.872,9.6h1.774l1.916-6.865,1.917,6.865h1.792l2.872-9.6h-1.859Z" transform="translate(-227.822 -93.511)" fill="#db0962"/>
        <path id="Path_1897" data-name="Path 1897" d="M292.965,96.628a4.712,4.712,0,0,0-3.417,1.485,5.152,5.152,0,0,0-1.413,3.563,5.044,5.044,0,0,0,1.425,3.56,5.069,5.069,0,0,0,6.34.616,4.577,4.577,0,0,0,1.688-2.375l.049-.149h-1.868l-.031.066a2.834,2.834,0,0,1-1.043,1.226,3.006,3.006,0,0,1-1.639.438,3.166,3.166,0,0,1-3.109-2.868h7.866v-.153a5.585,5.585,0,0,0-1.495-3.968A4.678,4.678,0,0,0,292.965,96.628Zm0,1.63a3.092,3.092,0,0,1,2.871,2.322h-5.778A3.136,3.136,0,0,1,292.965,98.258Z" transform="translate(-274.568 -92.695)" fill="#db0962"/>
        <path id="Path_1898" data-name="Path 1898" d="M343.369,84.528a4.132,4.132,0,0,0-3.073-1.45,4.665,4.665,0,0,0-3.442,1.486,5.308,5.308,0,0,0,0,7.116,4.673,4.673,0,0,0,3.442,1.476,4.1,4.1,0,0,0,3.127-1.522v1.285h1.721V79.145h-1.775Zm-3.073,6.98a2.878,2.878,0,0,1-2.153-.984,3.553,3.553,0,0,1-.884-2.38,3.611,3.611,0,0,1,.884-2.412,2.867,2.867,0,0,1,2.152-.988,2.929,2.929,0,0,1,2.158.99,3.566,3.566,0,0,1,.915,2.411,3.512,3.512,0,0,1-.914,2.379A2.941,2.941,0,0,1,340.3,91.508Z" transform="translate(-311.266 -79.145)" fill="#db0962"/>
        <path id="Path_1899" data-name="Path 1899" d="M394.037,84.528a4.131,4.131,0,0,0-3.073-1.45,4.665,4.665,0,0,0-3.442,1.486,5.308,5.308,0,0,0,0,7.116,4.673,4.673,0,0,0,3.442,1.476,4.1,4.1,0,0,0,3.127-1.522v1.285h1.721V79.145h-1.775Zm-3.073,6.98a2.879,2.879,0,0,1-2.153-.984,3.555,3.555,0,0,1-.884-2.38,3.612,3.612,0,0,1,.884-2.412,2.867,2.867,0,0,1,2.153-.988,2.929,2.929,0,0,1,2.158.99,3.567,3.567,0,0,1,.915,2.411,3.513,3.513,0,0,1-.914,2.379A2.942,2.942,0,0,1,390.965,91.508Z" transform="translate(-350.536 -79.145)" fill="#db0962"/>
        <path id="Path_1900" data-name="Path 1900" d="M439.169,107.285h1.775v-9.6h-1.775Z" transform="translate(-391.626 -93.511)" fill="#db0962"/>
        <path id="Path_1901" data-name="Path 1901" d="M439.169,85.258h1.775V83.192h-1.775Z" transform="translate(-391.626 -82.281)" fill="#db0962"/>
        <path id="Path_1902" data-name="Path 1902" d="M462.284,96.628a3.588,3.588,0,0,0-2.617,1.076v-.84h-1.721v9.6h1.775V100.62a2.279,2.279,0,0,1,2.344-2.344,2.058,2.058,0,0,1,1.621.669,2.564,2.564,0,0,1,.559,1.712v5.813H466v-5.758a4.376,4.376,0,0,0-.97-2.934A3.522,3.522,0,0,0,462.284,96.628Z" transform="translate(-406.179 -92.695)" fill="#db0962"/>
        <path id="Path_1903" data-name="Path 1903" d="M509.268,98.137a4.131,4.131,0,0,0-3.127-1.509,4.665,4.665,0,0,0-3.442,1.486,5.307,5.307,0,0,0,0,7.116,4.673,4.673,0,0,0,3.442,1.476,4.131,4.131,0,0,0,3.073-1.45v.663a3.866,3.866,0,0,1-.714,2.341,2.914,2.914,0,0,1-2.45,1.1,3.687,3.687,0,0,1-1.386-.267,2.4,2.4,0,0,1-1.315-1.268l-.03-.068h-1.84l.035.141a3.958,3.958,0,0,0,1.6,2.33,5.1,5.1,0,0,0,2.933.851,4.825,4.825,0,0,0,3.574-1.43,5.282,5.282,0,0,0,1.365-3.727V96.865h-1.721Zm-3.127,6.922a2.879,2.879,0,0,1-2.153-.984,3.555,3.555,0,0,1-.883-2.38,3.611,3.611,0,0,1,.884-2.412,2.867,2.867,0,0,1,2.152-.988,2.929,2.929,0,0,1,2.158.99,3.565,3.565,0,0,1,.915,2.411,3.511,3.511,0,0,1-.914,2.379A2.941,2.941,0,0,1,506.14,105.058Z" transform="translate(-439.803 -92.695)" fill="#db0962"/>
        <path id="Path_1904" data-name="Path 1904" d="M558.36,83.078a3.61,3.61,0,0,0-2.563,1.017v-4.95h-1.775V92.919H555.8V87.07a2.279,2.279,0,0,1,2.344-2.344,2.061,2.061,0,0,1,1.628.662,2.574,2.574,0,0,1,.553,1.719v5.813h1.757V87.161a4.379,4.379,0,0,0-.97-2.934A3.522,3.522,0,0,0,558.36,83.078Z" transform="translate(-480.643 -79.145)" fill="#db0962"/>
        <path id="Path_1905" data-name="Path 1905" d="M602.235,96.628a4.711,4.711,0,0,0-3.417,1.485,5.152,5.152,0,0,0-1.413,3.563,5.045,5.045,0,0,0,1.426,3.56,5.069,5.069,0,0,0,6.34.616,4.578,4.578,0,0,0,1.688-2.375l.049-.149h-1.868l-.031.066a2.834,2.834,0,0,1-1.044,1.226,3.006,3.006,0,0,1-1.639.438,3.166,3.166,0,0,1-3.109-2.868h7.866v-.153a5.585,5.585,0,0,0-1.495-3.968A4.677,4.677,0,0,0,602.235,96.628Zm0,1.63a3.092,3.092,0,0,1,2.871,2.322h-5.778A3.135,3.135,0,0,1,602.235,98.258Z" transform="translate(-514.267 -92.695)" fill="#db0962"/>
        <path id="Path_1906" data-name="Path 1906" d="M652.1,96.607a3.44,3.44,0,0,0-2.552,1.094v-.853h-1.721v9.6h1.775v-5.54a2.415,2.415,0,0,1,.778-1.907,2.828,2.828,0,0,1,1.881-.626c.075,0,.15,0,.225.006l.12.007V96.643l-.1-.012A3.425,3.425,0,0,0,652.1,96.607Z" transform="translate(-553.349 -92.679)" fill="#db0962"/>
        <path id="Path_1907" data-name="Path 1907" d="M676.7,96.628a4.694,4.694,0,0,0-3.438,1.488,5.192,5.192,0,0,0-1.392,3.579,5.076,5.076,0,0,0,1.393,3.529,4.774,4.774,0,0,0,6.881,0,5.082,5.082,0,0,0,1.386-3.529,5.2,5.2,0,0,0-1.385-3.579A4.69,4.69,0,0,0,676.7,96.628Zm0,8.412a2.894,2.894,0,0,1-2.14-.976,3.509,3.509,0,0,1-.9-2.37,3.63,3.63,0,0,1,.9-2.421,2.809,2.809,0,0,1,4.294,0,3.62,3.62,0,0,1,.9,2.421,3.5,3.5,0,0,1-.9,2.37A2.917,2.917,0,0,1,676.7,105.04Z" transform="translate(-571.981 -92.695)" fill="#db0962"/>
        <path id="Path_1908" data-name="Path 1908" d="M719.238,135.554H720.6v-1.4h-1.366Z" transform="translate(-608.693 -121.78)" fill="#db0962"/>
        <path id="Path_1909" data-name="Path 1909" d="M730.636,113.769a1.77,1.77,0,0,1,1.595,1.008l.032.061h1.263l-.05-.15a2.916,2.916,0,0,0-2.839-2.035,2.972,2.972,0,0,0-2.157.941,3.268,3.268,0,0,0-.894,2.257,3.23,3.23,0,0,0,.894,2.245,2.984,2.984,0,0,0,2.156.93,2.906,2.906,0,0,0,2.839-2.036l.049-.149h-1.263l-.031.063a1.749,1.749,0,0,1-2.9.41,2.169,2.169,0,0,1-.549-1.463,2.209,2.209,0,0,1,.55-1.475A1.753,1.753,0,0,1,730.636,113.769Z" transform="translate(-615.163 -105.116)" fill="#db0962"/>
        <path id="Path_1910" data-name="Path 1910" d="M759.077,112.654a2.975,2.975,0,0,0-2.179.943,3.289,3.289,0,0,0-.882,2.266,3.216,3.216,0,0,0,.883,2.235,3.026,3.026,0,0,0,4.362,0,3.22,3.22,0,0,0,.878-2.235,3.293,3.293,0,0,0-.877-2.266A2.974,2.974,0,0,0,759.077,112.654Zm0,5.258a1.766,1.766,0,0,1-1.306-.6,2.151,2.151,0,0,1-.549-1.452,2.227,2.227,0,0,1,.55-1.485,1.713,1.713,0,0,1,2.62,0,2.219,2.219,0,0,1,.551,1.484,2.145,2.145,0,0,1-.55,1.452A1.781,1.781,0,0,1,759.077,117.912Z" transform="translate(-637.198 -105.116)" fill="#db0962"/>
        <path id="Path_1911" data-name="Path 1911" d="M793.984,112.654a2.171,2.171,0,0,0-1.831.912,2.1,2.1,0,0,0-1.811-.912,2.006,2.006,0,0,0-1.445.6V112.8h-1.161v6.088h1.195v-3.7a1.509,1.509,0,0,1,.366-1.021,1.2,1.2,0,0,1,.908-.4,1.135,1.135,0,0,1,.9.354,1.484,1.484,0,0,1,.308,1v3.767H792.6v-3.7a1.519,1.519,0,0,1,.361-1.021,1.185,1.185,0,0,1,.9-.4,1.15,1.15,0,0,1,.917.353,1.491,1.491,0,0,1,.3,1v3.767h1.195v-3.744a2.638,2.638,0,0,0-.608-1.812A2.189,2.189,0,0,0,793.984,112.654Z" transform="translate(-661.783 -105.116)" fill="#db0962"/>
      </g>
    </g>
  </g>
</svg>
