<svg xmlns="http://www.w3.org/2000/svg" xmlns:xlink="http://www.w3.org/1999/xlink" width="245" height="45" viewBox="0 0 245 45">
  <defs>
    <clipPath id="clip-DESKTOP-weddinghero-com-partner-white">
      <rect width="245" height="45"/>
    </clipPath>
  </defs>
  <g id="DESKTOP-weddinghero-com-partner-white" clip-path="url(#clip-DESKTOP-weddinghero-com-partner-white)">
    <g id="Group_4176" data-name="Group 4176" transform="translate(-104.484 -1034.561)">
      <g id="Group_4176-2" data-name="Group 4176" transform="translate(104.483 1034.561)">
        <path id="Subtraction_23" data-name="Subtraction 23" d="M18266.322,6109a4.616,4.616,0,0,1-3.312-1.39l-17.658-17.947a4.712,4.712,0,0,1-1.014-5.049l7.014-17.663a4.664,4.664,0,0,1,4.328-2.951h21.656a4.641,4.641,0,0,1,4.328,2.951l7,17.635a4.7,4.7,0,0,1-1.047,5.077l-18.02,17.979A4.62,4.62,0,0,1,18266.322,6109Zm.148-22.582v0l3.91,8.549a2.259,2.259,0,0,0,2.162,1.583h.023a2.281,2.281,0,0,0,2.227-1.8l4.668-12.99a10.088,10.088,0,0,0-.023-7.528,2.274,2.274,0,1,0-4.213,1.712,5.641,5.641,0,0,1,.4,2.08,5.555,5.555,0,0,1-.4,2.079l-.01.026c-.008.021-.018.042-.027.061l-2.887,8.037-3.76-8.216a2.277,2.277,0,0,0-2.064-1.331,2.249,2.249,0,0,0-2.07,1.327l-3.793,8.262-2.9-8.083-.816-2.276a2.278,2.278,0,0,0-4.205-.2,2.251,2.251,0,0,0-.078,1.733l.816,2.276,4.787,13.325a2.271,2.271,0,0,0,2.043,1.505h.092a2.276,2.276,0,0,0,2.074-1.327l4.049-8.806Z" transform="translate(-18244.002 -6064)" fill="#fff" stroke="rgba(0,0,0,0)" stroke-miterlimit="10" stroke-width="1"/>
      </g>
      <g id="Group_4178" data-name="Group 4178" transform="translate(301.272 1069.119)">
        <path id="Path_1879" data-name="Path 1879" d="M685.231,1133.809h-2.353v3.58h-1.905v-10.018h4.215a3.023,3.023,0,0,1,3.306,3.233A3.076,3.076,0,0,1,685.231,1133.809Zm-2.353-4.662v2.916h2.3a1.458,1.458,0,0,0,0-2.916Z" transform="translate(-680.973 -1127.126)" fill="#fff"/>
        <path id="Path_1880" data-name="Path 1880" d="M712.405,1137.39h-1.934a2.8,2.8,0,0,1-.2-1.1v-1.529c0-.853-.4-1.242-1.3-1.242h-2.6v3.869h-1.905v-10.018h4.576c2.094,0,3.436,1.111,3.436,2.987a2.333,2.333,0,0,1-1.4,2.281,2.224,2.224,0,0,1,1.1,2.136v1.4A4.031,4.031,0,0,0,712.405,1137.39Zm-3.32-5.587a1.384,1.384,0,0,0,1.487-1.342c0-.332,0-1.314-1.53-1.314h-2.67v2.656Z" transform="translate(-695.656 -1127.126)" fill="#fff"/>
        <path id="Path_1881" data-name="Path 1881" d="M738.764,1131.928a4.91,4.91,0,1,1-4.893-5.211A4.97,4.97,0,0,1,738.764,1131.928Zm-1.92,0a3.009,3.009,0,1,0-2.973,3.421A3.223,3.223,0,0,0,736.844,1131.928Z" transform="translate(-710.967 -1126.717)" fill="#fff"/>
      </g>
      <g id="Group_4204" data-name="Group 4204" transform="translate(160.923 1045.57)">
        <path id="Path_1896" data-name="Path 1896" d="M239.555,106.11l-2.4-8.43H234.94l-2.4,8.432-2.4-8.432h-2.325l3.591,12.008h2.217l2.4-8.583,2.4,8.583h2.24l3.591-12.008h-2.325Z" transform="translate(-227.822 -92.467)" fill="#fff"/>
        <path id="Path_1897" data-name="Path 1897" d="M294.173,96.628a5.891,5.891,0,0,0-4.272,1.857,6.441,6.441,0,0,0-1.767,4.455,6.306,6.306,0,0,0,1.782,4.451,6.338,6.338,0,0,0,7.927.771,5.723,5.723,0,0,0,2.111-2.969l.061-.186H297.68l-.038.082a3.543,3.543,0,0,1-1.3,1.533,3.758,3.758,0,0,1-2.049.547,3.958,3.958,0,0,1-3.887-3.586h9.834v-.191a6.982,6.982,0,0,0-1.869-4.961A5.848,5.848,0,0,0,294.173,96.628Zm0,2.037a3.866,3.866,0,0,1,3.589,2.9h-7.224A3.92,3.92,0,0,1,294.173,98.665Z" transform="translate(-271.172 -91.711)" fill="#fff"/>
        <path id="Path_1898" data-name="Path 1898" d="M345.342,85.875a5.166,5.166,0,0,0-3.842-1.813,5.833,5.833,0,0,0-4.3,1.858,6.637,6.637,0,0,0,0,8.9,5.843,5.843,0,0,0,4.3,1.846,5.123,5.123,0,0,0,3.91-1.9v1.607h2.151V79.145h-2.22ZM341.5,94.6a3.6,3.6,0,0,1-2.691-1.23,4.443,4.443,0,0,1-1.1-2.975,4.515,4.515,0,0,1,1.105-3.016,3.584,3.584,0,0,1,2.691-1.236,3.662,3.662,0,0,1,2.7,1.237,4.458,4.458,0,0,1,1.144,3.014,4.391,4.391,0,0,1-1.143,2.974A3.677,3.677,0,0,1,341.5,94.6Z" transform="translate(-305.205 -79.145)" fill="#fff"/>
        <path id="Path_1899" data-name="Path 1899" d="M396.01,85.875a5.165,5.165,0,0,0-3.842-1.813,5.832,5.832,0,0,0-4.3,1.858,6.636,6.636,0,0,0,0,8.9,5.842,5.842,0,0,0,4.3,1.846,5.122,5.122,0,0,0,3.91-1.9v1.607h2.152V79.145h-2.22ZM392.169,94.6a3.6,3.6,0,0,1-2.692-1.23,4.444,4.444,0,0,1-1.1-2.975,4.516,4.516,0,0,1,1.105-3.016,3.585,3.585,0,0,1,2.691-1.236,3.662,3.662,0,0,1,2.7,1.237A4.46,4.46,0,0,1,396.01,90.4a4.392,4.392,0,0,1-1.143,2.974A3.678,3.678,0,0,1,392.169,94.6Z" transform="translate(-341.622 -79.145)" fill="#fff"/>
        <path id="Path_1900" data-name="Path 1900" d="M439.169,109.689h2.22V97.68h-2.22Z" transform="translate(-379.727 -92.467)" fill="#fff"/>
        <path id="Path_1901" data-name="Path 1901" d="M439.169,85.775h2.22V83.192h-2.22Z" transform="translate(-379.727 -82.054)" fill="#fff"/>
        <path id="Path_1902" data-name="Path 1902" d="M463.37,96.628a4.486,4.486,0,0,0-3.272,1.346v-1.05h-2.151v12.009h2.219v-7.313a2.85,2.85,0,0,1,2.931-2.931,2.573,2.573,0,0,1,2.027.836,3.206,3.206,0,0,1,.7,2.14v7.268h2.2v-7.2a5.471,5.471,0,0,0-1.213-3.668A4.4,4.4,0,0,0,463.37,96.628Z" transform="translate(-393.224 -91.711)" fill="#fff"/>
        <path id="Path_1903" data-name="Path 1903" d="M511.255,98.514a5.164,5.164,0,0,0-3.91-1.886,5.833,5.833,0,0,0-4.3,1.858,6.636,6.636,0,0,0,0,8.9,5.843,5.843,0,0,0,4.3,1.846,5.165,5.165,0,0,0,3.842-1.813v.829a4.834,4.834,0,0,1-.892,2.927,3.644,3.644,0,0,1-3.063,1.37,4.609,4.609,0,0,1-1.732-.333,3,3,0,0,1-1.644-1.585l-.037-.085h-2.3l.044.177a4.949,4.949,0,0,0,2,2.914,6.375,6.375,0,0,0,3.667,1.064A6.032,6.032,0,0,0,511.7,112.9a6.6,6.6,0,0,0,1.707-4.66V96.924h-2.151Zm-3.91,8.654a3.6,3.6,0,0,1-2.692-1.23,4.444,4.444,0,0,1-1.1-2.975,4.515,4.515,0,0,1,1.105-3.016,3.585,3.585,0,0,1,2.691-1.236,3.663,3.663,0,0,1,2.7,1.237,4.458,4.458,0,0,1,1.144,3.014,4.39,4.39,0,0,1-1.143,2.974A3.678,3.678,0,0,1,507.345,107.168Z" transform="translate(-424.405 -91.711)" fill="#fff"/>
        <path id="Path_1904" data-name="Path 1904" d="M559.446,84.062a4.514,4.514,0,0,0-3.2,1.272V79.145h-2.22V96.367h2.22V89.053a2.85,2.85,0,0,1,2.931-2.931,2.577,2.577,0,0,1,2.036.828A3.218,3.218,0,0,1,561.9,89.1v7.268h2.2v-7.2a5.475,5.475,0,0,0-1.213-3.668A4.4,4.4,0,0,0,559.446,84.062Z" transform="translate(-462.278 -79.145)" fill="#fff"/>
        <path id="Path_1905" data-name="Path 1905" d="M603.444,96.628a5.891,5.891,0,0,0-4.272,1.857,6.442,6.442,0,0,0-1.767,4.455,6.307,6.307,0,0,0,1.782,4.451,6.338,6.338,0,0,0,7.927.771,5.724,5.724,0,0,0,2.11-2.969l.061-.186H606.95l-.038.082a3.543,3.543,0,0,1-1.3,1.533,3.758,3.758,0,0,1-2.05.547,3.958,3.958,0,0,1-3.887-3.586H609.5v-.191a6.982,6.982,0,0,0-1.869-4.961A5.848,5.848,0,0,0,603.444,96.628Zm0,2.037a3.866,3.866,0,0,1,3.589,2.9h-7.224A3.92,3.92,0,0,1,603.444,98.665Z" transform="translate(-493.46 -91.711)" fill="#fff"/>
        <path id="Path_1906" data-name="Path 1906" d="M653.173,96.607a4.3,4.3,0,0,0-3.191,1.368V96.909h-2.151v12.009h2.22v-6.926a3.019,3.019,0,0,1,.973-2.384,3.536,3.536,0,0,1,2.352-.782c.093,0,.187,0,.282.008l.15.008V96.652l-.125-.015A4.279,4.279,0,0,0,653.173,96.607Z" transform="translate(-529.703 -91.696)" fill="#fff"/>
        <path id="Path_1907" data-name="Path 1907" d="M677.908,96.628a5.868,5.868,0,0,0-4.3,1.86,6.492,6.492,0,0,0-1.74,4.474,6.347,6.347,0,0,0,1.741,4.413,5.968,5.968,0,0,0,8.6,0,6.354,6.354,0,0,0,1.733-4.412,6.5,6.5,0,0,0-1.732-4.474A5.864,5.864,0,0,0,677.908,96.628Zm0,10.518a3.618,3.618,0,0,1-2.675-1.22,4.387,4.387,0,0,1-1.121-2.963,4.539,4.539,0,0,1,1.122-3.027,3.512,3.512,0,0,1,5.369,0,4.526,4.526,0,0,1,1.124,3.027,4.373,4.373,0,0,1-1.123,2.963A3.647,3.647,0,0,1,677.908,107.146Z" transform="translate(-546.981 -91.711)" fill="#fff"/>
        <path id="Path_1908" data-name="Path 1908" d="M719.238,135.9h1.708v-1.75h-1.708Z" transform="translate(-581.027 -118.683)" fill="#fff"/>
        <path id="Path_1909" data-name="Path 1909" d="M731.4,114.048a2.213,2.213,0,0,1,1.994,1.261l.04.077h1.579l-.063-.188a3.646,3.646,0,0,0-3.55-2.544,3.716,3.716,0,0,0-2.7,1.177,4.086,4.086,0,0,0-1.117,2.821,4.039,4.039,0,0,0,1.118,2.807,3.731,3.731,0,0,0,2.7,1.162,3.634,3.634,0,0,0,3.55-2.546l.061-.186h-1.579l-.039.079a2.186,2.186,0,0,1-3.625.512,2.712,2.712,0,0,1-.687-1.829,2.762,2.762,0,0,1,.687-1.844A2.192,2.192,0,0,1,731.4,114.048Z" transform="translate(-587.027 -103.23)" fill="#fff"/>
        <path id="Path_1910" data-name="Path 1910" d="M759.843,112.654a3.72,3.72,0,0,0-2.725,1.179,4.112,4.112,0,0,0-1.1,2.833,4.021,4.021,0,0,0,1.1,2.795,3.783,3.783,0,0,0,5.454,0,4.026,4.026,0,0,0,1.1-2.795,4.116,4.116,0,0,0-1.1-2.833A3.718,3.718,0,0,0,759.843,112.654Zm0,6.574a2.208,2.208,0,0,1-1.633-.745,2.69,2.69,0,0,1-.687-1.816,2.784,2.784,0,0,1,.688-1.856,2.142,2.142,0,0,1,3.276,0,2.774,2.774,0,0,1,.689,1.856,2.682,2.682,0,0,1-.688,1.816A2.227,2.227,0,0,1,759.843,119.228Z" transform="translate(-607.461 -103.23)" fill="#fff"/>
        <path id="Path_1911" data-name="Path 1911" d="M795.547,112.654a2.714,2.714,0,0,0-2.289,1.14,2.628,2.628,0,0,0-2.264-1.14,2.508,2.508,0,0,0-1.807.746v-.561h-1.451v7.612h1.494v-4.624a1.887,1.887,0,0,1,.458-1.276,1.5,1.5,0,0,1,1.136-.5,1.419,1.419,0,0,1,1.124.442,1.856,1.856,0,0,1,.384,1.251v4.71h1.48v-4.624a1.9,1.9,0,0,1,.452-1.277,1.482,1.482,0,0,1,1.128-.5,1.438,1.438,0,0,1,1.147.442,1.864,1.864,0,0,1,.376,1.251v4.71h1.494V115.77a3.3,3.3,0,0,0-.761-2.265A2.736,2.736,0,0,0,795.547,112.654Z" transform="translate(-630.26 -103.23)" fill="#fff"/>
      </g>
    </g>
  </g>
</svg>
