<svg xmlns="http://www.w3.org/2000/svg" xmlns:xlink="http://www.w3.org/1999/xlink" width="150" height="28" viewBox="0 0 150 28">
  <defs>
    <clipPath id="clip-zafaf-net-footer-logo-AR">
      <rect width="150" height="28"/>
    </clipPath>
  </defs>
  <g id="zafaf-net-footer-logo-AR" clip-path="url(#clip-zafaf-net-footer-logo-AR)">
    <g id="Group_2565" data-name="Group 2565" transform="translate(36.999 4)">
      <path id="Path_1199" data-name="Path 1199" d="M109.164,483.592a5.1,5.1,0,0,0,2-.356.539.539,0,0,0,.356-.524q0-.623-.573-.623a.711.711,0,0,0-.257.049,7.15,7.15,0,0,1-1.681.554q-.91.129-.909.445Q108.1,483.592,109.164,483.592Z" transform="translate(-98.111 -472.736)" fill="#db0962"/>
      <path id="Path_1200" data-name="Path 1200" d="M147.971,500.48a.547.547,0,0,0,.483-.279l.336-.544a.625.625,0,0,0,.1-.326.548.548,0,0,0-.188-.419.624.624,0,0,0-.435-.173.546.546,0,0,0-.484.287l-.336.54a.636.636,0,0,0-.1.324.546.546,0,0,0,.187.417A.622.622,0,0,0,147.971,500.48Z" transform="translate(-132.214 -487.202)" fill="#db0962"/>
      <path id="Path_1201" data-name="Path 1201" d="M49.153,508.428a.714.714,0,0,0-.445.217,3.184,3.184,0,0,1-2.175.83h-.01a.665.665,0,0,1-.672-.534q-.02-.069-.138-.979-.069-.534-.336-.534a1.023,1.023,0,0,0-.5.208A13.38,13.38,0,0,1,41.54,509.1a15.4,15.4,0,0,1-4.508.741,8.043,8.043,0,0,1-2.313-.316q-1.532-.455-1.532-1.4,0-1.809,6.6-3.1,1.038-.208,1.038-.494,0-.208-.613-.208a3.477,3.477,0,0,0-.425.03Q32,505.175,32,508.121a2.507,2.507,0,0,0,1.839,2.373,8.494,8.494,0,0,0,3.193.534,16.145,16.145,0,0,0,4.2-.613,17.625,17.625,0,0,0,3.51-1.315,1.577,1.577,0,0,0,1.779,1.562h.01a2.94,2.94,0,0,0,2.739-1.345,1.054,1.054,0,0,0,.168-.524Q49.439,508.428,49.153,508.428Z" transform="translate(-32 -492.046)" fill="#db0962"/>
      <path id="Path_1202" data-name="Path 1202" d="M171.591,541.534a.537.537,0,0,0-.445.237l-.237.307a.608.608,0,0,0-.119.356.617.617,0,0,0,.2.455.64.64,0,0,0,.46.2.546.546,0,0,0,.455-.237l.227-.316a.577.577,0,0,0,.129-.356.6.6,0,0,0-.208-.45A.667.667,0,0,0,171.591,541.534Z" transform="translate(-152.578 -524.381)" fill="#db0962"/>
      <path id="Path_1203" data-name="Path 1203" d="M350.351,414.047a1.01,1.01,0,0,0,.9-.53l.622-1.006a1.191,1.191,0,0,0,.183-.6,1.02,1.02,0,0,0-.346-.777,1.148,1.148,0,0,0-.8-.32,1,1,0,0,0-.893.534l-.622,1.006a1.155,1.155,0,0,0-.189.6,1.014,1.014,0,0,0,.347.776A1.152,1.152,0,0,0,350.351,414.047Z" transform="translate(-307.577 -410.81)" fill="#db0962"/>
      <path id="Path_1204" data-name="Path 1204" d="M206.615,472.081a2.616,2.616,0,0,0-2.058.96,3.05,3.05,0,0,0-.832,2.021q0,1.664,1.957,1.664a4.827,4.827,0,0,0,1.061-.128.357.357,0,0,1,.476.311,1.012,1.012,0,0,1-.11.7q-.987,1.865-6.584,3.182a31.912,31.912,0,0,1-6.786,1.006,17.512,17.512,0,0,1-7.169-1.171q-2.158-.988-2.158-2.414,0-1.134,1.975-2.378a22.033,22.033,0,0,1,8.047-2.6q3.091-.512,3.091-1.207,0-.658-3.256-.549a20.6,20.6,0,0,0-7.279,1.683q-4.773,2.012-4.774,5.048,0,2.89,3.439,4.408a20.049,20.049,0,0,0,8.084,1.372,31.4,31.4,0,0,0,7.133-.969q5.322-1.28,7.444-3.438a4.537,4.537,0,0,0,1.1-3.31,5.619,5.619,0,0,0-.366-2.067Q208.206,472.081,206.615,472.081Z" transform="translate(-162.506 -463.503)" fill="#db0962"/>
      <path id="Path_1205" data-name="Path 1205" d="M464.335,425.55a1.087,1.087,0,0,0,.966-.578l.673-1.087a1.25,1.25,0,0,0,.2-.651,1.1,1.1,0,0,0-.376-.838,1.248,1.248,0,0,0-.87-.345,1.092,1.092,0,0,0-.969.573l-.672,1.087a1.286,1.286,0,0,0-.2.653,1.1,1.1,0,0,0,.374.84A1.238,1.238,0,0,0,464.335,425.55Z" transform="translate(-406.526 -420.575)" fill="#db0962"/>
      <path id="Path_1206" data-name="Path 1206" d="M407.174,425.756q-.91-2.314-2.63-2.313a2.9,2.9,0,0,0-2.254,1.087,3.248,3.248,0,0,0-.87,2.155q0,1.78,2.1,1.78a6.154,6.154,0,0,0,1.167-.119q.514-.119.573.316a1.385,1.385,0,0,1-.158.751,4.257,4.257,0,0,1-2.709,1.76,13.631,13.631,0,0,1-3.974.593h-.02q-1.265,0-1.325-.573-.91-9.313-1.5-15.245-.1-.83-.85-.83a1.455,1.455,0,0,0-1.048.474,1.484,1.484,0,0,0-.415,1.226q1.186,9.234,1.483,14.731.138,2.59,3.658,2.59h.02a15.907,15.907,0,0,0,4.113-.554,8.516,8.516,0,0,0,3.875-2,4.792,4.792,0,0,0,1.186-3.559A5.923,5.923,0,0,0,407.174,425.756Z" transform="translate(-345.841 -414.553)" fill="#db0962"/>
      <path id="Path_1207" data-name="Path 1207" d="M513.477,495.534a1.436,1.436,0,0,0-.83-.475q-.475,0-1.384,1.819-1.186,2.353-8.423,4.647a27.214,27.214,0,0,0-3.223,1.147q-.316.178-.316.415,0,.712,1.5.712a21.516,21.516,0,0,0,6.426-1.344,13.157,13.157,0,0,0,3.322-1.522,9.534,9.534,0,0,0,2.768-2.709,3.46,3.46,0,0,0,.672-1.72A1.345,1.345,0,0,0,513.477,495.534Z" transform="translate(-437.982 -484.004)" fill="#db0962"/>
      <path id="Path_1208" data-name="Path 1208" d="M584.478,429.245a1.092,1.092,0,0,0,.969-.573l.672-1.087a1.29,1.29,0,0,0,.2-.653,1.1,1.1,0,0,0-.375-.84,1.239,1.239,0,0,0-.867-.346,1.087,1.087,0,0,0-.966.578l-.672,1.088a1.247,1.247,0,0,0-.2.651,1.1,1.1,0,0,0,.376.839A1.246,1.246,0,0,0,584.478,429.245Z" transform="translate(-510.901 -423.785)" fill="#db0962"/>
    </g>
  </g>
</svg>
