<svg xmlns="http://www.w3.org/2000/svg" xmlns:xlink="http://www.w3.org/1999/xlink" width="150" height="28" viewBox="0 0 150 28">
  <defs>
    <clipPath id="clip-weddinghero-ca-footer-logo">
      <rect width="150" height="28"/>
    </clipPath>
  </defs>
  <g id="weddinghero-ca-footer-logo" clip-path="url(#clip-weddinghero-ca-footer-logo)">
    <g id="Group_4208" data-name="Group 4208" transform="translate(6 4)">
      <path id="Path_1917" data-name="Path 1917" d="M293.751,105.2l-2.13-7.493h-1.972l-2.13,7.5-2.13-7.5h-2.066l3.192,10.674h1.971l2.13-7.629,2.13,7.629h1.991l3.192-10.674h-2.066Z" transform="translate(-283.322 -93.072)" fill="#db0962"/>
      <path id="Path_1918" data-name="Path 1918" d="M349,96.654a5.236,5.236,0,0,0-3.8,1.65,5.726,5.726,0,0,0-1.57,3.96,5.605,5.605,0,0,0,1.584,3.956,5.633,5.633,0,0,0,7.046.685,5.09,5.09,0,0,0,1.876-2.639l.054-.166h-2.076l-.034.073a3.148,3.148,0,0,1-1.16,1.363,3.34,3.34,0,0,1-1.822.486,3.518,3.518,0,0,1-3.456-3.187h8.742v-.17a6.208,6.208,0,0,0-1.661-4.41A5.2,5.2,0,0,0,349,96.654Zm0,1.811a3.436,3.436,0,0,1,3.191,2.58h-6.421A3.484,3.484,0,0,1,349,98.465Z" transform="translate(-328.557 -92.283)" fill="#db0962"/>
      <path id="Path_1919" data-name="Path 1919" d="M399.746,85.153a4.592,4.592,0,0,0-3.415-1.612,5.184,5.184,0,0,0-3.826,1.651,5.9,5.9,0,0,0,0,7.908,5.2,5.2,0,0,0,3.826,1.641,4.555,4.555,0,0,0,3.476-1.692v1.429h1.912V79.171h-1.973Zm-3.415,7.757a3.2,3.2,0,0,1-2.392-1.094,3.949,3.949,0,0,1-.982-2.645,4.014,4.014,0,0,1,.982-2.68,3.186,3.186,0,0,1,2.392-1.1,3.255,3.255,0,0,1,2.4,1.1,3.965,3.965,0,0,1,1.017,2.679,3.9,3.9,0,0,1-1.016,2.644A3.269,3.269,0,0,1,396.331,92.911Z" transform="translate(-364.068 -79.171)" fill="#db0962"/>
      <path id="Path_1920" data-name="Path 1920" d="M450.414,85.153A4.591,4.591,0,0,0,447,83.542a5.185,5.185,0,0,0-3.826,1.651,5.9,5.9,0,0,0,0,7.908A5.2,5.2,0,0,0,447,94.742a4.554,4.554,0,0,0,3.475-1.692v1.429h1.913V79.171h-1.973ZM447,92.911a3.2,3.2,0,0,1-2.392-1.094,3.949,3.949,0,0,1-.982-2.645,4.014,4.014,0,0,1,.982-2.68,3.186,3.186,0,0,1,2.392-1.1,3.255,3.255,0,0,1,2.4,1.1,3.964,3.964,0,0,1,1.017,2.679,3.9,3.9,0,0,1-1.016,2.644A3.269,3.269,0,0,1,447,92.911Z" transform="translate(-402.069 -79.171)" fill="#db0962"/>
      <path id="Path_1921" data-name="Path 1921" d="M494.667,85.514h1.973v-2.3h-1.973Z" transform="translate(-441.831 -82.206)" fill="#db0962"/>
      <path id="Path_1922" data-name="Path 1922" d="M494.667,108.38h1.973V97.706h-1.973Z" transform="translate(-441.831 -93.072)" fill="#db0962"/>
      <path id="Path_1923" data-name="Path 1923" d="M518.265,96.654a3.986,3.986,0,0,0-2.909,1.2v-.933h-1.912v10.674h1.973v-6.5a2.533,2.533,0,0,1,2.605-2.606,2.288,2.288,0,0,1,1.8.743,2.849,2.849,0,0,1,.621,1.9v6.46H522.4v-6.4a4.865,4.865,0,0,0-1.078-3.26A3.914,3.914,0,0,0,518.265,96.654Z" transform="translate(-455.913 -92.283)" fill="#db0962"/>
      <path id="Path_1924" data-name="Path 1924" d="M565.65,98.33a4.59,4.59,0,0,0-3.475-1.676,5.185,5.185,0,0,0-3.826,1.651,5.9,5.9,0,0,0,0,7.908,5.2,5.2,0,0,0,3.826,1.641,4.592,4.592,0,0,0,3.415-1.612v.736a4.3,4.3,0,0,1-.793,2.6,3.239,3.239,0,0,1-2.723,1.218,4.1,4.1,0,0,1-1.539-.3,2.671,2.671,0,0,1-1.461-1.409l-.033-.076h-2.045l.039.157a4.4,4.4,0,0,0,1.781,2.59,5.667,5.667,0,0,0,3.259.946,5.362,5.362,0,0,0,3.972-1.589,5.87,5.87,0,0,0,1.517-4.142V96.917H565.65Zm-3.475,7.693a3.2,3.2,0,0,1-2.393-1.094,3.95,3.95,0,0,1-.982-2.645,4.013,4.013,0,0,1,.982-2.681,3.186,3.186,0,0,1,2.392-1.1,3.256,3.256,0,0,1,2.4,1.1,3.965,3.965,0,0,1,1.017,2.679,3.9,3.9,0,0,1-1.016,2.644A3.27,3.27,0,0,1,562.174,106.023Z" transform="translate(-488.451 -92.283)" fill="#db0962"/>
      <path id="Path_1925" data-name="Path 1925" d="M614.341,83.542a4.013,4.013,0,0,0-2.848,1.13v-5.5H609.52V94.479h1.973v-6.5a2.533,2.533,0,0,1,2.605-2.605,2.291,2.291,0,0,1,1.81.736,2.858,2.858,0,0,1,.614,1.91v6.46h1.953v-6.4a4.865,4.865,0,0,0-1.079-3.26A3.914,3.914,0,0,0,614.341,83.542Z" transform="translate(-527.97 -79.171)" fill="#db0962"/>
      <path id="Path_1926" data-name="Path 1926" d="M658.27,96.654a5.236,5.236,0,0,0-3.8,1.65,5.725,5.725,0,0,0-1.57,3.96,5.606,5.606,0,0,0,1.584,3.956,5.632,5.632,0,0,0,7.046.685,5.085,5.085,0,0,0,1.876-2.639l.054-.166h-2.076l-.034.073a3.145,3.145,0,0,1-1.16,1.363,3.34,3.34,0,0,1-1.822.486,3.518,3.518,0,0,1-3.455-3.187h8.741v-.17A6.206,6.206,0,0,0,662,98.257,5.2,5.2,0,0,0,658.27,96.654Zm0,1.811a3.436,3.436,0,0,1,3.191,2.58H655.04A3.484,3.484,0,0,1,658.27,98.465Z" transform="translate(-560.508 -92.283)" fill="#db0962"/>
      <path id="Path_1927" data-name="Path 1927" d="M708.077,96.633a3.824,3.824,0,0,0-2.836,1.216V96.9h-1.912v10.674H705.3v-6.157a2.683,2.683,0,0,1,.865-2.119,3.143,3.143,0,0,1,2.091-.7q.124,0,.25.007l.134.007V96.673l-.112-.013A3.85,3.85,0,0,0,708.077,96.633Z" transform="translate(-598.327 -92.268)" fill="#db0962"/>
      <path id="Path_1928" data-name="Path 1928" d="M732.734,96.654a5.215,5.215,0,0,0-3.82,1.653,5.772,5.772,0,0,0-1.547,3.977,5.644,5.644,0,0,0,1.548,3.922,5.3,5.3,0,0,0,7.647,0,5.65,5.65,0,0,0,1.54-3.922,5.777,5.777,0,0,0-1.539-3.977A5.212,5.212,0,0,0,732.734,96.654Zm0,9.349a3.217,3.217,0,0,1-2.378-1.084,3.9,3.9,0,0,1-1-2.634,4.035,4.035,0,0,1,1-2.691,3.121,3.121,0,0,1,4.772,0,4.024,4.024,0,0,1,1,2.69,3.89,3.89,0,0,1-1,2.634A3.242,3.242,0,0,1,732.734,106Z" transform="translate(-616.356 -92.283)" fill="#db0962"/>
      <path id="Path_1929" data-name="Path 1929" d="M774.735,135.736h1.518v-1.556h-1.518Z" transform="translate(-651.882 -120.428)" fill="#db0962"/>
      <path id="Path_1930" data-name="Path 1930" d="M786.472,113.918a1.968,1.968,0,0,1,1.773,1.121l.035.068h1.4l-.056-.167a3.242,3.242,0,0,0-3.156-2.262,3.3,3.3,0,0,0-2.4,1.047,3.632,3.632,0,0,0-.993,2.508,3.589,3.589,0,0,0,.994,2.5,3.316,3.316,0,0,0,2.4,1.033,3.23,3.23,0,0,0,3.156-2.262l.054-.166h-1.4l-.035.07a1.939,1.939,0,0,1-1.772,1.119,1.959,1.959,0,0,1-1.451-.664,2.41,2.41,0,0,1-.61-1.625,2.456,2.456,0,0,1,.611-1.639A1.949,1.949,0,0,1,786.472,113.918Z" transform="translate(-658.143 -104.302)" fill="#db0962"/>
      <path id="Path_1931" data-name="Path 1931" d="M818.321,119.437a3.336,3.336,0,0,1-.181-1.015v-3.592a1.932,1.932,0,0,0-.708-1.566,3.216,3.216,0,0,0-2.049-.585,3.382,3.382,0,0,0-2.085.613,2.194,2.194,0,0,0-.862,1.657l-.008.134h1.359l.013-.112a1.034,1.034,0,0,1,.568-.841,2.649,2.649,0,0,1,2.144.03.616.616,0,0,1,.325.543.444.444,0,0,1-.082.272,1,1,0,0,1-.569.314,6.4,6.4,0,0,1-1.341.173,3.779,3.779,0,0,0-2.027.573,1.848,1.848,0,0,0-.749,1.59,1.9,1.9,0,0,0,.822,1.636,3.239,3.239,0,0,0,1.846.5,3.029,3.029,0,0,0,2.142-.736,1.906,1.906,0,0,0,.147.511l.034.073h1.33Zm-1.483-2.46a1.357,1.357,0,0,1-.63,1.166,2.633,2.633,0,0,1-1.432.367,2.006,2.006,0,0,1-1.007-.222.8.8,0,0,1-.283-.271.831.831,0,0,1,.186-1.026,2.4,2.4,0,0,1,1.327-.365,7.723,7.723,0,0,0,1.134-.139,2.394,2.394,0,0,0,.7-.261Z" transform="translate(-679.883 -104.302)" fill="#db0962"/>
    </g>
  </g>
</svg>
