<svg xmlns="http://www.w3.org/2000/svg" xmlns:xlink="http://www.w3.org/1999/xlink" width="196" height="40" viewBox="0 0 196 40">
  <defs>
    <clipPath id="clip-MOBIL-weddinghero-com-white">
      <rect width="196" height="40"/>
    </clipPath>
  </defs>
  <g id="MOBIL-weddinghero-com-white" clip-path="url(#clip-MOBIL-weddinghero-com-white)">
    <g id="Group_4205" data-name="Group 4205" transform="translate(-27.143 -38)">
      <g id="Group_4203" data-name="Group 4203" transform="translate(27.143 40)">
        <path id="Subtraction_21" data-name="Subtraction 21" d="M18576.965,6281.225a3.712,3.712,0,0,1-2.664-1.12l-14.215-14.448a3.8,3.8,0,0,1-.816-4.065l5.646-14.215a3.738,3.738,0,0,1,3.486-2.375h17.43a3.734,3.734,0,0,1,3.486,2.375l5.639,14.192a3.784,3.784,0,0,1-.846,4.088l-14.5,14.472A3.718,3.718,0,0,1,18576.965,6281.225Zm.123-18.182v0l3.145,6.882a1.732,1.732,0,0,0,.248.5,1.832,1.832,0,0,0,1.5.779h.014a1.825,1.825,0,0,0,1.793-1.456l3.756-10.454a8.134,8.134,0,0,0-.014-6.058,1.831,1.831,0,1,0-3.393,1.377,4.454,4.454,0,0,1,.322,1.671,4.387,4.387,0,0,1-.322,1.675l-.016.035-.014.035-2.328,6.468-3.023-6.613a1.832,1.832,0,0,0-3.328,0l-3.057,6.65-2.338-6.505-.658-1.83a1.829,1.829,0,1,0-3.443,1.237l.656,1.834,3.855,10.725a1.823,1.823,0,0,0,1.643,1.208l.082,0a1.84,1.84,0,0,0,1.664-1.066l3.258-7.092Z" transform="translate(-18559 -6245)" fill="#fff" stroke="rgba(0,0,0,0)" stroke-miterlimit="10" stroke-width="1"/>
      </g>
      <g id="Group_4204" data-name="Group 4204" transform="translate(72.577 48.863)">
        <path id="Path_1896" data-name="Path 1896" d="M237.267,104.466l-1.929-6.786h-1.786l-1.929,6.788-1.929-6.788h-1.871l2.891,9.667H232.5l1.929-6.909,1.929,6.909h1.8l2.891-9.667h-1.871Z" transform="translate(-227.822 -93.484)" fill="#fff"/>
        <path id="Path_1897" data-name="Path 1897" d="M293,96.628a4.742,4.742,0,0,0-3.439,1.495,5.185,5.185,0,0,0-1.422,3.586,5.076,5.076,0,0,0,1.435,3.583,5.1,5.1,0,0,0,6.381.62,4.607,4.607,0,0,0,1.7-2.39l.049-.15h-1.88l-.031.066a2.852,2.852,0,0,1-1.05,1.234,3.025,3.025,0,0,1-1.65.44,3.186,3.186,0,0,1-3.129-2.886h7.916v-.154a5.62,5.62,0,0,0-1.5-3.994A4.708,4.708,0,0,0,293,96.628Zm0,1.64a3.112,3.112,0,0,1,2.889,2.337H290.07A3.156,3.156,0,0,1,293,98.268Z" transform="translate(-274.48 -92.67)" fill="#fff"/>
        <path id="Path_1898" data-name="Path 1898" d="M343.42,84.563a4.158,4.158,0,0,0-3.092-1.459,4.7,4.7,0,0,0-3.465,1.5,5.342,5.342,0,0,0,0,7.162,4.7,4.7,0,0,0,3.464,1.486,4.123,4.123,0,0,0,3.147-1.532v1.294h1.732V79.145H343.42Zm-3.092,7.025a2.9,2.9,0,0,1-2.166-.991,3.576,3.576,0,0,1-.889-2.4,3.635,3.635,0,0,1,.89-2.427,2.886,2.886,0,0,1,2.166-.995,2.948,2.948,0,0,1,2.172,1,3.589,3.589,0,0,1,.921,2.426,3.534,3.534,0,0,1-.92,2.394A2.96,2.96,0,0,1,340.327,91.588Z" transform="translate(-311.11 -79.145)" fill="#fff"/>
        <path id="Path_1899" data-name="Path 1899" d="M394.088,84.563A4.158,4.158,0,0,0,391,83.1a4.7,4.7,0,0,0-3.465,1.5,5.342,5.342,0,0,0,0,7.162A4.7,4.7,0,0,0,391,93.246a4.123,4.123,0,0,0,3.147-1.532v1.294h1.732V79.145h-1.787ZM391,91.588a2.9,2.9,0,0,1-2.167-.991,3.578,3.578,0,0,1-.889-2.4,3.635,3.635,0,0,1,.889-2.427A2.886,2.886,0,0,1,391,84.78a2.948,2.948,0,0,1,2.172,1,3.59,3.59,0,0,1,.921,2.426,3.535,3.535,0,0,1-.92,2.394A2.961,2.961,0,0,1,391,91.588Z" transform="translate(-350.306 -79.145)" fill="#fff"/>
        <path id="Path_1900" data-name="Path 1900" d="M439.169,107.347h1.787V97.68h-1.787Z" transform="translate(-391.319 -93.484)" fill="#fff"/>
        <path id="Path_1901" data-name="Path 1901" d="M439.169,85.272h1.787v-2.08h-1.787Z" transform="translate(-391.319 -82.275)" fill="#fff"/>
        <path id="Path_1902" data-name="Path 1902" d="M462.312,96.628a3.611,3.611,0,0,0-2.634,1.083v-.845h-1.732v9.667h1.787v-5.887a2.294,2.294,0,0,1,2.36-2.36,2.071,2.071,0,0,1,1.632.673,2.581,2.581,0,0,1,.563,1.723v5.85h1.768v-5.8a4.4,4.4,0,0,0-.977-2.953A3.544,3.544,0,0,0,462.312,96.628Z" transform="translate(-405.845 -92.67)" fill="#fff"/>
        <path id="Path_1903" data-name="Path 1903" d="M509.319,98.146a4.157,4.157,0,0,0-3.147-1.518,4.7,4.7,0,0,0-3.465,1.5,5.342,5.342,0,0,0,0,7.162,4.7,4.7,0,0,0,3.464,1.486,4.158,4.158,0,0,0,3.092-1.459v.667a3.892,3.892,0,0,1-.718,2.356,2.933,2.933,0,0,1-2.466,1.1,3.71,3.71,0,0,1-1.394-.268,2.417,2.417,0,0,1-1.323-1.276l-.03-.068H501.48l.035.142a3.983,3.983,0,0,0,1.613,2.346,5.131,5.131,0,0,0,2.952.856,4.856,4.856,0,0,0,3.6-1.439,5.317,5.317,0,0,0,1.374-3.751V96.866h-1.732Zm-3.147,6.966a2.9,2.9,0,0,1-2.167-.991,3.578,3.578,0,0,1-.889-2.4,3.634,3.634,0,0,1,.889-2.427,2.886,2.886,0,0,1,2.166-.995,2.948,2.948,0,0,1,2.172,1,3.589,3.589,0,0,1,.921,2.426,3.534,3.534,0,0,1-.92,2.394A2.96,2.96,0,0,1,506.172,105.113Z" transform="translate(-439.406 -92.67)" fill="#fff"/>
        <path id="Path_1904" data-name="Path 1904" d="M558.388,83.1a3.634,3.634,0,0,0-2.579,1.024V79.145h-1.787V93.008h1.787V87.121a2.294,2.294,0,0,1,2.359-2.36,2.074,2.074,0,0,1,1.639.666,2.59,2.59,0,0,1,.556,1.73v5.85h1.768v-5.8a4.407,4.407,0,0,0-.977-2.953A3.544,3.544,0,0,0,558.388,83.1Z" transform="translate(-480.169 -79.145)" fill="#fff"/>
        <path id="Path_1905" data-name="Path 1905" d="M602.266,96.628a4.742,4.742,0,0,0-3.439,1.495,5.186,5.186,0,0,0-1.422,3.586,5.077,5.077,0,0,0,1.435,3.583,5.1,5.1,0,0,0,6.381.62,4.608,4.608,0,0,0,1.7-2.39l.049-.15h-1.88l-.031.066a2.852,2.852,0,0,1-1.05,1.234,3.025,3.025,0,0,1-1.65.44,3.186,3.186,0,0,1-3.129-2.886h7.916v-.154a5.621,5.621,0,0,0-1.5-3.994A4.707,4.707,0,0,0,602.266,96.628Zm0,1.64a3.112,3.112,0,0,1,2.89,2.337H599.34A3.155,3.155,0,0,1,602.266,98.268Z" transform="translate(-513.73 -92.67)" fill="#fff"/>
        <path id="Path_1906" data-name="Path 1906" d="M652.131,96.607a3.463,3.463,0,0,0-2.568,1.1V96.85h-1.732v9.667h1.787v-5.575a2.43,2.43,0,0,1,.783-1.919,2.847,2.847,0,0,1,1.893-.63c.075,0,.151,0,.227.006l.121.007V96.643l-.1-.012A3.445,3.445,0,0,0,652.131,96.607Z" transform="translate(-552.74 -92.654)" fill="#fff"/>
        <path id="Path_1907" data-name="Path 1907" d="M676.731,96.628a4.724,4.724,0,0,0-3.46,1.5,5.226,5.226,0,0,0-1.4,3.6,5.11,5.11,0,0,0,1.4,3.552,4.8,4.8,0,0,0,6.925,0,5.115,5.115,0,0,0,1.395-3.552,5.233,5.233,0,0,0-1.394-3.6A4.721,4.721,0,0,0,676.731,96.628Zm0,8.467a2.913,2.913,0,0,1-2.154-.982,3.532,3.532,0,0,1-.9-2.385,3.654,3.654,0,0,1,.9-2.437,2.827,2.827,0,0,1,4.322,0,3.644,3.644,0,0,1,.905,2.436,3.52,3.52,0,0,1-.9,2.385A2.935,2.935,0,0,1,676.731,105.095Z" transform="translate(-571.336 -92.67)" fill="#fff"/>
        <path id="Path_1908" data-name="Path 1908" d="M719.238,135.563h1.375v-1.409h-1.375Z" transform="translate(-607.98 -121.7)" fill="#fff"/>
        <path id="Path_1909" data-name="Path 1909" d="M730.656,113.777a1.782,1.782,0,0,1,1.6,1.015l.032.062h1.271l-.051-.151a2.935,2.935,0,0,0-2.857-2.048,2.991,2.991,0,0,0-2.171.947,3.289,3.289,0,0,0-.9,2.271,3.251,3.251,0,0,0,.9,2.26,3,3,0,0,0,2.17.936,2.925,2.925,0,0,0,2.858-2.049l.049-.15h-1.271l-.032.063a1.76,1.76,0,0,1-2.918.412,2.184,2.184,0,0,1-.553-1.472,2.223,2.223,0,0,1,.553-1.484A1.764,1.764,0,0,1,730.656,113.777Z" transform="translate(-614.438 -105.067)" fill="#fff"/>
        <path id="Path_1910" data-name="Path 1910" d="M759.1,112.654a3,3,0,0,0-2.193.949,3.31,3.31,0,0,0-.888,2.281,3.237,3.237,0,0,0,.888,2.25,3.045,3.045,0,0,0,4.39,0,3.241,3.241,0,0,0,.884-2.25,3.314,3.314,0,0,0-.883-2.281A2.993,2.993,0,0,0,759.1,112.654Zm0,5.292a1.778,1.778,0,0,1-1.314-.6,2.165,2.165,0,0,1-.553-1.462,2.241,2.241,0,0,1,.554-1.494,1.724,1.724,0,0,1,2.637,0,2.233,2.233,0,0,1,.555,1.494,2.159,2.159,0,0,1-.554,1.462A1.792,1.792,0,0,1,759.1,117.946Z" transform="translate(-636.431 -105.067)" fill="#fff"/>
        <path id="Path_1911" data-name="Path 1911" d="M794.024,112.654a2.184,2.184,0,0,0-1.843.918,2.115,2.115,0,0,0-1.823-.918,2.019,2.019,0,0,0-1.455.6V112.8h-1.168v6.128h1.2v-3.723a1.519,1.519,0,0,1,.369-1.027,1.211,1.211,0,0,1,.914-.4,1.142,1.142,0,0,1,.9.356,1.494,1.494,0,0,1,.31,1.007v3.791h1.191v-3.723a1.529,1.529,0,0,1,.363-1.028,1.193,1.193,0,0,1,.908-.4,1.157,1.157,0,0,1,.923.356,1.5,1.5,0,0,1,.3,1.007v3.791h1.2v-3.768a2.654,2.654,0,0,0-.612-1.824A2.2,2.2,0,0,0,794.024,112.654Z" transform="translate(-660.97 -105.067)" fill="#fff"/>
      </g>
    </g>
  </g>
</svg>
