<svg id="Group_4212" data-name="Group 4212" xmlns="http://www.w3.org/2000/svg" width="265" height="265" viewBox="0 0 265 265">
  <path id="Path_1770" data-name="Path 1770" d="M1514.32,628.811l-103.978-105.7a27.781,27.781,0,0,1-5.988-29.722l41.313-104.01A27.455,27.455,0,0,1,1471.156,372h127.538a27.455,27.455,0,0,1,25.488,17.377l41.242,103.838a27.783,27.783,0,0,1-6.166,29.905L1553.143,628.994A27.317,27.317,0,0,1,1514.32,628.811Z" transform="translate(-1402.39 -372)" fill="#a5a5a5"/>
  <path id="Path_1771" data-name="Path 1771" d="M1583.891,448.193a59.426,59.426,0,0,0-.117-44.33,13.4,13.4,0,1,0-24.83,10.07h0a32.684,32.684,0,0,1,0,24.5h0c-.068.168-.141.334-.2.506l-17.009,47.335-22.137-48.4a13.4,13.4,0,0,0-24.359-.018L1472.9,486.5l-17.1-47.581h0l-4.822-13.413a13.4,13.4,0,0,0-25.213,9.061l4.819,13.413h0l28.192,78.453a13.4,13.4,0,0,0,24.783,1.06l23.827-51.887,23.037,50.37a13.265,13.265,0,0,0,12.737,9.323h.134a13.391,13.391,0,0,0,13.109-10.628Z" transform="translate(-1375.095 -343.607)" fill="#fff"/>
</svg>
