<svg xmlns="http://www.w3.org/2000/svg" width="65" height="65" viewBox="0 0 65 65">
  <g id="Group_8310" data-name="Group 8310" transform="translate(-311.499 -311.498)">
    <path id="Subtraction_4" data-name="Subtraction 4" d="M23128,22428a31.909,31.909,0,1,1,12.457-2.516A31.792,31.792,0,0,1,23128,22428Zm-11.73-47.463a3.731,3.731,0,1,0,0,7.463h14.455l-17.094,17.094a3.733,3.733,0,0,0,2.639,6.377h20.268a10,10,0,0,0,3.941-.8,10.112,10.112,0,0,0,3.221-2.168,3.732,3.732,0,1,0-5.279-5.277,2.66,2.66,0,0,1-1.883.779h-11.258l17.094-17.1a3.73,3.73,0,0,0-2.639-6.369Z" transform="translate(-22784 -22052)" fill="#fff" stroke="rgba(0,0,0,0)" stroke-miterlimit="10" stroke-width="1"/>
  </g>
</svg>
