<svg xmlns="http://www.w3.org/2000/svg" xmlns:xlink="http://www.w3.org/1999/xlink" class="brand-logo" width="245" height="45" viewBox="0 0 245 45">
  <defs>
    <clipPath id="clip-DESKTOP-zafaf-net-partner-white-AR">
      <rect width="245" height="45"/>
    </clipPath>
  </defs>
  <g id="DESKTOP-zafaf-net-partner-white-AR" clip-path="url(#clip-DESKTOP-zafaf-net-partner-white-AR)">
    <g id="Group_4226" data-name="Group 4226" transform="translate(70.996 -359.582)">
      <g id="Group_4223" data-name="Group 4223" transform="translate(32.004 367.144)">
        <g id="Group_2660" data-name="Group 2660">
          <path id="Path_1293" data-name="Path 1293" d="M349.143,411.833a5.744,5.744,0,0,0,2.247-.4.606.606,0,0,0,.4-.59q0-.7-.645-.7a.8.8,0,0,0-.289.056,8.042,8.042,0,0,1-1.891.623q-1.023.145-1.023.5Q347.942,411.833,349.143,411.833Z" transform="translate(-336.709 -399.62)" fill="#fff"/>
          <path id="Path_1294" data-name="Path 1294" d="M364.093,418.654a.615.615,0,0,0,.543-.314l.378-.612a.707.707,0,0,0,.115-.366.616.616,0,0,0-.211-.471.7.7,0,0,0-.489-.194.614.614,0,0,0-.545.322l-.378.608a.715.715,0,0,0-.111.365.613.613,0,0,0,.211.469A.7.7,0,0,0,364.093,418.654Z" transform="translate(-346.367 -403.717)" fill="#fff"/>
          <path id="Path_1295" data-name="Path 1295" d="M337.282,423.519a.8.8,0,0,0-.5.244,3.582,3.582,0,0,1-2.447.934h-.011a.748.748,0,0,1-.756-.6q-.023-.078-.156-1.1-.078-.6-.378-.6a1.153,1.153,0,0,0-.567.234,15.047,15.047,0,0,1-3.748,1.646,17.316,17.316,0,0,1-5.071.834,9.06,9.06,0,0,1-2.6-.356q-1.725-.512-1.724-1.579,0-2.035,7.429-3.492,1.168-.233,1.168-.556,0-.234-.69-.233a3.922,3.922,0,0,0-.478.033q-8.764.935-8.764,4.249a2.82,2.82,0,0,0,2.069,2.669,9.552,9.552,0,0,0,3.592.6,18.165,18.165,0,0,0,4.727-.69,19.829,19.829,0,0,0,3.948-1.479,1.775,1.775,0,0,0,2,1.758h.011a3.307,3.307,0,0,0,3.081-1.513,1.187,1.187,0,0,0,.189-.59Q337.6,423.519,337.282,423.519Z" transform="translate(-317.986 -405.089)" fill="#fff"/>
          <path id="Path_1296" data-name="Path 1296" d="M373.523,433.543a.6.6,0,0,0-.5.267l-.267.345a.681.681,0,0,0-.133.4.694.694,0,0,0,.228.512.72.72,0,0,0,.517.222.614.614,0,0,0,.511-.267l.256-.356a.649.649,0,0,0,.145-.4.672.672,0,0,0-.234-.506A.751.751,0,0,0,373.523,433.543Z" transform="translate(-352.134 -414.246)" fill="#fff"/>
          <path id="Path_1297" data-name="Path 1297" d="M444.149,385.725a1.136,1.136,0,0,0,1.008-.6l.7-1.132a1.34,1.34,0,0,0,.205-.679,1.147,1.147,0,0,0-.39-.875,1.291,1.291,0,0,0-.9-.36,1.131,1.131,0,0,0-1,.6l-.7,1.132a1.3,1.3,0,0,0-.213.677,1.141,1.141,0,0,0,.391.873A1.3,1.3,0,0,0,444.149,385.725Z" transform="translate(-396.03 -382.083)" fill="#fff"/>
          <path id="Path_1298" data-name="Path 1298" d="M404.567,406.656a2.944,2.944,0,0,0-2.315,1.08,3.431,3.431,0,0,0-.936,2.274q0,1.872,2.2,1.872a5.412,5.412,0,0,0,1.193-.144.4.4,0,0,1,.535.35,1.14,1.14,0,0,1-.124.782q-1.111,2.1-7.407,3.58a35.894,35.894,0,0,1-7.634,1.132,19.7,19.7,0,0,1-8.065-1.317q-2.428-1.111-2.428-2.716,0-1.276,2.222-2.675a24.784,24.784,0,0,1,9.053-2.922q3.477-.575,3.477-1.358,0-.741-3.662-.617a23.17,23.17,0,0,0-8.189,1.893q-5.37,2.263-5.37,5.679,0,3.251,3.868,4.958a22.555,22.555,0,0,0,9.094,1.543,35.321,35.321,0,0,0,8.024-1.091q5.988-1.44,8.374-3.868a5.106,5.106,0,0,0,1.234-3.724,6.317,6.317,0,0,0-.412-2.325Q406.357,406.656,404.567,406.656Z" transform="translate(-354.945 -397.006)" fill="#fff"/>
          <path id="Path_1299" data-name="Path 1299" d="M489.084,390.445a1.223,1.223,0,0,0,1.087-.65l.756-1.224a1.405,1.405,0,0,0,.23-.732,1.233,1.233,0,0,0-.423-.943,1.4,1.4,0,0,0-.979-.389,1.229,1.229,0,0,0-1.09.645l-.756,1.223a1.448,1.448,0,0,0-.223.734,1.239,1.239,0,0,0,.421.945A1.393,1.393,0,0,0,489.084,390.445Z" transform="translate(-424.051 -384.849)" fill="#fff"/>
          <path id="Path_1300" data-name="Path 1300" d="M475.862,395.746q-1.023-2.6-2.958-2.6a3.265,3.265,0,0,0-2.536,1.223,3.655,3.655,0,0,0-.979,2.425q0,2,2.358,2a6.92,6.92,0,0,0,1.312-.133q.578-.134.645.356a1.561,1.561,0,0,1-.178.845q-.579,1.2-3.048,1.98a15.343,15.343,0,0,1-4.471.667h-.022q-1.424,0-1.49-.645-1.023-10.477-1.69-17.15-.112-.934-.957-.934a1.637,1.637,0,0,0-1.179.534,1.671,1.671,0,0,0-.467,1.379q1.335,10.388,1.669,16.571.155,2.914,4.115,2.914h.022a17.9,17.9,0,0,0,4.627-.623,9.582,9.582,0,0,0,4.36-2.246,5.393,5.393,0,0,0,1.334-4A6.663,6.663,0,0,0,475.862,395.746Z" transform="translate(-406.866 -383.143)" fill="#fff"/>
          <path id="Path_1301" data-name="Path 1301" d="M517.889,415.782a1.615,1.615,0,0,0-.934-.534q-.534,0-1.557,2.046-1.335,2.648-9.476,5.227a30.586,30.586,0,0,0-3.625,1.29q-.356.2-.356.467,0,.8,1.69.8a24.2,24.2,0,0,0,7.229-1.513,14.812,14.812,0,0,0,3.737-1.713,10.728,10.728,0,0,0,3.114-3.048,3.893,3.893,0,0,0,.756-1.935A1.513,1.513,0,0,0,517.889,415.782Z" transform="translate(-432.96 -402.812)" fill="#fff"/>
          <path id="Path_1302" data-name="Path 1302" d="M536.382,391.9a1.228,1.228,0,0,0,1.09-.645l.756-1.223a1.449,1.449,0,0,0,.222-.734,1.24,1.24,0,0,0-.421-.945,1.4,1.4,0,0,0-.976-.389,1.223,1.223,0,0,0-1.086.65l-.757,1.224a1.405,1.405,0,0,0-.23.732,1.233,1.233,0,0,0,.423.944A1.4,1.4,0,0,0,536.382,391.9Z" transform="translate(-453.611 -385.758)" fill="#fff"/>
        </g>
        <g id="Group_2661" data-name="Group 2661" transform="translate(0 25.806)">
          <path id="Path_1303" data-name="Path 1303" d="M325.7,457.688l.06.057.06-.056a4.2,4.2,0,0,0,.6-.721l.03-.043c.245.207.478.417.737.663l.06.057.06-.056a4.175,4.175,0,0,0,.6-.721l.04-.058-.048-.052a7.312,7.312,0,0,0-.887-.831l-.062-.049-.055.057a6.967,6.967,0,0,0-.615.739l-.017.024a6.778,6.778,0,0,0-.734-.672l-.062-.049-.054.057a7.021,7.021,0,0,0-.615.74l-.048.066.063.052C325.116,457.145,325.391,457.389,325.7,457.688Z" transform="translate(-322.212 -454.012)" fill="#fff"/>
          <path id="Path_1304" data-name="Path 1304" d="M325.686,461.832h-.131l-.026.032a6.159,6.159,0,0,0-.585.881l-.023.041.021.042c.2.391.391.775.531,1.1a2.359,2.359,0,0,1,.227.748l-.019.011h0a5.944,5.944,0,0,1-1,.31,11.425,11.425,0,0,1-2.608.328,5,5,0,0,1-2.409-.5,1.747,1.747,0,0,1-.961-1.6,3.7,3.7,0,0,1,.218-1.14l.025-.077-.455-.193-.037.071a3.948,3.948,0,0,0-.464,1.9,2.378,2.378,0,0,0,1.125,2.12,5.111,5.111,0,0,0,2.728.642,11.219,11.219,0,0,0,2.418-.307,6.89,6.89,0,0,0,1.784-.62l.019-.012.011-.018a2.363,2.363,0,0,0,.42-1.328,5.5,5.5,0,0,0-.78-2.387Z" transform="translate(-317.986 -457.722)" fill="#fff"/>
          <path id="Path_1305" data-name="Path 1305" d="M348.891,458.68l0,0a2.362,2.362,0,0,0-.044-3.018,8.33,8.33,0,0,0-1.393-1.4l.2-.408-1.169-.452c.813-.353,1.595-.667,2.354-.932.413-.145.841-.275,1.23-.375l.033-.008.019-.028c.208-.316.409-.633.58-.952l.029-.054-.093-.107-.038-.043-.055.018a33.919,33.919,0,0,0-4.146,1.542,1.4,1.4,0,0,0-.612.5h0a1.112,1.112,0,0,0-.189.536.928.928,0,0,0,.311.777h0a12.314,12.314,0,0,1,2.3,2.157,2.17,2.17,0,0,1,.513,1.1l-.015.035a1.16,1.16,0,0,1-.366.305,3.927,3.927,0,0,1-2.006.387h-.592a1.479,1.479,0,0,1-.462-.079.809.809,0,0,1-.362-.24.76.76,0,0,1-.156-.5V457c0-1.891,0-3.882-.123-5.57l0-.047-.094-.054-.051-.03-.047.037a7.03,7.03,0,0,0-.732.724l-.025.028,0,.038c.115,1.628.2,3.156.2,4.612a8.123,8.123,0,0,0,.064,1.336,1.561,1.561,0,0,0,.438.877h0a1.781,1.781,0,0,0,1.376.464h.392a3.93,3.93,0,0,0,2.74-.737Z" transform="translate(-334.043 -450.901)" fill="#fff"/>
          <path id="Path_1306" data-name="Path 1306" d="M377.755,456.153l.06.057.06-.056a4.156,4.156,0,0,0,.6-.721l.04-.058-.048-.052a7.307,7.307,0,0,0-.887-.832l-.062-.048-.054.057a7.06,7.06,0,0,0-.615.739l-.048.066.063.052C377.166,455.61,377.441,455.855,377.755,456.153Z" transform="translate(-354.744 -453.115)" fill="#fff"/>
          <path id="Path_1307" data-name="Path 1307" d="M376.648,460.351l.06.057.06-.056a4.171,4.171,0,0,0,.6-.721l.03-.043c.245.207.478.417.738.663l.06.057.06-.056a4.18,4.18,0,0,0,.6-.721l.04-.058-.048-.052a7.357,7.357,0,0,0-.886-.832l-.062-.049-.054.057a7.028,7.028,0,0,0-.615.74l-.017.024a6.736,6.736,0,0,0-.734-.672l-.062-.049-.055.057a7.089,7.089,0,0,0-.615.739l-.048.066.063.052C376.06,459.808,376.335,460.053,376.648,460.351Z" transform="translate(-354.052 -455.676)" fill="#fff"/>
          <path id="Path_1308" data-name="Path 1308" d="M401.032,472.977h0Z" transform="translate(-369.89 -464.699)" fill="#fff"/>
          <path id="Path_1309" data-name="Path 1309" d="M374.471,453.926l-.036-.06a3.481,3.481,0,0,1-.611-1.669v-.09l-.092-.066-.056-.04-.052.045a3.763,3.763,0,0,0-.43.43h0l0,0h0a.861.861,0,0,0-.251.57c0,.294.047.617.077.968.123,1.412.207,2.755.222,3.981a.788.788,0,0,1-.362.753,1.642,1.642,0,0,1-.818.2h-.269a1.129,1.129,0,0,1-.841-.28.727.727,0,0,1-.209-.509c0-2.352-.007-4.237-.154-6.047l0-.054-.089-.035-.054-.022-.752.76.025.423h0c.115,1.767.2,3.148.2,4.69a1.475,1.475,0,0,1-.091.582.527.527,0,0,1-.233.264,1.886,1.886,0,0,1-.849.227h-.323a1.735,1.735,0,0,1-.859-.175.607.607,0,0,1-.314-.567,4.253,4.253,0,0,1,.189-1.028l.017-.058-.08-.059-.049-.037-.664.445-.008.034c-.076.335-.121.477-.153.6a1.129,1.129,0,0,1-.41.688.808.808,0,0,1-.481.155.317.317,0,0,1-.26-.113.391.391,0,0,1-.083-.245,9.426,9.426,0,0,1,.206-1.152l.009-.045-.063-.063-.045-.045-.6.316-.011.035a4.689,4.689,0,0,1-.309.808.861.861,0,0,1-.266.321h0a.911.911,0,0,1-1.21-.1.949.949,0,0,1-.271-.643,1.785,1.785,0,0,1,.044-.44l.006-.023-.022-.076-.022-.079-.08.018a17.186,17.186,0,0,0-2.881.911l-.037.016-.012.039a6.881,6.881,0,0,0-.234.942l-.007.042.029.031a4.058,4.058,0,0,1,.384.479.776.776,0,0,1,.154.385.992.992,0,0,1-.182.528,4.326,4.326,0,0,1-.551.66,2.981,2.981,0,0,1-1.923.83,2.127,2.127,0,0,1-.9-.192l-.074-.033-.154.287-.036.068.063.045a3.481,3.481,0,0,0,1.91.762,2.486,2.486,0,0,0,1.761-.965l0,0,0,0a2.4,2.4,0,0,0,.612-1.511h0c.015-.323.031-.646.031-.972a1.97,1.97,0,0,0-.078-.518,12.782,12.782,0,0,1,1.6-.579,1.623,1.623,0,0,0,.369,1.011,1.257,1.257,0,0,0,.963.426,1.443,1.443,0,0,0,1.149-.581.851.851,0,0,0,.343.451,1,1,0,0,0,.53.13,1.773,1.773,0,0,0,1.325-.692,1.13,1.13,0,0,0,.5.483,2.488,2.488,0,0,0,1.116.209h.323a1.724,1.724,0,0,0,1.494-.755,1.307,1.307,0,0,0,.553.551,2.08,2.08,0,0,0,.965.2h.276a2.286,2.286,0,0,0,1-.24,1.637,1.637,0,0,0,.739-.931h0l0,0h0a4.647,4.647,0,0,0,.314-1.962c0-.843-.067-1.756-.1-2.624a4.527,4.527,0,0,0,.454-.37Z" transform="translate(-341.868 -451.589)" fill="#fff"/>
        </g>
      </g>
      <g id="Group_4224" data-name="Group 4224" transform="translate(128.716 359.582)">
        <path id="Subtraction_17" data-name="Subtraction 17" d="M18066.791,7761a22.42,22.42,0,1,1,8.758-1.768A22.373,22.373,0,0,1,18066.791,7761Zm-8.254-33.372a2.624,2.624,0,0,0,0,5.248h10.166l-12.018,12.017a2.626,2.626,0,0,0,1.852,4.485h14.252a7.1,7.1,0,0,0,2.777-.562,7.216,7.216,0,0,0,2.262-1.525,2.626,2.626,0,1,0-3.715-3.714,1.908,1.908,0,0,1-.594.4,1.82,1.82,0,0,1-.73.145h-7.914l12.021-12.017a2.625,2.625,0,0,0-1.855-4.481Z" transform="translate(-18044.289 -7716)" fill="#fff" stroke="rgba(0,0,0,0)" stroke-miterlimit="10" stroke-width="1"/>
      </g>
    </g>
  </g>
</svg>
