<svg xmlns="http://www.w3.org/2000/svg" version="1.0" width="253.55038452148438" height="257.10076904296875" preserveAspectRatio="xMidYMid meet" style=""><rect id="backgroundrect" width="100%" height="100%" x="0" y="0" fill="none" stroke="none" class="" style=""/>
    <metadata>
        Created by potrace 1.15, written by Peter Selinger 2001-2017
    </metadata>
    
<g class="currentLayer" style=""><title>Layer 1</title><g transform="translate(0,265) scale(0.10000000149011612,-0.10000000149011612) " fill="#e10963" stroke="none" id="svg_1" class="">
        <path d="M1166.976303416457,2574.4531723465716 c-343.21502746083786,-43.00159629724831 -625.6392013492764,-196.03668900216144 -828.2753799239408,-450.25200828883527 c-93.7192325907823,-117.62201340129685 -181.10608460110632,-284.56938726120205 -222.89979643213087,-427.4864573079391 c-35.461331250566275,-122.68102473038489 -48.1260924114828,-376.8963440170587 -26.595998437924706,-513.4896499024358 c77.25504308159081,-471.7528064374594 425.5359750067953,-851.1786561190622 894.1321379607068,-973.859680849447 c105.11751763560717,-27.824562309984202 154.51008616318163,-32.88357363907224 291.2895067010801,-34.14832647134425 c201.36970245857276,0 336.88264688037964,29.08931514225621 510.389874784936,111.29824923993681 c336.88264688037964,159.35885686627316 568.6477761251521,441.3987384629312 663.6334848320259,805.6475541572698 c35.461331250566275,135.328553053105 37.99428348274958,399.6618949979549 6.332380580458264,538.7847065478759 c-64.59028192067429,279.510375932114 -229.23217701258915,533.7256952187879 -457.1978779090866,706.9968332400531 c-106.38399375169882,79.67942843313658 -309.02017232636325,174.53589085353727 -440.73368839989513,204.8899588280655 c-110.18342209997378,26.559809477712193 -306.48722009418,41.7368434649763 -390.074643756229,31.61882080680023 zm612.97444018836,-631.1116633037326 c70.92266250113255,-34.14832647134425 102.58456540342387,-121.41627189811288 69.6561863850409,-187.18341917625736 c-7.598856696549916,-15.17703398726411 -159.57599062754824,-174.53589085353727 -338.14912299647125,-352.8660402038906 l-325.48436183555475,-326.30623072617834 l222.89979643213087,0 c216.5674158516726,0 222.89979643213087,1.2647528322720092 264.6935082631554,31.61882080680023 c62.05732968849098,45.53110196179233 141.8453250022651,44.26634912952032 189.9714174137479,-5.059011329088037 c91.18628035859899,-91.06220392358466 51.92552075975776,-202.36045316352147 -98.78513705514891,-275.716117435298 l-72.1891386172242,-35.41307930361626 l-424.26949889070363,-3.7942584968160276 c-282.42417388843853,-2.5295056645440184 -439.46721228380346,0 -471.1291151860948,10.118022658176073 c-64.59028192067429,18.971292484080138 -98.78513705514891,65.76714727814448 -98.78513705514891,136.593305885377 l0,58.17863028451242 l338.14912299647125,338.95375904889846 l339.4155991125629,338.95375904889846 l-282.42417388843853,0 c-301.4213156298133,0 -333.08321853210464,5.059011329088037 -374.8769303631292,65.76714727814448 c-26.595998437924706,36.677832135888266 -25.329522321833053,122.68102473038489 0,160.62360969854518 c43.06018794711619,60.70813594905644 68.38971026894924,63.23764161360046 559.7824433125105,64.50239444587247 c386.2752154079541,0 467.32968683781985,-2.5295056645440184 501.52454197229446,-18.971292484080138 z" id="svg_2"/>
    </g></g></svg>