<svg xmlns="http://www.w3.org/2000/svg" xmlns:xlink="http://www.w3.org/1999/xlink" width="150" height="28" viewBox="0 0 150 28">
  <defs>
    <clipPath id="clip-zafaf-net-partner-footer-logo-AR">
      <rect width="150" height="28"/>
    </clipPath>
  </defs>
  <g id="zafaf-net-partner-footer-logo-AR" clip-path="url(#clip-zafaf-net-partner-footer-logo-AR)">
    <g id="Group_4223" data-name="Group 4223" transform="translate(43.001 0)">
      <g id="Group_2660" data-name="Group 2660">
        <path id="Path_1293" data-name="Path 1293" d="M348.84,411.406a4.3,4.3,0,0,0,1.68-.3.454.454,0,0,0,.3-.441q0-.524-.482-.524a.6.6,0,0,0-.216.042,6.016,6.016,0,0,1-1.414.466q-.765.108-.765.374Q347.942,411.407,348.84,411.406Z" transform="translate(-339.54 -402.272)" fill="#db0962"/>
        <path id="Path_1294" data-name="Path 1294" d="M363.917,418.161a.46.46,0,0,0,.406-.235l.283-.457a.528.528,0,0,0,.086-.274.461.461,0,0,0-.158-.353.524.524,0,0,0-.366-.145.46.46,0,0,0-.408.241l-.283.454a.535.535,0,0,0-.083.273.458.458,0,0,0,.158.351A.522.522,0,0,0,363.917,418.161Z" transform="translate(-350.659 -406.989)" fill="#db0962"/>
        <path id="Path_1295" data-name="Path 1295" d="M332.419,422.352a.6.6,0,0,0-.374.183,2.679,2.679,0,0,1-1.83.7h-.008a.56.56,0,0,1-.566-.449q-.017-.058-.116-.823-.058-.449-.283-.449a.863.863,0,0,0-.424.175,11.257,11.257,0,0,1-2.8,1.231,12.951,12.951,0,0,1-3.793.624,6.776,6.776,0,0,1-1.946-.266q-1.29-.383-1.29-1.181,0-1.522,5.557-2.612.874-.174.874-.416,0-.175-.516-.174a2.93,2.93,0,0,0-.358.025q-6.555.7-6.555,3.178a2.109,2.109,0,0,0,1.547,2,7.145,7.145,0,0,0,2.687.449,13.585,13.585,0,0,0,3.535-.516,14.829,14.829,0,0,0,2.953-1.106,1.327,1.327,0,0,0,1.5,1.315h.008a2.474,2.474,0,0,0,2.3-1.131.888.888,0,0,0,.142-.441Q332.66,422.353,332.419,422.352Z" transform="translate(-317.986 -408.568)" fill="#db0962"/>
        <path id="Path_1296" data-name="Path 1296" d="M373.3,433.543a.452.452,0,0,0-.374.2l-.2.258a.509.509,0,0,0-.1.3.519.519,0,0,0,.171.383.538.538,0,0,0,.387.166.459.459,0,0,0,.383-.2l.191-.266a.486.486,0,0,0,.108-.3.5.5,0,0,0-.175-.379A.561.561,0,0,0,373.3,433.543Z" transform="translate(-357.298 -419.11)" fill="#db0962"/>
        <path id="Path_1297" data-name="Path 1297" d="M443.822,384.807a.85.85,0,0,0,.754-.446l.523-.846a1,1,0,0,0,.154-.508.858.858,0,0,0-.291-.654.966.966,0,0,0-.675-.269.846.846,0,0,0-.752.45l-.523.846a.97.97,0,0,0-.159.507.854.854,0,0,0,.292.653A.97.97,0,0,0,443.822,384.807Z" transform="translate(-407.832 -382.083)" fill="#db0962"/>
        <path id="Path_1298" data-name="Path 1298" d="M397.649,406.48a2.2,2.2,0,0,0-1.731.808,2.566,2.566,0,0,0-.7,1.7q0,1.4,1.647,1.4a4.047,4.047,0,0,0,.892-.108.3.3,0,0,1,.4.262.853.853,0,0,1-.093.585q-.831,1.569-5.54,2.678a26.846,26.846,0,0,1-5.709.847,14.731,14.731,0,0,1-6.032-.985q-1.816-.831-1.816-2.031,0-.954,1.662-2a18.536,18.536,0,0,1,6.771-2.185q2.6-.43,2.6-1.016,0-.554-2.739-.462a17.329,17.329,0,0,0-6.125,1.416q-4.016,1.693-4.017,4.247,0,2.432,2.893,3.709a16.87,16.87,0,0,0,6.8,1.154,26.416,26.416,0,0,0,6-.816q4.478-1.077,6.263-2.893A3.819,3.819,0,0,0,400,410a4.724,4.724,0,0,0-.308-1.739Q398.988,406.48,397.649,406.48Z" transform="translate(-360.535 -399.263)" fill="#db0962"/>
        <path id="Path_1299" data-name="Path 1299" d="M488.732,389.453a.915.915,0,0,0,.813-.486l.566-.915a1.051,1.051,0,0,0,.172-.548.922.922,0,0,0-.316-.705,1.049,1.049,0,0,0-.732-.291.919.919,0,0,0-.815.482l-.565.915a1.084,1.084,0,0,0-.167.549.927.927,0,0,0,.315.707A1.042,1.042,0,0,0,488.732,389.453Z" transform="translate(-440.092 -385.267)" fill="#db0962"/>
        <path id="Path_1300" data-name="Path 1300" d="M471.912,392.73q-.765-1.947-2.213-1.946a2.442,2.442,0,0,0-1.9.915,2.733,2.733,0,0,0-.732,1.814q0,1.5,1.764,1.5a5.176,5.176,0,0,0,.982-.1q.432-.1.482.266a1.167,1.167,0,0,1-.133.632,3.582,3.582,0,0,1-2.279,1.481,11.475,11.475,0,0,1-3.344.5h-.017q-1.065,0-1.115-.483-.765-7.836-1.264-12.827-.084-.7-.715-.7a1.225,1.225,0,0,0-.882.4,1.25,1.25,0,0,0-.349,1.031q1,7.769,1.248,12.394.116,2.18,3.078,2.18h.017a13.389,13.389,0,0,0,3.46-.466,7.167,7.167,0,0,0,3.261-1.68,4.033,4.033,0,0,0,1-2.995A4.983,4.983,0,0,0,471.912,392.73Z" transform="translate(-420.307 -383.303)" fill="#db0962"/>
        <path id="Path_1301" data-name="Path 1301" d="M513.869,415.647a1.208,1.208,0,0,0-.7-.4q-.4,0-1.164,1.531-1,1.98-7.087,3.91a22.877,22.877,0,0,0-2.712.965q-.266.15-.266.349,0,.6,1.264.6a18.1,18.1,0,0,0,5.407-1.131,11.077,11.077,0,0,0,2.795-1.281,8.023,8.023,0,0,0,2.329-2.279,2.912,2.912,0,0,0,.566-1.448A1.132,1.132,0,0,0,513.869,415.647Z" transform="translate(-450.348 -405.946)" fill="#db0962"/>
        <path id="Path_1302" data-name="Path 1302" d="M536.029,390.907a.918.918,0,0,0,.815-.482l.566-.915a1.083,1.083,0,0,0,.166-.549.928.928,0,0,0-.315-.707,1.045,1.045,0,0,0-.73-.291.915.915,0,0,0-.812.486l-.566.915a1.051,1.051,0,0,0-.172.547.922.922,0,0,0,.316.706A1.047,1.047,0,0,0,536.029,390.907Z" transform="translate(-474.121 -386.313)" fill="#db0962"/>
      </g>
      <g id="Group_2661" data-name="Group 2661" transform="translate(0 19.301)">
        <path id="Path_1303" data-name="Path 1303" d="M325.463,457.232l.045.042.045-.042a3.139,3.139,0,0,0,.446-.539l.022-.032c.183.155.358.312.551.5l.045.042.045-.042a3.127,3.127,0,0,0,.446-.539l.03-.043-.036-.039a5.472,5.472,0,0,0-.663-.622l-.046-.036-.041.043a5.216,5.216,0,0,0-.46.553l-.013.018a5.079,5.079,0,0,0-.549-.5l-.047-.036-.041.043a5.253,5.253,0,0,0-.46.553l-.036.05.047.039C325.023,456.826,325.229,457.008,325.463,457.232Z" transform="translate(-322.851 -454.482)" fill="#00aaa9"/>
        <path id="Path_1304" data-name="Path 1304" d="M323.745,461.828h-.1l-.02.024a4.608,4.608,0,0,0-.437.659l-.017.03.016.031c.149.293.293.579.4.825a1.765,1.765,0,0,1,.169.559l-.014.008h0a4.443,4.443,0,0,1-.748.232,8.543,8.543,0,0,1-1.95.245,3.738,3.738,0,0,1-1.8-.375,1.306,1.306,0,0,1-.719-1.2,2.768,2.768,0,0,1,.163-.853l.019-.057-.341-.145-.028.053a2.953,2.953,0,0,0-.347,1.421,1.779,1.779,0,0,0,.841,1.585,3.823,3.823,0,0,0,2.04.48,8.391,8.391,0,0,0,1.809-.229,5.154,5.154,0,0,0,1.334-.464l.014-.009.008-.014a1.767,1.767,0,0,0,.314-.993,4.112,4.112,0,0,0-.583-1.785Z" transform="translate(-317.986 -458.754)" fill="#00aaa9"/>
        <path id="Path_1305" data-name="Path 1305" d="M347.577,456.719l0,0a1.767,1.767,0,0,0-.033-2.257,6.23,6.23,0,0,0-1.042-1.047l.147-.305-.874-.338c.608-.264,1.193-.5,1.761-.7.309-.108.629-.206.92-.28l.025-.006.014-.021c.155-.236.306-.473.434-.712l.021-.04-.07-.08-.029-.033-.041.013a25.372,25.372,0,0,0-3.1,1.153,1.045,1.045,0,0,0-.457.375h0a.831.831,0,0,0-.141.4.694.694,0,0,0,.233.581h0a9.208,9.208,0,0,1,1.717,1.614,1.623,1.623,0,0,1,.384.823l-.011.026a.868.868,0,0,1-.274.228,2.937,2.937,0,0,1-1.5.289h-.443a1.105,1.105,0,0,1-.346-.059.605.605,0,0,1-.271-.18.569.569,0,0,1-.117-.374v-.328c0-1.414,0-2.9-.092-4.166l0-.035-.07-.04-.038-.022-.035.027a5.256,5.256,0,0,0-.548.541l-.019.021,0,.028c.086,1.218.149,2.36.149,3.449a6.079,6.079,0,0,0,.048,1,1.168,1.168,0,0,0,.327.656h0a1.332,1.332,0,0,0,1.029.347h.293a2.94,2.94,0,0,0,2.049-.551Z" transform="translate(-336.472 -450.901)" fill="#00aaa9"/>
        <path id="Path_1306" data-name="Path 1306" d="M377.513,455.722l.045.043.045-.042a3.106,3.106,0,0,0,.446-.539l.03-.043-.036-.039a5.465,5.465,0,0,0-.663-.622l-.047-.036-.041.043a5.283,5.283,0,0,0-.46.553l-.036.05.047.039C377.073,455.316,377.279,455.5,377.513,455.722Z" transform="translate(-360.303 -453.45)" fill="#00aaa9"/>
        <path id="Path_1307" data-name="Path 1307" d="M376.407,459.895l.045.042.045-.042a3.118,3.118,0,0,0,.446-.539l.022-.032c.183.155.358.312.552.5l.045.042.045-.042a3.127,3.127,0,0,0,.446-.539l.03-.043-.036-.039a5.5,5.5,0,0,0-.663-.622l-.047-.036-.041.043a5.261,5.261,0,0,0-.46.553l-.013.018a5.042,5.042,0,0,0-.549-.5l-.047-.036-.041.043a5.3,5.3,0,0,0-.46.553l-.036.05.047.039C375.967,459.489,376.173,459.672,376.407,459.895Z" transform="translate(-359.507 -456.398)" fill="#00aaa9"/>
        <path id="Path_1308" data-name="Path 1308" d="M401.031,472.977h0Z" transform="translate(-377.74 -466.785)" fill="#00aaa9"/>
        <path id="Path_1309" data-name="Path 1309" d="M369.865,453.441l-.027-.045a2.6,2.6,0,0,1-.457-1.248v-.067l-.069-.049-.042-.03-.039.034a2.819,2.819,0,0,0-.321.322h0a.644.644,0,0,0-.188.427c0,.22.035.462.058.724.092,1.056.155,2.061.166,2.978a.589.589,0,0,1-.271.563,1.228,1.228,0,0,1-.612.147h-.2a.845.845,0,0,1-.629-.209.544.544,0,0,1-.157-.381c0-1.759-.006-3.169-.115-4.523l0-.04-.066-.026-.04-.016-.563.569.019.317h0c.086,1.322.149,2.355.149,3.508a1.1,1.1,0,0,1-.068.435.394.394,0,0,1-.174.2,1.41,1.41,0,0,1-.635.17h-.241a1.3,1.3,0,0,1-.643-.131.454.454,0,0,1-.234-.424,3.179,3.179,0,0,1,.141-.769l.013-.044-.06-.044-.037-.028-.5.333-.006.026c-.057.25-.09.357-.114.451a.845.845,0,0,1-.307.515.6.6,0,0,1-.36.116.237.237,0,0,1-.194-.085.293.293,0,0,1-.062-.183,7.046,7.046,0,0,1,.154-.861l.006-.034-.047-.047-.034-.034-.452.236-.008.026a3.508,3.508,0,0,1-.231.6.645.645,0,0,1-.2.24h0a.681.681,0,0,1-.9-.077.71.71,0,0,1-.2-.481,1.336,1.336,0,0,1,.033-.329l0-.017-.016-.057-.017-.059-.06.013a12.852,12.852,0,0,0-2.155.681l-.028.012-.009.029a5.145,5.145,0,0,0-.175.7l-.005.031.021.023a3.04,3.04,0,0,1,.288.358.58.58,0,0,1,.115.288.742.742,0,0,1-.136.395,3.233,3.233,0,0,1-.412.494,2.23,2.23,0,0,1-1.438.621,1.591,1.591,0,0,1-.674-.144l-.056-.025-.115.215-.027.051.047.033a2.6,2.6,0,0,0,1.428.57,1.86,1.86,0,0,0,1.317-.722l0,0,0,0a1.8,1.8,0,0,0,.457-1.13h0c.012-.241.023-.484.023-.727a1.474,1.474,0,0,0-.058-.387,9.561,9.561,0,0,1,1.2-.433,1.214,1.214,0,0,0,.276.756.94.94,0,0,0,.72.319,1.08,1.08,0,0,0,.859-.434.637.637,0,0,0,.256.337.746.746,0,0,0,.4.1,1.326,1.326,0,0,0,.991-.518.845.845,0,0,0,.376.362,1.861,1.861,0,0,0,.835.156h.241a1.289,1.289,0,0,0,1.117-.565.977.977,0,0,0,.414.412,1.556,1.556,0,0,0,.722.153h.207a1.711,1.711,0,0,0,.748-.18,1.224,1.224,0,0,0,.553-.7h0v0h0a3.476,3.476,0,0,0,.235-1.467c0-.63-.05-1.313-.073-1.963a3.389,3.389,0,0,0,.34-.277Z" transform="translate(-345.479 -451.693)" fill="#00aaa9"/>
      </g>
    </g>
  </g>
</svg>
