<svg xmlns="http://www.w3.org/2000/svg" xmlns:xlink="http://www.w3.org/1999/xlink" class="brand-logo" width="245" height="45" viewBox="0 0 245 45">
  <defs>
    <clipPath id="clip-DESKTOP-zafaf-net-AR">
      <rect width="245" height="45"/>
    </clipPath>
  </defs>
  <g id="DESKTOP-zafaf-net-AR" clip-path="url(#clip-DESKTOP-zafaf-net-AR)">
    <g id="Group_2566" data-name="Group 2566" transform="translate(71 -359.582)">
      <g id="Group_2564" data-name="Group 2564" transform="translate(128.715 359.582)">
        <circle id="Ellipse_34" data-name="Ellipse 34" cx="22.5" cy="22.5" r="22.5" transform="translate(0 0)" fill="#db0962"/>
        <path id="Path_1198" data-name="Path 1198" d="M787.826,454.282a2.625,2.625,0,0,0-3.712,0h0a1.882,1.882,0,0,1-.6.4,1.859,1.859,0,0,1-.729.146h-7.913l12.019-12.019a2.625,2.625,0,0,0-1.856-4.481h-16.5a2.625,2.625,0,0,0,0,5.25H778.7L766.681,455.6a2.625,2.625,0,0,0,1.856,4.481h14.25a7.113,7.113,0,0,0,5.038-2.087A2.625,2.625,0,0,0,787.826,454.282Z" transform="translate(-754.287 -426.706)" fill="#fff"/>
      </g>
      <g id="Group_2565" data-name="Group 2565" transform="translate(32 367.144)">
        <path id="Path_1199" data-name="Path 1199" d="M109.3,483.78a5.741,5.741,0,0,0,2.247-.4.607.607,0,0,0,.4-.59q0-.7-.645-.7a.8.8,0,0,0-.289.056,8.043,8.043,0,0,1-1.891.623q-1.023.145-1.023.5Q108.1,483.779,109.3,483.78Z" transform="translate(-96.863 -471.567)" fill="#db0962"/>
        <path id="Path_1200" data-name="Path 1200" d="M148.048,500.7a.616.616,0,0,0,.543-.314l.378-.612a.7.7,0,0,0,.115-.366.617.617,0,0,0-.211-.471.7.7,0,0,0-.489-.194.614.614,0,0,0-.545.322l-.378.608a.715.715,0,0,0-.111.365.614.614,0,0,0,.211.47A.7.7,0,0,0,148.048,500.7Z" transform="translate(-130.322 -485.76)" fill="#db0962"/>
        <path id="Path_1201" data-name="Path 1201" d="M51.3,508.942a.8.8,0,0,0-.5.244,3.582,3.582,0,0,1-2.447.934h-.011a.748.748,0,0,1-.756-.6q-.023-.078-.156-1.1-.078-.6-.378-.6a1.151,1.151,0,0,0-.567.234,15.053,15.053,0,0,1-3.748,1.646,17.321,17.321,0,0,1-5.072.834,9.049,9.049,0,0,1-2.6-.356q-1.724-.512-1.724-1.579,0-2.035,7.43-3.492,1.168-.234,1.168-.556,0-.234-.69-.234a3.91,3.91,0,0,0-.478.033Q32,505.283,32,508.6a2.82,2.82,0,0,0,2.069,2.669,9.557,9.557,0,0,0,3.592.6,18.163,18.163,0,0,0,4.727-.69,19.828,19.828,0,0,0,3.948-1.479,1.775,1.775,0,0,0,2,1.757h.011a3.308,3.308,0,0,0,3.081-1.513,1.186,1.186,0,0,0,.189-.589Q51.619,508.942,51.3,508.942Z" transform="translate(-32 -490.512)" fill="#db0962"/>
        <path id="Path_1202" data-name="Path 1202" d="M171.691,541.534a.6.6,0,0,0-.5.267l-.267.345a.684.684,0,0,0-.133.4.694.694,0,0,0,.228.512.72.72,0,0,0,.517.222.614.614,0,0,0,.512-.267l.256-.356a.649.649,0,0,0,.145-.4.671.671,0,0,0-.234-.506A.75.75,0,0,0,171.691,541.534Z" transform="translate(-150.302 -522.237)" fill="#db0962"/>
        <path id="Path_1203" data-name="Path 1203" d="M350.5,414.452a1.136,1.136,0,0,0,1.008-.6l.7-1.132a1.34,1.34,0,0,0,.206-.679,1.148,1.148,0,0,0-.39-.875,1.291,1.291,0,0,0-.9-.36,1.131,1.131,0,0,0-1.005.6l-.7,1.132a1.3,1.3,0,0,0-.213.677,1.141,1.141,0,0,0,.391.872A1.3,1.3,0,0,0,350.5,414.452Z" transform="translate(-302.374 -410.81)" fill="#db0962"/>
        <path id="Path_1204" data-name="Path 1204" d="M209.665,472.158a2.943,2.943,0,0,0-2.315,1.08,3.431,3.431,0,0,0-.936,2.274q0,1.872,2.2,1.872a5.43,5.43,0,0,0,1.193-.144.4.4,0,0,1,.535.35,1.138,1.138,0,0,1-.124.782q-1.111,2.1-7.407,3.58a35.9,35.9,0,0,1-7.634,1.132,19.7,19.7,0,0,1-8.066-1.317q-2.428-1.111-2.428-2.716,0-1.275,2.222-2.675a24.787,24.787,0,0,1,9.053-2.922q3.477-.576,3.477-1.358,0-.741-3.663-.617a23.174,23.174,0,0,0-8.189,1.893q-5.37,2.264-5.37,5.679,0,3.252,3.868,4.959a22.555,22.555,0,0,0,9.094,1.543,35.326,35.326,0,0,0,8.024-1.091q5.988-1.44,8.374-3.868a5.1,5.1,0,0,0,1.235-3.724,6.321,6.321,0,0,0-.412-2.325Q211.455,472.159,209.665,472.158Z" transform="translate(-160.042 -462.508)" fill="#db0962"/>
        <path id="Path_1205" data-name="Path 1205" d="M464.49,425.987a1.223,1.223,0,0,0,1.086-.65l.757-1.223a1.406,1.406,0,0,0,.23-.732,1.234,1.234,0,0,0-.422-.943,1.4,1.4,0,0,0-.979-.389,1.229,1.229,0,0,0-1.09.645l-.756,1.223a1.447,1.447,0,0,0-.222.734,1.239,1.239,0,0,0,.421.945A1.393,1.393,0,0,0,464.49,425.987Z" transform="translate(-399.455 -420.391)" fill="#db0962"/>
        <path id="Path_1206" data-name="Path 1206" d="M408.915,427.085q-1.023-2.6-2.959-2.6a3.265,3.265,0,0,0-2.536,1.223,3.654,3.654,0,0,0-.979,2.425q0,2,2.358,2a6.927,6.927,0,0,0,1.312-.133q.578-.133.645.356a1.558,1.558,0,0,1-.178.845q-.579,1.2-3.047,1.98a15.335,15.335,0,0,1-4.471.667h-.022q-1.424,0-1.49-.645-1.023-10.477-1.691-17.15-.112-.934-.957-.934a1.637,1.637,0,0,0-1.179.534,1.67,1.67,0,0,0-.467,1.379q1.335,10.388,1.668,16.572.155,2.914,4.115,2.914h.022a17.9,17.9,0,0,0,4.627-.623,9.581,9.581,0,0,0,4.36-2.247,5.391,5.391,0,0,0,1.335-4A6.664,6.664,0,0,0,408.915,427.085Z" transform="translate(-339.916 -414.482)" fill="#db0962"/>
        <path id="Path_1207" data-name="Path 1207" d="M515.249,495.593a1.615,1.615,0,0,0-.934-.534q-.534,0-1.557,2.047-1.335,2.648-9.476,5.227a30.62,30.62,0,0,0-3.626,1.29q-.356.2-.356.467,0,.8,1.691.8a24.206,24.206,0,0,0,7.229-1.513,14.8,14.8,0,0,0,3.737-1.713,10.727,10.727,0,0,0,3.114-3.047,3.893,3.893,0,0,0,.756-1.935A1.513,1.513,0,0,0,515.249,495.593Z" transform="translate(-430.317 -482.622)" fill="#db0962"/>
        <path id="Path_1208" data-name="Path 1208" d="M584.633,429.682a1.229,1.229,0,0,0,1.09-.645l.756-1.223a1.451,1.451,0,0,0,.222-.734,1.239,1.239,0,0,0-.421-.945,1.394,1.394,0,0,0-.975-.389,1.223,1.223,0,0,0-1.087.65l-.757,1.223a1.4,1.4,0,0,0-.23.732,1.234,1.234,0,0,0,.423.943A1.4,1.4,0,0,0,584.633,429.682Z" transform="translate(-501.859 -423.54)" fill="#db0962"/>
      </g>
    </g>
  </g>
</svg>
