<svg xmlns="http://www.w3.org/2000/svg" width="20" height="16" viewBox="0 0 20 16"><defs><style>.a{fill:#000000;}</style></defs><path class="a" d="M4.125-30.5H2.875a.375.375,0,0,0-.375.375v1.25a.375.375,0,0,0,.375.375h1.25a.375.375,0,0,0,.375-.375v-1.25A.375.375,0,0,0,4.125-30.5Zm0-3H2.875a.375.375,0,0,0-.375.375v1.25a.375.375,0,0,0,.375.375h1.25a.375.375,0,0,0,.375-.375v-1.25A.375.375,0,0,0,4.125-33.5Zm0-3H2.875a.375.375,0,0,0-.375.375v1.25a.375.375,0,0,0,.375.375h1.25a.375.375,0,0,0,.375-.375v-1.25A.375.375,0,0,0,4.125-36.5Zm3,6H5.875a.375.375,0,0,0-.375.375v1.25a.375.375,0,0,0,.375.375h1.25a.375.375,0,0,0,.375-.375v-1.25A.375.375,0,0,0,7.125-30.5Zm0-3H5.875a.375.375,0,0,0-.375.375v1.25a.375.375,0,0,0,.375.375h1.25a.375.375,0,0,0,.375-.375v-1.25A.375.375,0,0,0,7.125-33.5Zm0-3H5.875a.375.375,0,0,0-.375.375v1.25a.375.375,0,0,0,.375.375h1.25a.375.375,0,0,0,.375-.375v-1.25A.375.375,0,0,0,7.125-36.5Zm6,3h-1.25a.375.375,0,0,0-.375.375v1.25a.375.375,0,0,0,.375.375h1.25a.375.375,0,0,0,.375-.375v-1.25A.375.375,0,0,0,13.125-33.5Zm0-3h-1.25a.375.375,0,0,0-.375.375v1.25a.375.375,0,0,0,.375.375h1.25a.375.375,0,0,0,.375-.375v-1.25A.375.375,0,0,0,13.125-36.5Zm0-3h-1.25a.375.375,0,0,0-.375.375v1.25a.375.375,0,0,0,.375.375h1.25a.375.375,0,0,0,.375-.375v-1.25A.375.375,0,0,0,13.125-39.5Zm4,9h-1.25a.375.375,0,0,0-.375.375v1.25a.375.375,0,0,0,.375.375h1.25a.375.375,0,0,0,.375-.375v-1.25A.375.375,0,0,0,17.125-30.5Zm0-3h-1.25a.375.375,0,0,0-.375.375v1.25a.375.375,0,0,0,.375.375h1.25a.375.375,0,0,0,.375-.375v-1.25A.375.375,0,0,0,17.125-33.5ZM19.25-36H16v-5.25a.75.75,0,0,0-.75-.75H9.75a.75.75,0,0,0-.75.75V-39H7v-2.75A.25.25,0,0,0,6.75-42h-.5a.25.25,0,0,0-.25.25V-39H4v-2.75A.25.25,0,0,0,3.75-42h-.5a.25.25,0,0,0-.25.25V-39H.75a.75.75,0,0,0-.75.75v12A.25.25,0,0,0,.25-26h.5A.25.25,0,0,0,1-26.25V-38h9v-3h5v6h4v8.75a.25.25,0,0,0,.25.25h.5a.25.25,0,0,0,.25-.25v-9A.75.75,0,0,0,19.25-36Z" transform="translate(0 42)"/></svg>