<svg xmlns="http://www.w3.org/2000/svg" width="24" height="24" viewBox="0 0 24 24">
    <path id="Path_525" data-name="Path 525" d="M509.382,535.8a6.75,6.75,0,1,1,0-13.5,6.728,6.728,0,0,1,4.776,1.986,8.232,8.232,0,0,0-5.526,7.764,8.091,8.091,0,0,0,.9,3.735c-.051,0-.1.015-.15.015Zm-2.719-17.073,1.276-.927h2.886l1.276.927-1.495,2.173a7.494,7.494,0,0,0-2.448,0Zm10.952,5.11a9.644,9.644,0,0,1,.844,1.669,6.819,6.819,0,1,1-3.317.075,6.651,6.651,0,0,1-2.611,9.4,5.241,5.241,0,0,0,1.081,1.14,8.236,8.236,0,0,0-1.453-14.834l2-2.917-2.85-2.073h-3.862l-2.85,2.073,2,2.917a8.245,8.245,0,0,0-5.473,7.76q0,.405.04.809t.119.8q.079.4.2.785t.273.762q.155.374.346.732t.416.694q.225.337.482.65t.543.6q.287.286.6.543t.65.482q.337.225.694.416t.732.346q.374.155.762.273t.785.2q.4.079.8.119t.809.04a7.951,7.951,0,0,0,1.078-.077,8.246,8.246,0,0,0,10.328,2.095,8.143,8.143,0,0,0,1.068-.685,8.248,8.248,0,0,0-4.241-14.8Z" transform="translate(-501.132 -516.304)" fill="#1a1a1a"/>
</svg>