<svg xmlns="http://www.w3.org/2000/svg" width="18.172" height="24" viewBox="0 0 18.172 24">
    <path id="Path_526" data-name="Path 526" d="M355.871,526.885c-6.591-9.442-7.571-10.192-7.571-13.216a7.415,7.415,0,0,1,2.218-5.3,7.622,7.622,0,0,1,10.708,0,7.413,7.413,0,0,1,2.217,5.3C363.442,516.692,362.463,517.441,355.871,526.885Zm0-22.216a9.043,9.043,0,0,0-9.086,9c0,3.629,1.276,4.643,8.152,14.516a1.142,1.142,0,0,0,1.867,0c6.875-9.873,8.152-10.887,8.152-14.516A9.043,9.043,0,0,0,355.871,504.669Zm3.653,6.154a2.524,2.524,0,0,0-3.3.226l-.349.343-.349-.343a2.526,2.526,0,0,0-3.3-.226,2.324,2.324,0,0,0-.174,3.489l3.425,3.352a.576.576,0,0,0,.8,0l3.425-3.352a2.331,2.331,0,0,0-.174-3.489Z" transform="translate(-346.785 -504.669)" fill="#1a1a1a"/>
</svg>