<svg xmlns="http://www.w3.org/2000/svg" width="24" height="19.2" viewBox="0 0 24 19.2"><path d="M23.7-4.725H20.4v-3.3a.3.3,0,0,0-.3-.3h-.6a.3.3,0,0,0-.3.3v3.3H15.9a.3.3,0,0,0-.3.3v.6a.3.3,0,0,0,.3.3h3.3v3.3a.3.3,0,0,0,.3.3h.6a.3.3,0,0,0,.3-.3v-3.3h3.3a.3.3,0,0,0,.3-.3v-.6A.3.3,0,0,0,23.7-4.725Zm-11.94,2.4c-1.076,0-1.594.6-3.36.6s-2.28-.6-3.36-.6A5.041,5.041,0,0,0,0,2.715v1.56a1.8,1.8,0,0,0,1.8,1.8H15a1.8,1.8,0,0,0,1.8-1.8V2.715A5.041,5.041,0,0,0,11.76-2.325Zm3.84,6.6a.6.6,0,0,1-.6.6H1.8a.6.6,0,0,1-.6-.6V2.715a3.843,3.843,0,0,1,3.84-3.84c.735,0,1.466.6,3.36.6s2.625-.6,3.36-.6a3.843,3.843,0,0,1,3.84,3.84Zm-7.2-7.8a4.8,4.8,0,0,0,4.8-4.8,4.8,4.8,0,0,0-4.8-4.8,4.8,4.8,0,0,0-4.8,4.8A4.8,4.8,0,0,0,8.4-3.525Zm0-8.4a3.606,3.606,0,0,1,3.6,3.6,3.606,3.606,0,0,1-3.6,3.6,3.606,3.606,0,0,1-3.6-3.6A3.606,3.606,0,0,1,8.4-11.925Z" transform="translate(0 13.125)" fill="#1a1a1a"/></svg>