<?xml version="1.0" standalone="no"?>
<!DOCTYPE svg PUBLIC "-//W3C//DTD SVG 20010904//EN"
        "http://www.w3.org/TR/2001/REC-SVG-20010904/DTD/svg10.dtd">
<svg version="1.0" xmlns="http://www.w3.org/2000/svg"
     width="222.000000pt" height="246.000000pt" viewBox="0 0 222.000000 246.000000"
     preserveAspectRatio="xMidYMid meet">
    <metadata>
        Created by potrace 1.15, written by Peter Selinger 2001-2017
    </metadata>
    <g transform="translate(0.000000,246.000000) scale(0.100000,-0.100000)"
       fill="#000000" stroke="none">
        <path d="M1000 2204 c-271 -34 -494 -155 -654 -356 -74 -93 -143 -225 -176
-338 -28 -97 -38 -298 -21 -406 61 -373 336 -673 706 -770 83 -22 122 -26 230
-27 159 0 266 23 403 88 266 126 449 349 524 637 28 107 30 316 5 426 -51 221
-181 422 -361 559 -84 63 -244 138 -348 162 -87 21 -242 33 -308 25z m484
-499 c56 -27 81 -96 55 -148 -6 -12 -126 -138 -267 -279 l-257 -258 176 0
c171 0 176 1 209 25 49 36 112 35 150 -4 72 -72 41 -160 -78 -218 l-57 -28
-335 -3 c-223 -2 -347 0 -372 8 -51 15 -78 52 -78 108 l0 46 267 268 268 268
-223 0 c-238 0 -263 4 -296 52 -21 29 -20 97 0 127 34 48 54 50 442 51 305 0
369 -2 396 -15z"/>
    </g>
</svg>
