<?xml version="1.0" standalone="no"?>
<!DOCTYPE svg PUBLIC "-//W3C//DTD SVG 1.1//EN" "http://www.w3.org/Graphics/SVG/1.1/DTD/svg11.dtd" >
<svg xmlns="http://www.w3.org/2000/svg">
<metadata>Generated by IcoMoon</metadata>
<defs>
<font id="dugun-icons" horiz-adv-x="1024">
<font-face units-per-em="1024" ascent="896" descent="-128" />
<missing-glyph horiz-adv-x="1024" />
<glyph unicode="&#x20;" horiz-adv-x="0" d="" />
<glyph unicode="&#xe900;" glyph-name="show-more-custom-regular" d="M512 896c-282.77 0-512-229.23-512-512v0c0-282.77 229.23-512 512-512v0c282.77 0 512 229.23 512 512v0c0 282.77-229.23 512-512 512v0zM957.952 384c0-0.013 0-0.028 0-0.043 0-246.269-199.64-445.909-445.909-445.909-0.015 0-0.030 0-0.045 0h0.002c-0.013 0-0.028 0-0.043 0-246.269 0-445.909 199.64-445.909 445.909 0 0.015 0 0.030 0 0.045v-0.002c0 0.013 0 0.028 0 0.043 0 246.269 199.64 445.909 445.909 445.909 0.015 0 0.030 0 0.045 0h-0.002c0.013 0 0.028 0 0.043 0 246.269 0 445.909-199.64 445.909-445.909 0-0.015 0-0.030 0-0.045v0.002zM529.579 205.227l237.397 237.44c4.503 4.489 7.289 10.698 7.289 17.557s-2.786 13.068-7.289 17.557l-14.678 14.678c-4.489 4.503-10.698 7.289-17.557 7.289s-13.068-2.786-17.557-7.289l-0.001-0.001-205.227-205.611-205.397 205.525c-4.489 4.503-10.698 7.289-17.557 7.289s-13.068-2.786-17.557-7.289l-14.678-14.678c-4.503-4.489-7.289-10.698-7.289-17.557s2.786-13.068 7.289-17.557l237.484-237.569c4.532-4.389 10.717-7.094 17.534-7.094 6.924 0 13.196 2.791 17.753 7.309l-0.002-0.002z" />
<glyph unicode="&#xe901;" glyph-name="filters-custom-regular" horiz-adv-x="1465" d="M1442.050 146.64h-251.74v114.42c0 0.046 0 0.1 0 0.154 0 37.856-30.688 68.544-68.544 68.544-0.054 0-0.109 0-0.163 0h-137.312c-0.046 0-0.1 0-0.154 0-37.856 0-68.544-30.688-68.544-68.544 0-0.054 0-0.109 0-0.163v0.008-114.42h-892.694c-12.775 0-23.131-10.356-23.131-23.131v0-45.799c0-12.775 10.356-23.131 23.131-23.131v0h892.694v-113.958c0-0.023 0-0.050 0-0.077 0-37.856 30.688-68.544 68.544-68.544 0.054 0 0.108 0 0.163 0h137.312c0.046 0 0.1 0 0.154 0 37.856 0 68.544 30.688 68.544 68.544 0 0.027 0 0.054 0 0.082v-0.004 114.42h251.74c12.775 0 23.131 10.356 23.131 23.131v0 45.799c-0.259 12.574-10.514 22.668-23.126 22.668-0.002 0-0.003 0-0.005 0v0zM1442.050 712.881h-709.344v114.42c0 0.046 0 0.1 0 0.154 0 37.856-30.688 68.544-68.544 68.544-0.054 0-0.109 0-0.163 0h-137.312c-0.046 0-0.1 0-0.154 0-37.856 0-68.544-30.688-68.544-68.544 0-0.054 0-0.109 0-0.163v0.008-114.42h-434.859c-12.775 0-23.131-10.356-23.131-23.131v0-45.799c0-12.775 10.356-23.131 23.131-23.131v0h434.859v-114.42c0-0.023 0-0.050 0-0.077 0-37.856 30.688-68.544 68.544-68.544 0.054 0 0.108 0 0.163 0h137.312c0.046 0 0.1 0 0.154 0 37.856 0 68.544 30.688 68.544 68.544 0 0.027 0 0.054 0 0.082v-0.004 114.42h709.344c12.775 0 23.131 10.356 23.131 23.131v0 45.799c0 12.775-10.356 23.131-23.131 23.131v0z" />
<glyph unicode="&#xe902;" glyph-name="bolt-custom-regular" horiz-adv-x="704" d="M694.818 472.542c-7.699 9.405-18.334 16.15-30.494 18.842l-0.363 0.067c-9.194 2.225-19.75 3.501-30.604 3.501-0.809 0-1.616-0.007-2.422-0.021l0.121 0.002h-0.341c-68.676 0-137.284-0.546-205.892-0.751q24.986 101.035 50.176 202.069v0c10.24 41.438 20.48 83.081 30.583 125.065v0 0c1.982 6.76 3.259 14.571 3.545 22.634l0.005 0.167c0.002 0.171 0.003 0.373 0.003 0.576 0 11.416-3.964 21.907-10.59 30.171l0.074-0.095c-7.586 8.804-17.711 15.228-29.234 18.143l-0.394 0.084c-5.755 1.671-12.373 2.664-19.214 2.73h-0.037c-0.016 0-0.035 0-0.054 0-14.011 0-26.893-4.835-37.068-12.928l0.122 0.093c-6.59-5.393-12.252-11.575-16.942-18.473l-0.193-0.301-1.57-1.843q-188.484-248.491-376.695-496.845c-9.952-11.474-16.346-26.274-17.33-42.535l-0.010-0.2c0-0.074-0.001-0.162-0.001-0.25 0-10.212 3.413-19.627 9.16-27.166l-0.080 0.109c7.683-9.393 18.293-16.135 30.425-18.842l0.364-0.068c9.162-2.226 19.681-3.502 30.498-3.502 0.822 0 1.643 0.007 2.461 0.022l-0.123-0.002h0.546c68.676 0 137.284 0.546 205.824 0.683q-24.917-100.966-50.039-202.001v0c-10.24-41.438-20.48-83.081-30.652-125.065v0c-1.981-6.76-3.258-14.57-3.545-22.633l-0.005-0.168c-0.003-0.185-0.004-0.404-0.004-0.623 0-11.401 3.964-21.876 10.59-30.122l-0.073 0.094c7.559-8.839 17.695-15.273 29.24-18.146l0.388-0.082c5.754-1.72 12.372-2.738 19.218-2.799h0.033c0.044 0 0.097 0 0.149 0 13.98 0 26.831 4.836 36.971 12.926l-0.119-0.092c6.905 5.731 12.839 12.294 17.746 19.605l0.208 0.329 1.229 1.707q188.143 247.945 376.149 496.026v0c9.902 11.519 16.266 26.333 17.261 42.599l0.010 0.204c0 0.068 0.001 0.147 0.001 0.227 0 10.142-3.387 19.493-9.092 26.984l0.080-0.109zM438.135 814.694c-8.26-34.133-16.725-68.267-25.259-102.946v0q-27.307-109.636-54.613-219.273v0c-1.486-6.581-2.856-14.929-3.793-23.408l-0.099-1.099-5.53-35.635 36.045-1.161c10.718-0.341 20.48-1.092 31.881-1.092h1.092c70.042 0 140.015 0.546 209.783 0.751q-180.907-238.933-361.813-477.321c8.192 34.133 16.657 68.267 25.122 102.81v0q27.307 109.227 54.613 219.204v0c2.458 10.103 2.799 17.067 3.959 24.576l5.257 35.294-35.635 1.434c-11.332 0.478-21.572 1.161-33.041 1.161v0c-69.973 0-139.878-0.614-209.715-0.751q180.702 238.66 361.745 477.389z" />
<glyph unicode="&#xe903;" glyph-name="dollar-budget-custom-regular" horiz-adv-x="1199" d="M1160 237.333c-19.847 17.599-46.118 28.348-74.899 28.348-27.335 0-52.405-9.696-71.96-25.835l0.192 0.154-128-104c-3.508-3.222-8.177-5.23-13.313-5.333h-85.354c7.435 14.787 11.789 32.225 11.789 50.679 0 63.417-51.41 114.827-114.827 114.827-2.215 0-4.415-0.063-6.598-0.186l0.303 0.014h-301.333c-0.312 0.002-0.681 0.003-1.050 0.003-44.908 0-86.303-15.037-119.425-40.351l-79.525-58.318h-160c-8.59-0.587-15.413-7.41-15.997-15.947l-0.003-0.053v-32c0.61-8.58 7.42-15.39 15.945-15.997l0.055-0.003h184l98.667 74.667c22.266 16.035 49.909 25.914 79.82 26.663l0.18 0.004h306.667c27.982 0 50.667-22.684 50.667-50.667s-22.684-50.667-50.667-50.667v0h-184c-17.673 0-32-14.327-32-32s14.327-32 32-32h376c21.065 0.518 40.417 7.435 56.298 18.871l-0.298-0.204 128 101.333c8.021 6.241 18.238 10.006 29.333 10.006s21.312-3.765 29.441-10.087l-0.108 0.081c9.389-7.515 15.35-18.974 15.35-31.825 0-11.609-4.864-22.082-12.666-29.491l-0.018-0.017-5.333-5.333-210.667-168c-14.272-11.662-32.696-18.729-52.77-18.729-1.136 0-2.266 0.023-3.391 0.067l0.162-0.005h-834.667c-8.59-0.587-15.413-7.41-15.997-15.947l-0.003-0.053v-32c0.61-8.58 7.42-15.39 15.945-15.997l0.055-0.003h834.667c36.544 0.558 69.951 13.54 96.292 34.896l-0.292-0.229 210.667 168c25.794 20.964 42.141 52.69 42.141 88.233 0 26.123-8.83 50.184-23.669 69.361l0.194-0.261c-1.22-0.357-2.622-0.563-4.072-0.563-4.847 0-9.157 2.297-11.902 5.861l-0.026 0.035zM722.667 565.333c-11.654-41.833-49.416-72.016-94.228-72.016-0.623 0-1.245 0.006-1.865 0.017l0.093-0.001h-2.667v-42.667c0.015-0.23 0.024-0.499 0.024-0.77 0-6.951-5.635-12.587-12.587-12.587-0.271 0-0.54 0.009-0.807 0.025l0.036-0.002h-29.333c-0.23-0.015-0.499-0.024-0.77-0.024-6.951 0-12.587 5.635-12.587 12.587 0 0.271 0.009 0.54 0.025 0.807l-0.002-0.036v42.667h-2.667c-1.183-0.044-2.573-0.069-3.969-0.069-28.021 0-53.681 10.107-73.534 26.875l0.169-0.139c-3.879 2.544-6.404 6.872-6.404 11.789 0 3.689 1.421 7.046 3.746 9.553l-0.008-0.009 21.333 21.333c2.93 2.753 6.885 4.444 11.236 4.444 2.711 0 5.269-0.657 7.523-1.82l-0.092 0.043c11.135-8.013 24.955-12.952 39.908-13.331l0.092-0.002h66.667c20.822 0.197 37.625 17.122 37.625 37.972 0 1.655-0.106 3.285-0.311 4.884l0.020-0.189c-2.028 15.315-14.018 27.305-29.16 29.315l-0.173 0.019-106.667 29.333c-40.419 11.57-69.504 48.192-69.504 91.606 0 8.19 1.035 16.138 2.981 23.72l-0.144-0.659c11.675 41.835 49.447 72.015 94.268 72.015 0.609 0 1.216-0.006 1.822-0.017l-0.091 0.001h2.667v42.667c-0.015 0.23-0.024 0.499-0.024 0.77 0 6.951 5.635 12.587 12.587 12.587 0.271 0 0.54-0.009 0.807-0.025l-0.036 0.002h29.333c0.23 0.015 0.499 0.024 0.77 0.024 6.951 0 12.587-5.635 12.587-12.587 0-0.271-0.009-0.54-0.025-0.807l0.002 0.036v-42.667h2.667c1.172 0.043 2.549 0.068 3.931 0.068 28.033 0 53.705-10.106 73.572-26.874l-0.17 0.14c3.855-2.565 6.362-6.892 6.362-11.805 0-3.677-1.404-7.025-3.705-9.539l0.010 0.011-21.333-21.333c-2.93-2.753-6.885-4.444-11.236-4.444-2.711 0-5.269 0.657-7.523 1.82l0.092-0.043c-11.135 8.013-24.955 12.952-39.908 13.331l-0.092 0.002h-66.667c-20.823-0.214-37.621-17.144-37.621-37.998 0-1.646 0.105-3.267 0.308-4.857l-0.020 0.189c2.028-15.315 14.018-27.305 29.16-29.315l0.173-0.019 106.667-29.333c40.539-10.635 69.96-46.948 69.96-90.132 0-8.73-1.202-17.178-3.45-25.19l0.157 0.655z" />
<glyph unicode="&#xe904;" glyph-name="bolt-custom-solid" horiz-adv-x="704" d="M694.841 472.519c-7.695 9.407-18.32 16.161-30.469 18.876l-0.365 0.068c-9.181 2.219-19.723 3.491-30.561 3.491-0.836 0-1.67-0.008-2.503-0.023l0.125 0.002h-0.341c-68.665 0-137.273-0.569-205.881-0.74q24.974 101.035 50.176 202.069v0c10.24 41.415 20.821 83.058 30.606 125.156v0 0c1.971 6.747 3.24 14.543 3.522 22.59l0.005 0.166c0.008 0.326 0.012 0.711 0.012 1.096 0 11.393-3.95 21.864-10.554 30.118l0.074-0.096c-7.581 8.824-17.712 15.262-29.246 18.177l-0.393 0.084c-5.766 1.677-12.397 2.67-19.251 2.73h-0.034c-0.015 0-0.033 0-0.052 0-14.027 0-26.922-4.844-37.104-12.95l0.121 0.093c-6.563-5.395-12.203-11.577-16.873-18.47l-0.194-0.304-1.536-1.877v-0.284q-188.587-248.889-376.775-497.038c-9.853-11.498-16.155-26.297-17.058-42.537l-0.008-0.186c0-0.045 0-0.099 0-0.152 0-10.229 3.421-19.658 9.182-27.207l-0.080 0.109c7.681-9.397 18.285-16.149 30.411-18.875l0.365-0.069c9.148-2.219 19.651-3.491 30.45-3.491 0.835 0 1.668 0.008 2.499 0.023l-0.125-0.002h0.512c68.665 0 137.273 0.512 205.824 0.683q-24.917-100.921-50.062-202.012v0c-10.24-41.472-20.821-83.058-30.663-125.156v0c-1.971-6.747-3.24-14.543-3.522-22.59l-0.005-0.166c-0.003-0.184-0.004-0.402-0.004-0.62 0-11.408 3.969-21.888 10.601-30.136l-0.073 0.093c7.558-8.854 17.699-15.3 29.251-18.18l0.388-0.082c5.766-1.719 12.396-2.734 19.256-2.787h0.029c0.045 0 0.098 0 0.15 0 13.995 0 26.858 4.845 37.003 12.949l-0.119-0.092c6.913 5.724 12.854 12.28 17.77 19.584l0.207 0.327 1.252 1.707q187.904 247.865 375.637 495.9v0c9.825 11.532 16.119 26.341 17.058 42.586l0.009 0.194c0.005 0.257 0.008 0.561 0.008 0.864 0 9.929-3.248 19.099-8.741 26.505l0.085-0.12z" />
<glyph unicode="&#xe905;" glyph-name="calendar-check-custom-regular" d="M864 768h-96v104c0 13.255-10.745 24-24 24v0h-16c-13.255 0-24-10.745-24-24v0-104h-384v104c0 13.255-10.745 24-24 24v0h-16c-13.255 0-24-10.745-24-24v0-104h-96c-53.019 0-96-42.981-96-96v0-704c0-53.019 42.981-96 96-96v0h704c53.019 0 96 42.981 96 96v0 704c0 53.019-42.981 96-96 96v0zM160 704h704c17.673 0 32-14.327 32-32v0-96h-768v96c0 17.673 14.327 32 32 32v0zM864-64h-704c-17.673 0-32 14.327-32 32v0 544h768v-544c0-17.673-14.327-32-32-32v0zM731.072 325.888c4.356 4.345 7.051 10.354 7.051 16.992s-2.695 12.647-7.050 16.992v0l-16.896 17.024c-4.345 4.356-10.354 7.051-16.992 7.051s-12.647-2.695-16.992-7.050v0l-235.456-233.536-100.864 101.184c-4.345 4.356-10.354 7.051-16.992 7.051s-12.647-2.695-16.992-7.050v0l-17.024-16.96c-4.356-4.345-7.051-10.354-7.051-16.992s2.695-12.647 7.050-16.992v0l134.4-135.104c4.342-4.337 10.338-7.019 16.96-7.019s12.618 2.682 16.96 7.019v0z" />
<glyph unicode="&#xe906;" glyph-name="calendar-exclamation-custom-regular" d="M864 768h-96v104c-0.036 13.24-10.76 23.964-23.997 24h-16.003c-13.24-0.036-23.964-10.76-24-23.997v-104.003h-384v104c-0.036 13.24-10.76 23.964-23.997 24h-16.003c-13.24-0.036-23.964-10.76-24-23.997v-104.003h-96c-53.019 0-96-42.981-96-96v0-704c0-53.019 42.981-96 96-96v0h704c53.019 0 96 42.981 96 96v0 704c0 53.019-42.981 96-96 96v0zM160 704h704c17.673 0 32-14.327 32-32v0-96h-768v96c0 17.673 14.327 32 32 32v0zM864-64h-704c-17.673 0-32 14.327-32 32v0 544h768v-544c0-17.673-14.327-32-32-32v0zM489.408 448c-13.391-0.054-24.226-10.921-24.226-24.32 0-0.45 0.012-0.898 0.036-1.342l-0.003 0.062 13.376-240c0.896-12.552 11.298-22.397 24-22.4h18.624c0.030 0 0.066 0 0.102 0 12.747 0 23.166 9.964 23.895 22.528l0.003 0.064 13.376 239.808c0.034 0.479 0.053 1.037 0.053 1.6 0 13.255-10.745 24-24 24-0.019 0-0.038 0-0.056 0h0.003zM568 64c0 0.019 0 0.042 0 0.064 0 30.893-25.043 55.936-55.936 55.936-0.023 0-0.045 0-0.068 0h0.004c-0.019 0-0.042 0-0.064 0-30.893 0-55.936-25.043-55.936-55.936 0-0.023 0-0.045 0-0.068v0.004c0-0.019 0-0.042 0-0.064 0-30.893 25.043-55.936 55.936-55.936 0.023 0 0.045 0 0.068 0h-0.004c0.019 0 0.042 0 0.064 0 30.893 0 55.936 25.043 55.936 55.936 0 0.023 0 0.045 0 0.068v-0.004z" />
<glyph unicode="&#xe913;" glyph-name="letter-custom-light" d="M304.024 329.171c-17.382-1.076-31.277-1.335-45.017-2.955-13.779-1.633-23.254 4.187-27.609 16.332-5.314 14.829-8.062 30.59-12.858 45.639-4.018 12.612-7.259 26.274-14.543 36.877-17.395 25.328-27.311 53.339-35.309 82.516-5.924 21.634-12.547 43.073-19.469 66.625-14.647-4.252-27.881-8.244-41.193-11.964-27.739-7.751-48.361-1.815-62.762 21.893-18.354 30.189-31.355 62.814-32.237 99.030-0.583 23.656 2.333 28.581 24.757 37.551 18.536 7.388 37.162 15.062 56.424 19.923 141.156 35.633 279.034 81.881 416.794 128.583 18.899 6.403 37.395 13.973 56.294 20.35 26.093 8.801 52.393 8.581 78.317-0.752 15.49-5.574 27.7-15.114 33.027-31.731 11.744-36.553 23.306-73.197 35.464-109.607 5.12-15.321 3.837-25.872-11.536-35.827-12.56-8.114-21.387-22.048-31.861-33.403l2.826-4.77c11.147 1.244 22.398 1.867 33.416 3.85 17.628 3.176 21.867 2.178 29.618-14.336 4.9-10.473 7.401-22.1 10.927-33.222 2.139-6.766 4.174-13.571 7.453-24.291 7.751 10.629 13.286 17.68 18.263 25.12 16.241 24.291 32.016 48.919 48.595 72.976 3.85 5.587 10.175 9.462 15.36 14.129 4.653-5.314 9.385-10.564 13.921-15.982 1.426-1.711 2.281-3.915 4.796-8.348 1.115 5.522 2.204 8.464 2.242 11.433 0.48 36.294 13.74 66.923 40.804 90.916 28.076 24.861 56.294 49.58 85.251 73.378 13.545 11.134 21.828 6.87 25.587-10.979 0.687-3.253 1.504-6.675 1.205-9.929-4.705-53.196 0.013-106.989-11.795-159.796-8.996-40.299-26.054-75.62-54.959-105.031-1.627-1.741-3.129-3.646-4.463-5.672l-0.099-0.161c-0.428-0.622-0.246-1.646-0.428-3.215h42.036c-16.462-32.146-31.044-60.157-58.848-76.852-26.961-16.177-49.126-36.449-68.608-61.051-14.88-18.821-32.859-35.153-50.046-53.209l61.596-199.149c10.292 2.903 20.376 5.768 30.487 8.594 45.963 12.845 77.176-10.901 77.798-58.692 0.201-7.633 1.883-14.822 4.77-21.36l-0.142 0.362c8.516-19.806 3.448-38.627-14.569-49.774-4.239-2.618-8.762-4.796-13.286-6.922-101.713-47.791-204.67-92.653-310.246-131.137-45.289-16.514-90.553-33.183-136.438-47.791-10.555-3.384-22.697-5.335-35.294-5.335-4.737 0-9.409 0.276-14.001 0.812l0.558-0.053c-35.594 4.148-57.292 27.35-71.032 59.522-17.125 38.684-29.642 83.557-35.329 130.536l-0.225 2.286c-4.99 43.060-17.058 82.944-40.234 120.028-16.319 26.080-29.411 54.311-42.554 82.231-2.463 5.224-0.233 14.725 3.124 20.221 5.12 8.399 13.221 14.919 19.832 22.463 4.757 5.444 9.099 11.225 15.451 19.119zM192.823 618.652c2.281-32.444-24.991-61.57-2.294-96.476l24.109 52.548 5.198-2.281c-6.429-17.849-12.184-35.983-19.482-53.481-7.038-16.915-4.044-31.316 7.557-48.089l16.358 39.236 4.692-1.828c-3.474-11.834-6.118-23.98-10.603-35.399-5.859-14.867-2.554-25.431 12.236-34.181l22.347 51.044c5.25-33.157-27.479-57.759-7.077-88.634l18.536 41.919c1.076-32.846-28.218-61.466-8.659-97.060 16.475 0.804 32.159 1.659 47.856 2.333 9.255 0.389 20.7 0.933 23.461-9.151 1.672-6.066-3.474-15.593-8.114-21.543-11.212-14.375-23.928-27.544-36.838-42.114l25.574-44.071 16.721 37.473c0.467-13.934-2.631-26.676-6.987-38.964-4.226-11.925-1.089-20.299 9.009-27.531l17.084 42.477c0.014-0.633 0.022-1.379 0.022-2.127 0-12.617-2.309-24.696-6.527-35.835l0.231 0.696c-6.559-18.147-1.361-31.848 12.794-44.123l9.657 22.852c-8.166-31.29 2.489-60.053 8.736-89.231 2.074-9.773 2.852-19.832 4.174-29.761 6.131-45.795 17.214-90.293 34.712-133.068 8.698-21.258 23.111-35.010 46.145-41.867 16.501-4.926 30.992 2.268 37.033 16.073 3.785 8.646 5.496 18.212 8.594 28.944-7.518-0.389-11.536-0.48-15.516-0.83-21.348-1.918-29.229 1.581-36.683 21.011-18.393 47.985-7.686 66.106 30.020 86.755 5.833 3.189 11.99 5.872 18.212 8.166 33.52 12.379 66.91 25.146 100.715 36.683 62.114 21.206 124.539 41.453 186.705 62.503 18.665 6.313 36.864 13.973 57.085 21.698l-57.214 199.615c-25.185-10.771-47.791-7.751-71.032 0.959-5.937-6.416-12.703-11.731-16.902-18.626-13.792-22.58-27.428-45.328-39.573-68.828-6.222-12.055-12.288-20.843-27.298-21.698-5.444-0.311-10.914-6.377-15.684-10.577-6.248-5.496-11.212-12.664-17.965-17.252-3.098-2.113-9.151 0.169-16.993 0.648l106.729 143.827c-10.694 25.535-17.525 50.267-13.001 78.278 6.546 40.493 25.989 73.624 50.526 104.733 6.585 8.361 13.481 16.462 19.871 24.239-18.963 20.739-14.712 47.882-27.35 70.578l-69.114-5.12c8.827 14.608 15.425 25.885 22.359 36.942 15.645 24.939 24.343 50.915 13.351 80.403-7.57 20.311-15.516 40.532-21.815 61.246-9.618 31.653-16.617 37.979-49.295 37.46-10.655-0.181-21.737-1.374-31.796-4.64-32.405-10.538-64.214-22.891-96.619-33.416-126.289-41.064-251.373-86.509-382.6-110.32-1.037-0.194-1.685-2.489-2.074-3.059 15.295-15.295 33.572-28.413 44.667-46.119 11.251-17.952 15.399-40.429 23.383-62.995l12.625 26.274c3.046-23.435-19.754-42.865-1.167-65.769l17.188 48.452zM991.595 854.599c-36.773-30.085-71.097-55.361-96.736-89.568-9.035-12.042-13.675-28.348-17.201-43.449-6.248-26.793-9.734-54.233-15.191-81.246-1.97-9.722-5.729-19.236-9.799-28.335-1.361-3.033-7.207-6.948-9.255-6.105-3.863 1.568-8.84 6.092-9.138 9.747-0.868 10.758 0.298 21.673 0.739 32.535 0.467 11.147 0.998 22.321 1.53 34.090-4.524-0.985-6.831-0.778-7.414-1.711-32.133-50.915-68.984-98.2-106.677-145.058-29.372-36.514-40.947-79.937-33.986-127.248 0.752-5.081 3.409-9.89 5.392-15.412 122.647 97.228 202.078 224.152 268.962 361.018-6.261-36.255-21.193-69.217-38.005-101.259-16.682-31.757-33.235-63.812-52.885-93.702-20.091-30.539-42.762-59.599-66.391-87.494-23.461-27.713-49.541-53.183-75.906-81.142 19.002-7.557 34.388-3.759 46.793 6.144 22.035 17.538 43.552 36.034 63.255 56.151 19.974 20.389 40.027 40.221 65.173 53.974 21.737 11.899 36.229 30.227 48.996 51.628-19.313 3.863-36.734-8.775-58.148 0.415 8.685 9.592 15.036 18.043 22.774 24.913 35.749 31.783 56.981 71.55 64.343 118.641 3.863 24.719 6.987 49.67 8.464 74.635 1.426 23.993 0.311 48.141 0.311 77.837zM670.033-35.814c14.129 0.078 23.591 3.15 28.892 17.499 6.481 17.525 15.23 34.207 23.008 51.252l4.083-1.685-18.082-51.55c21.115 2.333 33.299 9.942 37.46 29.579 2.346 10.992 8.685 21.128 13.221 31.64l4.277-1.361-9.877-41.297c21.802-0.259 23.059 16.565 29.722 28.335 0.506 0.894 2.268 1.076 5.094 2.294l-2.774-19.028c7.829 3.085 15.671 3.759 19.21 8.036 9.657 11.614 17.473 24.77 28.607 41.129l-1.867-29.022c37.46 17.421 73.598 33.961 109.438 51.148 4.77 2.281 11.018 7.427 11.471 11.782 2.191 21.543 4.835 43.526-4.939 64.162-9.631 20.324-18.406 23.798-40.053 15.243-130.735-51.589-264.244-94.688-399.425-132.653-9.073-2.554-17.719-6.701-29.605-11.277 46.145-37.357 49.878-81.79 30.202-130.748 22.58-1.231 31.887 8.685 35.633 28.179 2.761 14.375 6.39 29.398 18.367 40.558l-11.368-54.091c17.265 2.139 26.741 8.503 29.048 24.537 1.167 8.101 5.081 15.866 8.192 23.591 3.033 7.557 3.357 16.734 14.245 25.665l-13.377-55.814c18.691 2.644 30.889 8.101 34.816 27.505 3.37 16.617 10.862 32.379 16.527 48.53l4.796-1.361-13.014-57.163c18.263 0.117 25.315 9.151 29.657 23.591 4.239 14.090 11.251 27.337 17.045 40.96l5.185-1.867-13.818-46.3zM29.009 697.24c-0.506-5.029-1.517-8.412-1.037-11.549 5.055-33.494 17.551-64.343 33.74-93.754 2.333-4.239 6.040-8.659 10.214-10.681 6.416-3.111 15.036-7.337 20.337-5.185 4.277 1.737 6.313 12.081 7.051 18.847 0.778 7.129-1.167 14.556-1.905 21.724-29.32-0.972-34.453 2.204-44.395 26.404-0.959 2.307-2.126 4.563-2.813 6.961-5.081 17.784 1.244 32.224 17.745 41.116 6.053 3.253 11.964 6.818 20.739 11.86-23.15 9.618-40.571 2.294-59.677-5.742zM145.058 592.053c-9.618 35.36-6.818 72.808-39.534 97.319l-20.687-10.201c19.326-30.163 28.75-62.503 34.699-97.215l25.522 10.11zM479.556-0.039c-2.994 3.889-4.576 6.831-6.961 8.762-2.32 1.879-5.483 2.683-8.036 3.85-14.893-20.039-14.051-35.801 5.937-61.479 0 11.316 2.087 19.106-0.441 24.822-5.133 11.575-2.139 18.834 9.501 24.045zM87.364 634.867c-1.167 22.243-1.167 22.243-16.812 32.353-6.403-18.886 0.311-31.796 16.825-32.353zM490.976-15.127l-7.064-1.504 6.3-28.024c11.29 11.821 7.285 20.869 0.765 29.527zM509.369 167.923c-0.181 23.721 13.597 33.961 32.638 39.456 16.267 4.705 26.585-0.778 27.868-16.54 2.463-30.007-5.509-58.446-17.149-85.925-4.718-11.147-15.995-14.686-26.352-11.368-27.259 8.723-53.922 19.184-80.65 29.385-3.824 1.465-7.064 4.977-9.929 8.101-13.481 14.699-9.89 32.405 9.709 37.395 14.751 3.759 30.966 2.411 46.534 2.852 4.161 0.13 8.373-1.542 17.33-3.344zM285.165 455.291c91.188 37.719 182.35 75.582 273.654 112.938 7.324 2.994 15.697 2.592 23.15 3.72 0.868-2.67 1.244-3.37 1.296-4.109 0.052-0.881 0.091-2.333-0.337-2.605-4.835-3.279-9.488-7.168-14.686-9.41-92.354-39.832-184.139-81.739-283.078-100.533zM557.367 657.693c-51.174-15.71-101.622-34.479-153.73-46.223-47.635-10.746-91.343-35.283-144.397-39.521 28.426 20.661 270.829 93.638 296.545 90.643l1.581-4.9zM285.165 538.948c5.638 2.126 11.121 4.977 16.928 6.287 94.273 21.193 182.842 66.288 279.241 78.563l1.957-5.094c-4.2-2.515-8.127-6.014-12.638-7.375-72.678-22.022-145.304-44.252-218.242-65.264-21.491-6.196-43.902-8.762-65.886-13.001l-1.361 5.885zM337.013 390.481c87.947 43.177 174.676 90.345 272.203 116.658-15.554-17.123-248.612-116.503-272.203-116.658zM609.215 436.237c-3.992-2.722-7.699-6.468-12.029-8.011-73.559-26.209-147.197-52.159-221.288-76.631 73.158 42.308 149.997 72.769 230.724 90.734l2.592-6.092zM583.291 376.689c-69.645-16.047-136.905-39.405-207.392-51.019 24.77 20.337 173.302 57.901 207.392 51.019zM375.899 248.080c49.982 21.374 98.641 47.311 155.544 51.667-14.647-15.788-130.787-54.868-155.544-51.667z" />
<glyph unicode="&#xe915;" glyph-name="map-marker-custom-regular" d="M515.669-51.883c-281.216 402.859-323.029 434.859-323.029 563.883 0 0.139 0 0.304 0 0.469 0 88.34 36.207 168.224 94.59 225.62l0.045 0.044c58.696 57.95 139.387 93.743 228.437 93.743s169.742-35.793 228.471-93.776l-0.034 0.034c58.402-57.423 94.592-137.278 94.592-225.586 0-0.192 0-0.385-0.001-0.577v0.030c-0.043-128.981-41.813-160.939-323.072-563.883zM515.669 896c-0.546 0.003-1.192 0.004-1.839 0.004-212.447 0-384.791-171.702-385.83-383.905v-0.099c0-154.837 54.443-198.101 347.819-619.349 8.933-12.562 23.436-20.658 39.829-20.658s30.896 8.096 39.728 20.508l0.101 0.15c293.333 421.248 347.819 464.512 347.819 619.349-1.039 212.302-173.383 384.004-385.83 384.004-0.631 0-1.263-0.002-1.893-0.005h0.097zM671.531 633.429c-17.817 13.551-40.376 21.709-64.842 21.709-29.643 0-56.489-11.977-75.963-31.356l0.004 0.004-14.891-14.635-14.891 14.635c-19.479 19.359-46.325 31.324-75.966 31.324-24.459 0-47.014-8.147-65.101-21.876l0.267 0.194c-22.959-18.322-37.542-46.303-37.542-77.69 0-27.912 11.533-53.131 30.094-71.151l0.024-0.023 146.133-143.019c4.414-4.265 10.434-6.892 17.067-6.892s12.652 2.628 17.074 6.899l-0.007-0.007 146.133 143.019c18.496 18.076 29.965 43.275 29.965 71.152 0 31.362-14.516 59.333-37.196 77.562l-0.194 0.15z" />
<glyph unicode="&#xe918;" glyph-name="pin-custom-solid" d="M1024-128l-255.882 384.059 139.056 139.056c6.997 6.943 11.328 16.564 11.328 27.196s-4.331 20.253-11.325 27.194l-0.002 0.002-67.636 68.109-52.028-11.352c-4.998-1.161-10.737-1.827-16.632-1.827-16.036 0-30.922 4.926-43.226 13.348l0.262-0.17-287.098 197.232c-20.148 14.005-33.172 37.037-33.172 63.111 0 1.092 0.023 2.179 0.068 3.26l-0.005-0.155v63.852l-49.19 51.082-358.518-358.518 51.082-51.082h66.69c26.244-0.004 49.404-13.202 63.21-33.321l0.169-0.261 197.232-284.733c8.472-12.152 13.537-27.228 13.537-43.488 0-5.706-0.624-11.266-1.807-16.616l0.094 0.509-11.824-52.028 67.636-67.636c6.943-6.997 16.564-11.328 27.196-11.328s20.253 4.331 27.194 11.325l139.058 139.058 384.059-255.882zM839.538 56.462l-162.232 108.312 53.92 53.92 108.312-162.232z" />
<glyph unicode="&#xe919;" d="M921.6 172.8c-8.533-44.8-44.8-78.933-89.6-85.333-70.4-10.667-187.733-23.467-320-23.467-130.133 0-247.467 12.8-320 23.467-44.8 6.4-81.067 40.533-89.6 85.333-8.533 49.067-17.067 121.6-17.067 211.2s8.533 162.133 17.067 211.2c8.533 44.8 44.8 78.933 89.6 85.333 70.4 10.667 187.733 23.467 320 23.467s247.467-12.8 320-23.467c44.8-6.4 81.067-40.533 89.6-85.333 8.533-49.067 19.2-121.6 19.2-211.2-2.133-89.6-10.667-162.133-19.2-211.2z" />
<glyph unicode="&#xe91a;" d="M426.667 234.667v298.667l256-149.333z" />
<glyph unicode="&#xe91b;" glyph-name="play-button-stroke-custom-regular" d="M878.933 356.466l-708.892-415.943c-4.696-2.815-10.36-4.479-16.414-4.479-17.751 0-32.158 14.313-32.312 32.027v832.186c-0.004 0.197-0.007 0.429-0.007 0.661 0 17.532 14.212 31.744 31.744 31.744 6.208 0 12-1.782 16.892-4.863l708.647-416.093c9.563-5.666 15.874-15.932 15.874-27.673 0-11.647-6.212-21.844-15.503-27.458l-0.144-0.081zM911.531 466.688l-708.779 416.171c-14.158 8.673-31.297 13.809-49.636 13.809-53.082 0-96.114-43.032-96.114-96.114 0-0.065 0-0.129 0-0.194v0.010-832.171c0.322-53.073 43.421-95.973 96.539-95.973 18.156 0 35.141 5.012 49.647 13.727l-0.437-0.243 708.779 415.943c28.607 16.877 47.496 47.541 47.496 82.617s-18.89 65.74-47.051 82.374l-0.445 0.243z" />
<glyph unicode="&#xe925;" glyph-name="wine-heart-custom-light" d="M0 61.913c0.735 0.394 1.969 0.643 2.127 1.182 11.566 41.065 42.667 68.135 69.842 98.041 53.104 58.486 104.921 118.193 159.521 175.235 43.651 45.581 89.574 89.154 136.599 131.256 22.029 19.719 48.377 34.947 73.964 50.189 21.963 13.089 45.45 14.795 68.372-0.053 16.069-10.398 31.928-7.864 46.238 3.597 14.257 11.408 27.648 23.867 41.682 35.551 15.281 12.708 30.326 25.823 46.474 37.363 18.616 13.299 22.384 18.839 12.853 40.382-12.997 29.381 24.445 56.373 51.646 50.478 32.387-7.024 54.889-26.873 71.496-53.931 7.326-11.92 12.406-25.442 17.014-38.754 6.958-20.112 2.153-36.063-17.933-39.017-37.323-5.501-54.718-33.91-77.194-57.003-16.213-16.673-31.074-34.658-47.078-51.554-9.242-9.741-13.968-20.191-11.369-33.792 3.098-16.266 3.663-33.28 8.743-48.837 9.689-29.63 2.599-52.999-19.036-74.608-21.136-21.123-40.212-44.334-60.665-66.166-59.129-63.094-117.826-126.608-178.045-188.639-28.331-29.184-60.127-54.955-89.574-83.102-12.419-11.868-21.845-26.873-34.343-38.597-11.894-11.159-25.692-20.427-39.319-29.499-6.63-4.411-14.809-6.498-22.279-9.636h-69.921c-1.956 1.365-3.728 3.413-5.908 3.978-66.534 17.198-107.389 59.405-123.825 126.018-2.127 8.612-6.669 16.633-10.082 24.917v34.987zM567.401 253.401c-5.488 35.315 10.791 65.733 17.369 98.068l6.249-1.116-16.62-85.727c4.017 2.035 6.485 2.718 8.179 4.24 15.596 14.126 24.996 33.674 42.168 46.75 7.995 6.105 9.19 16.187 6.722 27.359-5.028 22.646-7.641 45.817-11.684 68.7-3.019 17.093 2.324 31.285 14.113 43.192 31.022 31.35 62.241 62.49 93.381 93.696 7.838 7.851 15.465 11.894 28.331 10.647 19.902-1.93 27.963 11.618 21.189 30.956-3.558 10.187-7.457 20.401-12.603 29.854-10.975 20.178-25.941 36.51-48.469 44.216-9.584 3.282-19.6 6.459-27.884-2.416-7.365-7.903-4.949-16.962-1.182-25.679 7.155-16.463 1.26-28.672-11.71-39.385-9.557-7.89-18.301-16.778-27.372-25.259-25.534-23.841-50.439-48.391-76.747-71.326-20.939-18.274-46.776-21.005-69.711-7.010-20.086 12.262-35.958 7.549-53.563-1.47-41.091-21.071-75.934-50.662-109.922-81.329-1.287-1.155-0.788-4.28-1.168-6.695 88.208 10.686 149.241-13.85 201.675-131.321l12.341 61.138c5.908-35.367-2.258-69.317-9.085-106.903l25.994 26.821zM329.518 12.288c4.857 1.969 7.457 2.363 9.137 3.807 6.892 5.986 13.246 12.642 20.309 18.419 7.877 6.433 10.082 14.349 9.82 24.208-1.418 51.988-17.29 98.265-55.060 134.958-36.103 35.092-77.338 58.105-130.166 44.951-8.991-2.402-16.71-6.973-22.842-13.127l-0.001-0.002c-36.943-38.308-73.255-77.246-109.529-116.198-5.816-6.249-10.384-13.653-14.625-19.325 17.907-1.273 35.551 1.483 49.756-4.28 44.898-18.196 87.473-40.842 114.635-84.047 9.951-15.819 20.9-30.983 33.648-49.782l7.299 89.219 1.864-0.039v-114.242c20.349 21.53 19.824 21.583 21.648 46.198 2.954 39.949 6.695 79.846 10.109 119.769l4.805-0.315c-1.838-42.535-3.65-85.084-5.54-129.142 17.566 6.249 17.946 18.695 19.298 31.206 3.466 32.479 7.536 64.893 11.369 97.333l4.227-0.42-7.693-104.264c15.938 11.080 15.806 11.106 17.867 23.67 5.264 32.125 10.673 64.223 16.016 96.335l4.017-0.551-10.371-94.339zM449.549 129.221c20.244 13.023 30.799 25.836 30.681 48.181-0.105 19.298 5.947 38.623 9.282 57.948l5.711-0.683-5.041-60.324c20.047 12.734 25.692 20.349 28.423 36.155 10.988 63.475-39.358 151.040-95.941 171.362-35.512 12.747-70.262 8.77-105.498 2.941-5.908-0.971-11.907-5.986-16.384-10.568-29.558-30.33-61.118-63.146-92.467-96.165l-4.327-4.594c-3.505-3.689-5.514-8.809-9.623-15.596 47.262 4.542 84.716-11.776 117.813-38.676 32.689-26.571 54.692-61.348 70.695-105.682l6.275 48.312 5.12-0.788-4.437-93.998c14.073 8.402 18.366 17.723 20.257 30.221 4.083 26.978 10.174 53.668 15.439 80.476l4.857-0.827-10.096-79.15c11.12 10.358 19.298 14.52 20.913 27.911 4.411 36.654 11.697 72.967 17.854 109.424l5.724-0.893c1.313-34.448-11.015-67.387-15.229-104.986zM156.094-101.744l9.662 74.988 5.251-0.525-6.695-74.161c20.848-3.413 38.544 0.433 56.189 9.977-0.473 8.415-0.394 15.885-1.457 23.171-0.9 6.233-2.591 11.862-4.99 17.099l0.159-0.387c-27.779 60.39-73.242 101.665-135.496 124.508-3.847 1.418-7.943 2.691-11.999 2.941-17.408 1.103-40.199-12.367-40.789-24.865-1.392-29.932 7.26-57.305 22.633-87.591l12.393 71.601 4.857-0.775c-3.046-21.123-5.658-42.312-9.269-63.33-3.531-20.572-3.479-21.491 16.883-32.427 7.536 27.95 6.8 57.633 17.71 84.624-1.287-27.425-4.332-54.482-7.063-81.592-1.050-10.319-0.945-20.467 13.758-22.607 2.048 15.491 3.938 30.904 6.131 46.264 2.219 15.413 4.739 30.786 7.129 46.185l5.383-0.735-9.295-100.050 20.611-5.685c1.943 17.106 2.888 32.059 5.488 46.71 2.573 14.48-1.155 30.352 11.159 43.166l-7.785-91.175c3.755-1.733 6.59-3.531 9.689-4.345 3.085-0.827 6.433-0.696 9.754-0.985zM848.778 800.138c-15.531 48.22 4.936 66.192 35.315 77.824 31.337 11.986 51.41 1.969 67.098-29.342 44.597-6.38 54.036-22.423 41.406-63.422-8.704-28.226-23.92-45.266-56.766-46.71-7.378-0.328-15.006-9.19-21.215-15.321-4.608-4.555-6.853-11.185-10.634-16.594-5.698-8.139-13.049-9.833-21.898-4.188-14.047 8.953-28.173 17.815-42.286 26.69-4.989 3.151-10.437 5.776-14.966 9.426-13.89 11.159-14.362 18.511-2.101 32.781 8.599 10.030 17.723 19.653 26.046 28.856zM889.895 727.014c8.271 7.483 15.281 14.454 23.027 20.559 5.094 4.004 11.251 9.544 17.001 9.597 30.983 0.315 39.45 22.147 46.71 43.809 2.442 7.312 0.788 18.734-3.965 24.629-6.958 8.625-17.959 6.039-27.661 0.131-3.742-2.258-9.229-1.969-13.916-2.823-0.486 5.067-1.904 10.24-1.273 15.176 1.89 14.809-2.521 23.605-14.559 26.873-15.097 4.109-36.26-4.030-47.196-18.156-10.161-13.128-9.15-20.191 5.107-38.741 1.339-1.759 1.352-4.424 2.14-7.221l-43.1-46.802 57.685-27.031zM858.427 423.385c0.919 9.4 1.654 18.813 2.809 28.199 2.494 20.244 7.168 40.461 7.312 60.718 0.171 24.852-8.586 48.194-24.418 69.186-5.947 7.89-10.91 16.371-17.054 25.692 24.576-2.534 47.682-25.259 58.749-55.559 15.439-42.325 4.359-108.57-27.399-128.236zM564.513 873.945c8.743 4.621 17.067 11.015 26.283 13.575 53.484 14.914 105.866 10.332 156.002-15.058 10.214-5.173 18.708-15.032 26.9-23.933 2.048-2.232-0.131-9.111-0.565-18.169-30.457 32.072-65.51 43.139-101.796 44.583-34.987 1.392-70.197-4.109-105.288-6.59l-1.536 5.593zM538.808 685.949c-3.019 19.43 7.024 24.681 14.507 30.208 24.76 18.314 52.224 30.497 82.117 33.792 19.535 2.166 39.463 1.982 59.077 0.643 16.016-1.103 31.324-6.446 40.671-23.368-59.392 28.002-112.286 8.651-163.761-23.106-9.689-5.986-19.824-11.080-32.61-18.169zM946.15 475.897c-1.654 8.533-4.687 17.080-4.713 25.626-0.105 41.525-10.581 78.992-33.726 112.010-1.103 1.575-1.155 4.070-1.864 6.774 43.244-16.83 69.186-100.956 40.304-144.41zM746.929 777.846c-22.279 21.136-40.12 46.146-72.008 47.222-27.963 0.945-56.031-1.155-84.152-1.904 12.327 12.406 30.681 14.362 47.59 17.854 37.153 7.719 69.553-2.914 96.164-28.751 8.336-8.087 17.277-17.329 12.406-34.422zM905.846 652.813c22.541 10.371 40.921 8.704 58.119-2.967 12.997-8.809 24.523-19.469 19.403-42.667-12.695 11.829-22.042 23.696-34.081 30.864-11.737 6.997-26.23 9.19-43.441 14.769zM512 676.129c-23.539-27.425-34.514-33.333-52.513-27.543 1.562 18.839 14.612 26.847 28.094 33.91 10.634 5.579 10.936 5.041 24.418-6.367zM971.487 423.818c-1.129-5.448-1.063-11.343-3.44-15.137-3.059-4.91-7.851-11.028-12.275-11.487-7.982-0.84-10.476 7.26-10.371 15.806 0.105 7.667-0.893 15.806 0.998 22.843 1.497 5.606 6.223 13.023 10.279 13.758 3.44 0.617 8.835-6.459 11.776-11.422 2.297-3.873 2.153-9.728 3.033-14.362zM472.615 845.351c4.004 16.975 19.010 18.156 30.956 22.804 8.455 3.282 15.36 1.785 21.557-7.457-15.097-12.8-30.3-21.123-52.513-15.347zM876.373 331.487c-3.348 4.857-9.925 10.096-9.912 15.307 0.039 9.899 19.102 24.839 28.921 24.051 3.912-0.328 10.923-5.33 10.437-6.197-5.816-10.306-12.669-20.296-19.6-30.221-0.709-1.024-3.623-1.155-9.846-2.941zM538.256 810.601c-11.185-10.45-20.336-23.762-39.385-18.406 5.435 23.723 23.066 32.19 39.385 18.406zM849.802 305.231c6.433-12.787 3.125-23.276-2.402-32.742-2.048-3.518-9.295-7.654-11.5-6.433-4.122 2.324-8.927 8.389-8.822 12.787 0.315 14.48 9.4 22.134 22.725 26.388zM948.513 331.487c-7.286 13.22-1.063 24.681 5.304 35.709 1.3 2.232 7.063 4.411 9.124 3.44 3.479-1.654 7.247-5.488 8.1-9.006 2.691-11.225-6.919-23.815-22.528-30.142zM1024 526.375c-2.101-2.494-5.251-9.163-9.636-10.818-6.709-2.547-17.027 13.286-16.607 26.151 0.131 4.464 4.398 11.251 7.864 12.537 8.008 3.006 17.789-10.634 18.379-27.871zM446.359 619.218c-8.993-10.148-14.362-17.92-21.845-23.801-2.875-2.258-11.251-1.444-15.714 0.407-2.035 0.84-2.626 8.625-0.446 11.382 6.748 8.573 15.281 15.951 38.006 12.012zM420.103 738.462c4.818 23.289 6.131 24.51 26.256 26.256-1.483-14.362-9.807-21.504-26.256-26.256zM420.103 830.359c10.463 13.194 22.764 14.835 39.385 11.868-14.008-10.503-14.008-10.503-39.385-11.868zM393.807 298.614c23.762 8.56 43.756 6.367 62.818-3.833 18.616-9.977 21.701-25.206 5.409-38.072-25.863-20.441-55.847-34.54-88.3-42.26-16.226-3.86-28.331 2.363-39.358 17.303-16.095 21.793-22.055 43.586-18.117 69.383 3.203 21.058 14.677 37.14 30.799 50.202 17.106 13.85 39.87 4.188 44.373-18.695 1.956-10.004 1.51-20.441 2.363-34.028z" />
<glyph unicode="&#xe952;" glyph-name="city-custom-regular" d="M211.2 204.8h-64c-10.604 0-19.2-8.596-19.2-19.2v0-64c0-10.604 8.596-19.2 19.2-19.2v0h64c10.604 0 19.2 8.596 19.2 19.2v0 64c0 10.604-8.596 19.2-19.2 19.2v0zM211.2 358.4h-64c-10.604 0-19.2-8.596-19.2-19.2v0-64c0-10.604 8.596-19.2 19.2-19.2v0h64c10.604 0 19.2 8.596 19.2 19.2v0 64c0 10.604-8.596 19.2-19.2 19.2v0zM211.2 512h-64c-10.604 0-19.2-8.596-19.2-19.2v0-64c0-10.604 8.596-19.2 19.2-19.2v0h64c10.604 0 19.2 8.596 19.2 19.2v0 64c0 10.604-8.596 19.2-19.2 19.2v0zM364.8 204.8h-64c-10.604 0-19.2-8.596-19.2-19.2v0-64c0-10.604 8.596-19.2 19.2-19.2v0h64c10.604 0 19.2 8.596 19.2 19.2v0 64c0 10.604-8.596 19.2-19.2 19.2v0zM364.8 358.4h-64c-10.604 0-19.2-8.596-19.2-19.2v0-64c0-10.604 8.596-19.2 19.2-19.2v0h64c10.604 0 19.2 8.596 19.2 19.2v0 64c0 10.604-8.596 19.2-19.2 19.2v0zM364.8 512h-64c-10.604 0-19.2-8.596-19.2-19.2v0-64c0-10.604 8.596-19.2 19.2-19.2v0h64c10.604 0 19.2 8.596 19.2 19.2v0 64c0 10.604-8.596 19.2-19.2 19.2v0zM672 358.4h-64c-10.604 0-19.2-8.596-19.2-19.2v0-64c0-10.604 8.596-19.2 19.2-19.2v0h64c10.604 0 19.2 8.596 19.2 19.2v0 64c0 10.604-8.596 19.2-19.2 19.2v0zM672 512h-64c-10.604 0-19.2-8.596-19.2-19.2v0-64c0-10.604 8.596-19.2 19.2-19.2v0h64c10.604 0 19.2 8.596 19.2 19.2v0 64c0 10.604-8.596 19.2-19.2 19.2v0zM672 665.6h-64c-10.604 0-19.2-8.596-19.2-19.2v0-64c0-10.604 8.596-19.2 19.2-19.2v0h64c10.604 0 19.2 8.596 19.2 19.2v0 64c0 10.604-8.596 19.2-19.2 19.2v0zM876.8 204.8h-64c-10.604 0-19.2-8.596-19.2-19.2v0-64c0-10.604 8.596-19.2 19.2-19.2v0h64c10.604 0 19.2 8.596 19.2 19.2v0 64c0 10.604-8.596 19.2-19.2 19.2v0zM876.8 358.4h-64c-10.604 0-19.2-8.596-19.2-19.2v0-64c0-10.604 8.596-19.2 19.2-19.2v0h64c10.604 0 19.2 8.596 19.2 19.2v0 64c0 10.604-8.596 19.2-19.2 19.2v0zM985.6 486.4h-166.4v268.8c0 21.208-17.192 38.4-38.4 38.4v0h-281.6c-21.208 0-38.4-17.192-38.4-38.4v0-115.2h-102.4v140.8c0 7.069-5.731 12.8-12.8 12.8v0h-25.6c-7.069 0-12.8-5.731-12.8-12.8v0-140.8h-102.4v140.8c0 7.069-5.731 12.8-12.8 12.8v0h-25.6c-7.069 0-12.8-5.731-12.8-12.8v0-140.8h-115.2c-21.208 0-38.4-17.192-38.4-38.4v0-614.4c0-7.069 5.731-12.8 12.8-12.8v0h25.6c7.069 0 12.8 5.731 12.8 12.8v0 601.6h460.8v153.6h256v-307.2h204.8v-448c0-7.069 5.731-12.8 12.8-12.8v0h25.6c7.069 0 12.8 5.731 12.8 12.8v0 460.8c0 21.208-17.192 38.4-38.4 38.4v0z" />
<glyph unicode="&#xe953;" glyph-name="ring-custom-regular" d="M352 64.171c-159.058 0-288 128.942-288 288s128.942 288 288 288v0c0.041 0 0.089 0 0.137 0 79.596 0 151.626-32.396 203.624-84.721l0.015-0.015c-138.296-49.164-235.575-178.827-235.776-331.24v-0.024c-0.001-0.333-0.002-0.728-0.002-1.122 0-57.795 14.202-112.273 39.308-160.133l-0.906 1.896c-2.176 0-4.267-0.64-6.4-0.64zM235.989 792.619l54.443 39.552h123.136l54.443-39.552-63.787-92.715c-15.7 2.732-33.78 4.294-52.224 4.294s-36.524-1.562-54.113-4.56l1.889 0.266zM703.275 574.592c13.152-20.373 25.247-43.818 35.035-68.431l0.975-2.78c130.68-30.409 226.561-145.873 226.561-283.731 0-160.684-130.26-290.944-290.944-290.944s-290.944 130.26-290.944 290.944c0 133.233 89.555 245.549 211.752 280.037l2.050 0.494c26.494-42.345 42.206-93.79 42.206-148.905 0-109.18-61.657-203.959-152.052-251.416l-1.557-0.745c13.125-18.693 28.358-34.726 45.636-48.272l0.487-0.368c103.431 62.417 171.529 174.194 171.529 301.876 0 151.809-96.264 281.134-231.081 330.263l-2.443 0.778 85.333 124.459-121.6 88.448h-164.779l-121.6-88.448 85.333-124.459c-137.202-50.010-233.418-179.303-233.515-331.081v-0.012q0-17.28 1.707-34.517t5.077-34.133q3.371-17.067 8.533-33.493t11.648-32.512q6.613-15.957 14.763-31.232t17.749-29.611q9.6-14.379 20.565-27.733t23.168-25.6q12.245-12.203 25.6-23.168t27.733-20.565 29.611-17.749 31.232-14.763q15.957-6.613 32.512-11.648t33.493-8.533q17.067-3.371 34.133-5.077t34.517-1.707c16.273 0.055 32.217 1.248 47.818 3.502l-1.824-0.216c65.019-80.348 163.626-131.294 274.131-131.294 60.993 0 118.361 15.52 168.37 42.827l-1.84-0.92c17.449 9.427 32.352 19.111 46.411 29.844l-0.843-0.617c85.387 64.909 139.954 166.543 139.954 280.921 0 183.44-140.354 334.098-319.532 350.445l-1.371 0.101z" />
<glyph unicode="&#xe954;" glyph-name="fashion-custom-regular" horiz-adv-x="820" d="M752.981 293.419c-39.827 87.673-96.905 161.222-167.393 219.022l-1.055 0.839 54.187 180.139c0.801 2.551 1.268 5.485 1.28 8.527v0.006c0 42.667-41.429 76.416-101.077 86.741l20.011 68.907c0.747 2.492 1.177 5.356 1.177 8.32 0 16.568-13.431 29.998-29.998 29.998-13.603 0-25.092-9.055-28.767-21.466l-0.054-0.212-24.064-83.456c-24.821-2.202-47.602-8.973-68.162-19.472l1.048 0.486c-19.513 10.013-42.294 16.784-66.405 18.936l-0.71 0.051-24.192 83.541c-3.744 12.608-15.227 21.647-28.821 21.647-16.574 0-30.010-13.436-30.010-30.010 0-2.98 0.434-5.858 1.243-8.575l-0.054 0.212 19.883-68.949c-59.733-10.325-101.077-44.16-101.077-86.741 0.012-3.048 0.479-5.982 1.337-8.745l-0.057 0.212 54.059-180.096c-71.477-58.653-128.499-132.201-166.745-216.109l-1.532-3.753c-42.339-91.439-67.033-198.454-67.033-311.237 0-0.876 0.001-1.752 0.004-2.627v0.135-2.688c0-0.031 0-0.068 0-0.106 0-12.483 7.658-23.177 18.532-27.641l0.199-0.072c115.684-48.612 250.128-76.954 391.164-77.184h0.090c141.126 0.23 275.569 28.572 398.115 79.724l-6.862-2.54c11.073 4.536 18.731 15.23 18.731 27.713 0 0.037 0 0.074 0 0.111v-0.006 2.688c0.003 0.727 0.004 1.588 0.004 2.449 0 112.783-24.695 219.797-68.972 315.932l1.939-4.696zM180.011-22.997v-17.067c-47.892 11.812-87.836 24.648-126.61 39.82l6.845-2.359c4.779 194.304 87.808 374.016 219.733 474.667h10.667c-34.597-58.906-61.775-127.219-77.844-199.71l-0.876-4.706c-20.289-86.040-31.922-184.83-31.922-286.338 0-1.514 0.003-3.028 0.008-4.541l-0.001 0.234zM379.989-67.499c-50.679 1.625-98.897 6.897-145.915 15.587l5.926-0.91v29.867c-0.005 1.313-0.008 2.867-0.008 4.421 0 96.562 11.041 190.546 31.931 280.757l-1.629-8.357c16.106 76.216 44.2 143.711 82.548 204.051l-1.481-2.494 11.349 16.597h17.323zM292.309 532.011l-51.712 172.459c17.585 17.415 41.787 28.175 68.503 28.175 3.84 0 7.629-0.222 11.353-0.655l-0.453 0.043c1.677 0.083 3.641 0.13 5.617 0.13 24.514 0 47.337-7.241 66.447-19.702l-0.469 0.287c5.016-3.948 11.424-6.333 18.389-6.333s13.374 2.384 18.453 6.381l-0.064-0.049c18.641 12.174 41.463 19.415 65.978 19.415 1.976 0 3.94-0.047 5.893-0.14l-0.276 0.010c3.266 0.388 7.049 0.61 10.884 0.61 26.72 0 50.928-10.759 68.527-28.181l-0.008 0.008-51.712-172.459zM579.968-52.821c-41.094-7.781-89.311-13.053-138.46-14.638l-1.53-0.039v539.52h17.323l11.349-16.597c68.651-100.352 111.317-283.648 111.317-478.379zM640-40.107v17.067c0 198.869-41.088 381.653-110.592 494.933h10.667c131.925-100.651 214.955-280.32 219.733-474.667-31.94-12.777-71.904-25.571-112.864-35.857l-6.944-1.477z" />
<glyph unicode="&#xe955;" glyph-name="menu-register-custom-regular" d="M1011.2 430.933h-140.8v140.8c0 7.069-5.731 12.8-12.8 12.8h-25.6c-7.069 0-12.8-5.731-12.8-12.8v0-140.8h-140.8c-7.069 0-12.8-5.731-12.8-12.8v0-25.6c0-7.069 5.731-12.8 12.8-12.8v0h140.8v-140.8c0-7.069 5.731-12.8 12.8-12.8v0h25.6c7.069 0 12.8 5.731 12.8 12.8v0 140.8h140.8c7.069 0 12.8 5.731 12.8 12.8v0 25.6c0 7.069-5.731 12.8-12.8 12.8v0zM501.76 328.533c-45.909 0-68.011-25.6-143.36-25.6s-97.28 25.6-143.36 25.6c-118.754-0.024-215.016-96.287-215.040-215.038v-66.562c0-42.415 34.385-76.8 76.8-76.8h563.2c42.415 0 76.8 34.385 76.8 76.8v0 66.56c-0.024 118.754-96.287 215.016-215.038 215.040h-0.002zM665.6 46.933c0-14.138-11.462-25.6-25.6-25.6v0h-563.2c-14.138 0-25.6 11.462-25.6 25.6v0 66.56c0.073 90.457 73.383 163.767 163.833 163.84h0.007c31.36 0 62.549-25.6 143.36-25.6s112 25.6 143.36 25.6c90.457-0.073 163.767-73.383 163.84-163.833v-0.007zM358.4 379.733c113.108 0 204.8 91.692 204.8 204.8v0c0 113.108-91.692 204.8-204.8 204.8v0c-113.108 0-204.8-91.692-204.8-204.8v0c0-113.108 91.692-204.8 204.8-204.8v0zM358.4 738.133c84.772-0.146 153.455-68.828 153.6-153.586v-0.014c-0.146-84.772-68.828-153.455-153.586-153.6h-0.014c-84.772 0.146-153.455 68.828-153.6 153.586v0.014c0.146 84.772 68.828 153.455 153.586 153.6h0.014z" />
<glyph unicode="&#xe956;" glyph-name="tool-custom-regular" d="M917.333 213.333l-53.333 106.667-53.333-106.667-106.667-53.333 106.667-53.333 53.333-106.667 53.333 106.667 106.667 53.333zM864 128c-17.673 0-32 14.327-32 32s14.327 32 32 32c17.673 0 32-14.327 32-32v0c0-17.673-14.327-32-32-32v0zM448 704l32 64 64 32-64 32-32 64-32-64-64-32 64-32zM800 512c17.673 0 32 14.327 32 32v0 55.936l183.723 203.648c5.134 5.655 8.277 13.198 8.277 21.476 0 8.843-3.587 16.849-9.386 22.641v0l-38.955 38.955c-6.003 5.428-13.861 8.906-22.519 9.383l-0.094 0.004c-8.228-0.025-15.719-3.164-21.359-8.3l0.026 0.023-558.507-503.765h-85.333c-17.618-0.073-31.872-14.372-31.872-32 0 0 0 0 0 0v0-73.728l-234.923-211.925c-12.968-11.757-21.078-28.668-21.078-47.473 0-17.666 7.158-33.661 18.732-45.242l82.858-82.858c11.582-11.586 27.585-18.752 45.262-18.752 18.795 0 35.697 8.101 47.406 21.003l0.048 0.053 558.379 618.923zM146.859-64l-82.859 82.816 846.763 763.733zM160 576l53.333 106.667 106.667 53.333-106.667 53.333-53.333 106.667-53.333-106.667-106.667-53.333 106.667-53.333zM160 768c17.673 0 32-14.327 32-32v0c0-17.673-14.327-32-32-32v0c-17.673 0-32 14.327-32 32v0c0 17.673 14.327 32 32 32v0z" />
<glyph unicode="&#xe957;" glyph-name="website-custom-regular" horiz-adv-x="1170" d="M109.721-128.026c-60.6 0.015-109.721 49.144-109.721 109.747v0 804.558c0.015 60.591 49.13 109.706 109.719 109.721h950.872c60.586-0.015 109.695-49.133 109.695-109.721v-804.558c0-60.588-49.109-109.706-109.693-109.721h-0.001zM73.156-18.279c0.059-20.17 16.394-36.506 36.559-36.565h950.876c20.17 0.059 36.506 16.394 36.565 36.559v621.714h-1024zM292.571 676.584h804.584v109.695c-0.059 20.17-16.394 36.506-36.559 36.565h-768.026zM73.156 786.279v-109.695h146.26v146.26h-109.695c-20.17-0.059-36.506-16.394-36.565-36.559v-0.006zM562.803 90.557l-165.921 163.086c-21.117 20.581-34.216 49.302-34.216 81.082 0 35.743 16.569 67.616 42.445 88.358l0.223 0.173c20.233 15.45 45.878 24.755 73.696 24.755 33.698 0 64.206-13.654 86.295-35.731v0l16.93-16.67 16.904 16.67c22.079 22.091 52.588 35.755 86.288 35.755 27.825 0 53.474-9.315 73.998-24.997l-0.295 0.216c26.047-20.949 42.575-52.817 42.575-88.545 0-31.759-13.060-60.468-34.102-81.048l-0.021-0.020-165.947-162.956c-5.013-4.869-11.863-7.87-19.414-7.87s-14.4 3.002-19.421 7.877l0.007-0.007z" />
<glyph unicode="&#xe958;" glyph-name="agenda-custom-regular" horiz-adv-x="768" d="M671.994 768h-177.198c0.767 4.787 1.206 10.307 1.206 15.929v0c0 61.871-50.137 112.032-111.999 112.071h-0.004c-61.842-0.039-111.964-50.161-112.003-111.999v-0.004c0-5.622 0.439-11.142 1.283-16.526l-0.077 0.598h-177.198c-53.025-0.013-96.006-43.001-96.006-96.028 0-0.016 0-0.032 0-0.048v0.003-704.011c0.026-53.008 42.997-95.97 96.005-95.983h575.99c53.017 0.013 95.993 42.988 96.006 96.004v703.99c-0.013 53.017-42.988 95.993-96.004 96.006h-0.001zM384 831.989c0.061 0 0.133 0 0.205 0 26.392 0 47.787-21.395 47.787-47.787 0-0.072 0-0.144 0-0.216v0.011c0-0.061 0-0.133 0-0.205 0-26.392-21.395-47.787-47.787-47.787-0.072 0-0.144 0-0.216 0h0.011c-0.061 0-0.133 0-0.205 0-26.392 0-47.787 21.395-47.787 47.787 0 0.072 0 0.144 0 0.216v-0.011c0 0.061 0 0.133 0 0.205 0 26.392 21.395 47.787 47.787 47.787 0.072 0 0.144 0 0.216 0h-0.011zM704.011-31.994c-0.052-17.649-14.345-31.943-31.989-31.994h-576.016c-17.649 0.052-31.943 14.345-31.994 31.989v703.994c0.052 17.649 14.345 31.943 31.989 31.994h96.011v-40.095c0.039-13.243 10.764-23.968 24.003-24.007h335.99c13.243 0.039 23.968 10.764 24.007 24.003v40.008h95.983c17.649-0.052 31.943-14.345 31.994-31.989v-0.005zM224.006 240.003c-0.061 0-0.133 0-0.205 0-26.392 0-47.787-21.395-47.787-47.787 0-0.072 0-0.144 0-0.216v0.011c0-0.061 0-0.133 0-0.205 0-26.392 21.395-47.787 47.787-47.787 0.072 0 0.144 0 0.216 0h-0.011c0.061 0 0.133 0 0.205 0 26.392 0 47.787 21.395 47.787 47.787 0 0.072 0 0.144 0 0.216v-0.011c0 0.061 0 0.133 0 0.205 0 26.392-21.395 47.787-47.787 47.787-0.072 0-0.144 0-0.216 0h0.011zM560.014 224.074h-224.006c-8.771-0.064-15.865-7.157-15.929-15.923v-32c0.064-8.771 7.157-15.865 15.923-15.929h223.989c8.771 0.064 15.865 7.157 15.929 15.923v32c-0.102 8.742-7.181 15.797-15.923 15.861h-0.006zM252.405 355.282l128.41 127.204c1.947 1.944 3.151 4.632 3.151 7.6s-1.204 5.656-3.151 7.6v0l-25.19 25.395c-1.944 1.947-4.632 3.151-7.6 3.151s-5.656-1.204-7.6-3.151v0l-95.209-94.39-41.21 41.779c-1.944 1.947-4.632 3.151-7.6 3.151s-5.656-1.204-7.6-3.151v0l-25.395-25.19c-1.947-1.944-3.151-4.632-3.151-7.6s1.204-5.656 3.151-7.6v0l74.206-74.798c1.874-1.969 4.513-3.193 7.439-3.193 2.881 0 5.486 1.188 7.35 3.1l0.002 0.002zM559.991 415.994h-155.193l-64.603-63.989h219.796c8.771 0.064 15.865 7.157 15.929 15.923v32c0 0.007 0 0.015 0 0.023 0 8.82-7.118 15.978-15.923 16.042h-0.006z" />
<glyph unicode="&#xe959;" glyph-name="lira-budget-custom-regular" horiz-adv-x="1189" d="M16.511-128c-9.106 0.030-16.481 7.404-16.511 16.508v33.024c0.030 9.106 7.404 16.481 16.508 16.511h826.536c0.107 0 0.233-0.001 0.36-0.001 20.799 0 39.908 7.24 54.942 19.338l-0.17-0.132 208.007 166.427c10.203 8.102 16.688 20.507 16.688 34.425 0 13.059-5.709 24.785-14.767 32.819l-0.046 0.040c-7.879 6.602-18.126 10.612-29.31 10.612s-21.43-4.010-29.381-10.671l0.071 0.058-127.118-101.52c-14.993-11.944-34.202-19.174-55.099-19.205h-371.931c-18.237 0-33.021 14.784-33.021 33.021s14.784 33.021 33.021 33.021v0h181.59c27.356 0 49.532 22.176 49.532 49.532s-22.176 49.532-49.532 49.532v0h-302.712c-29.881-0.031-57.44-9.949-79.587-26.66l0.336 0.243-96.792-72.541h-181.616c-9.097 0.030-16.466 7.389-16.511 16.48v33.025c0.030 9.106 7.404 16.481 16.508 16.511h159.535l79.251 59.438c32.609 24.736 73.872 39.626 118.612 39.626 0.093 0 0.186 0 0.279 0h297.573c0.644 0.013 1.403 0.020 2.164 0.020 58.436 0 107.024-42.163 117.001-97.728l0.107-0.722c0.822-5.163 1.291-11.115 1.291-17.177 0-17.983-4.131-35-11.497-50.155l0.299 0.682h85.829c0.058-0.001 0.126-0.001 0.194-0.001 5.174 0 9.932 1.781 13.694 4.764l-0.046-0.035 127.118 101.732c18.998 16.017 43.749 25.751 70.774 25.751 60.824 0 110.132-49.308 110.132-110.132 0-1.234-0.020-2.463-0.061-3.686l0.005 0.178c-1.115-33.388-16.887-62.879-41.053-82.389l-0.21-0.164-208.218-166.427c-26.063-21.080-59.61-33.84-96.138-33.84-0.016 0-0.032 0-0.048 0h0.003zM475.505 436.662c-6.799 0-12.31 5.512-12.31 12.31v0 206.633l-50.641-11.254c-0.802-0.186-1.723-0.293-2.668-0.293-6.79 0-12.296 5.498-12.31 12.285v25.335c0.212 5.778 4.195 10.57 9.552 11.999l56.068 12.462v48l-50.721-11.359c-0.802-0.186-1.723-0.293-2.668-0.293-6.799 0-12.31 5.512-12.31 12.31 0 0.001 0 0.001 0 0.002v0 25.281c0.203 5.782 4.191 10.578 9.552 11.999l56.068 12.462v79.251c0.060 6.753 5.548 12.205 12.31 12.205 0.028 0 0.056 0 0.084 0h40.995c6.799 0 12.31-5.512 12.31-12.31v-64.563l149.071 33.127c0.802 0.186 1.723 0.293 2.668 0.293 6.784 0 12.284-5.5 12.284-12.284 0-0.010 0-0.020 0-0.031v0.002-25.202c-0.203-5.782-4.191-10.578-9.552-11.999l-154.497-34.362v-47.973l149.071 33.127c0.802 0.186 1.723 0.293 2.668 0.293 6.784 0 12.284-5.5 12.284-12.284 0-0.010 0-0.020 0-0.031v0.002-25.175c-0.203-5.782-4.191-10.578-9.552-11.999l-154.497-34.362v-176.201h28.636c99.698 0 167.589 55.053 172.212 160.509 0.305 6.556 5.694 11.756 12.298 11.756 0.004 0 0.009 0 0.013 0h36.983c0.010 0 0.022 0 0.034 0 6.784 0 12.284-5.5 12.284-12.284 0-0.149-0.003-0.297-0.008-0.444l0.001 0.021c-5.283-137.791-96.448-216.962-232.707-216.962z" />
<glyph unicode="&#xe95a;" glyph-name="seating-plan-custom-regular" horiz-adv-x="1000" d="M739.738 384c0-132.286-107.239-239.525-239.525-239.525s-239.525 107.239-239.525 239.525c0 132.286 107.239 239.525 239.525 239.525v0c132.286 0 239.525-107.239 239.525-239.525v0zM708.836 384c0 115.219-93.404 208.623-208.623 208.623s-208.623-93.404-208.623-208.623c0-115.219 93.404-208.623 208.623-208.623 0.008 0 0.016 0 0.024 0h-0.001c115.197 0.013 208.577 93.401 208.577 208.6 0 0.008 0 0.016 0 0.024v-0.001zM500.235 801.815c26.015 0 47.104 21.089 47.104 47.104s-21.089 47.104-47.104 47.104c-26.015 0-47.104-21.089-47.104-47.104v0c0-0.007 0-0.015 0-0.023 0-26.002 21.079-47.081 47.081-47.081 0.008 0 0.016 0 0.024 0h-0.001zM533.208 790.050h-6.144c-7.866-3.719-17.088-5.891-26.817-5.891s-18.951 2.171-27.208 6.056l0.391-0.165h-6.144c-27.322 0-49.471-22.149-49.471-49.471v0-15.314c0-9.752 7.906-17.658 17.658-17.658v0h129.525c9.752 0 17.658 7.906 17.658 17.658v0 15.314c-0.013 27.304-22.144 49.435-49.447 49.448h-0.001zM223.369 687.127c26.002 0 47.081 21.079 47.081 47.081s-21.079 47.081-47.081 47.081c-25.994 0-47.068-21.066-47.081-47.057v-0.001c0-0.007 0-0.015 0-0.023 0-26.002 21.079-47.081 47.081-47.081v0zM256.341 675.339h-6.144c-7.867-3.714-17.089-5.881-26.817-5.881s-18.95 2.168-27.209 6.047l0.392-0.165h-6.144c-27.304-0.013-49.435-22.144-49.448-49.447v-15.315c0-9.752 7.906-17.658 17.658-17.658v0h129.525c9.752 0 17.658 7.906 17.658 17.658v0 15.314c0 27.309-22.139 49.448-49.448 49.448-0.008 0-0.016 0-0.024 0h0.001zM82.421 384c25.992 0.013 47.058 21.087 47.058 47.081 0 26.002-21.079 47.081-47.081 47.081s-47.081-21.079-47.081-47.081v0c0-26.002 21.079-47.081 47.081-47.081 0.008 0 0.016 0 0.024 0h-0.001zM115.393 372.213h-6.144c-7.867-3.714-17.089-5.881-26.817-5.881s-18.95 2.168-27.209 6.047l0.392-0.165h-6.144c-0.041 0-0.089 0-0.137 0-27.293 0-49.422-22.113-49.448-49.4v-15.316c0-9.752 7.906-17.658 17.658-17.658v0h129.502c9.752 0 17.658 7.906 17.658 17.658v0 15.314c-0.039 27.245-22.095 49.325-49.327 49.402h-0.007zM223.369 133.439c0.007 0 0.015 0 0.023 0 26.015 0 47.104 21.089 47.104 47.104s-21.089 47.104-47.104 47.104c-26.015 0-47.104-21.089-47.104-47.104 0-0.008 0-0.016 0-0.024v0.001c0-26.002 21.079-47.081 47.081-47.081v0zM256.341 121.651h-6.144c-7.867-3.714-17.089-5.881-26.817-5.881s-18.95 2.168-27.209 6.047l0.392-0.165h-6.144c-27.309 0-49.448-22.139-49.448-49.448v0-15.314c0-9.752 7.906-17.658 17.658-17.658v0h129.502c9.752 0 17.658 7.906 17.658 17.658v15.428c-0.078 27.255-22.184 49.321-49.447 49.334h-0.001zM500.235-33.815c25.992 0.013 47.058 21.087 47.058 47.081 0 26.002-21.079 47.081-47.081 47.081s-47.081-21.079-47.081-47.081v0c0-26.002 21.079-47.081 47.081-47.081 0.008 0 0.016 0 0.024 0h-0.001zM533.208-45.602h-6.144c-7.867-3.715-17.089-5.884-26.817-5.884s-18.951 2.169-27.209 6.049l0.392-0.165h-6.144c-27.322 0-49.471-22.149-49.471-49.471 0-0.016 0-0.032 0-0.048v0.002-15.314c0-9.752 7.906-17.658 17.658-17.658v0h129.525c9.752 0 17.658 7.906 17.658 17.658v15.314c0 0.020 0 0.044 0 0.068 0 27.309-22.139 49.448-49.448 49.448 0 0 0 0 0 0v0zM777.079 133.439c25.992 0.013 47.058 21.087 47.058 47.081 0 26.002-21.079 47.081-47.081 47.081-25.994 0-47.068-21.066-47.081-47.057v-0.001c0-0.007 0-0.015 0-0.023 0-26.002 21.079-47.081 47.081-47.081 0.008 0 0.016 0 0.024 0h-0.001zM810.052 121.651h-6.144c-7.867-3.715-17.089-5.884-26.817-5.884s-18.951 2.169-27.209 6.049l0.392-0.165h-6.144c-27.304-0.013-49.435-22.144-49.448-49.447v-15.315c0-9.752 7.906-17.658 17.658-17.658v0h129.525c9.752 0 17.658 7.906 17.658 17.658v0 15.428c-0.078 27.263-22.197 49.334-49.47 49.334 0 0 0 0 0 0v0zM918.027 384c0.007 0 0.015 0 0.023 0 26.015 0 47.104 21.089 47.104 47.104s-21.089 47.104-47.104 47.104c-26.015 0-47.104-21.089-47.104-47.104v0c0-26.007 21.076-47.091 47.080-47.104h0.001zM951 372.235h-6.144c-7.867-3.714-17.089-5.881-26.817-5.881s-18.95 2.168-27.209 6.047l0.392-0.165h-6.144c-27.265-0.065-49.344-22.176-49.357-49.447v-15.315c0-9.752 7.906-17.658 17.658-17.658h129.502c9.752 0 17.658 7.906 17.658 17.658v0 15.314c-0.026 27.302-22.165 49.425-49.471 49.425-0.024 0-0.048 0-0.072 0h0.004zM777.079 687.15c26.015 0 47.104 21.089 47.104 47.104s-21.089 47.104-47.104 47.104c-26.015 0-47.104-21.089-47.104-47.104 0-0.008 0-0.016 0-0.024v0.001c0-26.002 21.079-47.081 47.081-47.081 0.008 0 0.016 0 0.024 0h-0.001zM810.052 675.385h-6.144c-7.866-3.719-17.088-5.891-26.817-5.891s-18.951 2.171-27.208 6.056l0.391-0.165h-6.144c-27.304-0.013-49.435-22.144-49.448-49.447v-15.315c0-9.752 7.906-17.658 17.658-17.658h129.502c9.752 0 17.658 7.906 17.658 17.658v0 15.314c-0.026 27.294-22.152 49.412-49.447 49.425h-0.001z" />
<glyph unicode="&#xe95b;" glyph-name="weather-custom-regular" horiz-adv-x="1280" d="M1116.388 524.8c-32.656 68.329-101.051 114.782-180.339 115.2h-0.055c-0.246 0.001-0.537 0.002-0.828 0.002-83.103 0-154.258-51.152-183.699-123.688l-0.476-1.327c-65.167-23.482-110.918-84.777-110.918-156.757 0-91.806 74.423-166.229 166.229-166.229 0.035 0 0.069 0 0.104 0h307.195c0.423-0.004 0.922-0.006 1.422-0.006 91.904 0 166.406 74.503 166.406 166.406 0 91.403-73.694 165.595-164.907 166.399l-0.076 0.001zM1113.543 256h-307.2c-56.304 0.226-101.861 45.921-101.861 102.257 0 54.785 43.083 99.507 97.216 102.136l0.236 0.009c9.989 65.783 66.146 115.612 133.942 115.612 71.409 0 129.906-55.28 135.031-125.381l0.026-0.442c12.414 6.419 27.052 10.306 42.569 10.608l0.097 0.001c56.554 0 102.4-45.846 102.4-102.4s-45.846-102.4-102.4-102.4v0zM806.343 128c-1.394 0-2.844 0.398-4.21 0.398l8.533-43.207-169.472 33.564c-1.963 0.438-4.218 0.689-6.531 0.689-10.96 0-20.604-5.635-26.192-14.166l-0.073-0.119-96.398-143.559-96.199 143.787c-5.792 8.622-15.507 14.219-26.529 14.219-2.218 0-4.383-0.227-6.473-0.658l0.206 0.036-169.586-33.593 33.593 169.614c0.374 1.84 0.588 3.955 0.588 6.12 0 11.064-5.59 20.823-14.101 26.605l-0.112 0.072-143.787 96.199 143.787 96.199c8.622 5.854 14.213 15.613 14.213 26.677 0 2.165-0.214 4.28-0.622 6.324l0.034-0.205-33.621 169.614 169.614-33.621c1.884-0.396 4.049-0.623 6.267-0.623 11.022 0 20.737 5.597 26.457 14.105l0.072 0.114 96.199 143.815 96.199-143.787c5.792-8.622 15.507-14.219 26.529-14.219 2.218 0 4.383 0.227 6.473 0.658l-0.206-0.036 216.604 43.008c14.815 2.97 25.82 15.875 25.82 31.351 0 2.213-0.225 4.373-0.653 6.459l0.035-0.206c-2.9 14.818-15.781 25.845-31.238 25.845-2.253 0-4.452-0.234-6.572-0.68l0.207 0.036-195.612-38.741-110.933 165.803c-5.867 8.572-15.572 14.143-26.583 14.222h-0.012c-11.023-0.079-20.729-5.651-26.524-14.112l-0.072-0.111-111.047-165.803-195.612 38.713c-1.911 0.415-4.107 0.653-6.358 0.653-8.778 0-16.711-3.614-22.393-9.436l-0.006-0.006c-5.796-5.809-9.38-13.827-9.38-22.682 0-2.169 0.215-4.288 0.625-6.337l-0.034 0.205 38.741-195.612-165.803-110.933c-8.608-5.834-14.196-15.559-14.222-26.592v-0.004c0.026-11.036 5.614-20.762 14.11-26.524l0.113-0.072 165.803-110.933-38.798-195.612c-0.385-1.861-0.605-3.999-0.605-6.189 0-8.868 3.614-16.892 9.449-22.68l0.002-0.002c5.784-5.804 13.786-9.395 22.626-9.395 2.19 0 4.328 0.22 6.394 0.64l-0.205-0.035 195.612 38.798 110.933-165.803c5.832-8.603 15.562-14.182 26.596-14.182s20.764 5.579 26.524 14.070l0.072 0.112 110.933 165.803 195.612-38.798c1.943-0.431 4.174-0.678 6.462-0.678 8.767 0 16.688 3.626 22.344 9.46l0.008 0.008c5.796 5.809 9.38 13.827 9.38 22.682 0 2.169-0.215 4.288-0.625 6.337l0.034-0.205-15.189 77.198zM512 536.604c0.061 0 0.134 0 0.206 0 41.963 0 79.944-17.048 107.395-44.597l0.004-0.004c12.711 17.614 27.217 32.816 43.541 45.837l0.462 0.356c-39.039 38.409-92.637 62.123-151.773 62.123-119.549 0-216.462-96.913-216.462-216.462s96.913-216.462 216.462-216.462c0.058 0 0.116 0 0.173 0h-0.009c46.026 0.038 88.673 14.479 123.683 39.058l-0.69-0.459c-13.713 15.381-25.563 32.877-34.917 51.824l-0.61 1.367c-24.369-17.243-54.701-27.563-87.444-27.563-84.218 0-152.491 68.272-152.491 152.491 0 84.21 68.259 152.478 152.467 152.491h0.001z" />
<glyph unicode="&#xe95c;" glyph-name="article-custom-solid" d="M819.2 827.665c28.331 0 51.2-22.938 51.2-51.132v-460.8c0-28.277-22.923-51.2-51.2-51.2v0h-183.603l-87.381-87.381c-10.001-10.001-23.108-15.019-36.215-15.019s-26.214 4.949-36.181 14.95l-87.415 87.381h-183.603c-28.277 0-51.2 22.923-51.2 51.2v0 460.8c0 28.297 22.869 51.2 51.2 51.2h204.8c0.007 0 0.015 0 0.023 0 14.116 0 26.897-5.712 36.159-14.951l-0.001 0.001 66.219-66.15 66.219 66.116c9.591 9.626 22.562 15.019 36.181 15.019h204.8zM512-42.667c-10.786 0-21.606 3.379-30.72 10.24l-191.181 143.36h-238.899c-28.277 0-51.2 22.923-51.2 51.2v0 563.2h102.4v-512h204.8c11.093 0 21.845-3.584 30.72-10.24l174.080-130.56 174.080 130.56c8.875 6.656 19.593 10.24 30.72 10.24h204.8v512h102.4v-563.2c0-28.277-22.923-51.2-51.2-51.2v0h-238.899l-191.181-143.36c-9.114-6.861-19.934-10.24-30.72-10.24z" />
<glyph unicode="&#xe95e;" glyph-name="explore-custom-solid" d="M1021.747 168.653l-185.6 603.238c-17.911 57.495-70.654 98.509-132.978 98.509-0.14 0-0.28 0-0.42-0.001h0.022c-77.036-0.116-139.455-62.535-139.571-139.56v-65.24h-102.4v65.229c-0.116 77.036-62.535 139.455-139.56 139.571h-0.011c-61.645 0-115.2-39.629-133.376-98.509l-185.6-603.238c-1.427-4.503-2.251-9.681-2.253-15.052v-25.601c0-127.078 103.373-230.4 230.4-230.4s230.4 103.322 230.4 230.4v230.4h102.4v-230.4c0-127.078 103.373-230.4 230.4-230.4s230.4 103.322 230.4 230.4v25.6c0 5.12-0.768 10.189-2.253 15.053zM230.4 0c-70.657 0.087-127.913 57.343-128 127.991v0.009c0 70.554 57.446 128 128 128s128-57.446 128-128-57.446-128-128-128zM793.6 0c-70.657 0.087-127.913 57.343-128 127.991v0.009c0 70.554 57.446 128 128 128s128-57.446 128-128-57.446-128-128-128z" />
<glyph unicode="&#xe95f;" glyph-name="fashion-custom-solid" d="M855.398 293.427c-39.786 87.658-96.813 161.203-167.245 219.017l-1.049 0.836 54.016 180.122c0.806 2.573 1.274 5.531 1.28 8.598v0.003c0 42.547-41.421 76.39-101.069 86.733l19.917 68.966c0.707 2.426 1.113 5.214 1.113 8.096 0 16.57-13.433 30.003-30.003 30.003-13.524 0-24.958-8.948-28.705-21.247l-0.056-0.213-24.064-83.456c-24.824-2.203-47.609-8.977-68.171-19.481l1.048 0.486c-19.469 9.998-42.198 16.77-66.253 18.943l-0.716 0.052-24.064 83.456c-3.733 12.681-15.268 21.781-28.928 21.781-16.624 0-30.101-13.477-30.101-30.101 0-2.964 0.428-5.828 1.227-8.533l-0.054 0.213 19.866-68.966c-59.648-10.24-101.069-44.186-101.069-86.733 0.006-3.070 0.474-6.029 1.337-8.814l-0.057 0.212 54.323-180.122c-71.481-58.65-128.509-132.195-166.762-216.1l-1.532-3.753c-42.461-91.556-67.229-198.722-67.229-311.673 0-0.785 0.001-1.571 0.004-2.356v0.121-2.714c0.003-12.508 7.659-23.226 18.54-27.729l0.199-0.073c115.702-48.557 250.16-76.839 391.205-77.005h0.065c141.134 0.236 275.582 28.587 398.131 79.749l-6.861-2.54c11.080 4.575 18.736 15.294 18.739 27.801v0 2.509c0.003 0.74 0.004 1.616 0.004 2.492 0 112.773-24.692 219.779-68.964 315.906l1.939-4.695z" />
<glyph unicode="&#xe960;" glyph-name="passport-custom-solid" d="M844.8 24.508l-37.137 814.319c-1.638 36.181-30.037 61.542-63.351 56.559l-516.198-76.971c-33.314-4.949-59.051-38.332-57.344-74.547l37.069-814.319c1.536-34.202 26.965-58.709 57.924-57.071 0 0 426.325-1.195 457.933 0.239 31.061 1.399 86.63 6.212 84.924 84.719 22.357 12.766 37.444 39.049 36.181 67.072zM496.435 693.999c131.14 19.797 242.859-79.633 249.549-222.003 6.656-142.37-94.208-273.818-225.348-293.581-131.14-19.797-242.893 79.633-249.549 222.003-6.69 142.404 94.208 273.818 225.348 293.581zM765.679-92.672c-12.971-8.567-32.597-9.489-43.145-9.967-16.896-0.751-300.612-1.843-434.688-1.638l495.957 53.726c-1.092-30.822-13.653-39.185-18.125-42.121zM621.841 468.070l-98.167-14.643-4.437 96.836c25.378 5.772 47.793 14.735 68.298 26.629l-1.157-0.62c4.779-7.851 30.857-53.726 35.499-108.203zM435.575 583.475c14.236 22.915 29.947 42.793 47.622 60.73l-0.040-0.041 2.935-64.239c-3.765-0.277-8.158-0.434-12.586-0.434-13.434 0-26.529 1.451-39.137 4.205l1.207-0.221zM563.644 656.009c19.308-4.123 36.417-10.836 52.011-19.874l-0.845 0.452c-5.564-5.090-11.57-10.057-17.818-14.717l-0.614-0.438c-9.899 12.663-20.855 24.235-32.734 34.577zM517.7 584.67l-2.935 64.205c10.411-6.451 38.366-26.624 52.429-45.773-15.906-8.329-32.461-14.507-49.493-18.432zM454.588 263.817c14.575 7.236 29.662 12.663 45.158 16.282l2.56-56.559c-19.968 11.878-42.052 33.929-47.718 40.277zM614.571 594.842c9.421 7.066 18.398 14.848 26.863 23.177 37.888-31.812 63.829-79.701 69.973-136.602l-57.89-8.636c-3.976 45.502-17.927 87.027-39.642 123.38l0.73-1.319zM395.674 399.804l97.963 14.609 4.506-99.942c-24.103-5.471-45.385-13.783-64.975-24.757l1.214 0.625c-20.341 31.142-34.154 68.322-38.604 108.327l-0.103 1.139zM405.129 592.93c-7.808 3.229-14.237 6.409-20.434 9.95l0.876-0.461c14.143 13.087 30.143 24.492 47.483 33.71l1.225 0.594c-10.108-12.771-19.752-27.085-28.276-42.118l-0.874-1.675zM362.189 429.363l-57.89-8.636c1.146 59.234 22.33 113.307 57.029 155.943l-0.367-0.466c9.148-5.7 18.671-10.684 28.604-14.916-17.209-38.879-27.272-84.213-27.375-131.887v-0.038zM306.21 386.458l57.788 8.602c4.915-46.114 19.661-87.825 41.847-122.914-9.524-7.034-17.904-14.049-25.84-21.53l0.137 0.128c-39.253 30.891-66.697 78.575-73.967 135.714zM453.393 216.405c-17.19 3.684-32.406 9.338-46.483 16.846l0.949-0.462c5.427 4.642 11.059 9.045 16.862 13.175 8.806-10.718 18.432-20.582 28.672-29.559zM487.629 545.553l4.437-96.836-98.202-14.643c-2.014 49.937 21.163 108.1 25.19 117.248 15.536-4.092 33.373-6.442 51.758-6.442 5.931 0 11.804 0.245 17.611 0.724l-0.761-0.051zM529.783 319.181l-4.574 99.942 97.963 14.575c-0.649-28.535-7.748-80.521-28.297-119.467-14.523 3.568-31.196 5.615-48.347 5.615-5.894 0-11.731-0.242-17.503-0.716l0.757 0.050zM608.427 273.34c6.11-2.355 12.049-5.018 17.818-8.021-12.682-11.061-26.933-20.901-42.23-29.035l-1.222-0.593c9.318 11.913 17.92 24.474 25.6 37.649zM577.331 282.146c-5.018-7.987-25.020-36.659-43.418-53.931l-2.56 56.559c15.599 1.058 30.959 0.171 45.978-2.628zM654.814 438.443l57.822 8.602c-2.303-59.808-24.87-113.938-60.98-156.132l0.291 0.348c-7.632 4.612-16.6 9.132-25.914 12.985l-1.358 0.498c18.322 39.224 29.355 85.074 30.17 133.412l0.004 0.288z" />
<glyph unicode="&#xe961;" glyph-name="video-custom-solid" d="M972.369 287.69c28.403 8.461 51.631-8.785 51.631-38.427v-215.579c0-29.642-23.229-46.942-51.631-38.481l-163.948 49.26v-64.674c0-59.284-48.505-107.789-107.789-107.789h-431.158c-59.284 0-107.789 48.505-107.789 107.789v323.368c0 59.284 48.505 107.789 107.789 107.789h431.158c59.284 0 107.789-48.505 107.789-107.789v-64.674l163.948 49.206zM215.579 464.842c-119.061 0-215.579 96.518-215.579 215.579s96.518 215.579 215.579 215.579v0c119.061 0 215.579-96.518 215.579-215.579s-96.518-215.579-215.579-215.579v0zM700.632 464.842c-119.061 0-215.579 96.518-215.579 215.579s96.518 215.579 215.579 215.579v0c119.061 0 215.579-96.518 215.579-215.579s-96.518-215.579-215.579-215.579v0z" />
<glyph unicode="&#xf002;" glyph-name="search-light" d="M1017-67.199c9.4-9.4 9.4-24.602 0-34l-19.801-19.801c-9.398-9.4-24.6-9.4-34 0l-258 258c-4.398 4.6-7 10.6-7 17v20.4c-74.199-68.4-173.199-110.4-282.2-110.4-229.8 0-416 186.199-416 416s186.199 416 416 416 416-186.199 416-416c0-109-42-208-110.6-282.2h20.6c6.4 0 12.4-2.4 17-7zM416 128c194.6 0 352 157.4 352 352s-157.4 352-352 352-352-157.4-352-352 157.4-352 352-352z" />
<glyph unicode="&#xf003;" glyph-name="search-regular" d="M1017-41.801c9.4-9.398 9.4-24.6 0-34l-45.199-45.199c-9.4-9.4-24.602-9.4-34 0l-242.8 242.8c-4.4 4.6-7 10.6-7 17v26.398c-73-63-168-101.199-272-101.199-229.8 0-416 186.199-416 416s186.199 416 416 416 416-186.199 416-416c0-104-38.199-199-101.199-272h26.398c6.4 0 12.4-2.4 17-7zM416 160c176.801 0 320 143.199 320 320s-143.199 320-320 320-320-143.199-320-320 143.199-320 320-320z" />
<glyph unicode="&#xf004;" glyph-name="heart-light" d="M924.6 770.6c125.6-107.199 132.201-299.6 19.4-415.6l-387-399.6c-12.4-13-28.801-19.4-45.199-19.4-16.4 0-32.801 6.6-45.201 19.4l-387 399.6c-112.4 116-105.799 308.4 19.801 415.6 127 108 291.6 57.201 373.2-27.199l39.4-40.6 39.4 40.799c101.199 104.4 264.2 119.801 373.2 27zM898.4 399.4c76.799 79.4 92.6 230.4-15.4 322.4-109.199 93-239.2 25-285.6-23l-85.4-88.201-85.4 88.201c-47.199 48.799-176 116.6-285.6 23-108.199-92.201-92.199-243.202-15.4-322.4l387.202-399.6z" />
<glyph unicode="&#xf005;" glyph-name="star-light" horiz-adv-x="1152" d="M1056.2 553c52.4-7.6 73.4-72.199 35.4-109.199l-211.4-206 50-291c9-52.602-46.398-91.801-92.799-67.4l-261.4 137.4-261.4-137.4c-46.4-24.6-101.799 14.799-92.799 67.4l50 291-211.4 206c-38 37-17 101.6 35.4 109.199l292.2 42.6 130.6 264.8c23.6 47.799 91.4 47.199 114.801 0l130.6-264.8zM811.6 260.2l235.4 229.602-325.4 47.199-145.6 295-145.6-295-325.4-47.199 235.6-229.8-55.6-324 291 153 291.2-152.801z" />
<glyph unicode="&#xf006;" glyph-name="heart-regular" d="M916.8 767.4c150.6-126.801 128.199-333.202 21.199-442.6l-350.8-357.4c-20-20.4-46.6-31.6-75.199-31.6-28.4 0-55.199 11.398-75.199 31.799l-350.8 357.4c-107.199 109.4-129.199 315.8 21.199 442.4 115.602 97.4 294.202 82.6 404.8-30 110.6 112.6 289.2 127.199 404.8 30zM869.6 392.4c72.4 73.799 87.6 215.4-14.6 301.6-77.4 65.199-197.4 55.801-273-21.199l-70-71.4-70 71.4c-75.199 76.6-195.199 86.398-273 21-102.4-86.201-87.6-227-14.6-301.4l350.798-357.4c4.801-4.801 8.801-4.801 13.602 0z" />
<glyph unicode="&#xf007;" glyph-name="user-light" horiz-adv-x="896" d="M627.2 320c148.4 0 268.8-120.4 268.8-268.8v-83.199c0-53-43-96-96-96h-704c-53 0-96 43-96 96v83.199c0 148.4 120.4 268.8 268.8 268.8 57.6 0 85-32 179.199-32s121.801 32 179.199 32zM832-32v83.199c0 113-91.801 204.8-204.8 204.8-39.199 0-78.398-32-179.199-32-101 0-140 32-179.199 32-113 0-204.8-91.801-204.8-204.8v-83.199c0-17.6 14.4-32 32-32h704c17.6 0 32 14.4 32 32zM448 384c-141.4 0-256 114.6-256 256s114.6 256 256 256 256-114.6 256-256-114.6-256-256-256zM448 832c-105.801 0-192-86.199-192-192s86.199-192 192-192 192 86.199 192 192-86.199 192-192 192z" />
<glyph unicode="&#xf008;" glyph-name="star-regular" horiz-adv-x="1152" d="M1056.2 553c52.4-7.6 73.4-72.199 35.4-109.199l-211.4-206 50-291c9-52.602-46.398-91.801-92.799-67.4l-261.4 137.4-261.4-137.4c-46.4-24.6-101.799 14.799-92.799 67.4l50 291-211.4 206c-38 37-17 101.6 35.4 109.199l292.2 42.6 130.6 264.8c23.6 47.799 91.4 47.199 114.801 0l130.6-264.8zM777.2 271.4l201.202 196-278 40.4-124.4 252-124.4-252-278-40.4 201.202-196-47.4-276.8 248.6 130.6 248.6-130.6z" />
<glyph unicode="&#xf009;" glyph-name="user-regular" horiz-adv-x="896" d="M627.2 288c148.4 0 268.8-120.4 268.8-268.8v-51.199c0-53-43-96-96-96h-704c-53 0-96 43-96 96v51.199c0 148.4 120.4 268.8 268.8 268.8 57.6 0 85-32 179.199-32s121.801 32 179.199 32zM800-32v51.199c0 95.201-77.6 172.801-172.801 172.801-29.398 0-75.799-32-179.199-32-102.6 0-150 32-179.199 32-95.201 0-172.801-77.6-172.801-172.801v-51.199h704zM448 320c-159 0-288 129-288 288s129 288 288 288 288-129 288-288-129-288-288-288zM448 800c-105.801 0-192-86.199-192-192s86.199-192 192-192 192 86.199 192 192-86.199 192-192 192z" />
<glyph unicode="&#xf00a;" glyph-name="search-solid" d="M1010 10.6c18.6-18.799 18.6-49.199-0.199-68l-56.602-56.6c-18.6-18.801-49-18.801-67.799 0l-199.4 199.4c-9 9-14 21.199-14 34v32.6c-70.6-55.199-159.4-88-256-88-229.8 0-416 186.199-416 416s186.199 416 416 416 416-186.199 416-416c0-96.6-32.801-185.4-88-256h32.6c12.801 0 25-5 34-14zM416 224c141.6 0 256 114.6 256 256 0 141.6-114.6 256-256 256-141.6 0-256-114.6-256-256 0-141.6 114.6-256 256-256z" />
<glyph unicode="&#xf00b;" glyph-name="heart-solid" d="M924.6 770.8c125.6-107.201 132.201-299.602 19.6-415.8l-387-399.6c-25-25.801-65.6-25.801-90.6 0l-387 399.6c-112.4 116.199-105.799 308.6 19.801 415.8 109.6 93.398 272.798 76.6 373.2-27.201l39.4-40.6 39.4 40.6c100.6 103.801 263.6 120.6 373.2 27.201z" />
<glyph unicode="&#xf00c;" glyph-name="check-light" horiz-adv-x="896" d="M827.010 712.098c9.373 9.373 24.568 9.373 33.939 0l22.629-22.627c9.371-9.375 9.371-24.57 0-33.943l-599.626-599.624c-9.373-9.373-24.568-9.373-33.941 0l-237.588 237.588c-9.371 9.373-9.371 24.57 0 33.941l22.627 22.627c9.373 9.371 24.568 9.371 33.941 0l197.99-197.99z" />
<glyph unicode="&#xf00d;" glyph-name="times-light" horiz-adv-x="640" d="M387.88 384l247.42-247.42c6.238-6.24 6.238-16.381 0-22.619l-45.262-45.262c-6.238-6.238-16.379-6.238-22.619 0l-247.421 247.421-247.44-247.42c-6.24-6.238-16.381-6.238-22.621 0l-45.26 45.262c-6.24 6.238-6.24 16.379 0 22.619l247.44 247.42-247.44 247.44c-6.24 6.24-6.24 16.381 0 22.621l45.281 45.26c6.238 6.24 16.379 6.24 22.619 0l247.42-247.44 247.42 247.42c6.24 6.238 16.381 6.238 22.619 0l45.262-45.262c6.238-6.238 6.238-16.379 0-22.619l-42.301-42.301z" />
<glyph unicode="&#xf00e;" glyph-name="check-regular" d="M871.696 729.068c9.373 9.371 24.568 9.371 33.941 0l56.566-56.568c9.373-9.373 9.373-24.57 0-33.941l-599.624-599.626c-9.375-9.371-24.57-9.371-33.941 0l-266.842 266.842c-9.373 9.375-9.373 24.57 0 33.943l56.566 56.566c9.375 9.373 24.57 9.373 33.943 0l193.303-193.303z" />
<glyph unicode="&#xf00f;" glyph-name="times-regular" horiz-adv-x="640" d="M415.2 384l215.46-215.42c12.459-12.48 12.459-32.699 0-45.16l-50.061-50.061c-12.48-12.459-32.699-12.459-45.16 0l-215.44 215.442-215.42-215.46c-12.48-12.459-32.699-12.459-45.16 0l-50.061 50.061c-12.459 12.48-12.459 32.699 0 45.16l215.442 215.44-215.442 215.44c-12.459 12.48-12.459 32.701 0 45.16l50.041 50.041c12.48 12.459 32.699 12.459 45.16 0l215.44-215.442 215.42 215.46c12.48 12.459 32.699 12.459 45.16 0l50.061-50.061c12.459-12.48 12.459-32.699 0-45.16z" />
<glyph unicode="&#xf010;" glyph-name="star-solid" horiz-adv-x="1152" d="M518.6 860.4c23.6 47.799 91.4 47.199 114.801 0l130.6-264.8 292.2-42.6c52.4-7.6 73.4-72.199 35.4-109.199l-211.4-206 50-291c9-52.602-46.398-91.801-92.799-67.4l-261.4 137.4-261.4-137.4c-46.4-24.6-101.799 14.799-92.799 67.4l50 291-211.4 206c-38 37-17 101.6 35.4 109.199l292.2 42.6z" />
<glyph unicode="&#xf011;" glyph-name="user-solid" horiz-adv-x="896" d="M448 384c-141.4 0-256 114.6-256 256s114.6 256 256 256 256-114.6 256-256-114.6-256-256-256zM627.2 320c148.4 0 268.8-120.4 268.8-268.8v-83.199c0-53-43-96-96-96h-704c-53 0-96 43-96 96v83.199c0 148.4 120.4 268.8 268.8 268.8h33.398c44.602-20.4 93.801-32 145.801-32s101.4 11.6 145.801 32h33.398z" />
<glyph unicode="&#xf012;" glyph-name="check-solid" d="M347.796 17.191l-332.8 332.8c-19.994 19.994-19.994 52.412 0 72.408l72.406 72.408c19.994 19.996 52.414 19.996 72.408 0l224.19-224.19 480.19 480.19c19.994 19.994 52.414 19.994 72.408 0l72.406-72.408c19.994-19.994 19.994-52.412 0-72.408l-588.8-588.802c-19.996-19.994-52.414-19.994-72.406 0.002z" />
<glyph unicode="&#xf013;" glyph-name="times-solid" horiz-adv-x="704" d="M485.44 384l200.14-200.14c24.561-24.58 24.561-64.398 0-88.959l-44.48-44.48c-24.561-24.561-64.4-24.561-88.959 0l-200.14 200.14-200.14-200.14c-24.559-24.561-64.398-24.561-88.959 0l-44.48 44.48c-24.561 24.58-24.561 64.4 0 88.959l200.14 200.14-200.14 200.14c-24.561 24.58-24.561 64.398 0 88.959l44.48 44.48c24.58 24.561 64.4 24.561 88.959 0l200.14-200.14 200.14 200.14c24.58 24.561 64.398 24.561 88.959 0l44.48-44.48c24.561-24.58 24.561-64.4 0-88.959z" />
<glyph unicode="&#xf014;" glyph-name="search-plus-light" d="M639.6 488v-16c0-13.199-10.799-24-24-24h-168v-168c0-13.199-10.799-24-24-24h-16c-13.199 0-24 10.801-24 24v168h-168c-13.199 0-24 10.801-24 24v16c0 13.199 10.801 24 24 24h168v168c0 13.199 10.801 24 24 24h16c13.201 0 24-10.801 24-24v-168h168c13.201 0 24-10.801 24-24zM1016.6-98l-22.6-22.6c-9.4-9.4-24.6-9.4-34 0l-258 258c-4.6 4.6-7 10.6-7 17v17c-73.801-66.801-171.6-107.4-279-107.4-228.4 0-413 182.199-416 410.6-3 234 187.4 424.4 421.4 421.4 228.4-3 410.6-187.6 410.6-416 0-107.4-40.6-205.2-107.4-279h17c6.4 0 12.4-2.6 17-7l258-258c9.4-9.4 9.4-24.6 0-34zM768 480c0 194.6-157.4 352-352 352s-352-157.4-352-352 157.4-352 352-352 352 157.4 352 352z" />
<glyph unicode="&#xf015;" glyph-name="home-light" horiz-adv-x="1152" d="M1082 437.68c3.303-2.65 5.982-8.24 5.982-12.475 0-3.127-1.596-7.635-3.563-10.064l-20.199-24.82c-2.652-3.258-8.211-5.902-12.412-5.902-3.135 0-7.654 1.605-10.088 3.582l-81.721 66.76v-486.1c0-17.664-14.336-32-32-32l-256-0.66c-17.664 0-32 14.336-32 32v256.16l-128 0.6v-256c0-17.664-14.336-32-32-32h-256c-17.664 0-32 14.336-32 32v486l-81.721-66.76c-2.42-1.938-6.898-3.51-9.998-3.51-4.195 0-9.75 2.639-12.4 5.891l-20.201 24.818c-1.971 2.432-3.572 6.947-3.572 10.078 0 4.195 2.641 9.752 5.893 12.402l465.62 380.042c9.758 7.867 27.848 14.254 40.381 14.254s30.623-6.387 40.381-14.254l279.62-228.24v102.66c0 6.623 5.377 12 12 12h40c6.623 0 12-5.377 12-12v-154.801zM895.78 0.5l0.221 506.48-320 261.138-320-261.138v-506.48h191.98v256.28c0 17.664 14.336 32 32 32h0.1l192-0.539c17.555-0.109 31.846-14.445 31.9-32v-256.34l191.799 0.6z" />
<glyph unicode="&#xf016;" glyph-name="home-regular" horiz-adv-x="1152" d="M1140.48 401.18c6.387-5.297 11.57-16.332 11.57-24.629 0-6.422-3.348-15.629-7.471-20.551l-20.461-24.58c-5.295-6.322-16.285-11.453-24.531-11.453-6.412 0-15.609 3.34-20.527 7.453l-55.061 45.24v-373.14c-0.338-34.988-29.010-63.445-64-63.52h-256c-35.229 0.1-63.9 28.771-64 64v208h-128v-208c-0.1-35.229-28.771-63.9-64-64h-256c-35.229 0.1-63.9 28.771-64 64v372.62l-54.939-45.119c-4.92-4.113-14.117-7.453-20.529-7.453-8.246 0-19.236 5.131-24.531 11.453l-20.48 24.6c-4.119 4.922-7.461 14.123-7.461 20.541 0 8.25 5.135 19.244 11.461 24.539l492.74 404.82c17.209 14.328 49.348 25.955 71.74 25.955s54.531-11.627 71.74-25.955l280.36-230.2v112.439c0.131 8.646 7.254 15.707 15.9 15.76h64c8.832 0 16-7.168 16-16v-191.039zM927.7 32l0.301 419.58-352 289.12-352-289.238v-419.46h192v208c0.1 35.229 28.771 63.9 64 64h192c35.229-0.1 63.9-28.771 64-64v-208h191.699z" />
<glyph unicode="&#xf017;" glyph-name="home-solid" horiz-adv-x="1152" d="M560.74 599.48c3.697 2.98 10.551 5.398 15.299 5.398 4.75 0 11.604-2.418 15.301-5.398l368.66-303.48v-328c0-17.664-14.336-32-32-32l-224.042 0.619c-17.664 0-32 14.336-32 32 0 0.029 0 0.074 0.002 0.102v191.279c0 17.664-14.338 32-32 32h-128c-17.664 0-32-14.336-32-32v-191.42c0-17.576-14.266-31.912-31.842-32l-224.12-0.58c-17.664 0-32 14.336-32 32v327.78zM1143.2 393.060c4.891-3.977 8.859-12.318 8.859-18.621 0-4.746-2.445-11.572-5.459-15.24l-51-62c-3.973-4.807-12.262-8.709-18.498-8.709-4.771 0-11.627 2.469-15.301 5.51l-470.46 387.48c-3.697 2.98-10.551 5.398-15.301 5.398-4.748 0-11.602-2.418-15.299-5.398l-470.44-387.48c-3.674-3.033-10.521-5.496-15.285-5.496-6.256 0-14.561 3.924-18.535 8.756l-51 62c-3.041 3.676-5.51 10.531-5.51 15.301 0 6.238 3.902 14.525 8.709 18.5l506.26 416.94c14.672 12.072 42 21.871 61 21.871 19.002 0 46.328-9.799 61-21.871l179.061-147.32v145.221c0 13.248 10.752 24 24 24h112c13.248 0 24-10.752 24-24v-277.020z" />
<glyph unicode="&#xf018;" glyph-name="search-plus-regular" d="M624 504v-48c0-13.199-10.801-24-24-24h-136v-136c0-13.199-10.801-24-24-24h-48c-13.199 0-24 10.801-24 24v136h-136c-13.199 0-24 10.801-24 24v48c0 13.199 10.801 24 24 24h136v136c0 13.199 10.801 24 24 24h48c13.199 0 24-10.801 24-24v-136h136c13.199 0 24-10.801 24-24zM1017-75.801l-45.199-45.199c-9.4-9.4-24.602-9.4-34 0l-242.8 242.8c-4.6 4.6-7 10.6-7 17v26.398c-73-63-168-101.199-272-101.199-229.8 0-416 186.199-416 416s186.199 416 416 416 416-186.199 416-416c0-104-38.199-199-101.199-272h26.398c6.4 0 12.4-2.6 17-7l242.8-242.8c9.4-9.398 9.4-24.6 0-34zM736 480c0 176.801-143.199 320-320 320s-320-143.199-320-320 143.199-320 320-320 320 143.199 320 320z" />
<glyph unicode="&#xf019;" glyph-name="search-plus-solid" d="M608 512v-64c0-13.199-10.801-24-24-24h-112v-112c0-13.199-10.801-24-24-24h-64c-13.199 0-24 10.801-24 24v112h-112c-13.199 0-24 10.801-24 24v64c0 13.199 10.801 24 24 24h112v112c0 13.199 10.801 24 24 24h64c13.199 0 24-10.801 24-24v-112h112c13.199 0 24-10.801 24-24zM1010-57.4l-56.6-56.6c-18.801-18.801-49.201-18.801-67.801 0l-199.6 199.4c-9 9-14 21.199-14 34v32.6c-70.6-55.199-159.4-88-256-88-229.8 0-416 186.199-416 416s186.199 416 416 416 416-186.199 416-416c0-96.6-32.801-185.4-88-256h32.6c12.801 0 25-5 34-14l199.4-199.4c18.6-18.799 18.6-49.199 0-68zM688 480c0 150.4-121.6 272-272 272s-272-121.6-272-272 121.6-272 272-272 272 121.6 272 272z" />
<glyph unicode="&#xf01a;" glyph-name="th-large-light" d="M0 736c0 53.020 42.98 96 96 96h832c53.020 0 96-42.98 96-96v-704c0-53.020-42.98-96-96-96h-832c-53.020 0-96 42.98-96 96v704zM480 768h-384c-17.674 0-32-14.326-32-32v-320h416v352zM64 32c0-17.674 14.326-32 32-32h384v352h-416v-320zM544 0h384c17.674 0 32 14.326 32 32v320h-416v-352zM960 416v320c0 17.674-14.326 32-32 32h-384v-352h416z" />
<glyph unicode="&#xf01b;" glyph-name="th-large-regular" d="M0 736c0 53.020 42.98 96 96 96h832c53.020 0 96-42.98 96-96v-704c0-53.020-42.98-96-96-96h-832c-53.020 0-96 42.98-96 96v704zM464 736h-356c-6.623 0-12-5.377-12-12v-292h368v304zM96 336v-292c0-6.623 5.377-12 12-12h356v304h-368zM560 32h356c6.623 0 12 5.377 12 12v292h-368v-304zM928 432v292c0 6.623-5.377 12-12 12h-356v-304h368z" />
<glyph unicode="&#xf01c;" glyph-name="th-large-solid" d="M592 832h384c26.51 0 48-21.49 48-48v-320c0-26.51-21.49-48-48-48h-384c-26.51 0-48 21.49-48 48v320c0 26.51 21.49 48 48 48zM432 832c26.51 0 48-21.49 48-48v-320c0-26.51-21.49-48-48-48h-384c-26.51 0-48 21.49-48 48v320c0 26.51 21.49 48 48 48h384zM0 304c0 26.51 21.49 48 48 48h384c26.51 0 48-21.49 48-48v-320c0-26.51-21.49-48-48-48h-384c-26.51 0-48 21.49-48 48v320zM592-64c-26.51 0-48 21.49-48 48v320c0 26.51 21.49 48 48 48h384c26.51 0 48-21.49 48-48v-320c0-26.51-21.49-48-48-48h-384z" />
<glyph unicode="&#xf023;" glyph-name="lock-light" horiz-adv-x="896" d="M800 448c53 0 96-43 96-96v-384c0-53-43-96-96-96h-704c-53 0-96 43-96 96v384c0 53 43 96 96 96h32v128c0 176.801 144 320.6 321 320 176.801-0.6 319-146.199 319-323v-125h32zM192 576v-128h512v128c0 141.199-114.801 256-256 256s-256-114.801-256-256zM800-64c17.6 0 32 14.4 32 32v384c0 17.6-14.4 32-32 32h-704c-17.6 0-32-14.4-32-32v-384c0-17.6 14.4-32 32-32h704z" />
<glyph unicode="&#xf024;" glyph-name="flag-light" d="M688.696 746.666c94.535 0 193.5 39.645 267.060 73.812 31.832 14.783 68.244-8.422 68.244-43.521v-523.334c0-15.9-7.85-30.818-21.027-39.719-76.15-51.43-157.396-85.906-260.018-85.906-139.848 0-230.44 69.334-343.65 69.334-127.172 0-208.458-29.051-271.304-58.129v-243.204c0-13.254-10.746-24-24-24h-16c-13.254 0-24 10.746-24 24v813.484c-38.895 13.752-66.293 51.836-63.848 95.973 2.713 49.043 42.912 88.545 91.99 90.467 59.473 2.33 106.963-49.35 98.971-108.822 46.58 18.254 96.957 28.898 153.932 28.898 139.848 0 230.44-69.334 343.65-69.334zM96 840c-22.057 0-40-17.943-40-40s17.943-40 40-40 40 17.943 40 40-17.943 40-40 40zM960 261.334v490.666c-66.869-31.707-179.465-69.334-271.304-69.334-127.158 0-216.422 69.334-343.65 69.334-87.949 0-170.811-35.941-217.044-69.334v-473.332c66.746 31.629 179.271 52 271.304 52 127.158 0 216.422-69.334 343.65-69.334 87.949 0 170.811 35.939 217.044 69.334z" />
<glyph unicode="&#xf025;" glyph-name="lock-regular" horiz-adv-x="896" d="M800 512c53 0 96-43 96-96v-448c0-53-43-96-96-96h-704c-53 0-96 43-96 96v448c0 53 43 96 96 96h64v96c0 159 129.6 288.4 288.8 288s287.2-131.6 287.2-290.8v-93.199h64zM256 608v-96h384v96c0 105.801-86.199 192-192 192s-192-86.199-192-192zM800-32v448h-704v-448h704z" />
<glyph unicode="&#xf026;" glyph-name="flag-regular" d="M672.348 736c70.934 0 146.039 25.383 217.844 56.359 63.281 27.303 133.809-19.314 133.809-88.232v-479.838c0-32.391-16.309-62.611-43.426-80.326-53.152-34.729-140.139-79.963-257.096-79.963-137.217 0-225.562 64-323.826 64-113.135 0-179.914-22.561-255.652-57.113v-166.887c0-17.674-14.326-32-32-32h-32c-17.674 0-32 14.326-32 32v812.876c-28.686 16.6-48 47.596-48 83.123 0 55.139 46.484 99.42 102.402 95.793 45.932-2.98 83.732-38.943 88.961-84.676 0.355-3.049 0.643-8.016 0.643-11.084 0-8.604-2.207-22.207-4.926-30.369 44.836 17.371 98.84 30.336 161.441 30.336 137.217 0 225.562-64 323.826-64zM928 224v480c-63.012-29.268-169.109-64-255.652-64-119.822 0-203.936 64-323.826 64-82.873 0-160.953-33.176-204.522-64v-464c62.895 29.193 168.93 48 255.652 48 119.822 0 203.936-64 323.826-64 82.873 0 160.955 33.176 204.522 64z" />
<glyph unicode="&#xf027;" glyph-name="lock-solid" horiz-adv-x="896" d="M800 448c53 0 96-43 96-96v-384c0-53-43-96-96-96h-704c-53 0-96 43-96 96v384c0 53 43 96 96 96h48v144c0 167.6 136.4 304 304 304s304-136.4 304-304v-144h48zM592 448v144c0 79.4-64.6 144-144 144s-144-64.6-144-144v-144h288z" />
<glyph unicode="&#xf028;" glyph-name="flag-solid" d="M699.13 698.434c80.99 0 165.223 31.812 233.898 63.709 42.434 19.707 90.971-11.246 90.971-58.033v-486.2c0-21.053-10.32-40.814-27.686-52.717-71.676-49.127-148.672-81.715-245.010-81.715-134.746 0-223.258 69.566-330.436 69.566-101.705 0-172.248-20.117-228.87-44.244v-188.801c0-26.51-21.49-48-48-48h-32c-26.51 0-48 21.49-48 48v772.11c-29.006 20.24-48 53.838-48 91.891 0 63.408 52.689 114.508 116.676 111.904 56.936-2.316 103.559-47.934 107.102-104.807 0.125-1.961 0.227-5.146 0.227-7.111 0-11.422-3.314-29.348-7.398-40.012 41.473 15.258 86.18 24.025 136.090 24.025 134.746 0 223.26-69.566 330.436-69.566z" />
<glyph unicode="&#xf02c;" glyph-name="tags-light" horiz-adv-x="1280" d="M1251.882 308.354l-408.236-408.236c-37.492-37.49-98.277-37.488-135.764 0l-3.551 3.551 45.254 45.254 3.551-3.551c12.506-12.506 32.768-12.484 45.254 0l408.236 408.236c12.475 12.479 12.475 32.779 0 45.254l-423.766 423.768c-5.145 5.172-15.242 9.371-22.539 9.371h-39.185l-64 64h103.098c21.949 0 52.361-12.598 67.881-28.117l423.766-423.766c37.49-37.488 37.49-98.273 0.002-135.764zM504.236 832h-408.236c-17.645 0-32-14.355-32-32v-408.236c0-8.547 3.328-16.584 9.371-22.627l423.766-423.766c12.506-12.506 32.768-12.484 45.254 0l408.236 408.236c12.475 12.479 12.475 32.779 0 45.254l-423.766 423.768c-5.145 5.172-15.242 9.371-22.539 9.371h-0.086zM504.236 896c21.949 0 52.361-12.598 67.881-28.117l423.766-423.766c37.488-37.488 37.488-98.273 0-135.764l-408.236-408.236c-37.492-37.49-98.277-37.488-135.764 0l-423.766 423.766c-15.52 15.52-28.117 45.932-28.117 67.881v408.236c0 53.020 42.98 96 96 96h408.236zM288 648c-22.057 0-40-17.943-40-40s17.943-40 40-40 40 17.943 40 40-17.943 40-40 40zM288 704c53.020 0 96-42.98 96-96s-42.98-96-96-96-96 42.98-96 96 42.98 96 96 96z" />
<glyph unicode="&#xf02d;" glyph-name="book-light" horiz-adv-x="896" d="M712 576h-336c-13.199 0-24 10.801-24 24v16c0 13.199 10.801 24 24 24h336c13.199 0 24-10.801 24-24v-16c0-13.199-10.801-24-24-24zM736 472c0-13.199-10.801-24-24-24h-336c-13.199 0-24 10.801-24 24v16c0 13.199 10.801 24 24 24h336c13.199 0 24-10.801 24-24v-16zM865.4-64h6.6c13.199 0 24-10.801 24-24v-16c0-13.199-10.801-24-24-24h-712c-88.4 0-160 71.6-160 160v704c0 88.4 71.6 160 160 160h688c26.6 0 48-21.4 48-48v-736c0-20-12.4-37.199-29.801-44.4-7.199-32.199-8.799-91.199-0.799-131.6zM256 128h576v704h-576v-704zM64 96c26.801 20 60 32 96 32h32v704h-32c-53 0-96-43-96-96v-640zM808.6-64c-6.199 40.801-5.799 90.4 0 128h-648.6c-128 0-128-128 0-128h648.6z" />
<glyph unicode="&#xf02e;" glyph-name="book-regular" horiz-adv-x="896" d="M256 592v64c0 8.801 7.199 16 16 16h416c8.801 0 16-7.199 16-16v-64c0-8.801-7.199-16-16-16h-416c-8.801 0-16 7.199-16 16zM272 416c-8.801 0-16 7.199-16 16v64c0 8.801 7.199 16 16 16h416c8.801 0 16-7.199 16-16v-64c0-8.801-7.199-16-16-16h-416zM870.2 96.6c-8.398-26-8.398-103.199 0-129.199 14.602-2.801 25.801-15.801 25.801-31.4v-32c0-17.6-14.4-32-32-32h-704c-88.4 0-160 71.6-160 160v704c0 88.4 71.6 160 160 160h704c17.6 0 32-14.4 32-32v-736c0-15.6-11-28.4-25.801-31.4zM788 96h-628c-35.199 0-64-28.801-64-64 0-35.4 28.6-64 64-64h628c-5.4 34.6-5.4 93.4 0 128zM800 800h-640c-35.4 0-64-28.6-64-64v-557.4c19.6 8.6 41.199 13.4 64 13.4h640v608z" />
<glyph unicode="&#xf02f;" glyph-name="print-light" d="M864 512c88.359 0 160-71.641 160-160v-192c0-17.68-14.32-32-32-32h-160v-224c0-17.68-14.32-32-32-32h-576c-17.68 0-32 14.32-32 32v224h-160c-17.68 0-32 14.32-32 32v192c0 88.359 71.641 160 160 160h32v320c0 35.34 27.279 64 60.961 64h360.52c16.98 0 33.26-6.74 45.26-18.74l154.52-154.5c12-12.020 18.74-28.279 18.74-45.26v-165.5h32zM640 805.5v-101.5h101.5zM256.24 832l-0.201-320h511.96v128h-128c-35.34 0-64 28.66-64 64v128h-319.76zM768-64v192h-512v-192h512zM960 192v160c0 52.939-43.061 96-96 96h-704c-52.939 0-96-43.061-96-96v-160h896zM800 368c26.5 0 48-21.48 48-48 0-26.5-21.5-48-48-48s-48 21.5-48 48c0 26.52 21.5 48 48 48z" />
<glyph unicode="&#xf030;" glyph-name="camera-light" d="M648.6 768h-262c-13.4 0-25.4-8.4-30-20.801l-40.199-107.199h-220.4c-17.6 0-32-14.4-32-32v-576c0-17.6 14.4-32 32-32h832c17.6 0 32 14.4 32 32v576c0 17.6-14.4 32-32 32h-220.2l-44.201 117.6c-2.4 6.201-8.4 10.4-15 10.4zM648.6 832c33.4 0 63.201-20.6 74.801-52l28.6-76h176c53 0 96-43 96-96v-576c0-53-43-96-96-96h-832c-53 0-96 43-96 96v576c0 53 43 96 96 96h176l24.801 65.801c14 37.398 49.799 62.199 89.799 62.199h262zM512 80c-132.4 0-240 107.6-240 240s107.6 240 240 240 240-107.6 240-240-107.6-240-240-240zM512 496c-97 0-176-79-176-176s79-176 176-176 176 79 176 176-79 176-176 176z" />
<glyph unicode="&#xf031;" glyph-name="print-regular" d="M800 368c26.5 0 48-21.48 48-48 0-26.5-21.5-48-48-48s-48 21.5-48 48c0 26.52 21.5 48 48 48zM864 544c88.359 0 160-71.641 160-160v-256c0-17.68-14.32-32-32-32h-128v-192c0-17.68-14.32-32-32-32h-640c-17.68 0-32 14.32-32 32v192h-128c-17.68 0-32 14.32-32 32v256c0 88.359 71.641 160 160 160v288c0 35.34 27.279 64 60.961 64h443.28c25.459 0 49.879-10.119 67.879-28.119l103.762-103.762c18-18 28.119-42.42 28.119-67.879v-152.24zM256 800v-256h512v128h-96c-17.68 0-32 14.32-32 32v96h-384zM768-32v128h-512v-128h512zM928 192v192c0 35.279-28.721 64-64 64h-704c-35.279 0-64-28.721-64-64v-192h832z" />
<glyph unicode="&#xf032;" glyph-name="camera-regular" d="M685.4 608l-47.801 128h-251l-48-128h-242.6v-576h832v576h-242.6zM648.6 832c33.4 0 63.201-20.6 74.801-52l28.6-76h176c53 0 96-43 96-96v-576c0-53-43-96-96-96h-832c-53 0-96 43-96 96v576c0 53 43 96 96 96h176l24.801 65.801c14 37.398 49.799 62.199 89.799 62.199h262zM512 80c-132.4 0-240 107.6-240 240s107.6 240 240 240 240-107.6 240-240-107.6-240-240-240zM512 464c-79.4 0-144-64.6-144-144s64.6-144 144-144 144 64.6 144 144-64.6 144-144 144z" />
<glyph unicode="&#xf033;" glyph-name="book-solid" horiz-adv-x="896" d="M896 176c0-15-7-28.6-17.801-37.199-8.398-30.801-8.398-118.602 0-149.4 10.801-8.801 17.801-22.4 17.801-37.4v-32c0-26.6-21.4-48-48-48h-656c-106 0-192 86-192 192v640c0 106 86 192 192 192h656c26.6 0 48-21.4 48-48v-672zM256 628v-40c0-6.6 5.4-12 12-12h424c6.6 0 12 5.4 12 12v40c0 6.6-5.4 12-12 12h-424c-6.6 0-12-5.4-12-12zM256 500v-40c0-6.6 5.4-12 12-12h424c6.6 0 12 5.4 12 12v40c0 6.6-5.4 12-12 12h-424c-6.6 0-12-5.4-12-12zM762.8 0c-3.801 34.199-3.801 93.801 0 128h-570.8c-35.199 0-64-28.801-64-64 0-35.4 28.6-64 64-64h570.8z" />
<glyph unicode="&#xf034;" glyph-name="print-solid" d="M896 512c70.699 0 128-57.301 128-128v-224c0-17.68-14.32-32-32-32h-96v-192c0-35.34-28.66-64-64-64h-640c-35.34 0-64 28.66-64 64v192h-96c-17.68 0-32 14.32-32 32v224c0 70.699 57.301 128 128 128v320c0 35.34 28.66 64 64 64h549.48c16.98 0 33.26-6.74 45.26-18.74l90.52-90.5c12-12.020 18.74-28.279 18.74-45.26v-229.5zM768 0v192h-512v-192h512zM768 448v192h-96c-17.68 0-32 14.32-32 32v96h-384v-320h512zM864 304c26.5 0 48 21.5 48 48 0 26.52-21.5 48-48 48s-48-21.48-48-48c0-26.5 21.5-48 48-48z" />
<glyph unicode="&#xf035;" glyph-name="camera-solid" d="M1024 608v-576c0-53-43-96-96-96h-832c-53 0-96 43-96 96v576c0 53 43 96 96 96h176l24.6 65.801c14 37.398 49.801 62.199 89.801 62.199h251c40 0 75.799-24.801 89.799-62.199l24.801-65.801h176c53 0 96-43 96-96zM752 320c0 132.4-107.6 240-240 240s-240-107.6-240-240 107.6-240 240-240 240 107.6 240 240zM688 320c0-97-79-176-176-176s-176 79-176 176 79 176 176 176 176-79 176-176z" />
<glyph unicode="&#xf036;" glyph-name="tags-regular" horiz-adv-x="1280" d="M1251.882 308.354l-408.236-408.236c-37.492-37.49-98.277-37.488-135.764 0l-0.721 0.721 476.838 475.398-521.206 519.764h97.441c21.949 0 52.361-12.598 67.881-28.117l423.766-423.766c37.488-37.488 37.488-98.273 0-135.764zM995.882 308.354l-408.236-408.236c-18.744-18.746-43.314-28.117-67.883-28.117s-49.137 9.371-67.881 28.117l-423.766 423.766c-15.52 15.52-28.117 45.932-28.117 67.881v408.236c0 53.020 42.98 96 96 96h408.236c21.951 0 52.361-12.598 67.881-28.117l423.766-423.766c37.488-37.488 37.488-98.273 0-135.764zM928 376.236l-423.764 423.764h-408.236v-408.236l423.772-423.756zM288 704c53.020 0 96-42.98 96-96s-42.98-96-96-96-96 42.98-96 96 42.98 96 96 96z" />
<glyph unicode="&#xf037;" glyph-name="tags-solid" horiz-adv-x="1280" d="M995.882 444.118c37.488-37.488 37.488-98.273 0-135.764l-408.236-408.236c-37.492-37.49-98.277-37.488-135.764 0l-423.766 423.766c-15.52 15.52-28.117 45.932-28.117 67.881v408.236c0 53.020 42.98 96 96 96h408.236c21.949 0 52.361-12.598 67.881-28.117zM224 576c53.020 0 96 42.98 96 96s-42.98 96-96 96-96-42.98-96-96 42.98-96 96-96zM1251.882 308.354l-408.236-408.236c-37.49-37.488-98.275-37.488-135.764 0l-0.721 0.721 348.118 348.118c33.998 33.998 52.721 79.201 52.721 127.281s-18.725 93.281-52.721 127.279l-392.484 392.484h97.441c21.949 0 52.361-12.598 67.881-28.117l423.766-423.766c37.488-37.488 37.488-98.273 0-135.764z" />
<glyph unicode="&#xf03d;" glyph-name="video-light" horiz-adv-x="1152" d="M1087.8 704c33.199 0 64.199-26 64-63v-514c0-37-31-63-64.201-63-12.199 0-25 3.4-36.4 11.4l-219.2 139.799v-119.6c0-52.799-46.4-95.6-103.6-95.6h-624.8c-57.199 0-103.6 42.801-103.6 95.6v576.8c0 52.799 46.4 95.6 103.6 95.6h624.8c57.199 0 103.6-42.801 103.6-95.6v-119.6l219.4 139.799c11.4 7.801 24 11.4 36.4 11.4zM768 95.6v576.8c0 17.199-18.199 31.6-39.6 31.6h-624.8c-21.4 0-39.6-14.4-39.6-31.6v-576.8c0-17.199 18.199-31.6 39.6-31.6h624.8c21.4 0 39.6 14.4 39.6 31.6zM1088 127v513l-256-163v-185.801l253.6-161.6z" />
<glyph unicode="&#xf03e;" glyph-name="video-regular" horiz-adv-x="1152" d="M1087.8 704c33.199 0 64.199-26 64.199-63v-513.8c0-37-31-63-64.199-63-12.201 0-25 3.4-36.4 11.4l-219.4 136.6v-116.6c0-52.799-46.4-95.6-103.6-95.6h-624.8c-57.199 0-103.6 42.801-103.6 95.6v576.8c0 52.799 46.4 95.6 103.6 95.6h624.8c57.199 0 103.6-42.801 103.6-95.6v-116.6l219.4 136.799c11.4 7.801 24 11.4 36.4 11.4zM736 496v173.801c-1.199 1-3.6 2.199-7.6 2.199h-624.8c-4 0-6.4-1.4-7.6-2.199v-571.602c1.199-1 3.6-2.199 7.6-2.199h624.8c4 0 6.4 1.4 7.6 2.199v397.8zM1056 185.6v396.6l-224-139.6v-117.4z" />
<glyph unicode="&#xf03f;" glyph-name="video-solid" horiz-adv-x="1152" d="M672.4 768c52.799 0 95.6-42.801 95.6-95.6v-576.8c0-52.799-42.801-95.6-95.6-95.6h-576.8c-52.799 0-95.6 42.801-95.6 95.6v576.8c0 52.799 42.801 95.6 95.6 95.6h576.8zM1051.2 692.6c42.602 29.201 100.801-0.799 100.801-51.6v-513.8c0-51-58.4-80.799-100.801-51.6l-219.2 151v314.8z" />
<glyph unicode="&#xf040;" glyph-name="pencil-light" d="M986.51 783.528c49.986-49.984 49.986-131.031 0.002-181.020l-704.834-704.834-228.368-25.373c-30.568-3.398-56.404 22.436-53.008 53.008l25.373 228.368 704.834 704.832c49.99 49.988 131.035 49.986 181.020 0zM796.118 502.628l-165.488 165.488-448.12-448.118h69.49v-96h96v-69.49zM252.294-41.195l39.705 39.705v69.49h-96v96h-69.49l-39.705-39.705-13.111-117.99 60.611-60.611zM941.254 647.764c25.014 25.016 25.012 65.498 0 90.51l-74.98 74.98c-25.014 25.014-65.5 25.010-90.51 0l-99.881-99.883 165.488-165.488z" />
<glyph unicode="&#xf041;" glyph-name="pencil-regular" d="M983.218 748.75c54.418-54.416 53.916-139.512 1.256-192.174l-630.652-634.756-297.99-49.164c-32.438-5.348-60.523 22.744-55.174 55.174l49.162 297.992 634.756 630.608c52.768 52.764 138.164 52.756 190.92-0.002zM241.288 292h82.713v-96h96v-82.711l338.308 340.52-176.502 176.502zM164.264-20.264l147.172 24.281 36.564 36.803v83.18h-96v96h-83.182l-36.801-36.564-24.279-147.174zM922.234 618.802c18.621 18.623 18.5 47.967-1.256 67.721l-107.709 107.709c-18.516 18.516-48.178 18.289-66.471-0.002l-0.102-0.1-0.1-0.102-96.688-96.059 176.061-176.061 96.162 96.789z" />
<glyph unicode="&#xf042;" glyph-name="pencil-solid" d="M995.8 611.8l-92.201-92.201c-9.4-9.4-24.6-9.4-34 0l-222 222c-9.4 9.4-9.4 24.6 0 34l92.201 92.201c37.398 37.398 98.199 37.398 135.799 0l120.201-120.201c37.6-37.4 37.6-98.199 0-135.799zM568.4 696.4c9.4 9.4 24.6 9.4 34.199 0l222-222c9.4-9.4 9.4-24.6 0-34l-525.2-525.202-243-42.6c-32.801-5.6-61.4 22.801-55.6 55.6l42.398 243zM176 48v96h-72.6l-22.6-129 62.199-62.199 129 22.6v72.6h-96z" />
<glyph unicode="&#xf053;" glyph-name="chevron-left-light" horiz-adv-x="512" d="M476.95-55.070c-9.371-9.373-24.566-9.373-33.939-0.002l-422.102 422.1c-9.373 9.375-9.373 24.57 0 33.943l422.102 422.1c9.373 9.371 24.568 9.371 33.939 0l14.143-14.141c9.373-9.373 9.373-24.57 0-33.941l-390.986-390.988 390.986-390.988c9.373-9.373 9.373-24.57 0-33.941z" />
<glyph unicode="&#xf054;" glyph-name="chevron-right-light" horiz-adv-x="512" d="M35.051 823.070c9.371 9.373 24.566 9.373 33.939 0l422.102-422.098c9.373-9.375 9.373-24.57 0-33.943l-422.102-422.1c-9.373-9.371-24.568-9.371-33.939 0l-14.143 14.141c-9.373 9.373-9.373 24.57 0 33.941l390.986 390.988-390.986 390.988c-9.373 9.373-9.373 24.57 0 33.941z" />
<glyph unicode="&#xf055;" glyph-name="plus-circle-light" d="M768 396v-24c0-13.199-10.801-24-24-24h-196v-196c0-13.199-10.801-24-24-24h-24c-13.199 0-24 10.801-24 24v196h-196c-13.199 0-24 10.801-24 24v24c0 13.199 10.801 24 24 24h196v196c0 13.199 10.801 24 24 24h24c13.199 0 24-10.801 24-24v-196h196c13.199 0 24-10.801 24-24zM1008 384c0-274-222-496-496-496s-496 222-496 496 222 496 496 496 496-222 496-496zM944 384c0 239.8-194.6 432-432 432-239.8 0-432-194.6-432-432 0-239.8 194.6-432 432-432 239.8 0 432 194.6 432 432z" />
<glyph unicode="&#xf056;" glyph-name="chevron-left-regular" horiz-adv-x="512" d="M462.586-51.799c-9.371-9.373-24.568-9.373-33.941-0.002l-418.828 418.828c-9.373 9.375-9.373 24.57 0 33.943l418.828 418.83c9.373 9.371 24.57 9.371 33.941 0l39.598-39.6c9.373-9.373 9.373-24.568 0-33.941l-361.398-362.26 361.398-362.258c9.373-9.375 9.373-24.57 0-33.941z" />
<glyph unicode="&#xf057;" glyph-name="times-circle-light" d="M512 880c274 0 496-222 496-496s-222-496-496-496-496 222-496 496 222 496 496 496zM512-48c239.8 0 432 194.6 432 432 0 239.8-194.6 432-432 432-239.8 0-432-194.6-432-432 0-239.8 194.6-432 432-432zM701.6 522.6l-138.6-138.6 138.6-138.6c9.4-9.4 9.4-24.6 0-34l-17-17c-9.4-9.4-24.6-9.4-34 0l-138.6 138.6-138.6-138.6c-9.4-9.4-24.6-9.4-34 0l-17 17c-9.4 9.4-9.4 24.6 0 34l138.6 138.6-138.6 138.6c-9.4 9.4-9.4 24.6 0 34l17 17c9.4 9.4 24.6 9.4 34 0l138.6-138.6 138.6 138.6c9.4 9.4 24.6 9.4 34 0l17-17c9.201-9.4 9.201-24.6 0-34z" />
<glyph unicode="&#xf058;" glyph-name="check-circle-light" d="M512 880c273.934 0 496-222.066 496-496s-222.066-496-496-496-496 222.066-496 496 222.066 496 496 496zM512-48c239.89 0 432 194.674 432 432 0 239.89-194.672 432-432 432-239.89 0-432-194.674-432-432 0-239.89 194.672-432 432-432zM795.26 501.922l-360.958-358.064c-9.41-9.334-24.607-9.273-33.941 0.137l-171.756 173.145c-9.334 9.41-9.273 24.605 0.137 33.939l17.039 16.902c9.41 9.334 24.607 9.273 33.941-0.137l137.951-139.066 326.882 324.26c9.41 9.334 24.605 9.275 33.939-0.135l16.902-17.041c9.336-9.41 9.273-24.605-0.137-33.939z" />
<glyph unicode="&#xf059;" glyph-name="question-circle-light" d="M512 216c30.928 0 56-25.072 56-56s-25.072-56-56-56-56 25.072-56 56 25.072 56 56 56zM527.34 264h-32c-13.254 0-24 10.746-24 24v0.762c0 140.686 154.881 127.238 154.881 214.816 0 40.031-35.523 80.422-114.881 80.422-58.287 0-88.529-19.299-118.422-57.385-7.816-9.959-22.107-11.988-32.496-4.752l-26.268 18.301c-11.25 7.838-13.721 23.541-5.291 34.354 42.453 54.455 92.82 89.482 182.477 89.482 104.641 0 194.881-59.502 194.881-160.422 0-134.828-154.881-127.697-154.881-214.816v-0.762c0-13.254-10.746-24-24-24zM512 816c-238.796 0-432-193.594-432-432 0-238.876 193.512-432 432-432 238.78 0 432 193.418 432 432 0 239.85-194.758 432-432 432zM512 880c273.914 0 496-222.166 496-496 0-273.994-222.086-496-496-496s-496 222.006-496 496c0 273.834 222.086 496 496 496z" />
<glyph unicode="&#xf05a;" glyph-name="info-circle-light" d="M512 816c-238.796 0-432-193.594-432-432 0-238.876 193.512-432 432-432 238.78 0 432 193.418 432 432 0 239.85-194.758 432-432 432zM512 880c273.914 0 496-222.166 496-496 0-273.994-222.086-496-496-496s-496 222.006-496 496c0 273.834 222.086 496 496 496zM440 192h24v240h-24c-13.254 0-24 10.746-24 24v16c0 13.254 10.746 24 24 24h96c13.254 0 24-10.746 24-24v-280h24c13.254 0 24-10.746 24-24v-16c0-13.254-10.746-24-24-24h-144c-13.254 0-24 10.746-24 24v16c0 13.254 10.746 24 24 24zM512 672c35.346 0 64-28.654 64-64s-28.654-64-64-64-64 28.654-64 64 28.654 64 64 64z" />
<glyph unicode="&#xf05b;" glyph-name="chevron-right-regular" horiz-adv-x="512" d="M49.414 819.798c9.371 9.373 24.568 9.373 33.941 0l418.828-418.828c9.373-9.375 9.373-24.57 0-33.943l-418.828-418.828c-9.373-9.371-24.57-9.371-33.941 0l-39.598 39.6c-9.373 9.373-9.373 24.568 0 33.941l361.398 362.26-361.398 362.26c-9.373 9.375-9.373 24.57 0 33.941z" />
<glyph unicode="&#xf05c;" glyph-name="plus-circle-regular" d="M768 416v-64c0-13.199-10.801-24-24-24h-176v-176c0-13.199-10.801-24-24-24h-64c-13.199 0-24 10.801-24 24v176h-176c-13.199 0-24 10.801-24 24v64c0 13.199 10.801 24 24 24h176v176c0 13.199 10.801 24 24 24h64c13.199 0 24-10.801 24-24v-176h176c13.199 0 24-10.801 24-24zM1008 384c0-274-222-496-496-496s-496 222-496 496 222 496 496 496 496-222 496-496zM912 384c0 221-179 400-400 400s-400-179-400-400 179-400 400-400 400 179 400 400z" />
<glyph unicode="&#xf05d;" glyph-name="times-circle-regular" d="M512 880c274 0 496-222 496-496s-222-496-496-496-496 222-496 496 222 496 496 496zM512-16c221 0 400 179 400 400s-179 400-400 400-400-179-400-400 179-400 400-400zM715.6 508.4l-124.4-124.4 124.4-124.4c9.4-9.4 9.4-24.6 0-34l-45.199-45.199c-9.4-9.4-24.6-9.4-34 0l-124.4 124.4-124.4-124.4c-9.4-9.4-24.6-9.4-34 0l-45.199 45.199c-9.4 9.4-9.4 24.6 0 34l124.4 124.4-124.4 124.4c-9.4 9.4-9.4 24.6 0 34l45.199 45.199c9.4 9.4 24.6 9.4 34 0l124.4-124.4 124.4 124.4c9.4 9.4 24.6 9.4 34 0l45.199-45.199c9.4-9.4 9.4-24.6 0-34z" />
<glyph unicode="&#xf05e;" glyph-name="check-circle-regular" d="M512 880c273.934 0 496-222.066 496-496s-222.066-496-496-496-496 222.066-496 496 222.066 496 496 496zM512 784c-221.098 0-400-178.936-400-400 0-221.098 178.936-400 400-400 221.098 0 400 178.936 400 400 0 221.098-178.936 400-400 400zM792.408 523.466c9.334-9.41 9.273-24.607-0.135-33.943l-345.178-342.408c-9.41-9.336-24.605-9.273-33.939 0.137l-181.562 183.031c-9.336 9.412-9.273 24.609 0.137 33.943l45.438 45.072c9.41 9.334 24.605 9.271 33.939-0.139l119.584-120.555 282.706 280.432c9.41 9.336 24.605 9.275 33.939-0.135z" />
<glyph unicode="&#xf05f;" glyph-name="question-circle-regular" d="M512 880c273.914 0 496-222.166 496-496 0-273.994-222.086-496-496-496s-496 222.006-496 496c0 273.834 222.086 496 496 496zM512-16c221.138 0 400 178.939 400 400 0 221.058-179.018 400-400 400-221.056 0-400-179.010-400-400 0-221.138 178.936-400 400-400zM726.488 494.4c0-134.104-144.842-136.168-144.842-185.727v-12.674c0-13.254-10.746-24-24-24h-91.295c-13.254 0-24 10.746-24 24v17.318c0 71.49 54.201 100.068 95.158 123.031 35.123 19.689 56.648 33.082 56.648 59.158 0 34.492-43.998 57.387-79.568 57.387-46.377 0-67.787-21.955-97.885-59.939-8.113-10.238-22.92-12.141-33.332-4.248l-55.646 42.197c-10.215 7.744-12.502 22.131-5.289 32.727 47.254 69.387 107.443 108.369 201.15 108.369 98.143 0 202.9-76.607 202.9-177.6zM596 160c0-46.318-37.682-84-84-84s-84 37.682-84 84 37.682 84 84 84 84-37.682 84-84z" />
</font>
</defs>
</svg>
