<svg xmlns="http://www.w3.org/2000/svg" width="79" height="70" viewBox="0 0 79 70">
    <path fill="#1B4C9E" fill-rule="nonzero" d="M19.416.266C25.193.182 30.97.074 36.748.024c4.213-.036 8.427-.036 12.64.03 2.408.038 4.813.313 7.222.348 2.25.032 4.511.003 6.749-.21 2.61-.248 4.476.864 5.915 2.95 1.823 2.642 3.563 5.345 5.423 7.957 1.058 1.486 2.293 2.836 3.43 4.262 1.128 1.415 1.104 2.918.266 4.468a62.245 62.245 0 0 1-5.768 8.83c-2.655 3.39-5.125 6.932-7.787 10.315-2.932 3.728-5.99 7.351-8.996 11.018-1.957 2.387-3.905 4.782-5.88 7.152-1.298 1.557-2.666 3.052-3.95 4.62-1.615 1.977-3.174 4.002-4.762 6.002-.31.39-.661.747-.96 1.145-1.192 1.584-2.493 1.297-3.64.054-2.69-2.917-5.581-5.664-7.708-9.089-.839-1.351-1.532-2.802-2.407-4.126-2.591-3.923-5.132-7.889-7.896-11.68-3.065-4.204-6.4-8.197-9.527-12.355-1.726-2.295-3.27-4.735-4.887-7.116-1.266-1.865-2.506-3.75-3.783-5.608-.625-.909-.59-1.767.12-2.56 1.748-1.955 3.536-3.872 5.286-5.825a717.304 717.304 0 0 0 7.077-7.98c1.409-1.62 3.12-2.36 5.216-2.207.423.03.85.004 1.276.004V.266zm18.718 62.242c2.398-6.984 4.799-14.097 7.285-21.178 2.478-7.06 5.042-14.086 7.624-21.282-1.532.085-2.77.236-4.002.207-3.59-.086-7.18-.233-10.768-.381-1.007-.042-2.011-.235-3.018-.245-3.248-.032-6.497-.012-9.699-.012.729 2.153 1.53 4.337 2.21 6.56 2.543 8.314 4.972 16.658 6.96 25.141.894 3.816 2.272 7.51 3.408 11.19zm37.989-42.644c-3.172.069-6.132.152-9.093.189-1.335.016-2.671-.087-4.007-.088-2.157-.001-4.321.161-6.468.02-1.991-.13-1.907-.237-2.576 1.682-2.408 6.906-4.92 13.775-7.304 20.69-2.617 7.59-5.14 15.215-7.68 22.834-.124.375-.016.832-.016 1.383.224-.21.333-.288.414-.39 1.505-1.895 2.983-3.814 4.517-5.684 1.222-1.487 2.535-2.895 3.768-4.373a938.017 938.017 0 0 0 6.206-7.536c3.255-3.984 6.535-7.947 9.742-11.971a497.301 497.301 0 0 0 8.28-10.7c1.464-1.945 2.791-3.999 4.217-6.056zm-49.448 21.14l.22.128c-.133.327-.242.668-.402.98-.728 1.427-1.485 2.839-2.196 4.275-.129.26-.227.689-.108.903.543.977 1.168 1.905 1.809 2.922l2.2-4.013.394.215c-.593 1.32-1.214 2.627-1.758 3.968-.14.343-.19.892-.017 1.175 1.644 2.693 3.243 5.424 5.058 7.991 1.542 2.18 3.351 4.158 5.043 6.225l.45-.258c-4.6-15.343-7.9-31.075-13.221-46.106l-21.45-.673 9.638 13.455 4.171-6.833.372.227-4.03 7.244 1.708 2.167 5.085-7.335.232.164c-1.123 2.909-3.078 5.29-4.673 7.576l1.174 1.631 3.556-5.873.236.118c-.068.21-.108.433-.207.626-.876 1.714-1.743 3.434-2.66 5.124-.231.425-.38.74-.01 1.14.517.558 1.011 1.139 1.496 1.687l3.632-5.304.302.177c-.22.541-.383 1.117-.67 1.618-.727 1.272-1.53 2.498-2.255 3.77-.149.262-.232.73-.104.962.412.748.937 1.43 1.462 2.204l3.385-5.768.343.2c-.69 2.296-2.027 4.274-3.182 6.337l1.74 2.18 3.237-5.226zM65.447 2.178c-2.41-.118-4.606-.227-6.802-.33-.128-.007-.257.036-.387.05-1.065.118-2.13.338-3.194.33-4.151-.026-8.3-.128-12.451-.195-.921-.015-1.842-.002-2.763-.002l-.152.313c2.73 3.543 5.382 7.157 8.227 10.6 1.386 1.677 3.12 3.053 4.727 4.528.426.39.892.715 1.504.09 3.969-4.06 7.449-8.516 10.351-13.444.346-.588.6-1.233.94-1.94zm-26.734.633l-11.97 14.54 24.288.977c-5.034-4.402-8.627-9.839-12.318-15.517zM24.959 17.123L37.514 2.146l-21.167.453c2.45 4.89 5.003 9.835 8.612 14.524zM66.731 3.354c-3.08 5.602-6.763 10.301-11.01 14.833 7.085.424 13.937.652 21.138-.477-4.3-4.214-6.995-9.311-10.128-14.356zm-43.492 13.97c-1.448-2.294-2.964-4.509-4.284-6.841-1.33-2.351-2.467-4.82-3.73-7.32-3.868 4.706-7.72 9.395-11.636 14.162h19.65z"/>
</svg>