<svg xmlns="http://www.w3.org/2000/svg" width="77" height="79" viewBox="0 0 77 79">
    <g fill="#B8B358" fill-rule="nonzero">
        <path d="M22.455 43.73c-1.341.083-2.413.103-3.473.228-1.063.126-1.794-.323-2.13-1.26-.41-1.144-.622-2.36-.992-3.521-.31-.973-.56-2.027-1.122-2.845-1.342-1.954-2.107-4.115-2.724-6.366-.457-1.669-.968-3.323-1.502-5.14-1.13.328-2.151.636-3.178.923-2.14.598-3.731.14-4.842-1.689C1.076 21.731.073 19.214.005 16.42c-.045-1.825.18-2.205 1.91-2.897 1.43-.57 2.867-1.162 4.353-1.537 10.89-2.749 21.527-6.317 32.155-9.92 1.458-.494 2.885-1.078 4.343-1.57 2.013-.679 4.042-.662 6.042.058 1.195.43 2.137 1.166 2.548 2.448.906 2.82 1.798 5.647 2.736 8.456.395 1.182.296 1.996-.89 2.764-.969.626-1.65 1.701-2.458 2.577l.218.368c.86-.096 1.728-.144 2.578-.297 1.36-.245 1.687-.168 2.285 1.106.378.808.571 1.705.843 2.563.165.522.322 1.047.575 1.874.598-.82 1.025-1.364 1.409-1.938 1.253-1.874 2.47-3.774 3.749-5.63.297-.431.785-.73 1.185-1.09.359.41.724.815 1.074 1.233.11.132.176.302.37.644.086-.426.17-.653.173-.882.037-2.8 1.06-5.163 3.148-7.014 2.166-1.918 4.343-3.825 6.577-5.661 1.045-.859 1.684-.53 1.974.847.053.251.116.515.093.766-.363 4.104.001 8.254-.91 12.328-.694 3.109-2.01 5.834-4.24 8.103a3.3 3.3 0 0 0-.352.45c-.033.048-.019.127-.033.248h3.243c-1.27 2.48-2.395 4.641-4.54 5.929-2.08 1.248-3.79 2.812-5.293 4.71-1.148 1.452-2.535 2.712-3.861 4.105l4.752 15.364c.794-.224 1.572-.445 2.352-.663 3.546-.991 5.954.841 6.002 4.528a4.36 4.36 0 0 0 .357 1.62c.657 1.528.266 2.98-1.124 3.84-.327.202-.676.37-1.025.534-7.847 3.687-15.79 7.148-23.935 10.117-3.494 1.274-6.986 2.56-10.526 3.687a9.213 9.213 0 0 1-3.76.353c-2.746-.32-4.42-2.11-5.48-4.592a36.798 36.798 0 0 1-2.743-10.247c-.385-3.322-1.316-6.399-3.104-9.26-1.259-2.012-2.269-4.19-3.283-6.344-.19-.403-.018-1.136.241-1.56.395-.648 1.02-1.151 1.53-1.733.367-.42.702-.866 1.192-1.475zm-8.579-22.333c.176 2.503-1.928 4.75-.177 7.443l1.86-4.054.401.176c-.496 1.377-.94 2.776-1.503 4.126-.543 1.305-.312 2.416.583 3.71l1.262-3.027.362.141c-.268.913-.472 1.85-.818 2.731-.452 1.147-.197 1.962.944 2.637l1.724-3.938c.405 2.558-2.12 4.456-.546 6.838l1.43-3.234c.083 2.534-2.177 4.742-.668 7.488 1.271-.062 2.481-.128 3.692-.18.714-.03 1.597-.072 1.81.706.129.468-.268 1.203-.626 1.662-.865 1.109-1.846 2.125-2.842 3.249l1.973 3.4 1.29-2.891c.036 1.075-.203 2.058-.539 3.006-.326.92-.084 1.566.695 2.124l1.318-3.277a7.808 7.808 0 0 1-.484 2.875c-.506 1.4-.105 2.457.987 3.404l.745-1.763c-.63 2.414.192 4.633.674 6.884.16.754.22 1.53.322 2.296.473 3.533 1.328 6.966 2.678 10.266.671 1.64 1.783 2.701 3.56 3.23 1.273.38 2.391-.175 2.857-1.24.292-.667.424-1.405.663-2.233-.58.03-.89.037-1.197.064-1.647.148-2.255-.122-2.83-1.621-1.419-3.702-.593-5.1 2.316-6.693.45-.246.925-.453 1.405-.63 2.586-.955 5.162-1.94 7.77-2.83 4.792-1.636 9.608-3.198 14.404-4.822 1.44-.487 2.844-1.078 4.404-1.674l-4.414-15.4c-1.943.831-3.687.598-5.48-.074-.458.495-.98.905-1.304 1.437-1.064 1.742-2.116 3.497-3.053 5.31-.48.93-.948 1.608-2.106 1.674-.42.024-.842.492-1.21.816-.482.424-.865.977-1.386 1.331-.239.163-.706-.013-1.311-.05l8.234-11.096c-.825-1.97-1.352-3.878-1.003-6.039.505-3.124 2.005-5.68 3.898-8.08.508-.645 1.04-1.27 1.533-1.87-1.463-1.6-1.135-3.694-2.11-5.445l-5.332.395c.681-1.127 1.19-1.997 1.725-2.85 1.207-1.924 1.878-3.928 1.03-6.203-.584-1.567-1.197-3.127-1.683-4.725-.742-2.442-1.282-2.93-3.803-2.89-.822.014-1.677.106-2.453.358-2.5.813-4.954 1.766-7.454 2.578C26.35 8.091 16.7 11.597 6.576 13.434c-.08.015-.13.192-.16.236 1.18 1.18 2.59 2.192 3.446 3.558.868 1.385 1.188 3.119 1.804 4.86l.974-2.027c.235 1.808-1.524 3.307-.09 5.074l1.326-3.738zM75.5 3.194c-2.837 2.321-5.485 4.271-7.463 6.91-.697.929-1.055 2.187-1.327 3.352-.482 2.067-.751 4.184-1.172 6.268-.152.75-.442 1.484-.756 2.186-.105.234-.556.536-.714.471-.298-.121-.682-.47-.705-.752-.067-.83.023-1.672.057-2.51.036-.86.077-1.722.118-2.63-.349.076-.527.06-.572.132-2.479 3.928-5.322 7.576-8.23 11.191-2.266 2.817-3.159 6.167-2.622 9.817.058.392.263.763.416 1.189 9.462-7.501 15.59-17.293 20.75-27.852-.483 2.797-1.635 5.34-2.932 7.812-1.287 2.45-2.564 4.923-4.08 7.229-1.55 2.356-3.299 4.598-5.122 6.75-1.81 2.138-3.822 4.103-5.856 6.26 1.466.583 2.653.29 3.61-.474 1.7-1.353 3.36-2.78 4.88-4.332 1.541-1.573 3.088-3.103 5.028-4.164 1.677-.918 2.795-2.332 3.78-3.983-1.49-.298-2.834.677-4.486-.032.67-.74 1.16-1.392 1.757-1.922 2.758-2.452 4.396-5.52 4.964-9.153.298-1.907.539-3.832.653-5.758.11-1.851.024-3.714.024-6.005zM50.692 71.888c1.09-.006 1.82-.243 2.229-1.35.5-1.352 1.175-2.639 1.775-3.954l.315.13-1.395 3.977c1.629-.18 2.569-.767 2.89-2.282.181-.848.67-1.63 1.02-2.441l.33.105-.762 3.186c1.682.02 1.779-1.278 2.293-2.186.039-.069.175-.083.393-.177l-.214 1.468c.604-.238 1.209-.29 1.482-.62.745-.896 1.348-1.911 2.207-3.173l-.144 2.239c2.89-1.344 5.678-2.62 8.443-3.946.368-.176.85-.573.885-.909.169-1.662.373-3.358-.381-4.95-.743-1.568-1.42-1.836-3.09-1.176-10.086 3.98-20.386 7.305-30.815 10.234-.7.197-1.367.517-2.284.87 3.56 2.882 3.848 6.31 2.33 10.087 1.742.095 2.46-.67 2.749-2.174.213-1.109.493-2.268 1.417-3.129l-.877 4.173c1.332-.165 2.063-.656 2.241-1.893.09-.625.392-1.224.632-1.82.234-.583.259-1.291 1.099-1.98l-1.032 4.306c1.442-.204 2.383-.625 2.686-2.122.26-1.282.838-2.498 1.275-3.744l.37.105-1.004 4.41c1.409-.009 1.953-.706 2.288-1.82.327-1.087.868-2.109 1.315-3.16l.4.144-1.066 3.572zM1.238 15.334c-.039.388-.117.649-.08.891.39 2.584 1.354 4.964 2.603 7.233.18.327.466.668.788.824.495.24 1.16.566 1.569.4.33-.134.487-.932.544-1.454.06-.55-.09-1.123-.147-1.676-2.262.075-2.658-.17-3.425-2.037-.074-.178-.164-.352-.217-.537-.392-1.372.096-2.486 1.369-3.172.467-.251.923-.526 1.6-.915-1.786-.742-3.13-.177-4.604.443zm8.953 8.115c-.742-2.728-.526-5.617-3.05-7.508l-1.596.787c1.491 2.327 2.218 4.822 2.677 7.5l1.969-.78zm25.806 45.679c-.231-.3-.353-.527-.537-.676-.179-.145-.423-.207-.62-.297-1.149 1.546-1.084 2.762.458 4.743 0-.873.161-1.474-.034-1.915-.396-.893-.165-1.453.733-1.855zM5.74 20.146C5.65 18.43 5.65 18.43 4.443 17.65c-.494 1.457.024 2.453 1.298 2.496zm31.138 50.146l-.545.116.486 2.162c.871-.912.562-1.61.059-2.278z"/>
        <path d="M38.297 56.17c-.014-1.83 1.049-2.62 2.518-3.044 1.255-.363 2.051.06 2.15 1.276.19 2.315-.425 4.509-1.323 6.629-.364.86-1.234 1.133-2.033.877-2.103-.673-4.16-1.48-6.222-2.267-.295-.113-.545-.384-.766-.625-1.04-1.134-.763-2.5.749-2.885 1.138-.29 2.389-.186 3.59-.22.321-.01.646.119 1.337.258zM21 34c7.035-2.91 14.068-5.831 21.112-8.713.565-.231 1.211-.2 1.786-.287.067.206.096.26.1.317.004.068.007.18-.026.201-.373.253-.732.553-1.133.726C35.714 29.317 28.633 32.55 21 34zM42 18.385c-3.948 1.212-7.84 2.66-11.86 3.566C26.465 22.78 23.093 24.673 19 25c2.193-1.594 20.894-7.224 22.878-6.993l.122.378zM21 27.546c.435-.164.858-.384 1.306-.485 7.273-1.635 14.106-5.114 21.543-6.061l.151.393c-.324.194-.627.464-.975.569-5.607 1.699-11.21 3.414-16.837 5.035-1.658.478-3.387.676-5.083 1.003L21 27.546zM25 39c6.785-3.331 13.476-6.97 21-9-1.2 1.321-19.18 8.988-21 9zM46 35.47c-.308.21-.594.499-.928.618C39.397 38.11 33.716 40.112 28 42c5.644-3.264 11.572-5.614 17.8-7l.2.47zM44 40.064c-5.373 1.238-10.562 3.04-16 3.936 1.911-1.569 13.37-4.467 16-3.936zM28 49.986c3.856-1.649 7.61-3.65 12-3.986-1.13 1.218-10.09 4.233-12 3.986z"/>
    </g>
</svg>