<svg xmlns="http://www.w3.org/2000/svg" width="178" height="65" viewBox="0 0 178 65">
    <g fill="none" fill-rule="evenodd">
        <path fill="#FA8D86" d="M177.18 5.171c-1.723 1.119-3.632 1.635-5.577 1.92-6.13.899-12.263 1.748-18.501 1.446-2.266-.11-4.402-.707-6.603-1.3 5.086-.852 10.202-1.56 15.25-2.598a209.43 209.43 0 0 1 14.414-2.466c1.199-.16 1.368.433 1.64 1.165.28.751.214 1.289-.623 1.833zm-2.317 6.432c-2.101 2.211-4.836 1.792-7.358 1.845-4.98.105-9.718-1.555-14.56-2.462-.612-.115-1.34-.26-1.815-1.066 4.48-.281 8.84.444 13.115-.429 3.016-.617 6.093-.616 9.112-1.151.779-.138 1.808-.144 2.159.822.317.874.099 1.649-.653 2.441zm-5.704 4.809c-.596 1.486-1.868 2.029-3.37 2.089-1.54.062-3.012-.294-4.475-.764-5.668-1.823-10.47-5.325-15.656-8.079 1.44.004 2.655.652 3.88 1.18 5.855 2.523 11.952 3.829 18.325 3.812 1.554-.004 1.87.328 1.296 1.762zm-5.31 4.795c-1.612 2.048-5.026 2.455-7.248.971-4.975-3.324-9.22-7.486-13.461-11.653-.664-.652-.641-.676.962-1.488-.244.894-.157 1.526.764 1.918 3.243 1.38 6.029 3.598 9.172 5.148 3.058 1.508 6.169 2.957 9.539 3.676 1.332.284.668.927.273 1.428zm-5.277 3.729c-.375 1.176-1.331 2.287-2.921 2.287-1.225-.087-2.403-.757-3.074-1.599-1.708-2.143-4.135-3.482-5.772-5.723-1.911-2.616-3.846-5.294-6.622-7.143-.406-.271-.626-.677-.13-.914.666-.317 1.379-1.391 2.169-.366 1.16 1.502 2.609 2.704 4 3.936 3.298 2.923 6.494 5.993 10.348 8.223.099.056.22.109.276.197.425.674 2.073.012 1.726 1.102zm-5.781 4.12c-2.24 1.724-5.01 1.318-6.081-1.293-1.934-4.714-5.665-8.051-8.59-12.002-.356-.48-.926-.8-1.48-1.263 2-1.331 2.958-1.148 4.678.901 2.802 3.339 5.486 6.782 8.679 9.771.913.855 1.839 1.719 2.864 2.424.924.636.537.995-.07 1.462zm-11.57-.893c-.72-2.944-2.297-5.407-4.235-7.661-.7-.813-1.621-1.454-1.82-2.598-.146-.835-1.08-.685-1.517-1.174 2.12-1.582 2.76-1.39 4.006.766.55.952 1.454 1.701 2.197 2.542 1.846 2.089 3.534 4.276 4.6 6.893.69 1.698 1.886 3.051 3.35 4.346-3.722 1.767-5.141 2.759-6.58-3.114zm1.486 5.462l.006-.075.028.056-.034.019zm-4.636 1.686c-1.453-.061-2.293-.727-2.24-1.978.167-3.851-1.966-6.925-3.112-10.339-.443-1.321-1.441-2.528-1.194-4.106.106-.68.189-1.28.905-1.423.657-.132 1.213.259 1.549.798 2.499 4.004 5.848 7.551 6.462 12.563.148 1.204 1.029 2.242 2.24 2.814-1.442.785-2.772 1.749-4.61 1.671zM.957 1.338C1.23.606 1.398.013 2.598.173c4.837.647 9.63 1.483 14.413 2.466 5.048 1.038 10.164 1.746 15.25 2.598-2.2.592-4.337 1.19-6.603 1.3-6.238.301-12.372-.547-18.5-1.446-1.945-.286-3.855-.8-5.578-1.92C.743 2.627.677 2.09.957 1.338zm2.287 5.824c.351-.967 1.38-.96 2.16-.822 3.018.535 6.095.534 9.111 1.151 4.275.873 8.635.148 13.115.43-.475.805-1.202.95-1.816 1.065-4.84.907-9.579 2.567-14.559 2.462-2.522-.053-5.257.366-7.358-1.845-.752-.792-.97-1.567-.653-2.44zm7.653 5.488c6.373.017 12.47-1.29 18.325-3.812 1.225-.528 2.44-1.177 3.88-1.18-5.187 2.753-9.988 6.255-15.656 8.08-1.463.47-2.936.825-4.475.763-1.5-.06-2.774-.603-3.369-2.089-.575-1.435-.259-1.766 1.295-1.762zm4.286 5.13c3.37-.72 6.481-2.17 9.54-3.677 3.142-1.55 5.928-3.769 9.171-5.148.921-.392 1.008-1.024.765-1.919 1.602.813 1.625.836.962 1.49-4.242 4.166-8.487 8.328-13.462 11.651-2.222 1.485-5.636 1.078-7.249-.97-.395-.5-1.059-1.144.273-1.428zm6.731 4.054c.056-.088.177-.14.276-.198 3.854-2.229 7.051-5.299 10.348-8.222 1.391-1.233 2.84-2.434 4-3.936.791-1.025 1.503.05 2.168.366.497.237.277.643-.129.914-2.776 1.85-4.71 4.527-6.622 7.143-1.637 2.241-4.064 3.58-5.772 5.723-.67.842-1.849 1.512-3.073 1.6-1.59 0-2.547-1.112-2.922-2.288-.347-1.09 1.302-.429 1.726-1.102zm3.985 3.76c1.026-.705 1.951-1.569 2.864-2.424 3.193-2.989 5.877-6.432 8.68-9.77 1.72-2.05 2.676-2.233 4.676-.902-.553.463-1.123.783-1.479 1.263-2.925 3.951-6.656 7.288-8.59 12.002-1.07 2.611-3.84 3.017-6.08 1.293-.608-.467-.995-.827-.07-1.462zm5.058 3.683c1.465-1.295 2.66-2.648 3.352-4.346 1.065-2.617 2.753-4.804 4.6-6.893.742-.84 1.646-1.59 2.197-2.542 1.244-2.156 1.885-2.348 4.005-.766-.437.49-1.37.34-1.517 1.174-.199 1.144-1.12 1.785-1.82 2.598-1.938 2.253-3.515 4.716-4.236 7.661-1.439 5.873-2.858 4.881-6.58 3.114zm5.062 2.33l.028-.057.006.075-.034-.019zm.06.033c1.211-.572 2.092-1.61 2.24-2.814.614-5.012 3.963-8.559 6.462-12.563.336-.539.892-.93 1.55-.798.715.142.798.743.904 1.423.247 1.578-.75 2.785-1.194 4.106-1.146 3.414-3.279 6.488-3.113 10.34.054 1.25-.786 1.916-2.239 1.977-1.838.078-3.168-.886-4.61-1.67z"/>
        <path fill="#75706E" d="M117.838 12.955c2.573.047 5.141.325 8.206.14-1.474 1.563-2.629 2.83-3.83 4.054-3.594 3.66-7.119 7.395-10.84 10.922-2.434 2.306-5.31 4.08-8.3 5.625-.504.26-1.18.566-1.304-.332-.394-2.867-2.163-4.507-4.718-5.467-.72-.27-1.218-.661-1.604-1.361-1.222-2.216-3.286-2.826-5.595-1.781-2.163.979-4.207 2.185-6.634 2.592-1.93.323-2.628 1.802-2.219 3.765.16.765.316 1.536.398 2.312.065.61.013 1.232.013 1.808-6.329-2.061-12.135-5.125-17.728-8.607-3.37-2.1-6.423-4.632-9.227-7.436-1.343-1.343-2.768-2.635-3.829-4.24-.305-.46-.57-.95-.818-1.444-.472-.94-.333-1.47.89-1.416 6.493.284 12.995.14 19.493.378 4.735.173 9.49-.278 14.233-.256 5.45.026 10.89.08 16.346.529 5.656.465 11.377.11 17.067.215zm-35.535 18.1c-.367-1.547.71-3.033 2.243-2.856 2.104-.01 3.95-.862 5.624-2.022 1.844-1.278 2.978-1.137 3.951.898.561 1.174 1.448 1.795 2.61 2.176 2.418.792 4.373 3.629 4.32 6.159-.02.928-.605 1.435-1.236 1.887-1.002.716-1.454 1.633-1.476 2.863-.029 1.596-1.87 3.262-3.48 3.076-1.43-.166-2.758-.04-4.03.627-.308.16-.595.226-.957.115-2.303-.701-3.883.48-5.209 2.129-.536.665-1.022 1.363-1.874 1.577-.437.11-1.025.368-1.357-.25-.23-.431-.45-.817-.137-1.387.617-1.12.97-2.398 1.665-3.458 1.002-1.528.432-2.667-.654-3.702-.407-.39-.732-.544-.344-1.176 1.311-2.138.872-4.414.341-6.656zm44.71-17.4c.966 3.102.693 6.179.835 9.219.35 7.488.196 14.98.197 22.47.001 4.76-.205 9.544-.735 14.27-.346 3.097-1.054 2.964-3.374 3.154-2.925.239-5.855.458-8.75.214-4.3-.363-8.613-.478-12.914-.807-5.258-.403-10.572-.01-15.853-.2-7.084-.251-14.174-.363-21.215-1.511-2.87-.468-5.73-1.03-8.612-1.435-2.905-.408-4.135-2.316-3.99-4.914.247-4.49-.66-8.84-1.182-13.23-.653-5.51-1.165-11.02-1.243-16.567-.037-2.611-.007-5.224-.007-7.918 4.026 4.537 8.45 8.54 13.668 11.732 5.238 3.203 10.452 6.357 16.361 8.18.46.143.963.375.38 1.049-.783.905-.717 1.633.486 2.249 1.27.65 1.286 1.724.506 2.82-1.004 1.41-1.599 2.935-1.552 4.699.032 1.206.636 1.78 1.79 1.729 1.505-.068 2.87-.5 3.802-1.815 1.002-1.415 2.301-1.52 4.026-1.79 3.093-.487 6.805.288 9.212-2.765.394-.5.902-.981.79-1.598-.275-1.522.75-2.217 1.576-3.225 2.604-3.171 6.347-4.76 9.47-7.196 2.184-1.704 3.961-3.808 5.867-5.792 2.9-3.016 5.866-5.97 8.851-8.903.61-.6.922-1.387 1.61-2.118zM94.153 11.01c-7.539-.42-15.089.127-22.633.17-6.22.037-12.446-.276-18.672-.342-1.197-.013-2.495.363-3.602-.134-1.01-.454-1.142.177-1.21.74-.089.708-.004 1.456.121 2.167.565 3.212.65 6.447.623 9.699-.033 3.84-.11 7.765.465 11.497.992 6.44 1.527 12.898 2.023 19.373.222 2.883 1.057 5.189 4.354 5.862 3.062.625 6.097 1.288 9.215 1.689 8.478 1.09 16.987 1.4 25.513 1.577 5.234.108 10.47.169 15.698.409 6.191.286 12.356 1.27 18.583.358 1.261-.185 2.597-.215 3.307-1.261.637-.938 1.112-2.196 1.114-3.313.006-2.982.23-5.95.301-8.922.1-4.185-.109-8.378-.02-12.564.116-5.562.1-11.118-.234-16.673-.003-.733.012-1.465-.005-2.197-.05-2.142-.25-4.272-1.147-6.243-.249-.547-.324-1.426-1.448-1.265-4.227.607-8.467-.031-12.703 0-6.555.049-13.097-.263-19.643-.627z"/>
        <path fill="#FA8D86" d="M91.926 29.255c3.48 1.051 5.578 2.655 5.984 6.278.476 4.246-3.153 7.175-7.242 5.838-3.752-1.228-5.233-3.308-5.233-7.351-.035-3.189 1.93-6.143 6.49-4.765z"/>
        <path fill="#FFF" d="M89.176 37.241c.268.388.601.265.862.073a60.456 60.456 0 0 0 2.337-1.83c.115-.094.153-.283.217-.408-.15-.54-.583-.633-.92-.429-.85.514-1.654 1.11-2.449 1.708-.312.234-.268.565-.047.886M88.775 35.651c1.012-.654 1.882-1.41 2.376-2.467.177-.378-.232-.85-.685-.532-.813.57-1.541 1.267-2.282 1.936-.224.202-.263.506-.005.731.157.138.372.211.596.332M91.103 38.764c.132.238.326.443.608.434.09-.026.158-.025.193-.06a87.294 87.294 0 0 0 2.162-2.14c.02-.021-.316-.468-.353-.45-.828.41-1.654.83-2.44 1.317-.291.18-.352.57-.17.899"/>
    </g>
</svg>
