<svg xmlns="http://www.w3.org/2000/svg" width="16" height="18" viewBox="0 0 16 18">
    <path fill="#757575" fill-rule="nonzero" d="M5.58 6.132c.874-.119 1.747-.236 2.62-.356 1.213-.168 2.427-.342 3.642-.503a96.912 96.912 0 0 1 2.42-.289c.485-.052.561.027.672.49.323 1.35.502 2.715.508 4.106.001.419.082.838.133 1.256.12.981.203 1.97.381 2.94.12.657-.02 1.231-.263 1.811-.034.08-.072.16-.098.242-.113.347-.36.504-.704.54-.568.059-1.134.128-1.701.186-.865.088-1.731.164-2.596.257-1.005.108-2.01.217-3.012.351-.633.085-1.258.238-1.891.32-.452.06-.911.058-1.367.073-.555.019-1.11.021-1.664.043-.23.01-.388-.074-.472-.292a1.436 1.436 0 0 1-.076-.248c-.197-1.057-.419-2.11-.578-3.173-.148-.992-.207-1.997-.347-2.99-.09-.632-.268-1.25-.382-1.879-.067-.37-.081-.75-.126-1.125-.021-.17-.04-.347-.094-.508C.405 6.847.201 6.318.022 5.78c-.038-.114-.017-.252-.01-.379.004-.055.039-.109.063-.161.588-1.293.377-1.084 1.693-1.586a110.29 110.29 0 0 1 4.969-1.774C8.407 1.334 10.1.866 11.785.364l.985-.299c.429-.13.502-.086.686.323.23.511.484 1.013.715 1.524a.37.37 0 0 1-.005.278c-.206.416-.425.826-.648 1.232a.349.349 0 0 1-.186.162c-1.114.298-2.244.542-3.343.889-1.363.43-2.7.942-4.048 1.422-.13.046-.253.116-.38.175l.02.062zm-4.542-.63l-.232-.409c-.32.665-.35.804-.249 1.067l.493-.67c-.119.263-.244.523-.353.79-.063.153-.124.32.05.454.138-.187.262-.356.385-.526l-.262.69c-.06.155-.07.3.097.432.087-.119.163-.222.237-.326.298-.418.296-.498-.025-.943-.046-.187-.092-.375-.14-.56zm9.225 10.544l-.124.345c.431.004.548-.339.784-.578-.298-.043-.492.089-.675.249-.053-.163-.176-.113-.283-.092-.374.072-.744.176-1.12.212-.259.024-.37.134-.416.375.337.051.628-.006.86-.25.195.22.353.225.577.046.13-.104.264-.204.397-.307zm-7.37-.625c.02-.152.158-.319-.05-.446-.403.62-.465.76-.453 1.026l.52-.596c-.094.194-.164.404-.285.579-.236.341-.183.66.003 1.036l.312-.396.288-.372c-.053-.182-.09-.352-.153-.513-.043-.113-.12-.213-.181-.318zm4.795.987l-.064.274c.353.018.61-.076.75-.432-.274-.049-.517-.074-.7.175-.074-.222-.258-.14-.4-.14-.413-.001-.827.019-1.24.024-.382.004-.764 0-1.147 0l-.425.797c.283.1.468.038.615-.19.106-.164.238-.31.359-.464l.063.042-.268.55c.482.1.717-.217 1-.503l-.111.347a.83.83 0 0 0 .775-.233c.09.063.169.145.195.13.204-.114.399-.247.598-.377zm-4.145-.291c.347-.025.657-.056.968-.067.998-.033 1.997-.051 2.995-.091.526-.022 1.06-.032 1.576-.126 1.656-.302 3.307-.637 4.958-.965.472-.094.94-.207 1.427-.314-.136-1.206-.278-2.358-.39-3.513-.114-1.153-.197-2.31-.292-3.444-.574.049-1.125.099-1.677.143-.427.034-.857.036-1.28.095-1.455.2-2.905.432-4.361.625-1.526.203-3.057.372-4.584.562-.22.027-.434.09-.668.14.09.415.184.766.24 1.124.096.617.15 1.242.255 1.858.18 1.046.378 2.088.582 3.129.056.28.163.551.251.844zM13.663 2.35c-1.913.604-3.775 1.156-5.613 1.782-2.266.77-5.056 1.976-5.376 2.266.41-.03.794-.06 1.177-.085a2.98 2.98 0 0 0 1.03-.255c.576-.256 1.16-.493 1.748-.719 1.963-.756 3.939-1.48 5.991-1.947.532-.121.855-.409 1.023-.915.004-.013.004-.028.02-.127zM.924 4.37l.853 2.03 2.06-.947c-.31-.262-.574-.508-.86-.72-.3-.221-.619-.417-.938-.609-.09-.054-.226-.097-.318-.068-.268.082-.524.203-.797.314zm4.597.44c-.585-.436-1.083-.82-1.596-1.18-.145-.103-.352-.218-.502-.186-.409.089-.802.253-1.258.405l2.045 1.476 1.31-.515zM2.91 8.703l.06.083c.407-.059.815-.11 1.22-.182a.363.363 0 0 0 .224-.163c.332-.604.652-1.216.999-1.87l-1.336.097L2.91 8.703zm.945-2.005a6.748 6.748 0 0 0-2.08.174c-.003.707.21 1.345.364 1.973.22.044.361.04.465-.13.4-.654.807-1.303 1.251-2.017zm4.293-2.996c-.543-.4-1.067-.79-1.597-1.171-.072-.052-.187-.099-.262-.077-.397.12-.788.261-1.223.41.425.27.791.514 1.168.739.294.175.594.432.905.456.31.024.639-.197.959-.312.012-.004.021-.019.05-.045zm2.954-.94c-.592-.431-1.12-.818-1.652-1.198a.262.262 0 0 0-.195-.042c-.337.094-.67.2-1.071.323.577.441 1.093.842 1.618 1.23.066.048.19.054.273.029.324-.096.643-.212 1.027-.342zm.039-1.76c.34.401.776.65 1.159.964.448.367.878.287 1.366-.017-.07-.144-.101-.321-.206-.407-.375-.307-.774-.584-1.165-.872L11.23.932c-.012.003-.022.017-.09.07zm.411 6.561l1.095-.114.998-1.936c-.43.05-.767.082-1.101.134a.297.297 0 0 0-.192.147c-.26.56-.51 1.125-.8 1.77zM6.936 6.406l-.9 1.953c.296-.045.505-.107.712-.1.313.01.457-.16.573-.418.227-.499.47-.99.704-1.487.008-.017-.014-.05-.028-.095l-1.061.147zm3.76-.513l-1.119.164-.913 1.918c.32-.047.556-.091.795-.113.239-.022.374-.141.474-.365.202-.45.437-.884.656-1.325.037-.074.06-.155.107-.28zM2.143 14.21c-.042-.32.117-.485.212-.667.193-.368.198-.365.04-.804l-.32.59-.105-.054c.085-.19.146-.397.261-.565.237-.346.158-.695.082-1.054-.346.53-.64 1.065-.434 1.731.047.151.052.315.077.473l.264 1.654c.231-.226.374-.471.538-.7.134-.187.146-.346-.039-.53l-.356.674c-.042-.293.088-.518.215-.736.135-.23.095-.423-.06-.662l-.375.65zm11.561 1.2l-.466.637c.219-.013.368-.016.515-.033.184-.02.367-.05.55-.082.808-.143.701.06.997-.813.011-.033.001-.074.001-.132l-2.255.398-.523.726c.551.016.712-.513 1.181-.701zM2.926 17.15c.46 0 .822 0 1.185-.003.038 0 .092-.022.112-.052.16-.24.313-.484.48-.745-.377-.07-.565.082-.689.365-.05.114-.131.213-.199.319l-.09-.056.314-.676c-.207.04-.373.023-.454.098-.216.201-.395.442-.66.75zm-1.139-5.034c.551-.892.667-.956.342-1.703-.194.568-.62 1.047-.342 1.703zm-.117-1.126c.516-.895.585-.814.272-1.462-.209.463-.506.887-.272 1.462zm10.284 4.626c-.746-.015-.89.071-1.13.655.571.143.825-.27 1.13-.655zM1.567 7.855c-.103.472-.517.882-.25 1.478.115-.242.189-.446.301-.626.186-.297.111-.57-.051-.852zm11.243 7.598c-.498-.05-.76.142-.987.722.389.005.612-.158.987-.722zM1.783 8.678c-.123.496-.543.833-.278 1.411.107-.208.173-.384.279-.53.192-.264.174-.52-.001-.881zm-.612-.31c.119-.407.526-.735.322-1.244-.385.349-.544.743-.322 1.245zM.345 5.705c-.049-.353.077-.651.27-1.014.189.465-.195.704-.27 1.014zm2.184 1.63c.182.193.336.288.37.407.059.215-.132.348-.357.323-.14-.016-.365-.174-.36-.262.007-.132.18-.258.347-.469zm6.526 2.787c.34-.313.632-.644.984-.89.522-.363 1.122-.489 1.764-.407 1.102.141 1.435 1.14 1.232 1.933-.128.497-.35.957-.682 1.348-.473.557-.975 1.09-1.46 1.64-.134.152-.294.197-.488.187-.658-.032-1.318-.058-1.977-.086-.49-.02-.983-.01-1.469-.068-.515-.061-.954-.323-1.331-.679a1.705 1.705 0 0 1-.244-2.198c.487-.731 1.557-1.362 2.69-1.048.335.093.67.183.981.268z"/>
</svg>