<svg id="Group_7452" data-name="Group 7452" xmlns="http://www.w3.org/2000/svg" width="19.576" height="19.576" viewBox="0 0 19.576 19.576">
  <path id="Path_4904" data-name="Path 4904" d="M11.514,3.716a4.976,4.976,0,0,0,0-7.029A4.94,4.94,0,0,0,9.93-4.379a.455.455,0,0,0-.609.278,2.859,2.859,0,0,0-.108.583.461.461,0,0,0,.273.446,3.57,3.57,0,0,1,1.055.731,3.6,3.6,0,0,1,.014,5.069l-.014.014L7.513,5.771A3.594,3.594,0,1,1,2.43.688L5.309-2.191a.461.461,0,0,0,.13-.386q-.035-.274-.046-.55a.459.459,0,0,0-.773-.317c-.038.035-.1.093-.135.13L1.457-.285A4.97,4.97,0,0,0,8.486,6.744ZM8.062.139A4.94,4.94,0,0,0,9.646,1.2a.455.455,0,0,0,.609-.278,2.859,2.859,0,0,0,.108-.583A.461.461,0,0,0,10.09-.1,3.569,3.569,0,0,1,9.035-.834,3.6,3.6,0,0,1,9.021-5.9l.014-.014,3.028-3.028a3.592,3.592,0,0,1,5.083,0,3.592,3.592,0,0,1,0,5.083L14.267-.984a.461.461,0,0,0-.13.386c.02.151.04.4.046.55a.459.459,0,0,0,.773.317c.038-.035.1-.093.135-.13l3.028-3.028a4.967,4.967,0,0,0,0-7.029,4.967,4.967,0,0,0-7.029,0L8.062-6.89A4.976,4.976,0,0,0,8.062.139Z" transform="translate(0 11.375)" fill="#1a1a1a"/>
</svg>
