<svg xmlns="http://www.w3.org/2000/svg" width="23.834" height="18.888" viewBox="0 0 23.834 18.888"><path d="M420.9,583.184a1.771,1.771,0,1,1-1.787,1.771A1.779,1.779,0,0,1,420.9,583.184Zm0,1.033a.738.738,0,1,0,.745.738.742.742,0,0,0-.745-.738m4.026-4.574a1.733,1.733,0,0,1,1.265.518l7.891,7.816a1.76,1.76,0,0,1,0,2.5l-7.6,7.53a1.8,1.8,0,0,1-2.528,0l-7.891-7.816a1.7,1.7,0,0,1-.523-1.252v-7.53a1.779,1.779,0,0,1,1.788-1.771Zm0,1.18h-7.6a.594.594,0,0,0-.6.59v7.53a.584.584,0,0,0,.174.417l7.891,7.817a.6.6,0,0,0,.843,0l7.6-7.53a.587.587,0,0,0,0-.835L425.347,581a.579.579,0,0,0-.422-.173m13.922,9.659-7.6,7.53a1.8,1.8,0,0,1-2.528,0l-.066-.066.843-.835.066.066a.6.6,0,0,0,.843,0l7.6-7.53a.587.587,0,0,0,0-.835L430.113,581a.575.575,0,0,0-.421-.173h-.728l-1.192-1.18h1.92a1.729,1.729,0,0,1,1.264.518l7.891,7.816A1.759,1.759,0,0,1,438.847,590.482Z" transform="translate(-415.536 -579.643)" fill="#1a1a1a"/></svg>