<svg xmlns="http://www.w3.org/2000/svg" width="19" height="13.281" viewBox="0 0 19 13.281">
  <path id="Path_4925" data-name="Path 4925" d="M176.918,615.728h-3.265v-1.484a.889.889,0,0,0-.891-.891h-1.781a.889.889,0,0,0-.891.891v1.484H158.512a.3.3,0,0,0-.3.3v.594a.3.3,0,0,0,.3.3H170.09V618.4a.889.889,0,0,0,.891.89h1.781a.889.889,0,0,0,.891-.89v-1.484h3.265a.3.3,0,0,0,.3-.3v-.594A.3.3,0,0,0,176.918,615.728Zm0-7.344h-9.2V606.9a.889.889,0,0,0-.891-.891h-1.781a.889.889,0,0,0-.891.891v1.484h-5.64a.3.3,0,0,0-.3.3v.594a.3.3,0,0,0,.3.3h5.64v1.484a.889.889,0,0,0,.891.89h1.781a.889.889,0,0,0,.891-.89v-1.484h9.2a.3.3,0,0,0,.3-.3v-.594A.3.3,0,0,0,176.918,608.384Z" transform="translate(-158.215 -606.009)"/>
</svg>
