<svg xmlns="http://www.w3.org/2000/svg" width="24" height="24" viewBox="0 0 24 24"><defs><style>.a{fill:#1a1a1a;}</style></defs><path class="a" d="M12.375-20.625a12,12,0,0,0-12,12,12,12,0,0,0,12,12,12,12,0,0,0,12-12A12,12,0,0,0,12.375-20.625Zm10.452,12A10.451,10.451,0,0,1,12.375,1.827,10.451,10.451,0,0,1,1.923-8.625,10.451,10.451,0,0,1,12.375-19.077,10.451,10.451,0,0,1,22.827-8.625Zm-10.04,4.19L18.351-10a.581.581,0,0,0,0-.823l-.344-.344a.581.581,0,0,0-.823,0l-4.81,4.819L7.56-11.165a.581.581,0,0,0-.823,0l-.344.344a.581.581,0,0,0,0,.823L11.959-4.43A.591.591,0,0,0,12.786-4.435Z" transform="translate(-0.375 20.625)"/></svg>