<svg xmlns="http://www.w3.org/2000/svg" width="26.035" height="24.426" viewBox="0 0 26.035 24.426"><g transform="translate(-973.482 -228.479)"><path d="M21052.072,21828.117a12.259,12.259,0,0,1-.426,1.346,4.45,4.45,0,0,1,.643-.5c.777-.516,1.256-.258,1.256-.258s.014.566-.764,1.08-1.174.539-1.332.275a.357.357,0,0,1-.027-.055,11.951,11.951,0,0,1-.646,1.26,4.136,4.136,0,0,1,.723-.381,1.279,1.279,0,0,1,1.279-.023s-.08.559-.93.924-1.246.316-1.357.027a.369.369,0,0,1-.018-.066,11.545,11.545,0,0,1-.85,1.131,3.908,3.908,0,0,1,.781-.242,1.285,1.285,0,0,1,1.264.209s-.172.537-1.07.74-1.277.082-1.34-.223a.407.407,0,0,1-.008-.068,11.168,11.168,0,0,1-1.014.957,3.925,3.925,0,0,1,.8-.094,1.3,1.3,0,0,1,1.209.438,1.317,1.317,0,0,1-1.174.533c-.918.037-1.273-.152-1.283-.465a.314.314,0,0,1,0-.061,10.659,10.659,0,0,1-1.137.748,3.977,3.977,0,0,1,.785.055c.91.131,1.121.652,1.121.652a1.3,1.3,0,0,1-1.246.311c-.91-.133-1.229-.383-1.187-.691a.36.36,0,0,1,.01-.049,10.823,10.823,0,0,1-1.219.52,4.3,4.3,0,0,1,.744.193c.873.3.994.85.994.85a1.279,1.279,0,0,1-1.277.076c-.873-.295-1.145-.6-1.055-.9a.261.261,0,0,1,.014-.035,10.272,10.272,0,0,1-2.865.408,10.511,10.511,0,0,1-2.8-.379.007.007,0,0,0,0,.006c.09.3-.182.6-1.057.9a1.281,1.281,0,0,1-1.277-.076s.121-.553,1-.85a4.637,4.637,0,0,1,.676-.184,10.228,10.228,0,0,1-1.141-.473c.033.3-.287.553-1.189.684a1.3,1.3,0,0,1-1.244-.311s.209-.521,1.119-.652a4.876,4.876,0,0,1,.674-.059,10.658,10.658,0,0,1-1.023-.664c-.025.3-.383.48-1.281.445a.7.7,0,1,1,.035-.971,4.478,4.478,0,0,1,.658.064,11.911,11.911,0,0,1-.887-.834c-.078.285-.461.4-1.334.2-.9-.2-1.068-.74-1.068-.74a1.282,1.282,0,0,1,1.264-.209,5.013,5.013,0,0,1,.631.18,11.241,11.241,0,0,1-.73-.977c-.125.266-.521.3-1.344-.053-.85-.365-.932-.924-.932-.924a1.28,1.28,0,0,1,1.279.023,4.756,4.756,0,0,1,.584.291,11.891,11.891,0,0,1-.551-1.092c-.168.238-.562.2-1.314-.3-.777-.514-.766-1.08-.766-1.08s.479-.258,1.256.258a4.895,4.895,0,0,1,.529.395,12.083,12.083,0,0,1-.363-1.178c-.2.2-.586.1-1.246-.533a1.444,1.444,0,0,1-.576-1.205s.514-.166,1.2.484a5.16,5.16,0,0,1,.461.49c-.074-.4-.129-.818-.164-1.236-.232.17-.594,0-1.145-.75a1.463,1.463,0,0,1-.367-1.291s.533-.068,1.1.7a5.465,5.465,0,0,1,.379.578c0-.076,0-.152,0-.229,0-.346.016-.691.045-1.031-.26.131-.588-.1-1.01-.945a1.473,1.473,0,0,1-.15-1.34s.537.029.965.885a5.275,5.275,0,0,1,.283.65,12.032,12.032,0,0,1,.254-1.246c-.279.09-.568-.2-.848-1.113a1.465,1.465,0,0,1,.074-1.346s.523.127.8,1.047a5.709,5.709,0,0,1,.174.709,11.526,11.526,0,0,1,.463-1.2h-.006c-.293.043-.531-.291-.656-1.25a1.453,1.453,0,0,1,.295-1.312s.494.221.619,1.18a5.315,5.315,0,0,1,.055.748,11.818,11.818,0,0,1,.664-1.115h-.016c-.295-.012-.475-.385-.439-1.352s.506-1.238.506-1.238.449.309.414,1.273a4.966,4.966,0,0,1-.072.764,11.434,11.434,0,0,1,.85-.992l-.023,0c-.289-.064-.4-.467-.211-1.412s.7-1.127.7-1.127a1.463,1.463,0,0,1,.2,1.332,5.194,5.194,0,0,1-.2.752,10.875,10.875,0,0,1,1.625-1.248c-.119-.279.113-.619.932-1.035s1.275-.107,1.275-.107-.047.563-.875.982c-.719.365-1.094.434-1.266.262a10.863,10.863,0,0,0-1.672,1.295,3.832,3.832,0,0,1,.818-.111.7.7,0,1,1,.047.971c-.908.049-1.266-.133-1.287-.439a11.3,11.3,0,0,0-.881,1.047,3.838,3.838,0,0,1,.8-.266,1.3,1.3,0,0,1,1.271.2s-.156.537-1.051.752-1.32.1-1.32-.205h0a9.915,9.915,0,0,0-.73,1.211,3.434,3.434,0,0,1,.736-.418,1.274,1.274,0,0,1,1.279-.041s-.074.561-.922.936-1.24.33-1.355.043c0,0,0-.008,0-.012a11.9,11.9,0,0,0-.508,1.35,3.757,3.757,0,0,1,.691-.566c.771-.525,1.254-.273,1.254-.273s.018.564-.754,1.09-1.168.553-1.328.291l-.012-.023a11.946,11.946,0,0,0-.281,1.449,3.842,3.842,0,0,1,.6-.7c.674-.658,1.189-.5,1.189-.5a1.444,1.444,0,0,1-.562,1.211c-.672.658-1.059.76-1.26.531l-.021-.029c-.029.344-.047.693-.047,1.043,0,.152,0,.3.01.455a3.758,3.758,0,0,1,.479-.811c.555-.771,1.088-.709,1.088-.709a1.466,1.466,0,0,1-.354,1.3c-.555.77-.918.939-1.152.752-.012-.01-.023-.02-.033-.029a12.155,12.155,0,0,0,.215,1.5,3.8,3.8,0,0,1,.34-.895c.418-.861.955-.9.955-.9a1.48,1.48,0,0,1-.135,1.342c-.42.861-.75,1.094-1.012.951a.193.193,0,0,1-.039-.025,11.708,11.708,0,0,0,.459,1.436,3.985,3.985,0,0,1,.188-.941c.271-.924.793-1.059.793-1.059a1.47,1.47,0,0,1,.088,1.346c-.271.924-.557,1.215-.84,1.123l-.039-.018a11.653,11.653,0,0,0,.684,1.316,4,4,0,0,1,.031-.949c.115-.961.607-1.187.607-1.187a1.455,1.455,0,0,1,.309,1.309c-.115.959-.35,1.3-.643,1.26l-.035-.008a11.565,11.565,0,0,0,.881,1.156,4.126,4.126,0,0,1-.123-.93c-.045-.965.4-1.279.4-1.279s.475.266.52,1.232-.129,1.342-.426,1.357h-.027a11.343,11.343,0,0,0,1.045.965,4.083,4.083,0,0,1-.268-.881,1.46,1.46,0,0,1,.184-1.334s.512.176.715,1.119.094,1.346-.2,1.414l-.02,0a11.028,11.028,0,0,0,1.176.754,4.1,4.1,0,0,1-.4-.811,1.473,1.473,0,0,1-.037-1.348s.531.078.887.971.314,1.309.041,1.43l-.014,0a10.718,10.718,0,0,0,1.268.52,4.068,4.068,0,0,1-.521-.715,1.469,1.469,0,0,1-.26-1.32s.537-.02,1.035.793.523,1.232.275,1.4l0,0a10.343,10.343,0,0,0,5.555-.01c-.236-.174-.2-.592.287-1.393s1.035-.793,1.035-.793a1.477,1.477,0,0,1-.26,1.32,4.259,4.259,0,0,1-.5.688,10.642,10.642,0,0,0,1.213-.5c-.26-.131-.295-.547.055-1.422.357-.893.889-.971.889-.971a1.471,1.471,0,0,1-.039,1.348,4.5,4.5,0,0,1-.369.762,11.038,11.038,0,0,0,1.1-.715c-.271-.084-.371-.488-.174-1.408.205-.943.715-1.119.715-1.119a1.463,1.463,0,0,1,.186,1.334,4.6,4.6,0,0,1-.236.809,11.227,11.227,0,0,0,.959-.9c-.279-.035-.443-.418-.4-1.354.045-.967.52-1.232.52-1.232s.445.314.4,1.279a4.7,4.7,0,0,1-.1.83,11.315,11.315,0,0,0,.789-1.049c-.279.014-.5-.334-.611-1.26a1.449,1.449,0,0,1,.309-1.309s.492.227.605,1.188a4.61,4.61,0,0,1,.043.83,11.653,11.653,0,0,0,.6-1.174c-.273.063-.549-.238-.811-1.129a1.473,1.473,0,0,1,.09-1.346s.521.135.791,1.059a4.665,4.665,0,0,1,.18.809,11.979,11.979,0,0,0,.4-1.262c-.258.105-.576-.141-.979-.967a1.472,1.472,0,0,1-.135-1.342s.535.037.955.9a4.864,4.864,0,0,1,.307.758,11.948,11.948,0,0,0,.18-1.307c-.236.146-.59-.041-1.119-.775a1.466,1.466,0,0,1-.354-1.3s.533-.062,1.088.709a4.658,4.658,0,0,1,.424.68c0-.107,0-.215,0-.324,0-.33-.016-.656-.041-.98-.211.182-.59.059-1.227-.564a1.444,1.444,0,0,1-.562-1.211s.516-.158,1.189.5a4.575,4.575,0,0,1,.523.584,12.4,12.4,0,0,0-.252-1.266c-.178.211-.572.156-1.295-.336-.771-.525-.752-1.09-.752-1.09s.48-.252,1.252.273a4.412,4.412,0,0,1,.6.471,11.842,11.842,0,0,0-.449-1.186c-.145.234-.541.25-1.328-.1-.846-.375-.922-.936-.922-.936a1.274,1.274,0,0,1,1.279.041,4.405,4.405,0,0,1,.66.346,11.782,11.782,0,0,0-.629-1.074c-.105.254-.494.34-1.322.141-.895-.215-1.062-.752-1.062-.752a1.286,1.286,0,0,1,1.268-.2,4.329,4.329,0,0,1,.7.219,11.044,11.044,0,0,0-.793-.941c-.061.271-.43.426-1.277.381a.7.7,0,1,1,.045-.971,4.282,4.282,0,0,1,.729.088,10.872,10.872,0,0,0-1.705-1.307c-.156.215-.531.16-1.295-.227-.826-.42-.875-.982-.875-.982s.449-.312,1.275.107c.779.4,1.027.721.947.992a11.047,11.047,0,0,1,1.807,1.4,4.242,4.242,0,0,1-.246-.859,1.463,1.463,0,0,1,.2-1.332s.508.182.7,1.127.08,1.348-.209,1.412a.285.285,0,0,1-.09.008,11.252,11.252,0,0,1,.943,1.119,4.294,4.294,0,0,1-.1-.895c-.035-.965.416-1.273.416-1.273s.471.271.506,1.238-.145,1.34-.439,1.352a.259.259,0,0,1-.088-.01,11.532,11.532,0,0,1,.742,1.266,4.4,4.4,0,0,1,.049-.889c.125-.959.619-1.18.619-1.18a1.456,1.456,0,0,1,.293,1.313c-.125.959-.363,1.293-.656,1.25a.328.328,0,0,1-.078-.021,12,12,0,0,1,.52,1.361,4.481,4.481,0,0,1,.191-.85c.281-.92.8-1.047.8-1.047a1.469,1.469,0,0,1,.072,1.346c-.281.92-.57,1.207-.852,1.111a.412.412,0,0,1-.066-.031,11.732,11.732,0,0,1,.283,1.412,4.609,4.609,0,0,1,.324-.783c.428-.855.965-.885.965-.885a1.475,1.475,0,0,1-.148,1.34c-.43.855-.762,1.084-1.023.939a.361.361,0,0,1-.053-.037c.031.355.051.713.051,1.074,0,.117,0,.234-.006.352a4.413,4.413,0,0,1,.443-.7c.563-.764,1.1-.7,1.1-.7a1.461,1.461,0,0,1-.369,1.291c-.562.766-.928.93-1.16.738a.408.408,0,0,1-.043-.039,12.2,12.2,0,0,1-.191,1.4,4.534,4.534,0,0,1,.549-.6c.68-.65,1.193-.484,1.193-.484a1.446,1.446,0,0,1-.574,1.205c-.682.648-1.068.744-1.268.514A.312.312,0,0,1,21052.072,21828.117Z" transform="translate(-20055 -21584.996)" fill="#363636" stroke="rgba(0,0,0,0)" stroke-miterlimit="10" stroke-width="1"/><g transform="translate(980.942 235.521)"><path d="M186.6,235.177l-4.106,4.24a.666.666,0,0,1-.962,0l-4.107-4.24a3.048,3.048,0,0,1,.21-4.412,2.9,2.9,0,0,1,3.96.289l.418.431.418-.431a2.9,2.9,0,0,1,3.96-.289A3.046,3.046,0,0,1,186.6,235.177Z" transform="translate(-176.578 -230.115)" fill="#db0962" stroke="rgba(0,0,0,0)" stroke-miterlimit="10" stroke-width="1"/></g></g></svg>