<svg xmlns="http://www.w3.org/2000/svg" width="45" height="36" viewBox="0 0 45 36"><path fill-rule="nonzero" d="M29.873-.075a7.047,7.047,0,0,0-6.342-4.05A6.967,6.967,0,0,0,17.027.27a5.844,5.844,0,0,0,1.948,11.355h10.8a5.85,5.85,0,0,0,.1-11.7Zm-.1,9.45h-10.8a3.595,3.595,0,0,1-.155-7.186,4.76,4.76,0,0,1,9.457.359,3.466,3.466,0,0,1,1.5-.373,3.6,3.6,0,1,1,0,7.2Zm-10.8,4.5c-.049,0-.1-.014-.148-.014l.3,1.519L13.167,14.2a1.1,1.1,0,0,0-1.153.478L8.625,19.725,5.243,14.67a1.12,1.12,0,0,0-1.153-.478l-5.962,1.181L-.691,9.41A1.13,1.13,0,0,0-1.17,8.257L-6.225,4.875-1.17,1.493A1.13,1.13,0,0,0-.691.34L-1.873-5.623,4.09-4.441a1.12,1.12,0,0,0,1.153-.478L8.625-9.975l3.382,5.055a1.12,1.12,0,0,0,1.153.478l7.615-1.512a1.123,1.123,0,0,0,.886-1.322,1.118,1.118,0,0,0-1.322-.886L13.462-6.8l-3.9-5.829a1.139,1.139,0,0,0-.935-.5,1.139,1.139,0,0,0-.935.5L3.788-6.8-3.089-8.161A1.1,1.1,0,0,0-4.1-7.852a1.129,1.129,0,0,0-.309,1.013L-3.047.038l-5.829,3.9a1.129,1.129,0,0,0-.5.935,1.129,1.129,0,0,0,.5.935l5.829,3.9-1.364,6.877A1.123,1.123,0,0,0-4.1,17.6a1.123,1.123,0,0,0,1.013.309l6.877-1.364,3.9,5.829a1.126,1.126,0,0,0,1.87,0l3.9-5.829,6.877,1.364a1.094,1.094,0,0,0,1.013-.309,1.129,1.129,0,0,0,.309-1.013l-.534-2.714ZM8.625-.49a5.33,5.33,0,0,1,3.783,1.568A8.063,8.063,0,0,1,13.955-.546,7.61,7.61,0,1,0,8.625,12.49a7.587,7.587,0,0,0,4.324-1.357A8.207,8.207,0,0,1,11.7,9.263,5.361,5.361,0,1,1,8.625-.49Z" transform="translate(9.375 13.125)"/></svg>