<svg xmlns="http://www.w3.org/2000/svg" width="45" height="39.375" viewBox="0 0 45 39.375"><path fill-rule="nonzero" d="M4.219,39.376A4.22,4.22,0,0,1,0,35.156V4.219A4.22,4.22,0,0,1,4.219,0H40.782A4.219,4.219,0,0,1,45,4.219V35.156a4.219,4.219,0,0,1-4.218,4.219ZM2.813,35.156a1.41,1.41,0,0,0,1.406,1.406H40.782a1.41,1.41,0,0,0,1.406-1.406V11.25H2.813ZM11.25,8.437H42.188V4.219a1.41,1.41,0,0,0-1.406-1.406H11.25ZM2.813,4.219V8.437H8.437V2.813H4.219A1.41,1.41,0,0,0,2.813,4.219ZM21.641,30.971,15.261,24.7a4.352,4.352,0,0,1,.325-6.522,4.694,4.694,0,0,1,6.152.422l.651.641.65-.641a4.691,4.691,0,0,1,6.152-.422,4.359,4.359,0,0,1,.325,6.522l-6.381,6.266a1.072,1.072,0,0,1-1.493,0Z"/></svg>